<?xml version="1.0" encoding="utf-8"?>
<!-- Generator: Avocode 2.5.3 - http://avocode.com -->
<svg height="69" width="375" xmlns:xlink="http://www.w3.org/1999/xlink" xmlns="http://www.w3.org/2000/svg" viewBox="0 0 375 69">
    <defs>
        <linearGradient y2="0%" y1="34%" x2="94%" x1="0%" id="gradient-1">
            <stop stop-color="#edc700" offset="0%" />
            <stop stop-color="#ffe900" offset="100%" />
        </linearGradient>
        <linearGradient y2="0%" y1="37%" x2="93%" x1="0%" id="gradient-2">
            <stop stop-color="#2d8034" offset="0%" />
            <stop stop-color="#2d8034" offset="0%" />
            <stop stop-color="#34a240" offset="100%" />
        </linearGradient>
        <linearGradient y2="0%" y1="36%" x2="93%" x1="0%" id="gradient-3">
            <stop stop-color="#f58c20" offset="0%" />
            <stop stop-color="#f6bc80" offset="100%" />
        </linearGradient>
        <linearGradient y2="100%" y1="0%" x2="0%" x1="0%" id="gradient-4">
            <stop stop-color="#fce0b7" offset="0%" />
            <stop stop-color="#f6bc80" offset="100%" />
        </linearGradient>
        <linearGradient y2="36%" y1="0%" x2="0%" x1="93%" id="gradient-5">
            <stop stop-color="#7f027f" offset="0%" />
            <stop stop-color="#943799" offset="100%" />
        </linearGradient>
        <linearGradient y2="37%" y1="0%" x2="0%" x1="93%" id="gradient-6">
            <stop stop-color="#7f027f" offset="0%" />
            <stop stop-color="#943799" offset="100%" />
        </linearGradient>
        <linearGradient y2="87%" y1="0%" x2="0%" x1="50%" id="gradient-7">
            <stop stop-color="#ee97a9" offset="0%" />
            <stop stop-color="#ee97a8" offset="0%" />
            <stop stop-color="#d85e6f" offset="100%" />
        </linearGradient>
        <linearGradient y2="0%" y1="34%" x2="94%" x1="0%" id="gradient-8">
            <stop stop-color="#edc700" offset="0%" />
            <stop stop-color="#ffe900" offset="100%" />
        </linearGradient>
        <linearGradient y2="0%" y1="34%" x2="94%" x1="0%" id="gradient-9">
            <stop stop-color="#f58c20" offset="0%" />
            <stop stop-color="#f6bc80" offset="100%" />
        </linearGradient>
        <linearGradient y2="0%" y1="37%" x2="93%" x1="0%" id="gradient-10">
            <stop stop-color="#2d8034" offset="0%" />
            <stop stop-color="#2d8034" offset="0%" />
            <stop stop-color="#34a240" offset="100%" />
        </linearGradient>
        <linearGradient y2="0%" y1="36%" x2="93%" x1="0%" id="gradient-11">
            <stop stop-color="#0000fd" offset="0%" />
            <stop stop-color="#4c64ff" offset="100%" />
        </linearGradient>
        <linearGradient y2="0%" y1="37%" x2="93%" x1="0%" id="gradient-12">
            <stop stop-color="#0000fd" offset="0%" />
            <stop stop-color="#4c64ff" offset="100%" />
        </linearGradient>
        <linearGradient y2="84%" y1="0%" x2="0%" x1="54%" id="gradient-13">
            <stop stop-color="#ee97a9" offset="0%" />
            <stop stop-color="#ee97a8" offset="0%" />
            <stop stop-color="#d85e6f" offset="100%" />
        </linearGradient>
        <linearGradient y2="87%" y1="0%" x2="0%" x1="50%" id="gradient-14">
            <stop stop-color="#ee97a9" offset="0%" />
            <stop stop-color="#ee97a8" offset="0%" />
            <stop stop-color="#d85e6f" offset="100%" />
        </linearGradient>
        <linearGradient y2="0%" y1="36%" x2="93%" x1="0%" id="gradient-15">
            <stop stop-color="#f58c20" offset="0%" />
            <stop stop-color="#f6bc80" offset="100%" />
        </linearGradient>
        <linearGradient y2="100%" y1="0%" x2="0%" x1="0%" id="gradient-16">
            <stop stop-color="#fce0b7" offset="0%" />
            <stop stop-color="#f6bc80" offset="100%" />
        </linearGradient>
        <linearGradient y2="36%" y1="0%" x2="0%" x1="93%" id="gradient-17">
            <stop stop-color="#7f027f" offset="0%" />
            <stop stop-color="#943799" offset="100%" />
        </linearGradient>
        <linearGradient y2="0%" y1="34%" x2="94%" x1="0%" id="gradient-18">
            <stop stop-color="#edc700" offset="0%" />
            <stop stop-color="#ffe900" offset="100%" />
        </linearGradient>
        <linearGradient y2="0%" y1="37%" x2="93%" x1="0%" id="gradient-19">
            <stop stop-color="#2d8034" offset="0%" />
            <stop stop-color="#2d8034" offset="0%" />
            <stop stop-color="#34a240" offset="100%" />
        </linearGradient>
        <linearGradient y2="0%" y1="36%" x2="93%" x1="0%" id="gradient-20">
            <stop stop-color="#0000fd" offset="0%" />
            <stop stop-color="#4c64ff" offset="100%" />
        </linearGradient>
        <linearGradient y2="87%" y1="0%" x2="0%" x1="50%" id="gradient-21">
            <stop stop-color="#ee97a9" offset="0%" />
            <stop stop-color="#ee97a8" offset="0%" />
            <stop stop-color="#d85e6f" offset="100%" />
        </linearGradient>
        <linearGradient y2="0%" y1="34%" x2="94%" x1="0%" id="gradient-22">
            <stop stop-color="#edc700" offset="0%" />
            <stop stop-color="#ffe900" offset="100%" />
        </linearGradient>
        <linearGradient y2="0%" y1="36%" x2="93%" x1="0%" id="gradient-23">
            <stop stop-color="#f58c20" offset="0%" />
            <stop stop-color="#f6bc80" offset="100%" />
        </linearGradient>
        <linearGradient y2="100%" y1="0%" x2="0%" x1="0%" id="gradient-24">
            <stop stop-color="#fce0b7" offset="0%" />
            <stop stop-color="#f6bc80" offset="100%" />
        </linearGradient>
        <linearGradient y2="36%" y1="0%" x2="0%" x1="93%" id="gradient-25">
            <stop stop-color="#7f027f" offset="0%" />
            <stop stop-color="#943799" offset="100%" />
        </linearGradient>
        <linearGradient y2="87%" y1="0%" x2="0%" x1="50%" id="gradient-26">
            <stop stop-color="#ee97a9" offset="0%" />
            <stop stop-color="#ee97a8" offset="0%" />
            <stop stop-color="#d85e6f" offset="100%" />
        </linearGradient>
        <linearGradient y2="0%" y1="34%" x2="94%" x1="0%" id="gradient-27">
            <stop stop-color="#edc700" offset="0%" />
            <stop stop-color="#ffe900" offset="100%" />
        </linearGradient>
        <linearGradient y2="0%" y1="34%" x2="94%" x1="0%" id="gradient-28">
            <stop stop-color="#f58c20" offset="0%" />
            <stop stop-color="#f6bc80" offset="100%" />
        </linearGradient>
        <linearGradient y2="0%" y1="37%" x2="93%" x1="0%" id="gradient-29">
            <stop stop-color="#2d8034" offset="0%" />
            <stop stop-color="#2d8034" offset="0%" />
            <stop stop-color="#34a240" offset="100%" />
        </linearGradient>
        <linearGradient y2="0%" y1="36%" x2="93%" x1="0%" id="gradient-30">
            <stop stop-color="#0000fd" offset="0%" />
            <stop stop-color="#4c64ff" offset="100%" />
        </linearGradient>
        <linearGradient y2="0%" y1="37%" x2="93%" x1="0%" id="gradient-31">
            <stop stop-color="#0000fd" offset="0%" />
            <stop stop-color="#4c64ff" offset="100%" />
        </linearGradient>
        <linearGradient y2="87%" y1="0%" x2="0%" x1="50%" id="gradient-32">
            <stop stop-color="#ee97a9" offset="0%" />
            <stop stop-color="#ee97a8" offset="0%" />
            <stop stop-color="#d85e6f" offset="100%" />
        </linearGradient>
        <linearGradient y2="0%" y1="36%" x2="93%" x1="0%" id="gradient-33">
            <stop stop-color="#f58c20" offset="0%" />
            <stop stop-color="#f6bc80" offset="100%" />
        </linearGradient>
        <linearGradient y2="100%" y1="0%" x2="0%" x1="0%" id="gradient-34">
            <stop stop-color="#fce0b7" offset="0%" />
            <stop stop-color="#f6bc80" offset="100%" />
        </linearGradient>
        <linearGradient y2="36%" y1="0%" x2="0%" x1="93%" id="gradient-35">
            <stop stop-color="#7f027f" offset="0%" />
            <stop stop-color="#943799" offset="100%" />
        </linearGradient>
        <linearGradient y2="0%" y1="34%" x2="94%" x1="0%" id="gradient-36">
            <stop stop-color="#edc700" offset="0%" />
            <stop stop-color="#ffe900" offset="100%" />
        </linearGradient>
        <linearGradient y2="0%" y1="36%" x2="93%" x1="0%" id="gradient-37">
            <stop stop-color="#0000fd" offset="0%" />
            <stop stop-color="#4c64ff" offset="100%" />
        </linearGradient>
        <linearGradient y2="87%" y1="0%" x2="0%" x1="50%" id="gradient-38">
            <stop stop-color="#ee97a9" offset="0%" />
            <stop stop-color="#ee97a8" offset="0%" />
            <stop stop-color="#d85e6f" offset="100%" />
        </linearGradient>
    </defs>
    <path fill="url(#gradient-1)" fill-rule="evenodd" d="M 164.83 5.52 C 164.82 5.4 164.76 5.29 164.66 5.23 L 155.87 -0.03 C 155.76 -0.09 155.64 -0.09 155.54 -0.03 L 146.33 5.44 C 146.22 5.53 146.17 5.63 146.17 5.73 C 146.17 5.73 146.2 16.62 146.2 16.62 C 146.2 16.74 146.26 16.85 146.36 16.91 L 155.16 22.17 C 155.21 22.2 155.27 22.22 155.33 22.22 C 155.35 22.22 155.38 22.21 155.41 22.21 C 155.44 22.2 155.47 22.18 155.49 22.17 L 164.69 16.7 C 164.8 16.64 164.86 16.53 164.86 16.41 L 164.83 5.52 L 164.83 5.52 Z M 164.83 5.52" />
    <path fill="#ffe900" fill-rule="evenodd" d="M 155.7 0.65 L 163.85 5.52 L 160.47 7.53 L 155.29 10.6 L 147.61 6.01 L 147.15 5.73 L 155.7 0.65 L 155.7 0.65 Z M 155.7 0.65" />
    <path fill="#eec800" fill-rule="evenodd" d="M 146.85 16.42 L 146.83 6.32 L 154.97 11.19 L 155 21.29 L 146.85 16.42 L 146.85 16.42 Z M 146.85 16.42" />
    <path fill="#ffe900" fill-rule="evenodd" d="M 155.65 21.3 L 155.62 11.19 L 164.17 6.1 L 164.2 16.22 L 155.65 21.3 L 155.65 21.3 Z M 155.65 21.3" />
    <path fill="url(#gradient-2)" fill-rule="evenodd" d="M 171.3 23.68 C 171.3 23.54 171.23 23.41 171.11 23.34 L 160.61 17.25 C 160.49 17.18 160.34 17.18 160.22 17.25 L 149.23 23.58 C 149.09 23.7 149.04 23.8 149.04 23.92 C 149.04 23.92 149.07 36.53 149.07 36.53 C 149.07 36.67 149.15 36.8 149.27 36.86 L 159.77 42.96 C 159.83 42.99 159.9 43.01 159.96 43.01 C 160 43.01 160.03 43.01 160.06 43 C 160.1 42.99 160.13 42.97 160.16 42.96 L 171.15 36.62 C 171.27 36.55 171.34 36.43 171.34 36.29 L 171.3 23.68 L 171.3 23.68 Z M 171.3 23.68" />
    <path fill="#34a240" fill-rule="evenodd" d="M 160.41 18.04 L 170.13 23.68 L 166.11 26 L 159.93 29.56 L 150.76 24.24 L 150.21 23.92 L 160.41 18.04 L 160.41 18.04 Z M 160.41 18.04" />
    <path fill="#2d8034" fill-rule="evenodd" d="M 149.85 36.3 L 149.82 24.6 L 159.54 30.24 L 159.57 41.94 L 149.85 36.3 L 149.85 36.3 Z M 149.85 36.3" />
    <path fill="#34a240" fill-rule="evenodd" d="M 160.35 41.95 L 160.32 30.24 L 170.52 24.36 L 170.56 36.06 L 160.35 41.95 L 160.35 41.95 Z M 160.35 41.95" />
    <path fill="url(#gradient-3)" fill-rule="evenodd" d="M 74.5 36.85 C 74.5 36.76 74.46 36.69 74.39 36.64 L 68.14 32.94 C 68.07 32.9 67.98 32.9 67.91 32.94 L 61.38 36.79 C 61.29 36.86 61.26 36.92 61.26 37 C 61.26 37 61.28 44.66 61.28 44.66 C 61.28 44.74 61.33 44.82 61.4 44.86 L 67.64 48.57 C 67.68 48.59 67.72 48.6 67.76 48.6 C 67.78 48.6 67.8 48.6 67.82 48.59 C 67.84 48.58 67.86 48.58 67.88 48.57 L 74.41 44.72 C 74.48 44.67 74.53 44.6 74.53 44.51 L 74.5 36.85 L 74.5 36.85 Z M 74.5 36.85" />
    <path fill="#f6bc80" fill-rule="evenodd" d="M 68.03 33.42 L 73.81 36.85 L 71.41 38.26 L 67.74 40.43 L 62.29 37.19 L 61.96 37 L 68.03 33.42 L 68.03 33.42 Z M 68.03 33.42" />
    <path fill="#f58c20" fill-rule="evenodd" d="M 61.75 44.52 L 61.73 37.41 L 67.51 40.84 L 67.53 47.95 L 61.75 44.52 L 61.75 44.52 Z M 61.75 44.52" />
    <path fill="url(#gradient-4)" fill-rule="evenodd" d="M 67.99 47.95 L 67.97 40.84 L 74.04 37.26 L 74.06 44.38 L 67.99 47.95 L 67.99 47.95 Z M 67.99 47.95" />
    <path fill="url(#gradient-5)" fill-rule="evenodd" d="M 127.85 39.82 C 127.85 39.72 127.79 39.62 127.71 39.57 L 120.05 35 C 119.96 34.95 119.85 34.95 119.76 35 L 111.74 39.75 C 111.64 39.84 111.6 39.92 111.6 40 C 111.6 40.01 111.63 49.46 111.63 49.46 C 111.63 49.56 111.68 49.66 111.77 49.71 L 119.43 54.28 C 119.48 54.31 119.53 54.32 119.57 54.32 C 119.6 54.32 119.62 54.32 119.65 54.31 C 119.68 54.3 119.7 54.3 119.72 54.28 L 127.73 49.53 C 127.82 49.48 127.88 49.38 127.88 49.28 L 127.85 39.82 L 127.85 39.82 Z M 127.85 39.82" />
    <path fill="#943799" fill-rule="evenodd" d="M 119.9 35.59 L 127 39.82 L 124.06 41.57 L 119.55 44.24 L 112.86 40.25 L 112.45 40.01 L 119.9 35.59 L 119.9 35.59 Z M 119.9 35.59" />
    <path fill="#7f027f" fill-rule="evenodd" d="M 112.19 49.29 L 112.17 40.51 L 119.26 44.75 L 119.29 53.52 L 112.19 49.29 L 112.19 49.29 Z M 112.19 49.29" />
    <path fill="#943799" fill-rule="evenodd" d="M 119.86 53.53 L 119.83 44.75 L 127.28 40.33 L 127.3 49.11 L 119.86 53.53 L 119.86 53.53 Z M 119.86 53.53" />
    <path fill="url(#gradient-6)" fill-rule="evenodd" d="M 191.67 8.3 C 191.67 8.18 191.6 8.07 191.5 8 L 182.13 2.6 C 182.02 2.54 181.89 2.54 181.78 2.6 L 171.98 8.22 C 171.86 8.32 171.81 8.41 171.81 8.52 C 171.81 8.52 171.84 19.69 171.84 19.69 C 171.84 19.82 171.91 19.93 172.01 19.99 L 181.38 25.39 C 181.44 25.42 181.49 25.44 181.56 25.44 C 181.59 25.44 181.62 25.44 181.65 25.43 C 181.68 25.42 181.71 25.41 181.73 25.39 L 191.53 19.78 C 191.64 19.72 191.7 19.6 191.7 19.48 L 191.67 8.3 L 191.67 8.3 Z M 191.67 8.3" />
    <path fill="#943799" fill-rule="evenodd" d="M 181.95 3.3 L 190.63 8.3 L 187.04 10.36 L 181.52 13.52 L 173.34 8.8 L 172.85 8.52 L 181.95 3.3 L 181.95 3.3 Z M 181.95 3.3" />
    <path fill="#7f027f" fill-rule="evenodd" d="M 172.53 19.49 L 172.51 9.12 L 181.18 14.12 L 181.2 24.49 L 172.53 19.49 L 172.53 19.49 Z M 172.53 19.49" />
    <path fill="#943799" fill-rule="evenodd" d="M 181.9 24.5 L 181.87 14.12 L 190.97 8.9 L 191 19.28 L 181.9 24.5 L 181.9 24.5 Z M 181.9 24.5" />
    <path fill="url(#gradient-7)" fill-rule="evenodd" d="M 142.15 14.61 C 142.15 14.49 142.09 14.38 141.99 14.33 L 133.19 9.28 C 133.09 9.23 132.97 9.23 132.86 9.28 L 123.66 14.52 C 123.54 14.62 123.5 14.71 123.5 14.8 C 123.5 14.81 123.53 25.23 123.53 25.23 C 123.53 25.35 123.59 25.46 123.69 25.51 L 132.49 30.56 C 132.54 30.58 132.6 30.6 132.65 30.6 C 132.68 30.6 132.71 30.6 132.74 30.59 C 132.77 30.58 132.79 30.57 132.82 30.56 L 142.02 25.31 C 142.12 25.26 142.18 25.15 142.18 25.03 L 142.15 14.61 L 142.15 14.61 Z M 142.15 14.61" />
    <path fill="#ff5a72" fill-rule="evenodd" d="M 133.03 9.94 L 141.17 14.6 L 137.8 16.53 L 132.62 19.47 L 124.94 15.07 L 124.48 14.81 L 133.03 9.94 L 133.03 9.94 Z M 133.03 9.94" />
    <path fill="#d4465b" fill-rule="evenodd" d="M 124.18 25.05 L 124.15 15.37 L 132.3 20.03 L 132.32 29.71 L 124.18 25.05 L 124.18 25.05 Z M 124.18 25.05" />
    <path fill="#eb4a62" fill-rule="evenodd" d="M 132.98 29.72 L 132.95 20.03 L 141.5 15.16 L 141.53 24.85 L 132.98 29.72 L 132.98 29.72 Z M 132.98 29.72" />
    <path fill="url(#gradient-8)" fill-rule="evenodd" d="M 111.55 24.32 C 111.55 24.21 111.5 24.12 111.41 24.06 L 103.75 19.49 C 103.66 19.44 103.55 19.44 103.46 19.49 L 95.45 24.24 C 95.34 24.33 95.3 24.41 95.3 24.5 C 95.3 24.5 95.33 33.95 95.33 33.95 C 95.33 34.06 95.38 34.15 95.47 34.21 L 103.14 38.78 C 103.18 38.8 103.23 38.82 103.28 38.82 C 103.3 38.82 103.33 38.81 103.35 38.81 C 103.38 38.8 103.4 38.79 103.42 38.78 L 111.44 34.03 C 111.53 33.97 111.58 33.88 111.58 33.77 L 111.55 24.32 L 111.55 24.32 Z M 111.55 24.32" />
    <path fill="#ffe900" fill-rule="evenodd" d="M 103.6 20.08 L 110.7 24.32 L 107.76 26.06 L 103.25 28.73 L 96.56 24.74 L 96.16 24.5 L 103.6 20.08 L 103.6 20.08 Z M 103.6 20.08" />
    <path fill="#eec800" fill-rule="evenodd" d="M 95.9 33.78 L 95.88 25.01 L 102.97 29.24 L 102.99 38.01 L 95.9 33.78 L 95.9 33.78 Z M 95.9 33.78" />
    <path fill="#ffe900" fill-rule="evenodd" d="M 103.56 38.02 L 103.54 29.24 L 110.98 24.82 L 111.01 33.61 L 103.56 38.02 L 103.56 38.02 Z M 103.56 38.02" />
    <path fill="url(#gradient-9)" fill-rule="evenodd" d="M 148.48 34.99 C 148.47 34.89 148.42 34.79 148.33 34.74 L 140.67 30.17 C 140.58 30.12 140.47 30.12 140.39 30.17 L 132.37 34.92 C 132.27 35 132.23 35.08 132.23 35.17 C 132.23 35.17 132.25 44.63 132.25 44.63 C 132.25 44.73 132.31 44.83 132.39 44.88 L 140.06 49.45 C 140.1 49.48 140.15 49.49 140.2 49.49 C 140.23 49.49 140.25 49.49 140.28 49.48 C 140.3 49.47 140.32 49.46 140.34 49.45 L 148.36 44.7 C 148.45 44.65 148.5 44.55 148.5 44.45 L 148.48 34.99 L 148.48 34.99 Z M 148.48 34.99" />
    <path fill="#f6bc80" fill-rule="evenodd" d="M 140.53 30.76 L 147.62 34.99 L 144.69 36.73 L 140.17 39.41 L 133.48 35.41 L 133.08 35.17 L 140.53 30.76 L 140.53 30.76 Z M 140.53 30.76" />
    <path fill="#f58c20" fill-rule="evenodd" d="M 132.82 44.46 L 132.8 35.68 L 139.89 39.91 L 139.91 48.69 L 132.82 44.46 L 132.82 44.46 Z M 132.82 44.46" />
    <path fill="#f6bc80" fill-rule="evenodd" d="M 140.48 48.69 L 140.46 39.91 L 147.91 35.5 L 147.93 44.28 L 140.48 48.69 L 140.48 48.69 Z M 140.48 48.69" />
    <path fill="url(#gradient-10)" fill-rule="evenodd" d="M 94.34 40.84 C 94.34 40.75 94.29 40.67 94.22 40.63 L 87.41 36.74 C 87.33 36.69 87.23 36.69 87.15 36.74 L 80.03 40.78 C 79.93 40.85 79.9 40.92 79.9 40.99 C 79.9 41 79.92 49.04 79.92 49.04 C 79.92 49.13 79.97 49.21 80.05 49.26 L 86.86 53.15 C 86.9 53.17 86.94 53.18 86.99 53.18 C 87.01 53.18 87.03 53.18 87.05 53.17 C 87.08 53.16 87.1 53.15 87.12 53.15 L 94.24 49.1 C 94.32 49.06 94.37 48.98 94.37 48.89 L 94.34 40.84 L 94.34 40.84 Z M 94.34 40.84" />
    <path fill="#34a240" fill-rule="evenodd" d="M 87.28 37.24 L 93.58 40.84 L 90.97 42.32 L 86.96 44.6 L 81.02 41.2 L 80.66 41 L 87.28 37.24 L 87.28 37.24 Z M 87.28 37.24" />
    <path fill="#2d8034" fill-rule="evenodd" d="M 80.43 48.9 L 80.41 41.43 L 86.71 45.03 L 86.73 52.5 L 80.43 48.9 L 80.43 48.9 Z M 80.43 48.9" />
    <path fill="#34a240" fill-rule="evenodd" d="M 87.24 52.5 L 87.22 45.03 L 93.84 41.27 L 93.86 48.74 L 87.24 52.5 L 87.24 52.5 Z M 87.24 52.5" />
    <path fill="url(#gradient-11)" fill-rule="evenodd" d="M 121.19 13.58 C 121.19 13.48 121.13 13.38 121.05 13.33 L 113.38 8.76 C 113.3 8.71 113.19 8.71 113.1 8.76 L 105.08 13.51 C 104.98 13.6 104.94 13.68 104.94 13.76 C 104.94 13.76 104.97 23.22 104.97 23.22 C 104.97 23.32 105.02 23.42 105.11 23.47 L 112.77 28.04 C 112.82 28.07 112.86 28.08 112.91 28.08 C 112.94 28.08 112.96 28.08 112.99 28.07 C 113.02 28.06 113.04 28.05 113.06 28.04 L 121.07 23.29 C 121.16 23.24 121.22 23.14 121.22 23.04 L 121.19 13.58 L 121.19 13.58 Z M 121.19 13.58" />
    <path fill="#4c64ff" fill-rule="evenodd" d="M 113.24 9.35 L 120.34 13.58 L 117.4 15.32 L 112.89 18 L 106.2 14.01 L 105.79 13.76 L 113.24 9.35 L 113.24 9.35 Z M 113.24 9.35" />
    <path fill="#0000fd" fill-rule="evenodd" d="M 105.53 23.05 L 105.51 14.27 L 112.6 18.5 L 112.63 27.28 L 105.53 23.05 L 105.53 23.05 Z M 105.53 23.05" />
    <path fill="#4c63ff" fill-rule="evenodd" d="M 113.2 27.29 L 113.17 18.5 L 120.62 14.09 L 120.64 22.87 L 113.2 27.29 L 113.2 27.29 Z M 113.2 27.29" />
    <path fill="url(#gradient-12)" fill-rule="evenodd" d="M 165.83 44.92 C 165.83 44.8 165.77 44.7 165.68 44.65 L 157.45 39.8 C 157.36 39.75 157.24 39.75 157.14 39.8 L 148.53 44.84 C 148.42 44.93 148.38 45.01 148.38 45.11 C 148.38 45.11 148.41 55.14 148.41 55.14 C 148.41 55.25 148.47 55.35 148.56 55.41 L 156.79 60.25 C 156.84 60.28 156.89 60.3 156.94 60.3 C 156.97 60.3 157 60.29 157.02 60.29 C 157.05 60.28 157.08 60.27 157.1 60.25 L 165.71 55.21 C 165.8 55.16 165.86 55.06 165.86 54.95 L 165.83 44.92 L 165.83 44.92 Z M 165.83 44.92" />
    <path fill="#4c64ff" fill-rule="evenodd" d="M 157.29 40.43 L 164.92 44.92 L 161.76 46.76 L 156.92 49.6 L 149.73 45.36 L 149.3 45.11 L 157.29 40.43 L 157.29 40.43 Z M 157.29 40.43" />
    <path fill="#0000fd" fill-rule="evenodd" d="M 149.02 54.96 L 148.99 45.65 L 156.61 50.14 L 156.64 59.45 L 149.02 54.96 L 149.02 54.96 Z M 149.02 54.96" />
    <path fill="#4c63ff" fill-rule="evenodd" d="M 157.25 59.45 L 157.22 50.14 L 165.22 45.46 L 165.25 54.77 L 157.25 59.45 L 157.25 59.45 Z M 157.25 59.45" />
    <path fill="url(#gradient-13)" fill-rule="evenodd" d="M 188.79 32.62 C 188.79 32.51 188.74 32.41 188.65 32.36 L 180.99 27.75 C 180.9 27.7 180.79 27.7 180.7 27.75 L 172.69 32.54 C 172.58 32.63 172.54 32.71 172.54 32.8 C 172.54 32.8 172.57 42.33 172.57 42.33 C 172.57 42.44 172.62 42.54 172.71 42.59 L 180.37 47.2 C 180.42 47.23 180.47 47.24 180.52 47.24 C 180.54 47.24 180.57 47.24 180.59 47.23 C 180.62 47.22 180.64 47.21 180.66 47.2 L 188.68 42.41 C 188.77 42.36 188.82 42.26 188.82 42.15 L 188.79 32.62 L 188.79 32.62 Z M 188.79 32.62" />
    <path fill="#ff5a72" fill-rule="evenodd" d="M 180.84 28.35 L 187.94 32.62 L 185 34.37 L 180.49 37.07 L 173.8 33.04 L 173.4 32.8 L 180.84 28.35 L 180.84 28.35 Z M 180.84 28.35" />
    <path fill="#d4465b" fill-rule="evenodd" d="M 173.14 42.16 L 173.11 33.31 L 180.21 37.58 L 180.23 46.43 L 173.14 42.16 L 173.14 42.16 Z M 173.14 42.16" />
    <path fill="#eb4a62" fill-rule="evenodd" d="M 180.8 46.43 L 180.77 37.58 L 188.22 33.13 L 188.25 41.98 L 180.8 46.43 L 180.8 46.43 Z M 180.8 46.43" />
    <path fill="url(#gradient-14)" fill-rule="evenodd" d="M 89.5 23.14 C 89.5 23.05 89.45 22.97 89.37 22.93 L 82.56 19.04 C 82.48 18.99 82.39 18.99 82.31 19.04 L 75.18 23.08 C 75.09 23.15 75.06 23.22 75.06 23.3 C 75.06 23.3 75.08 31.34 75.08 31.34 C 75.08 31.43 75.13 31.51 75.2 31.56 L 82.02 35.45 C 82.06 35.47 82.1 35.48 82.14 35.48 C 82.17 35.48 82.19 35.48 82.21 35.47 C 82.23 35.46 82.25 35.46 82.27 35.45 L 89.4 31.4 C 89.48 31.36 89.52 31.28 89.52 31.19 L 89.5 23.14 L 89.5 23.14 Z M 89.5 23.14" />
    <path fill="#ff5a72" fill-rule="evenodd" d="M 82.43 19.54 L 88.74 23.14 L 86.13 24.62 L 82.12 26.9 L 76.17 23.5 L 75.81 23.3 L 82.43 19.54 L 82.43 19.54 Z M 82.43 19.54" />
    <path fill="#d4465b" fill-rule="evenodd" d="M 75.58 31.2 L 75.56 23.73 L 81.87 27.33 L 81.89 34.8 L 75.58 31.2 L 75.58 31.2 Z M 75.58 31.2" />
    <path fill="#eb4a62" fill-rule="evenodd" d="M 82.4 34.8 L 82.37 27.33 L 88.99 23.58 L 89.02 31.05 L 82.4 34.8 L 82.4 34.8 Z M 82.4 34.8" />
    <path fill="url(#gradient-15)" fill-rule="evenodd" d="M 327.5 36.85 C 327.5 36.76 327.46 36.69 327.39 36.64 L 321.14 32.94 C 321.07 32.9 320.98 32.9 320.91 32.94 L 314.38 36.79 C 314.29 36.86 314.26 36.92 314.26 37 C 314.26 37 314.28 44.66 314.28 44.66 C 314.28 44.74 314.33 44.82 314.4 44.86 L 320.64 48.57 C 320.68 48.59 320.72 48.6 320.76 48.6 C 320.78 48.6 320.8 48.6 320.82 48.59 C 320.84 48.58 320.86 48.58 320.88 48.57 L 327.41 44.72 C 327.48 44.67 327.53 44.6 327.53 44.51 L 327.5 36.85 L 327.5 36.85 Z M 327.5 36.85" />
    <path fill="#f6bc80" fill-rule="evenodd" d="M 321.03 33.42 L 326.81 36.85 L 324.41 38.26 L 320.74 40.43 L 315.29 37.19 L 314.96 37 L 321.03 33.42 L 321.03 33.42 Z M 321.03 33.42" />
    <path fill="#f58c20" fill-rule="evenodd" d="M 314.75 44.52 L 314.73 37.41 L 320.51 40.84 L 320.53 47.95 L 314.75 44.52 L 314.75 44.52 Z M 314.75 44.52" />
    <path fill="url(#gradient-16)" fill-rule="evenodd" d="M 320.99 47.95 L 320.97 40.84 L 327.04 37.26 L 327.06 44.38 L 320.99 47.95 L 320.99 47.95 Z M 320.99 47.95" />
    <path fill="url(#gradient-17)" fill-rule="evenodd" d="M 380.85 39.82 C 380.85 39.72 380.79 39.62 380.71 39.57 L 373.05 35 C 372.96 34.95 372.85 34.95 372.76 35 L 364.74 39.75 C 364.64 39.84 364.6 39.92 364.6 40 C 364.6 40.01 364.63 49.46 364.63 49.46 C 364.63 49.56 364.68 49.66 364.77 49.71 L 372.43 54.28 C 372.48 54.31 372.53 54.32 372.57 54.32 C 372.6 54.32 372.62 54.32 372.65 54.31 C 372.68 54.3 372.7 54.3 372.72 54.28 L 380.73 49.53 C 380.82 49.48 380.88 49.38 380.88 49.28 L 380.85 39.82 L 380.85 39.82 Z M 380.85 39.82" />
    <path fill="#943799" fill-rule="evenodd" d="M 372.9 35.59 L 380 39.82 L 377.06 41.57 L 372.55 44.24 L 365.86 40.25 L 365.45 40.01 L 372.9 35.59 L 372.9 35.59 Z M 372.9 35.59" />
    <path fill="#7f027f" fill-rule="evenodd" d="M 365.19 49.29 L 365.17 40.51 L 372.26 44.75 L 372.29 53.52 L 365.19 49.29 L 365.19 49.29 Z M 365.19 49.29" />
    <path fill="#943799" fill-rule="evenodd" d="M 372.86 53.53 L 372.83 44.75 L 380.28 40.33 L 380.3 49.11 L 372.86 53.53 L 372.86 53.53 Z M 372.86 53.53" />
    <path fill="url(#gradient-18)" fill-rule="evenodd" d="M 364.55 24.32 C 364.55 24.21 364.5 24.12 364.41 24.06 L 356.75 19.49 C 356.66 19.44 356.55 19.44 356.46 19.49 L 348.45 24.24 C 348.34 24.33 348.3 24.41 348.3 24.5 C 348.3 24.5 348.33 33.95 348.33 33.95 C 348.33 34.06 348.38 34.15 348.47 34.21 L 356.14 38.78 C 356.18 38.8 356.23 38.82 356.28 38.82 C 356.3 38.82 356.33 38.81 356.35 38.81 C 356.38 38.8 356.4 38.79 356.42 38.78 L 364.44 34.03 C 364.53 33.97 364.58 33.88 364.58 33.77 L 364.55 24.32 L 364.55 24.32 Z M 364.55 24.32" />
    <path fill="#ffe900" fill-rule="evenodd" d="M 356.6 20.08 L 363.7 24.32 L 360.76 26.06 L 356.25 28.73 L 349.56 24.74 L 349.16 24.5 L 356.6 20.08 L 356.6 20.08 Z M 356.6 20.08" />
    <path fill="#eec800" fill-rule="evenodd" d="M 348.9 33.78 L 348.88 25.01 L 355.97 29.24 L 355.99 38.01 L 348.9 33.78 L 348.9 33.78 Z M 348.9 33.78" />
    <path fill="#ffe900" fill-rule="evenodd" d="M 356.56 38.02 L 356.54 29.24 L 363.98 24.82 L 364.01 33.61 L 356.56 38.02 L 356.56 38.02 Z M 356.56 38.02" />
    <path fill="url(#gradient-19)" fill-rule="evenodd" d="M 347.34 40.84 C 347.34 40.75 347.29 40.67 347.22 40.63 L 340.41 36.74 C 340.33 36.69 340.23 36.69 340.15 36.74 L 333.03 40.78 C 332.93 40.85 332.9 40.92 332.9 40.99 C 332.9 41 332.92 49.04 332.92 49.04 C 332.92 49.13 332.97 49.21 333.05 49.26 L 339.86 53.15 C 339.9 53.17 339.94 53.18 339.99 53.18 C 340.01 53.18 340.03 53.18 340.05 53.17 C 340.08 53.16 340.1 53.15 340.12 53.15 L 347.24 49.1 C 347.32 49.06 347.37 48.98 347.37 48.89 L 347.34 40.84 L 347.34 40.84 Z M 347.34 40.84" />
    <path fill="#34a240" fill-rule="evenodd" d="M 340.28 37.24 L 346.58 40.84 L 343.97 42.32 L 339.96 44.6 L 334.02 41.2 L 333.66 41 L 340.28 37.24 L 340.28 37.24 Z M 340.28 37.24" />
    <path fill="#2d8034" fill-rule="evenodd" d="M 333.43 48.9 L 333.41 41.43 L 339.71 45.03 L 339.73 52.5 L 333.43 48.9 L 333.43 48.9 Z M 333.43 48.9" />
    <path fill="#34a240" fill-rule="evenodd" d="M 340.24 52.5 L 340.22 45.03 L 346.84 41.27 L 346.86 48.74 L 340.24 52.5 L 340.24 52.5 Z M 340.24 52.5" />
    <path fill="url(#gradient-20)" fill-rule="evenodd" d="M 374.19 13.58 C 374.19 13.48 374.13 13.38 374.05 13.33 L 366.38 8.76 C 366.3 8.71 366.19 8.71 366.1 8.76 L 358.08 13.51 C 357.98 13.6 357.94 13.68 357.94 13.76 C 357.94 13.76 357.97 23.22 357.97 23.22 C 357.97 23.32 358.02 23.42 358.11 23.47 L 365.77 28.04 C 365.82 28.07 365.86 28.08 365.91 28.08 C 365.94 28.08 365.96 28.08 365.99 28.07 C 366.02 28.06 366.04 28.05 366.06 28.04 L 374.07 23.29 C 374.16 23.24 374.22 23.14 374.22 23.04 L 374.19 13.58 L 374.19 13.58 Z M 374.19 13.58" />
    <path fill="#4c64ff" fill-rule="evenodd" d="M 366.24 9.35 L 373.34 13.58 L 370.4 15.32 L 365.89 18 L 359.2 14.01 L 358.79 13.76 L 366.24 9.35 L 366.24 9.35 Z M 366.24 9.35" />
    <path fill="#0000fd" fill-rule="evenodd" d="M 358.53 23.05 L 358.51 14.27 L 365.6 18.5 L 365.63 27.28 L 358.53 23.05 L 358.53 23.05 Z M 358.53 23.05" />
    <path fill="#4c63ff" fill-rule="evenodd" d="M 366.2 27.29 L 366.17 18.5 L 373.62 14.09 L 373.64 22.87 L 366.2 27.29 L 366.2 27.29 Z M 366.2 27.29" />
    <path fill="url(#gradient-21)" fill-rule="evenodd" d="M 342.5 23.14 C 342.5 23.05 342.45 22.97 342.37 22.93 L 335.56 19.04 C 335.48 18.99 335.39 18.99 335.31 19.04 L 328.18 23.08 C 328.09 23.15 328.06 23.22 328.06 23.3 C 328.06 23.3 328.08 31.34 328.08 31.34 C 328.08 31.43 328.13 31.51 328.2 31.56 L 335.02 35.45 C 335.06 35.47 335.1 35.48 335.14 35.48 C 335.17 35.48 335.19 35.48 335.21 35.47 C 335.23 35.46 335.25 35.46 335.27 35.45 L 342.4 31.4 C 342.48 31.36 342.52 31.28 342.52 31.19 L 342.5 23.14 L 342.5 23.14 Z M 342.5 23.14" />
    <path fill="#ff5a72" fill-rule="evenodd" d="M 335.43 19.54 L 341.74 23.14 L 339.13 24.62 L 335.12 26.9 L 329.17 23.5 L 328.81 23.3 L 335.43 19.54 L 335.43 19.54 Z M 335.43 19.54" />
    <path fill="#d4465b" fill-rule="evenodd" d="M 328.58 31.2 L 328.56 23.73 L 334.87 27.33 L 334.89 34.8 L 328.58 31.2 L 328.58 31.2 Z M 328.58 31.2" />
    <path fill="#eb4a62" fill-rule="evenodd" d="M 335.4 34.8 L 335.37 27.33 L 341.99 23.58 L 342.02 31.05 L 335.4 34.8 L 335.4 34.8 Z M 335.4 34.8" />
    <path fill="url(#gradient-22)" fill-rule="evenodd" d="M 310.53 7.51 C 310.53 7.37 310.46 7.25 310.35 7.18 L 300.43 1.25 C 300.32 1.18 300.17 1.18 300.06 1.25 L 289.69 7.42 C 289.55 7.53 289.5 7.63 289.5 7.75 C 289.5 7.75 289.54 20.02 289.54 20.02 C 289.54 20.16 289.61 20.28 289.72 20.35 L 299.64 26.28 C 299.7 26.32 299.76 26.33 299.82 26.33 C 299.85 26.33 299.88 26.33 299.92 26.32 C 299.95 26.31 299.98 26.3 300.01 26.28 L 310.38 20.11 C 310.5 20.05 310.57 19.92 310.57 19.78 L 310.53 7.51 L 310.53 7.51 Z M 310.53 7.51" />
    <path fill="#ffe900" fill-rule="evenodd" d="M 300.24 2.02 L 309.43 7.51 L 305.62 9.77 L 299.79 13.24 L 291.13 8.06 L 290.61 7.75 L 300.24 2.02 L 300.24 2.02 Z M 300.24 2.02" />
    <path fill="#eec800" fill-rule="evenodd" d="M 290.27 19.8 L 290.24 8.41 L 299.42 13.9 L 299.45 25.29 L 290.27 19.8 L 290.27 19.8 Z M 290.27 19.8" />
    <path fill="#ffe900" fill-rule="evenodd" d="M 300.19 25.3 L 300.16 13.9 L 309.79 8.17 L 309.83 19.57 L 300.19 25.3 L 300.19 25.3 Z M 300.19 25.3" />
    <path fill="url(#gradient-23)" fill-rule="evenodd" d="M 208.72 42.82 C 208.72 42.73 208.67 42.64 208.59 42.59 L 201.56 38.42 C 201.48 38.37 201.38 38.37 201.29 38.42 L 193.93 42.76 C 193.84 42.84 193.8 42.91 193.8 42.99 C 193.8 42.99 193.83 51.63 193.83 51.63 C 193.83 51.72 193.87 51.81 193.95 51.86 L 200.99 56.03 C 201.04 56.06 201.08 56.07 201.12 56.07 C 201.15 56.07 201.17 56.07 201.19 56.06 C 201.22 56.05 201.24 56.04 201.26 56.03 L 208.62 51.69 C 208.7 51.64 208.75 51.56 208.75 51.46 L 208.72 42.82 L 208.72 42.82 Z M 208.72 42.82" />
    <path fill="#f6bc80" fill-rule="evenodd" d="M 201.42 38.96 L 207.94 42.82 L 205.24 44.41 L 201.1 46.86 L 194.95 43.21 L 194.58 42.99 L 201.42 38.96 L 201.42 38.96 Z M 201.42 38.96" />
    <path fill="#f58c20" fill-rule="evenodd" d="M 194.35 51.47 L 194.33 43.45 L 200.84 47.32 L 200.86 55.34 L 194.35 51.47 L 194.35 51.47 Z M 194.35 51.47" />
    <path fill="url(#gradient-24)" fill-rule="evenodd" d="M 201.38 55.34 L 201.36 47.32 L 208.2 43.29 L 208.22 51.31 L 201.38 55.34 L 201.38 55.34 Z M 201.38 55.34" />
    <path fill="url(#gradient-25)" fill-rule="evenodd" d="M 268.85 46.18 C 268.85 46.06 268.79 45.95 268.69 45.89 L 260.06 40.74 C 259.96 40.68 259.83 40.68 259.73 40.74 L 250.7 46.09 C 250.58 46.19 250.54 46.28 250.54 46.38 C 250.54 46.38 250.57 57.04 250.57 57.04 C 250.57 57.16 250.63 57.27 250.73 57.32 L 259.36 62.48 C 259.42 62.51 259.47 62.52 259.53 62.52 C 259.55 62.52 259.58 62.52 259.61 62.51 C 259.64 62.5 259.66 62.49 259.69 62.48 L 268.72 57.12 C 268.82 57.06 268.88 56.95 268.88 56.83 L 268.85 46.18 L 268.85 46.18 Z M 268.85 46.18" />
    <path fill="#943799" fill-rule="evenodd" d="M 259.89 41.41 L 267.89 46.18 L 264.58 48.14 L 259.5 51.15 L 251.95 46.65 L 251.5 46.38 L 259.89 41.41 L 259.89 41.41 Z M 259.89 41.41" />
    <path fill="#7f027f" fill-rule="evenodd" d="M 251.21 56.85 L 251.18 46.96 L 259.18 51.72 L 259.2 61.62 L 251.21 56.85 L 251.21 56.85 Z M 251.21 56.85" />
    <path fill="#943799" fill-rule="evenodd" d="M 259.84 61.62 L 259.82 51.72 L 268.21 46.75 L 268.24 56.65 L 259.84 61.62 L 259.84 61.62 Z M 259.84 61.62" />
    <path fill="url(#gradient-26)" fill-rule="evenodd" d="M 284.97 17.75 C 284.97 17.62 284.9 17.5 284.79 17.44 L 274.87 11.76 C 274.76 11.69 274.62 11.69 274.5 11.76 L 264.13 17.66 C 264 17.77 263.95 17.87 263.95 17.98 C 263.95 17.98 263.98 29.73 263.98 29.73 C 263.98 29.86 264.05 29.98 264.16 30.05 L 274.08 35.73 C 274.14 35.76 274.2 35.78 274.27 35.78 C 274.3 35.78 274.33 35.78 274.36 35.77 C 274.4 35.76 274.42 35.74 274.45 35.73 L 284.83 29.82 C 284.94 29.76 285.01 29.64 285.01 29.51 L 284.97 17.75 L 284.97 17.75 Z M 284.97 17.75" />
    <path fill="#ff5a72" fill-rule="evenodd" d="M 274.69 12.49 L 283.87 17.75 L 280.07 19.92 L 274.23 23.24 L 265.57 18.28 L 265.05 17.98 L 274.69 12.49 L 274.69 12.49 Z M 274.69 12.49" />
    <path fill="#d4465b" fill-rule="evenodd" d="M 264.71 29.52 L 264.69 18.61 L 273.86 23.87 L 273.89 34.78 L 264.71 29.52 L 264.71 29.52 Z M 264.71 29.52" />
    <path fill="#eb4a62" fill-rule="evenodd" d="M 274.63 34.79 L 274.6 23.87 L 284.24 18.38 L 284.27 29.3 L 274.63 34.79 L 274.63 34.79 Z M 274.63 34.79" />
    <path fill="url(#gradient-27)" fill-rule="evenodd" d="M 250.49 28.7 C 250.48 28.58 250.42 28.47 250.33 28.41 L 241.69 23.26 C 241.59 23.2 241.47 23.2 241.37 23.26 L 232.33 28.62 C 232.22 28.71 232.17 28.8 232.17 28.9 C 232.17 28.9 232.2 39.56 232.2 39.56 C 232.2 39.68 232.26 39.79 232.36 39.84 L 241 45 C 241.05 45.03 241.1 45.04 241.16 45.04 C 241.19 45.04 241.21 45.04 241.24 45.03 C 241.27 45.02 241.3 45.01 241.32 45 L 250.36 39.64 C 250.46 39.58 250.52 39.47 250.52 39.36 L 250.49 28.7 L 250.49 28.7 Z M 250.49 28.7" />
    <path fill="#ffe900" fill-rule="evenodd" d="M 241.53 23.93 L 249.52 28.7 L 246.21 30.66 L 241.13 33.67 L 233.59 29.17 L 233.13 28.9 L 241.53 23.93 L 241.53 23.93 Z M 241.53 23.93" />
    <path fill="#eec800" fill-rule="evenodd" d="M 232.84 39.37 L 232.81 29.48 L 240.81 34.24 L 240.84 44.14 L 232.84 39.37 L 232.84 39.37 Z M 232.84 39.37" />
    <path fill="#ffe900" fill-rule="evenodd" d="M 241.48 44.14 L 241.45 34.24 L 249.84 29.27 L 249.87 39.17 L 241.48 44.14 L 241.48 44.14 Z M 241.48 44.14" />
    <path fill="url(#gradient-28)" fill-rule="evenodd" d="M 292.1 40.73 C 292.1 40.61 292.04 40.5 291.94 40.45 L 283.31 35.29 C 283.21 35.23 283.08 35.23 282.98 35.29 L 273.95 40.65 C 273.83 40.74 273.79 40.83 273.79 40.93 C 273.79 40.94 273.82 51.59 273.82 51.59 C 273.82 51.71 273.88 51.82 273.98 51.88 L 282.61 57.03 C 282.67 57.06 282.72 57.07 282.77 57.07 C 282.8 57.07 282.83 57.07 282.86 57.06 C 282.89 57.05 282.91 57.04 282.94 57.03 L 291.97 51.67 C 292.07 51.62 292.13 51.51 292.13 51.39 L 292.1 40.73 L 292.1 40.73 Z M 292.1 40.73" />
    <path fill="#f6bc80" fill-rule="evenodd" d="M 283.14 35.96 L 291.14 40.73 L 287.83 42.69 L 282.74 45.71 L 275.2 41.21 L 274.75 40.94 L 283.14 35.96 L 283.14 35.96 Z M 283.14 35.96" />
    <path fill="#f58c20" fill-rule="evenodd" d="M 274.46 51.4 L 274.43 41.51 L 282.42 46.28 L 282.45 56.17 L 274.46 51.4 L 274.46 51.4 Z M 274.46 51.4" />
    <path fill="#f6bc80" fill-rule="evenodd" d="M 283.09 56.17 L 283.07 46.28 L 291.46 41.3 L 291.49 51.2 L 283.09 56.17 L 283.09 56.17 Z M 283.09 56.17" />
    <path fill="url(#gradient-29)" fill-rule="evenodd" d="M 312.13 29.27 C 312.13 29.17 312.08 29.08 311.99 29.03 L 304.31 24.64 C 304.22 24.59 304.11 24.59 304.03 24.64 L 296 29.2 C 295.89 29.28 295.85 29.36 295.85 29.44 C 295.85 29.44 295.88 38.51 295.88 38.51 C 295.88 38.61 295.93 38.7 296.02 38.75 L 303.7 43.14 C 303.74 43.16 303.79 43.18 303.84 43.18 C 303.86 43.18 303.89 43.17 303.91 43.17 C 303.94 43.16 303.96 43.15 303.98 43.14 L 312.02 38.58 C 312.1 38.53 312.16 38.44 312.16 38.34 L 312.13 29.27 L 312.13 29.27 Z M 312.13 29.27" />
    <path fill="#34a240" fill-rule="evenodd" d="M 304.17 25.21 L 311.28 29.27 L 308.33 30.94 L 303.81 33.5 L 297.11 29.67 L 296.71 29.44 L 304.17 25.21 L 304.17 25.21 Z M 304.17 25.21" />
    <path fill="#2d8034" fill-rule="evenodd" d="M 296.45 38.35 L 296.42 29.93 L 303.53 33.99 L 303.55 42.41 L 296.45 38.35 L 296.45 38.35 Z M 296.45 38.35" />
    <path fill="#34a240" fill-rule="evenodd" d="M 304.12 42.41 L 304.1 33.99 L 311.56 29.76 L 311.59 38.18 L 304.12 42.41 L 304.12 42.41 Z M 304.12 42.41" />
    <path fill="url(#gradient-30)" fill-rule="evenodd" d="M 261.34 16.6 C 261.34 16.48 261.28 16.37 261.19 16.32 L 252.55 11.16 C 252.45 11.1 252.33 11.1 252.23 11.16 L 243.19 16.52 C 243.08 16.61 243.03 16.7 243.03 16.8 C 243.03 16.81 243.06 27.46 243.06 27.46 C 243.06 27.58 243.12 27.69 243.22 27.75 L 251.86 32.9 C 251.91 32.93 251.96 32.94 252.02 32.94 C 252.05 32.94 252.07 32.94 252.1 32.93 C 252.13 32.92 252.16 32.91 252.18 32.9 L 261.22 27.54 C 261.32 27.49 261.38 27.38 261.38 27.26 L 261.34 16.6 L 261.34 16.6 Z M 261.34 16.6" />
    <path fill="#4c64ff" fill-rule="evenodd" d="M 252.39 11.83 L 260.38 16.6 L 257.07 18.56 L 251.99 21.58 L 244.45 17.08 L 243.99 16.81 L 252.39 11.83 L 252.39 11.83 Z M 252.39 11.83" />
    <path fill="#0000fd" fill-rule="evenodd" d="M 243.7 27.27 L 243.67 17.38 L 251.67 22.15 L 251.7 32.04 L 243.7 27.27 L 243.7 27.27 Z M 243.7 27.27" />
    <path fill="#4c63ff" fill-rule="evenodd" d="M 252.34 32.04 L 252.31 22.15 L 260.7 17.17 L 260.73 27.07 L 252.34 32.04 L 252.34 32.04 Z M 252.34 32.04" />
    <path fill="url(#gradient-31)" fill-rule="evenodd" d="M 311.66 51.92 C 311.66 51.79 311.6 51.68 311.49 51.62 L 302.22 46.15 C 302.11 46.09 301.98 46.09 301.87 46.15 L 292.17 51.83 C 292.04 51.93 291.99 52.03 291.99 52.13 C 291.99 52.14 292.02 63.44 292.02 63.44 C 292.02 63.56 292.09 63.68 292.2 63.74 L 301.47 69.2 C 301.53 69.24 301.59 69.25 301.65 69.25 C 301.68 69.25 301.71 69.25 301.74 69.24 C 301.77 69.23 301.8 69.22 301.82 69.2 L 311.53 63.52 C 311.63 63.46 311.7 63.35 311.7 63.22 L 311.66 51.92 L 311.66 51.92 Z M 311.66 51.92" />
    <path fill="#4c64ff" fill-rule="evenodd" d="M 302.04 46.86 L 310.63 51.92 L 307.08 54 L 301.61 57.2 L 293.51 52.42 L 293.03 52.14 L 302.04 46.86 L 302.04 46.86 Z M 302.04 46.86" />
    <path fill="#0000fd" fill-rule="evenodd" d="M 292.71 63.24 L 292.68 52.74 L 301.27 57.8 L 301.3 68.29 L 292.71 63.24 L 292.71 63.24 Z M 292.71 63.24" />
    <path fill="#4c63ff" fill-rule="evenodd" d="M 301.99 68.3 L 301.96 57.8 L 310.97 52.52 L 311 63.02 L 301.99 68.3 L 301.99 68.3 Z M 301.99 68.3" />
    <path fill="url(#gradient-32)" fill-rule="evenodd" d="M 225.63 27.38 C 225.63 27.27 225.57 27.18 225.49 27.13 L 217.81 22.75 C 217.72 22.7 217.61 22.7 217.52 22.75 L 209.49 27.31 C 209.39 27.39 209.35 27.46 209.35 27.55 C 209.35 27.55 209.37 36.62 209.37 36.62 C 209.37 36.72 209.43 36.81 209.52 36.86 L 217.19 41.24 C 217.24 41.27 217.29 41.28 217.34 41.28 C 217.36 41.28 217.39 41.28 217.41 41.27 C 217.44 41.26 217.46 41.26 217.48 41.24 L 225.51 36.69 C 225.6 36.64 225.66 36.54 225.66 36.44 L 225.63 27.38 L 225.63 27.38 Z M 225.63 27.38" />
    <path fill="#ff5a72" fill-rule="evenodd" d="M 217.66 23.32 L 224.77 27.38 L 221.83 29.05 L 217.31 31.61 L 210.61 27.78 L 210.2 27.55 L 217.66 23.32 L 217.66 23.32 Z M 217.66 23.32" />
    <path fill="#d4465b" fill-rule="evenodd" d="M 209.94 36.46 L 209.92 28.04 L 217.03 32.1 L 217.05 40.51 L 209.94 36.46 L 209.94 36.46 Z M 209.94 36.46" />
    <path fill="#eb4a62" fill-rule="evenodd" d="M 217.62 40.52 L 217.6 32.1 L 225.06 27.86 L 225.08 36.28 L 217.62 40.52 L 217.62 40.52 Z M 217.62 40.52" />
    <path fill="url(#gradient-33)" fill-rule="evenodd" d="M -43.28 42.82 C -43.28 42.73 -43.33 42.64 -43.41 42.59 L -50.44 38.42 C -50.52 38.37 -50.62 38.37 -50.71 38.42 L -58.07 42.76 C -58.16 42.84 -58.2 42.91 -58.2 42.99 C -58.2 42.99 -58.17 51.63 -58.17 51.63 C -58.17 51.72 -58.13 51.81 -58.05 51.86 L -51.01 56.03 C -50.96 56.06 -50.92 56.07 -50.88 56.07 C -50.85 56.07 -50.83 56.07 -50.81 56.06 C -50.78 56.05 -50.76 56.04 -50.74 56.03 L -43.38 51.69 C -43.3 51.64 -43.25 51.56 -43.25 51.46 L -43.28 42.82 L -43.28 42.82 Z M -43.28 42.82" />
    <path fill="#f6bc80" fill-rule="evenodd" d="M -50.58 38.96 L -44.06 42.82 L -46.76 44.41 L -50.9 46.86 L -57.05 43.21 L -57.42 42.99 L -50.58 38.96 L -50.58 38.96 Z M -50.58 38.96" />
    <path fill="#f58c20" fill-rule="evenodd" d="M -57.65 51.47 L -57.67 43.45 L -51.16 47.32 L -51.14 55.34 L -57.65 51.47 L -57.65 51.47 Z M -57.65 51.47" />
    <path fill="url(#gradient-34)" fill-rule="evenodd" d="M -50.62 55.34 L -50.64 47.32 L -43.8 43.29 L -43.78 51.31 L -50.62 55.34 L -50.62 55.34 Z M -50.62 55.34" />
    <path fill="url(#gradient-35)" fill-rule="evenodd" d="M 16.85 46.18 C 16.85 46.06 16.79 45.95 16.69 45.89 L 8.06 40.74 C 7.96 40.68 7.83 40.68 7.73 40.74 L -1.3 46.09 C -1.42 46.19 -1.46 46.28 -1.46 46.38 C -1.46 46.38 -1.43 57.04 -1.43 57.04 C -1.43 57.16 -1.37 57.27 -1.27 57.32 L 7.36 62.48 C 7.42 62.51 7.47 62.52 7.53 62.52 C 7.55 62.52 7.58 62.52 7.61 62.51 C 7.64 62.5 7.66 62.49 7.69 62.48 L 16.72 57.12 C 16.82 57.06 16.88 56.95 16.88 56.83 L 16.85 46.18 L 16.85 46.18 Z M 16.85 46.18" />
    <path fill="#7f027f" fill-rule="evenodd" d="M -0.79 56.85 L -0.82 46.96 L 7.18 51.72 L 7.2 61.62 L -0.79 56.85 L -0.79 56.85 Z M -0.79 56.85" />
    <path fill="#943799" fill-rule="evenodd" d="M 7.84 61.62 L 7.82 51.72 L 16.21 46.75 L 16.24 56.65 L 7.84 61.62 L 7.84 61.62 Z M 7.84 61.62" />
    <path fill="url(#gradient-36)" fill-rule="evenodd" d="M -1.51 28.7 C -1.52 28.58 -1.58 28.47 -1.67 28.41 L -10.31 23.26 C -10.41 23.2 -10.53 23.2 -10.63 23.26 L -19.67 28.62 C -19.78 28.71 -19.83 28.8 -19.83 28.9 C -19.83 28.9 -19.8 39.56 -19.8 39.56 C -19.8 39.68 -19.74 39.79 -19.64 39.84 L -11 45 C -10.95 45.03 -10.9 45.04 -10.84 45.04 C -10.81 45.04 -10.79 45.04 -10.76 45.03 C -10.73 45.02 -10.7 45.01 -10.68 45 L -1.64 39.64 C -1.54 39.58 -1.48 39.47 -1.48 39.36 L -1.51 28.7 L -1.51 28.7 Z M -1.51 28.7" />
    <path fill="#ffe900" fill-rule="evenodd" d="M -10.47 23.93 L -2.48 28.7 L -5.79 30.66 L -10.87 33.67 L -18.41 29.17 L -18.87 28.9 L -10.47 23.93 L -10.47 23.93 Z M -10.47 23.93" />
    <path fill="#eec800" fill-rule="evenodd" d="M -19.16 39.37 L -19.19 29.48 L -11.19 34.24 L -11.16 44.14 L -19.16 39.37 L -19.16 39.37 Z M -19.16 39.37" />
    <path fill="#ffe900" fill-rule="evenodd" d="M -10.52 44.14 L -10.55 34.24 L -2.16 29.27 L -2.13 39.17 L -10.52 44.14 L -10.52 44.14 Z M -10.52 44.14" />
    <path fill="url(#gradient-37)" fill-rule="evenodd" d="M 9.34 16.6 C 9.34 16.48 9.28 16.37 9.19 16.32 L 0.55 11.16 C 0.45 11.1 0.33 11.1 0.23 11.16 L -8.81 16.52 C -8.92 16.61 -8.97 16.7 -8.97 16.8 C -8.97 16.81 -8.94 27.46 -8.94 27.46 C -8.94 27.58 -8.88 27.69 -8.78 27.75 L -0.14 32.9 C -0.09 32.93 -0.04 32.94 0.02 32.94 C 0.05 32.94 0.07 32.94 0.1 32.93 C 0.13 32.92 0.16 32.91 0.18 32.9 L 9.22 27.54 C 9.32 27.49 9.38 27.38 9.38 27.26 L 9.34 16.6 L 9.34 16.6 Z M 9.34 16.6" />
    <path fill="#4c64ff" fill-rule="evenodd" d="M 0.39 11.83 L 8.38 16.6 L 5.07 18.56 L -0.01 21.58 L -7.55 17.08 L -8.01 16.81 L 0.39 11.83 L 0.39 11.83 Z M 0.39 11.83" />
    <path fill="#0000fd" fill-rule="evenodd" d="M -8.3 27.27 L -8.33 17.38 L -0.33 22.15 L -0.3 32.04 L -8.3 27.27 L -8.3 27.27 Z M -8.3 27.27" />
    <path fill="#4c63ff" fill-rule="evenodd" d="M 0.34 32.04 L 0.31 22.15 L 8.7 17.17 L 8.73 27.07 L 0.34 32.04 L 0.34 32.04 Z M 0.34 32.04" />
    <path fill="url(#gradient-38)" fill-rule="evenodd" d="M -26.37 27.38 C -26.37 27.27 -26.43 27.18 -26.51 27.13 L -34.19 22.75 C -34.28 22.7 -34.39 22.7 -34.48 22.75 L -42.51 27.31 C -42.61 27.39 -42.65 27.46 -42.65 27.55 C -42.65 27.55 -42.63 36.62 -42.63 36.62 C -42.63 36.72 -42.57 36.81 -42.48 36.86 L -34.81 41.24 C -34.76 41.27 -34.71 41.28 -34.66 41.28 C -34.64 41.28 -34.61 41.28 -34.59 41.27 C -34.56 41.26 -34.54 41.26 -34.52 41.24 L -26.49 36.69 C -26.4 36.64 -26.34 36.54 -26.34 36.44 L -26.37 27.38 L -26.37 27.38 Z M -26.37 27.38" />
    <path fill="#ff5a72" fill-rule="evenodd" d="M -34.34 23.32 L -27.23 27.38 L -30.17 29.05 L -34.69 31.61 L -41.39 27.78 L -41.8 27.55 L -34.34 23.32 L -34.34 23.32 Z M -34.34 23.32" />
    <path fill="#d4465b" fill-rule="evenodd" d="M -42.06 36.46 L -42.08 28.04 L -34.97 32.1 L -34.95 40.51 L -42.06 36.46 L -42.06 36.46 Z M -42.06 36.46" />
    <path fill="#eb4a62" fill-rule="evenodd" d="M -34.38 40.52 L -34.4 32.1 L -26.94 27.86 L -26.92 36.28 L -34.38 40.52 L -34.38 40.52 Z M -34.38 40.52" />
</svg>