<?xml version="1.0" encoding="utf-8"?>
<!-- Generator: Avocode 2.5.3 - http://avocode.com -->
<svg height="95" width="92" xmlns:xlink="http://www.w3.org/1999/xlink" xmlns="http://www.w3.org/2000/svg" viewBox="0 0 92 95">
    <path fill="#9fa8ad" fill-rule="evenodd" d="M 91.66 62.9 L 9.24 63.49 C 4.26 63.55 0.26 67.61 0.26 72.59 L 0.33 83.34 C 0.39 88.32 4.46 92.31 9.43 92.31 L 91.86 91.72 L 91.66 62.9 L 91.66 62.9 Z M 91.66 62.9" />
    <path fill="#1aa386" fill-rule="evenodd" d="M 88.14 65.87 L 88.3 88.74 L 68.65 88.88 L 68.48 66.02 L 88.14 65.87 L 88.14 65.87 Z M 88.14 65.87" />
    <path fill="#39b39b" fill-rule="evenodd" d="M 66.13 66.05 L 66.3 88.92 L 46.64 89.06 L 46.48 66.19 L 66.13 66.05 L 66.13 66.05 Z M 66.13 66.05" />
    <path fill="#39b39b" fill-rule="evenodd" d="M 44.19 66.23 L 44.36 89.09 L 24.7 89.23 L 24.54 66.37 L 44.19 66.23 L 44.19 66.23 Z M 44.19 66.23" />
    <path fill="#bcbfc2" fill-rule="evenodd" d="M 76.66 26.47 L 5.9 68.73 C 1.64 71.28 0.2 76.85 2.75 81.11 L 8.26 90.35 C 10.81 94.61 16.38 96.05 20.64 93.49 L 91.4 51.17 L 76.66 26.47 L 76.66 26.47 Z M 76.66 26.47" />
    <path fill="#ffca0d" fill-rule="evenodd" d="M 75.13 30.8 L 86.86 50.43 L 69.99 60.51 L 58.26 40.89 L 75.13 30.8 L 75.13 30.8 Z M 75.13 30.8" />
    <path fill="#f0c949" fill-rule="evenodd" d="M 56.27 42.06 L 68.01 61.68 L 51.14 71.77 L 39.4 52.15 L 56.27 42.06 L 56.27 42.06 Z M 56.27 42.06" />
    <path fill="#f2cd56" fill-rule="evenodd" d="M 37.42 53.32 L 49.15 72.94 L 32.28 83.03 L 20.55 63.41 L 37.42 53.32 L 37.42 53.32 Z M 37.42 53.32" />
    <path fill="#d2d3d3" fill-rule="evenodd" d="M 43.9 3.01 L 1.64 73.77 C -0.92 78.03 0.46 83.6 4.78 86.16 L 14.02 91.66 C 18.28 94.21 23.85 92.84 26.4 88.51 L 68.66 17.76 L 43.9 3.01 L 43.9 3.01 Z M 43.9 3.01" />
    <path fill="#bf4028" fill-rule="evenodd" d="M 44.64 7.59 L 64.28 19.31 L 54.21 36.18 L 34.57 24.47 L 44.64 7.59 L 44.64 7.59 Z M 44.64 7.59" />
    <path fill="#e65336" fill-rule="evenodd" d="M 33.38 26.45 L 53.01 38.17 L 42.94 55.05 L 23.3 43.33 L 33.38 26.45 L 33.38 26.45 Z M 33.38 26.45" />
    <path fill="#e37d39" fill-rule="evenodd" d="M 22.11 45.31 L 41.74 57.03 L 31.67 73.91 L 12.04 62.19 L 22.11 45.31 L 22.11 45.31 Z M 22.11 45.31" />
    <path fill="#edf0f2" fill-rule="evenodd" d="M 0.26 0.33 L 0.26 82.75 C 0.26 87.73 4.32 91.79 9.3 91.79 L 20.05 91.79 C 25.03 91.79 29.09 87.73 29.09 82.75 L 29.09 0.33 L 0.26 0.33 L 0.26 0.33 Z M 0.26 0.33" />
    <path fill="#0f656e" fill-rule="evenodd" d="M 3.21 3.87 L 26.08 3.87 L 26.08 23.52 L 3.21 23.52 L 3.21 3.87 Z M 3.21 3.87" />
    <path fill="#0f656e" fill-rule="evenodd" d="M 3.21 25.81 L 26.08 25.81 L 26.08 45.47 L 3.21 45.47 L 3.21 25.81 Z M 3.21 25.81" />
    <path fill="#23819c" fill-rule="evenodd" d="M 3.21 47.83 L 26.08 47.83 L 26.08 67.48 L 3.21 67.48 L 3.21 47.83 Z M 3.21 47.83" />
    <path fill="#141915" fill-rule="evenodd" d="M 14.68 83.8 C 15.91 83.8 16.9 82.8 16.9 81.57 C 16.9 80.34 15.91 79.34 14.68 79.34 C 13.45 79.34 12.45 80.34 12.45 81.57 C 12.45 82.8 13.45 83.8 14.68 83.8 Z M 14.68 83.8" />
</svg>