<?xml version="1.0" encoding="utf-8"?>
<!-- Generator: Avocode 2.5.3 - http://avocode.com -->
<svg height="96" width="97" xmlns:xlink="http://www.w3.org/1999/xlink" xmlns="http://www.w3.org/2000/svg" viewBox="0 0 97 96">
    <path fill="#edf0f2" fill-rule="evenodd" d="M 26.11 22.2 L 56.06 3.17 L 79.75 41 L 49.8 60.03 L 26.11 22.2 L 26.11 22.2 Z M 26.11 22.2" />
    <path fill="#e65336" fill-rule="evenodd" d="M 29.75 22.94 L 55.13 6.82 L 72.03 33.79 L 46.64 49.92 L 29.75 22.94 L 29.75 22.94 Z M 29.75 22.94" />
    <path fill="#edf0f2" fill-rule="evenodd" d="M 50.08 9.65 L 84.24 0.73 L 95.31 44.04 L 61.15 52.97 L 50.08 9.65 L 50.08 9.65 Z M 50.08 9.65" />
    <path fill="#f0c949" fill-rule="evenodd" d="M 52.99 11.2 L 82.23 3.63 L 90.2 34.52 L 60.97 42.08 L 52.99 11.2 L 52.99 11.2 Z M 52.99 11.2" />
    <path fill="#527f99" fill-rule="evenodd" d="M 8.33 46.02 L 17.83 46.02 L 17.83 49.64 L 8.33 49.64 L 8.33 46.02 Z M 8.33 46.02" />
    <path fill="#2c424f" fill-rule="evenodd" d="M 64.64 52.85 C 64.64 51.1 63.28 49.64 61.52 49.64 L 4.14 49.64 C 2.43 49.64 1.01 51.04 1.01 52.85 L 1.01 59.04 L 64.59 59.04 L 64.59 52.85 L 64.64 52.85 Z M 64.64 52.85" />
    <path fill="#2c424f" fill-rule="evenodd" d="M 1.01 90.57 C 1.01 92.3 2.37 93.75 4.14 93.75 L 61.52 93.75 C 63.22 93.75 64.64 92.36 64.64 90.57 L 64.64 87.96 L 1.01 87.96 L 1.01 90.57 L 1.01 90.57 Z M 1.01 90.57" />
    <path fill="#bbc2c6" fill-rule="evenodd" d="M 1.01 58.32 L 64.64 58.32 L 64.64 87.96 L 1.01 87.96 L 1.01 58.32 Z M 1.01 58.32" />
    <path fill="#e65336" fill-rule="evenodd" d="M 9.79 53.98 L 14.18 53.98 L 14.18 55.42 L 9.79 55.42 L 9.79 53.98 Z M 9.79 53.98" />
    <path fill="#edf0f2" fill-rule="evenodd" d="M 33.2 90.01 C 42.69 90.01 50.39 82.4 50.39 73.02 C 50.39 63.63 42.69 56.02 33.2 56.02 C 23.71 56.02 16.01 63.63 16.01 73.02 C 16.01 82.4 23.71 90.01 33.2 90.01 Z M 33.2 90.01" />
    <path fill="#2c424f" fill-rule="evenodd" d="M 33.18 89.5 C 42.29 89.5 49.68 82.11 49.68 73 C 49.68 63.89 42.29 56.5 33.18 56.5 C 24.07 56.5 16.68 63.89 16.68 73 C 16.68 82.11 24.07 89.5 33.18 89.5 Z M 33.18 89.5" />
    <path fill="#bbc2c6" fill-rule="evenodd" d="M 33.22 83.38 C 38.74 83.38 43.22 78.9 43.22 73.38 C 43.22 67.86 38.74 63.38 33.22 63.38 C 27.7 63.38 23.22 67.86 23.22 73.38 C 23.22 78.9 27.7 83.38 33.22 83.38 Z M 33.22 83.38" />
</svg>