<?xml version="1.0" encoding="utf-8"?>
<!-- Generator: Avocode 2.5.3 - http://avocode.com -->
<svg height="89" width="235" xmlns:xlink="http://www.w3.org/1999/xlink" xmlns="http://www.w3.org/2000/svg" viewBox="0 0 235 89">
    <path fill="#74bcaf" fill-rule="evenodd" d="M 233.63 13.65 L 188.21 48.38 L 161.29 37.69 L 233.63 13.65 Z M 233.63 13.65" />
    <path fill="#3b8174" fill-rule="evenodd" d="M 188.21 48.38 L 188.65 67.68 L 233.63 13.65 L 188.21 48.38 Z M 188.21 48.38" />
    <path fill="#4c9284" fill-rule="evenodd" d="M 196.54 53.69 L 188.65 67.68 L 200.67 53.62 L 196.54 53.69 Z M 196.54 53.69" />
    <path fill="#74bcaf" fill-rule="evenodd" d="M 233.63 13.65 L 216.52 73.64 L 196.54 53.69 L 233.63 13.65 Z M 233.63 13.65" />
    <path stroke-linejoin="miter" stroke-linecap="butt" stroke-dasharray="8,6" stroke-width="2" stroke="#cc3735" fill="none" fill-rule="evenodd" d="M 0.5 1.5 C 53.5 6.5 -7.34 62.15 43.8 42.82 C 64.5 35 105.5 67.32 90 81.32 C 74.5 95.32 38.17 84.79 62.5 53.5 C 83.5 26.5 156.5 85 161.5 66 C 166.5 47 146.05 51.82 144 59 C 141.95 66.18 142.76 78.97 155.23 81.32 C 167.7 83.67 181.35 77.19 187.5 69.5" />
</svg>