<?xml version="1.0" encoding="UTF-8" standalone="no"?>
<svg width="375px" height="69px" viewBox="0 0 375 69" version="1.1" xmlns="http://www.w3.org/2000/svg" xmlns:xlink="http://www.w3.org/1999/xlink" xmlns:sketch="http://www.bohemiancoding.com/sketch/ns">
    <!-- Generator: Sketch 3.5.2 (25235) - http://www.bohemiancoding.com/sketch -->
    <title>Color Feed</title>
    <desc>Created with Sketch.</desc>
    <defs>
        <linearGradient x1="-3.61616821%" y1="69.4266188%" x2="100%" y2="32.165042%" id="linearGradient-1">
            <stop stop-color="#EDC700" offset="0%"></stop>
            <stop stop-color="#FFE900" offset="100%"></stop>
        </linearGradient>
        <linearGradient x1="-2.89943479%" y1="70.9218787%" x2="133.926799%" y2="16.6776797%" id="linearGradient-2">
            <stop stop-color="#2D8034" offset="0%"></stop>
            <stop stop-color="#2D8034" offset="0%"></stop>
            <stop stop-color="#34A240" offset="100%"></stop>
        </linearGradient>
        <linearGradient x1="0%" y1="70.4212763%" x2="100%" y2="32.5395324%" id="linearGradient-3">
            <stop stop-color="#F58C20" offset="0%"></stop>
            <stop stop-color="#F6BC80" offset="100%"></stop>
        </linearGradient>
        <linearGradient x1="50%" y1="0%" x2="50%" y2="100%" id="linearGradient-4">
            <stop stop-color="#FCE0B7" offset="0%"></stop>
            <stop stop-color="#F6BC80" offset="100%"></stop>
        </linearGradient>
        <linearGradient x1="164.714027%" y1="6.96738749%" x2="0%" y2="68.7992013%" id="linearGradient-5">
            <stop stop-color="#7F027F" offset="0%"></stop>
            <stop stop-color="#943799" offset="100%"></stop>
        </linearGradient>
        <linearGradient x1="164.714027%" y1="3.97468894%" x2="0%" y2="70.1065898%" id="linearGradient-6">
            <stop stop-color="#7F027F" offset="0%"></stop>
            <stop stop-color="#943799" offset="100%"></stop>
        </linearGradient>
        <linearGradient x1="85.2970122%" y1="1.23579016%" x2="47.3698425%" y2="66.1062661%" id="linearGradient-7">
            <stop stop-color="#EE97A9" offset="0%"></stop>
            <stop stop-color="#EE97A8" offset="0%"></stop>
            <stop stop-color="#D85E6F" offset="100%"></stop>
        </linearGradient>
        <linearGradient x1="-3.61616821%" y1="69.5407249%" x2="100%" y2="32.0602849%" id="linearGradient-8">
            <stop stop-color="#EDC700" offset="0%"></stop>
            <stop stop-color="#FFE900" offset="100%"></stop>
        </linearGradient>
        <linearGradient x1="-9.02973594%" y1="70.8230684%" x2="133.408706%" y2="18.369484%" id="linearGradient-9">
            <stop stop-color="#F58C20" offset="0%"></stop>
            <stop stop-color="#F6BC80" offset="100%"></stop>
        </linearGradient>
        <linearGradient x1="-2.89943479%" y1="71.6137867%" x2="133.926799%" y2="15.5756764%" id="linearGradient-10">
            <stop stop-color="#2D8034" offset="0%"></stop>
            <stop stop-color="#2D8034" offset="0%"></stop>
            <stop stop-color="#34A240" offset="100%"></stop>
        </linearGradient>
        <linearGradient x1="0%" y1="69.6549505%" x2="129.778581%" y2="19.3012172%" id="linearGradient-11">
            <stop stop-color="#0000FD" offset="0%"></stop>
            <stop stop-color="#4C64FF" offset="100%"></stop>
        </linearGradient>
        <linearGradient x1="0%" y1="70.1572932%" x2="129.778581%" y2="18.5166154%" id="linearGradient-12">
            <stop stop-color="#0000FD" offset="0%"></stop>
            <stop stop-color="#4C64FF" offset="100%"></stop>
        </linearGradient>
        <linearGradient x1="85.2970122%" y1="5.74712788%" x2="47.3698425%" y2="64.6162223%" id="linearGradient-13">
            <stop stop-color="#EE97A9" offset="0%"></stop>
            <stop stop-color="#EE97A8" offset="0%"></stop>
            <stop stop-color="#D85E6F" offset="100%"></stop>
        </linearGradient>
        <linearGradient x1="85.2970122%" y1="0.88559959%" x2="47.3698425%" y2="66.22193%" id="linearGradient-14">
            <stop stop-color="#EE97A9" offset="0%"></stop>
            <stop stop-color="#EE97A8" offset="0%"></stop>
            <stop stop-color="#D85E6F" offset="100%"></stop>
        </linearGradient>
    </defs>
    <g id="Form" stroke="none" stroke-width="1" fill="none" fill-rule="evenodd" sketch:type="MSPage">
        <g id="Form-1.1" sketch:type="MSArtboardGroup" transform="translate(0.000000, -448.000000)">
            <g id="Color-Feed" sketch:type="MSLayerGroup" transform="translate(-195.000000, 445.000000)">
                <g id="Colored-Cubes" transform="translate(252.630901, 0.395161)" sketch:type="MSShapeGroup">
                    <g id="Yellow" transform="translate(97.923527, 13.815159) rotate(-63.000000) translate(-97.923527, -13.815159) translate(88.538178, 2.525415)">
                        <path d="M18.6566295,5.6001001 C18.6543192,5.47701608 18.5933866,5.36790536 18.4943351,5.30844448 L9.69665358,0.0452645956 C9.59500305,-0.0150881986 9.46996132,-0.0150881986 9.36831073,0.0452645956 L0.165759698,5.51536834 C0.0462047939,5.6140734 0,5.70564316 0,5.80791588 C0,5.80910509 0.030321896,16.6966897 0.030321896,16.6966897 C0.030321896,16.8162061 0.0924095881,16.9279925 0.192616235,16.9871561 L8.99145289,22.2515252 C9.04458843,22.281553 9.0997454,22.2967155 9.15634626,22.2967155 C9.18435789,22.2967155 9.21265835,22.2931479 9.24095881,22.2851206 C9.27359094,22.2747149 9.29727091,22.2643093 9.32095087,22.2515252 L18.5258121,16.7802322 C18.6271739,16.7198795 18.6892616,16.6083903 18.6892616,16.4876847 L18.6566295,5.6001001 L18.6566295,5.6001001 Z" id="Shape" fill="url(#linearGradient-1)"></path>
                        <path d="M9.53060509,0.725794377 L17.6773766,5.59891088 L14.3047154,7.60452639 L9.12573561,10.6834108 L1.44274469,6.08559819 L0.98011919,5.80910509 L9.53060509,0.725794377 L9.53060509,0.725794377 Z" id="Shape" fill="#FFE900"></path>
                        <path d="M0.68238705,16.5028473 L0.656396852,6.39449747 L8.79970301,11.2664248 L8.82684834,21.3735853 L0.68238705,16.5028473 L0.68238705,16.5028473 Z" id="Shape" fill="#EEC800"></path>
                        <path d="M9.48122374,21.3780449 L9.45292328,11.2664248 L18.0034092,6.18430325 L18.0317096,16.2959233 L9.48122374,21.3780449 L9.48122374,21.3780449 Z" id="Shape" fill="#FFE900"></path>
                    </g>
                    <g id="Green" transform="translate(102.606320, 32.919977) rotate(21.000000) translate(-102.606320, -32.919977) translate(91.404452, 19.799464)">
                        <path d="M22.26759,6.48432642 C22.2648326,6.34180811 22.1921066,6.21546935 22.0738839,6.14661992 L11.5734252,0.0524116371 C11.4521004,-0.0174705457 11.302857,-0.0174705457 11.1815322,0.0524116371 L0.197842221,6.38621598 C0.0551476573,6.50050602 -1.59872116e-13,6.60653417 -1.59872116e-13,6.72495522 C-1.59872116e-13,6.7263322 0.0361906501,19.3330091 0.0361906501,19.3330091 C0.0361906501,19.4713965 0.110295314,19.6008335 0.229896796,19.6693386 L10.7317341,25.7649239 C10.7951539,25.7996929 10.8609864,25.8172495 10.9285423,25.8172495 C10.9619756,25.8172495 10.9957535,25.8131185 11.0295314,25.8038239 C11.0684795,25.7917752 11.0967427,25.7797265 11.1250058,25.7649239 L22.1114532,19.4297426 C22.2324334,19.3598604 22.306538,19.2307677 22.306538,19.0910033 L22.26759,6.48432642 L22.26759,6.48432642 Z" id="Shape" fill="url(#linearGradient-2)"></path>
                        <path d="M11.3752383,0.840393488 L21.0988043,6.48294943 L17.0733701,8.80524109 L10.892007,12.3702652 L1.7219856,7.04648211 L1.16981968,6.7263322 L11.3752383,0.840393488 L11.3752383,0.840393488 Z" id="Shape" fill="#34A240"></path>
                        <path d="M0.814461965,19.10856 L0.783441407,7.40415498 L10.5028713,13.0453339 L10.5352706,24.748362 L0.814461965,19.10856 L0.814461965,19.10856 Z" id="Shape" fill="#2D8034"></path>
                        <path d="M11.3162993,24.7535256 L11.2825213,13.0453339 L21.48794,7.16077221 L21.521718,18.8689639 L11.3162993,24.7535256 L11.3162993,24.7535256 Z" id="Shape" fill="#34A240"></path>
                    </g>
                    <g id="Orange" transform="translate(10.524093, 43.815036) rotate(-25.000000) translate(-10.524093, -43.815036) translate(3.631122, 35.512711)">
                        <path d="M13.2401887,3.94112308 C13.2385491,3.85450154 13.1953066,3.77771385 13.125012,3.73586769 L6.88149606,0.0318553846 C6.809357,-0.0106184615 6.72061768,-0.0106184615 6.64847862,0.0318553846 L0.117635915,3.88149231 C0.032790499,3.95095692 -4.11226608e-13,4.0154 -4.11226608e-13,4.08737538 C-4.11226608e-13,4.08821231 0.0215187649,11.7504523 0.0215187649,11.7504523 C0.0215187649,11.8345631 0.0655809977,11.9132338 0.136695392,11.9548708 L6.38103111,15.65972 C6.41874017,15.6808523 6.4578838,15.6915231 6.49805218,15.6915231 C6.51793144,15.6915231 6.53801561,15.6890123 6.55809977,15.6833631 C6.58125809,15.67604 6.59806319,15.6687169 6.61486835,15.65972 L13.1473505,11.8092461 C13.2192847,11.7667723 13.2633469,11.6883108 13.2633469,11.6033631 L13.2401887,3.94112308 L13.2401887,3.94112308 Z" id="Shape" fill="url(#linearGradient-3)"></path>
                        <path d="M6.76365525,0.510784615 L12.545235,3.94028615 L10.1517335,5.35175692 L6.47632849,7.51855078 L1.02388333,4.28279692 L0.695568458,4.08821231 L6.76365525,0.510784615 L6.76365525,0.510784615 Z" id="Shape" fill="#F6BC80"></path>
                        <path d="M0.484274681,11.6140338 L0.465830025,4.50018769 L6.24495052,7.92885228 L6.26421495,15.0418616 L0.484274681,11.6140338 L0.484274681,11.6140338 Z" id="Shape" fill="#F58C20"></path>
                        <path d="M6.72861036,15.045 L6.7085262,7.92885228 L12.776613,4.35226154 L12.7966971,11.4684092 L6.72861036,15.045 L6.72861036,15.045 Z" id="Shape" fill="url(#linearGradient-4)"></path>
                    </g>
                    <g id="Purple" transform="translate(62.142975, 47.330106) rotate(45.000000) translate(-62.142975, -47.330106) translate(53.968639, 37.566004)">
                        <path d="M16.2493224,4.86324482 C16.2473103,4.75635607 16.19424,4.66160202 16.1079693,4.60996494 L8.44547245,0.0393087278 C8.3569381,-0.0131029092 8.24803081,-0.0131029092 8.15949646,0.0393087278 L0.14437135,4.78966198 C0.0402428851,4.87537954 -6.21724894e-14,4.95490064 -6.21724894e-14,5.04371642 C-6.21724894e-14,5.04474916 0.0264093933,14.4997569 0.0264093933,14.4997569 C0.0264093933,14.6035474 0.0804857701,14.7006251 0.167762527,14.752004 L7.83126544,19.3236929 C7.87754478,19.3497697 7.92558468,19.3629371 7.97488223,19.3629371 C7.99927947,19.3629371 8.02392824,19.3598389 8.04857701,19.3528679 C8.07699858,19.3438314 8.09762303,19.3347949 8.11824749,19.3236929 L16.1353847,14.572307 C16.2236676,14.5198953 16.2777439,14.4230758 16.2777439,14.3182525 L16.2493224,4.86324482 L16.2493224,4.86324482 Z" id="Shape" fill="url(#linearGradient-5)"></path>
                        <path d="M8.30084962,0.630295119 L15.3964248,4.86221208 L12.4589457,6.60393081 L7.9482213,9.27769885 L1.25658409,5.28486159 L0.853652196,5.04474916 L8.30084962,0.630295119 L8.30084962,0.630295119 Z" id="Shape" fill="#943799"></path>
                        <path d="M0.594337108,14.33142 L0.571700486,5.55311622 L7.66425746,9.78400046 L7.68790018,18.5612714 L0.594337108,14.33142 L0.594337108,14.33142 Z" id="Shape" fill="#7F027F"></path>
                        <path d="M8.25784002,18.5651442 L8.23319125,9.78400046 L15.6803887,5.37057914 L15.7050374,14.1517229 L8.25784002,18.5651442 L8.25784002,18.5651442 Z" id="Shape" fill="#943799"></path>
                    </g>
                    <g id="Purple" transform="translate(124.168103, 16.756504) rotate(-25.000000) translate(-124.168103, -16.756504) translate(114.177248, 5.161632)">
                        <path d="M19.8602829,5.74747115 C19.8578237,5.62114808 19.79296,5.50916603 19.6875181,5.44814038 L10.3222441,0.0464557692 C10.2140355,-0.0154852564 10.0809265,-0.0154852564 9.97271793,0.0464557692 L0.176453873,5.66050962 C0.0491857484,5.76181218 -7.63833441e-14,5.85579167 -7.63833441e-14,5.96075577 C-7.63833441e-14,5.96197628 0.0322781474,17.1360763 0.0322781474,17.1360763 C0.0322781474,17.2587378 0.0983714965,17.373466 0.205043088,17.4341865 L9.57154664,22.8370917 C9.62811026,22.8679096 9.68682573,22.8834712 9.74707828,22.8834712 C9.77689717,22.8834712 9.80702341,22.8798096 9.83714965,22.8715712 C9.87188713,22.8608917 9.89709478,22.8502122 9.9223025,22.8370917 L19.7210258,17.2218173 C19.828927,17.1598763 19.8950204,17.0454532 19.8950204,16.9215712 L19.8602829,5.74747115 L19.8602829,5.74747115 Z" id="Shape" fill="url(#linearGradient-6)"></path>
                        <path d="M10.1454828,0.744894231 L18.8178525,5.74625064 L15.2276003,7.80464551 L9.71449271,10.9645532 L1.53582499,6.24574551 L1.04335269,5.96197628 L10.1454828,0.744894231 L10.1454828,0.744894231 Z" id="Shape" fill="#943799"></path>
                        <path d="M0.72641202,16.9371327 L0.698745041,6.56277372 L9.36742578,11.5629096 L9.39632242,21.9360481 L0.72641202,16.9371327 L0.72641202,16.9371327 Z" id="Shape" fill="#7F027F"></path>
                        <path d="M10.0929155,21.940625 L10.0627893,11.5629096 L19.1649194,6.34704808 L19.1950457,16.7247635 L10.0929155,21.940625 L10.0929155,21.940625 Z" id="Shape" fill="#943799"></path>
                    </g>
                    <g id="Rose" transform="translate(75.250036, 22.525352) rotate(90.000000) translate(-75.250036, -22.525352) translate(65.864687, 11.845864)">
                        <path d="M18.6566295,5.36430641 C18.6543192,5.24640487 18.5933866,5.14188829 18.4943351,5.08493103 L9.69665358,0.0433587179 C9.59500305,-0.014452906 9.46996132,-0.014452906 9.36831073,0.0433587179 L0.165759698,5.28314231 C0.0462047939,5.37769137 0,5.46540556 0,5.56337205 C0,5.5645112 0.030321896,15.9936712 0.030321896,15.9936712 C0.030321896,16.1081553 0.0924095881,16.2152349 0.192616235,16.2719074 L8.99145289,21.3146189 C9.04458843,21.3433823 9.0997454,21.3579064 9.15634626,21.3579064 C9.18435789,21.3579064 9.21265835,21.354489 9.24095881,21.3467997 C9.27359094,21.3368322 9.29727091,21.3268647 9.32095087,21.3146189 L18.5258121,16.0736962 C18.6271739,16.0158846 18.6892616,15.9090897 18.6892616,15.7934664 L18.6566295,5.36430641 L18.6566295,5.36430641 Z" id="Shape" fill="url(#linearGradient-7)"></path>
                        <path d="M9.53060509,0.695234615 L17.6773766,5.36316726 L14.3047154,7.28433583 L9.12573561,10.233583 L1.44274469,5.82936248 L0.98011919,5.5645112 L9.53060509,0.695234615 L9.53060509,0.695234615 Z" id="Shape" fill="#FF5A72"></path>
                        <path d="M0.68238705,15.8079905 L0.656396852,6.12525545 L8.79970301,10.792049 L8.82684834,20.4736449 L0.68238705,15.8079905 L0.68238705,15.8079905 Z" id="Shape" fill="#D4465B"></path>
                        <path d="M9.48122374,20.4779167 L9.45292328,10.792049 L18.0034092,5.92391154 L18.0317096,15.6097792 L9.48122374,20.4779167 L9.48122374,20.4779167 Z" id="Shape" fill="#EB4A62"></path>
                    </g>
                    <g id="Yellow" transform="translate(45.847539, 31.822447) rotate(118.000000) translate(-45.847539, -31.822447) translate(37.673203, 22.058344)">
                        <path d="M16.2493224,4.86324482 C16.2473103,4.75635607 16.19424,4.66160202 16.1079693,4.60996494 L8.44547245,0.0393087278 C8.3569381,-0.0131029092 8.24803081,-0.0131029092 8.15949646,0.0393087278 L0.14437135,4.78966198 C0.0402428851,4.87537954 0,4.95490064 0,5.04371642 C0,5.04474916 0.0264093933,14.4997569 0.0264093933,14.4997569 C0.0264093933,14.6035474 0.0804857701,14.7006251 0.167762527,14.752004 L7.83126544,19.3236929 C7.87754478,19.3497697 7.92558468,19.3629371 7.97488223,19.3629371 C7.99927947,19.3629371 8.02392824,19.3598389 8.04857701,19.3528679 C8.07699858,19.3438314 8.09762303,19.3347949 8.11824749,19.3236929 L16.1353847,14.572307 C16.2236676,14.5198953 16.2777439,14.4230758 16.2777439,14.3182525 L16.2493224,4.86324482 L16.2493224,4.86324482 Z" id="Shape" fill="url(#linearGradient-8)"></path>
                        <path d="M8.30084962,0.630295119 L15.3964248,4.86221208 L12.4589457,6.60393081 L7.9482213,9.27769885 L1.25658409,5.28486159 L0.853652196,5.04474916 L8.30084962,0.630295119 L8.30084962,0.630295119 Z" id="Shape" fill="#FFE900"></path>
                        <path d="M0.594337108,14.33142 L0.571700486,5.55311622 L7.66425746,9.78400046 L7.68790018,18.5612714 L0.594337108,14.33142 L0.594337108,14.33142 Z" id="Shape" fill="#EEC800"></path>
                        <path d="M8.25784002,18.5651442 L8.23319125,9.78400046 L15.6803887,5.37057914 L15.7050374,14.1517229 L8.25784002,18.5651442 L8.25784002,18.5651442 Z" id="Shape" fill="#FFE900"></path>
                    </g>
                    <g id="Orange" transform="translate(82.770023, 42.497628) rotate(57.000000) translate(-82.770023, -42.497628) translate(74.595687, 32.733526)">
                        <path d="M16.2493224,4.86324482 C16.2473103,4.75635607 16.19424,4.66160202 16.1079693,4.60996494 L8.44547245,0.0393087278 C8.3569381,-0.0131029092 8.24803081,-0.0131029092 8.15949646,0.0393087278 L0.14437135,4.78966198 C0.0402428851,4.87537954 0,4.95490064 0,5.04371642 C0,5.04474916 0.0264093933,14.4997569 0.0264093933,14.4997569 C0.0264093933,14.6035474 0.0804857701,14.7006251 0.167762527,14.752004 L7.83126544,19.3236929 C7.87754478,19.3497697 7.92558468,19.3629371 7.97488223,19.3629371 C7.99927947,19.3629371 8.02392824,19.3598389 8.04857701,19.3528679 C8.07699858,19.3438314 8.09762303,19.3347949 8.11824749,19.3236929 L16.1353847,14.572307 C16.2236676,14.5198953 16.2777439,14.4230758 16.2777439,14.3182525 L16.2493224,4.86324482 L16.2493224,4.86324482 Z" id="Shape" fill="url(#linearGradient-9)"></path>
                        <path d="M8.30084962,0.630295119 L15.3964248,4.86221208 L12.4589457,6.60393081 L7.9482213,9.27769885 L1.25658409,5.28486159 L0.853652196,5.04474916 L8.30084962,0.630295119 L8.30084962,0.630295119 Z" id="Shape" fill="#F6BC80"></path>
                        <path d="M0.594337108,14.33142 L0.571700486,5.55311622 L7.66425746,9.78400046 L7.68790018,18.5612714 L0.594337108,14.33142 L0.594337108,14.33142 Z" id="Shape" fill="#F58C20"></path>
                        <path d="M8.25784002,18.5651442 L8.23319125,9.78400046 L15.6803887,5.37057914 L15.7050374,14.1517229 L8.25784002,18.5651442 L8.25784002,18.5651442 Z" id="Shape" fill="#F6BC80"></path>
                    </g>
                    <g id="Green" transform="translate(29.534305, 47.545864) rotate(30.000000) translate(-29.534305, -47.545864) translate(22.268228, 39.307403)">
                        <path d="M14.4438421,4.13817923 C14.4420536,4.04722662 14.39488,3.96659954 14.318195,3.92266108 L7.50708665,0.0334481538 C7.42838941,-0.0111493846 7.33158293,-0.0111493846 7.25288575,0.0334481538 L0.128330089,4.07556692 C0.0357714534,4.14850477 -6.39488462e-14,4.21617 -6.39488462e-14,4.29174415 C-6.39488462e-14,4.29262292 0.0234750163,12.3379749 0.0234750163,12.3379749 C0.0234750163,12.4262912 0.0715429067,12.5088955 0.149122246,12.5526143 L6.96112481,16.442706 C7.002262,16.4648949 7.04496419,16.4760992 7.0887842,16.4760992 C7.11047065,16.4760992 7.13238066,16.4734629 7.15429067,16.4675312 C7.17955427,16.459842 7.19788713,16.4521528 7.21621998,16.442706 L14.3425642,12.3997085 C14.4210379,12.3551109 14.4691057,12.2727263 14.4691057,12.1835312 L14.4438421,4.13817923 L14.4438421,4.13817923 Z" id="Shape" fill="url(#linearGradient-10)"></path>
                        <path d="M7.37853299,0.536323846 L13.6857109,4.13730046 L11.0746184,5.61934477 L7.06508559,7.89447831 L1.11696363,4.49693677 L0.758801954,4.29262292 L7.37853299,0.536323846 L7.37853299,0.536323846 Z" id="Shape" fill="#34A240"></path>
                        <path d="M0.528299652,12.1947355 L0.508178209,4.72519708 L6.8126733,8.32529492 L6.83368903,15.7939546 L0.528299652,12.1947355 L0.528299652,12.1947355 Z" id="Shape" fill="#2D8034"></path>
                        <path d="M7.34030222,15.79725 L7.31839222,8.32529492 L13.9381232,4.56987462 L13.9600333,12.0418297 L7.34030222,15.79725 L7.34030222,15.79725 Z" id="Shape" fill="#34A240"></path>
                    </g>
                    <g id="blue" transform="translate(55.482405, 21.089080) rotate(45.000000) translate(-55.482405, -21.089080) translate(47.308069, 11.324978)">
                        <path d="M16.2493224,4.86324482 C16.2473103,4.75635607 16.19424,4.66160202 16.1079693,4.60996494 L8.44547245,0.0393087278 C8.3569381,-0.0131029092 8.24803081,-0.0131029092 8.15949646,0.0393087278 L0.14437135,4.78966198 C0.0402428851,4.87537954 6.21724894e-14,4.95490064 6.21724894e-14,5.04371642 C6.21724894e-14,5.04474916 0.0264093933,14.4997569 0.0264093933,14.4997569 C0.0264093933,14.6035474 0.0804857701,14.7006251 0.167762527,14.752004 L7.83126544,19.3236929 C7.87754478,19.3497697 7.92558468,19.3629371 7.97488223,19.3629371 C7.99927947,19.3629371 8.02392824,19.3598389 8.04857701,19.3528679 C8.07699858,19.3438314 8.09762303,19.3347949 8.11824749,19.3236929 L16.1353847,14.572307 C16.2236676,14.5198953 16.2777439,14.4230758 16.2777439,14.3182525 L16.2493224,4.86324482 L16.2493224,4.86324482 Z" id="Shape" fill="url(#linearGradient-11)"></path>
                        <path d="M8.30084962,0.630295119 L15.3964248,4.86221208 L12.4589457,6.60393081 L7.9482213,9.27769885 L1.25658409,5.28486159 L0.853652196,5.04474916 L8.30084962,0.630295119 L8.30084962,0.630295119 Z" id="Shape" fill="#4C64FF"></path>
                        <path d="M0.594337108,14.33142 L0.571700486,5.55311622 L7.66425746,9.78400046 L7.68790018,18.5612714 L0.594337108,14.33142 L0.594337108,14.33142 Z" id="Shape" fill="#0000FD"></path>
                        <path d="M8.25784002,18.5651442 L8.23319125,9.78400046 L15.6803887,5.37057914 L15.7050374,14.1517229 L8.25784002,18.5651442 L8.25784002,18.5651442 Z" id="Shape" fill="#4C63FF"></path>
                    </g>
                    <g id="blue" transform="translate(99.528059, 52.738650) rotate(11.000000) translate(-99.528059, -52.738650) translate(90.748217, 42.364291)">
                        <path d="M17.4529759,5.15798693 C17.4508148,5.04462007 17.3938133,4.94412335 17.3011522,4.88935675 L9.07106299,0.041691075 C8.97597057,-0.013897025 8.85899607,-0.013897025 8.76390359,0.041691075 L0.155065524,5.07994453 C0.0432238395,5.17085709 6.75015599e-14,5.25519765 6.75015599e-14,5.3493962 C6.75015599e-14,5.35049154 0.0283656446,15.37853 0.0283656446,15.37853 C0.0283656446,15.4886109 0.0864476791,15.591572 0.180189381,15.6460648 L8.41135919,20.4948258 C8.46106661,20.522483 8.51266501,20.5364485 8.56561424,20.5364485 C8.59181868,20.5364485 8.6182933,20.5331624 8.64476791,20.525769 C8.67529476,20.5161848 8.69744697,20.5066007 8.71959918,20.4948258 L17.3305984,15.4554771 C17.4254207,15.399889 17.4835028,15.2972016 17.4835028,15.1860254 L17.4529759,5.15798693 L17.4529759,5.15798693 Z" id="Path" fill="url(#linearGradient-12)"></path>
                        <path d="M8.91572735,0.668494821 L16.5369007,5.1568916 L13.3818306,7.00416907 L8.53697845,9.83998362 L1.34966439,5.60515623 L0.916885693,5.35049154 L8.91572735,0.668494821 L8.91572735,0.668494821 Z" id="Path" fill="#4C64FF"></path>
                        <path d="M0.638362081,15.1999909 L0.614048668,5.88966872 L8.23198023,10.3769701 L8.25737426,19.686197 L0.638362081,15.1999909 L0.638362081,15.1999909 Z" id="Path" fill="#0000FD"></path>
                        <path d="M8.86953188,19.6903045 L8.84305726,10.3769701 L16.8418989,5.69606879 L16.8683735,15.0094031 L8.86953188,19.6903045 L8.86953188,19.6903045 Z" id="Path" fill="#4C63FF"></path>
                    </g>
                    <g id="Rose" transform="translate(123.085039, 40.080867) rotate(122.000000) translate(-123.085039, -40.080867) translate(114.910703, 30.316765)">
                        <path d="M16.2493224,4.90450872 C16.2473103,4.79671303 16.19424,4.70115501 16.1079693,4.64907979 L8.44547245,0.0396422564 C8.3569381,-0.0132140854 8.24803081,-0.0132140854 8.15949646,0.0396422564 L0.14437135,4.83030154 C0.0402428851,4.91674639 0,4.99694222 0,5.08651159 C0,5.0875531 0.0264093933,14.6227851 0.0264093933,14.6227851 C0.0264093933,14.7274563 0.0804857701,14.8253577 0.167762527,14.8771725 L7.83126544,19.4876516 C7.87754478,19.5139495 7.92558468,19.5272287 7.97488223,19.5272287 C7.99927947,19.5272287 8.02392824,19.5241042 8.04857701,19.5170741 C8.07699858,19.5079609 8.09762303,19.4988477 8.11824749,19.4876516 L16.1353847,14.6959508 C16.2236676,14.6430944 16.2777439,14.5454534 16.2777439,14.4397407 L16.2493224,4.90450872 L16.2493224,4.90450872 Z" id="Shape" fill="url(#linearGradient-13)"></path>
                        <path d="M8.30084962,0.635643077 L15.3964248,4.90346721 L12.4589457,6.65996419 L7.9482213,9.35641876 L1.25658409,5.32970284 L0.853652196,5.0875531 L8.30084962,0.635643077 L8.30084962,0.635643077 Z" id="Shape" fill="#FF5A72"></path>
                        <path d="M0.594337108,14.4530199 L0.571700486,5.60023357 L7.66425746,9.86701621 L7.68790018,18.718761 L0.594337108,14.4530199 L0.594337108,14.4530199 Z" id="Shape" fill="#D4465B"></path>
                        <path d="M8.25784002,18.7226667 L8.23319125,9.86701621 L15.6803887,5.41614769 L15.7050374,14.2717982 L8.25784002,18.7226667 L8.25784002,18.7226667 Z" id="Shape" fill="#EB4A62"></path>
                    </g>
                    <g id="Rose" transform="translate(24.690254, 29.848428) rotate(42.000000) translate(-24.690254, -29.848428) translate(17.424177, 21.609967)">
                        <path d="M14.4438421,4.13817923 C14.4420536,4.04722662 14.39488,3.96659954 14.318195,3.92266108 L7.50708665,0.0334481538 C7.42838941,-0.0111493846 7.33158293,-0.0111493846 7.25288575,0.0334481538 L0.128330089,4.07556692 C0.0357714534,4.14850477 0,4.21617 0,4.29174415 C0,4.29262292 0.0234750163,12.3379749 0.0234750163,12.3379749 C0.0234750163,12.4262912 0.0715429067,12.5088955 0.149122246,12.5526143 L6.96112481,16.442706 C7.002262,16.4648949 7.04496419,16.4760992 7.0887842,16.4760992 C7.11047065,16.4760992 7.13238066,16.4734629 7.15429067,16.4675312 C7.17955427,16.459842 7.19788713,16.4521528 7.21621998,16.442706 L14.3425642,12.3997085 C14.4210379,12.3551109 14.4691057,12.2727263 14.4691057,12.1835312 L14.4438421,4.13817923 L14.4438421,4.13817923 Z" id="Shape" fill="url(#linearGradient-14)"></path>
                        <path d="M7.37853299,0.536323846 L13.6857109,4.13730046 L11.0746184,5.61934477 L7.06508559,7.89447831 L1.11696363,4.49693677 L0.758801954,4.29262292 L7.37853299,0.536323846 L7.37853299,0.536323846 Z" id="Shape" fill="#FF5A72"></path>
                        <path d="M0.528299652,12.1947355 L0.508178209,4.72519708 L6.8126733,8.32529492 L6.83368903,15.7939546 L0.528299652,12.1947355 L0.528299652,12.1947355 Z" id="Shape" fill="#D4465B"></path>
                        <path d="M7.34030222,15.79725 L7.31839222,8.32529492 L13.9381232,4.56987462 L13.9600333,12.0418297 L7.34030222,15.79725 L7.34030222,15.79725 Z" id="Shape" fill="#EB4A62"></path>
                    </g>
                </g>
                <g id="Colored-Cubes" transform="translate(505.630901, 0.395161)" sketch:type="MSShapeGroup">
                    <g id="Orange" transform="translate(10.524093, 43.815036) rotate(-25.000000) translate(-10.524093, -43.815036) translate(3.631122, 35.512711)">
                        <path d="M13.2401887,3.94112308 C13.2385491,3.85450154 13.1953066,3.77771385 13.125012,3.73586769 L6.88149606,0.0318553846 C6.809357,-0.0106184615 6.72061768,-0.0106184615 6.64847862,0.0318553846 L0.117635915,3.88149231 C0.032790499,3.95095692 -4.11226608e-13,4.0154 -4.11226608e-13,4.08737538 C-4.11226608e-13,4.08821231 0.0215187649,11.7504523 0.0215187649,11.7504523 C0.0215187649,11.8345631 0.0655809977,11.9132338 0.136695392,11.9548708 L6.38103111,15.65972 C6.41874017,15.6808523 6.4578838,15.6915231 6.49805218,15.6915231 C6.51793144,15.6915231 6.53801561,15.6890123 6.55809977,15.6833631 C6.58125809,15.67604 6.59806319,15.6687169 6.61486835,15.65972 L13.1473505,11.8092461 C13.2192847,11.7667723 13.2633469,11.6883108 13.2633469,11.6033631 L13.2401887,3.94112308 L13.2401887,3.94112308 Z" id="Shape" fill="url(#linearGradient-3)"></path>
                        <path d="M6.76365525,0.510784615 L12.545235,3.94028615 L10.1517335,5.35175692 L6.47632849,7.51855078 L1.02388333,4.28279692 L0.695568458,4.08821231 L6.76365525,0.510784615 L6.76365525,0.510784615 Z" id="Shape" fill="#F6BC80"></path>
                        <path d="M0.484274681,11.6140338 L0.465830025,4.50018769 L6.24495052,7.92885228 L6.26421495,15.0418616 L0.484274681,11.6140338 L0.484274681,11.6140338 Z" id="Shape" fill="#F58C20"></path>
                        <path d="M6.72861036,15.045 L6.7085262,7.92885228 L12.776613,4.35226154 L12.7966971,11.4684092 L6.72861036,15.045 L6.72861036,15.045 Z" id="Shape" fill="url(#linearGradient-4)"></path>
                    </g>
                    <g id="Purple" transform="translate(62.142975, 47.330106) rotate(45.000000) translate(-62.142975, -47.330106) translate(53.968639, 37.566004)">
                        <path d="M16.2493224,4.86324482 C16.2473103,4.75635607 16.19424,4.66160202 16.1079693,4.60996494 L8.44547245,0.0393087278 C8.3569381,-0.0131029092 8.24803081,-0.0131029092 8.15949646,0.0393087278 L0.14437135,4.78966198 C0.0402428851,4.87537954 -6.21724894e-14,4.95490064 -6.21724894e-14,5.04371642 C-6.21724894e-14,5.04474916 0.0264093933,14.4997569 0.0264093933,14.4997569 C0.0264093933,14.6035474 0.0804857701,14.7006251 0.167762527,14.752004 L7.83126544,19.3236929 C7.87754478,19.3497697 7.92558468,19.3629371 7.97488223,19.3629371 C7.99927947,19.3629371 8.02392824,19.3598389 8.04857701,19.3528679 C8.07699858,19.3438314 8.09762303,19.3347949 8.11824749,19.3236929 L16.1353847,14.572307 C16.2236676,14.5198953 16.2777439,14.4230758 16.2777439,14.3182525 L16.2493224,4.86324482 L16.2493224,4.86324482 Z" id="Shape" fill="url(#linearGradient-5)"></path>
                        <path d="M8.30084962,0.630295119 L15.3964248,4.86221208 L12.4589457,6.60393081 L7.9482213,9.27769885 L1.25658409,5.28486159 L0.853652196,5.04474916 L8.30084962,0.630295119 L8.30084962,0.630295119 Z" id="Shape" fill="#943799"></path>
                        <path d="M0.594337108,14.33142 L0.571700486,5.55311622 L7.66425746,9.78400046 L7.68790018,18.5612714 L0.594337108,14.33142 L0.594337108,14.33142 Z" id="Shape" fill="#7F027F"></path>
                        <path d="M8.25784002,18.5651442 L8.23319125,9.78400046 L15.6803887,5.37057914 L15.7050374,14.1517229 L8.25784002,18.5651442 L8.25784002,18.5651442 Z" id="Shape" fill="#943799"></path>
                    </g>
                    <g id="Yellow" transform="translate(45.847539, 31.822447) rotate(118.000000) translate(-45.847539, -31.822447) translate(37.673203, 22.058344)">
                        <path d="M16.2493224,4.86324482 C16.2473103,4.75635607 16.19424,4.66160202 16.1079693,4.60996494 L8.44547245,0.0393087278 C8.3569381,-0.0131029092 8.24803081,-0.0131029092 8.15949646,0.0393087278 L0.14437135,4.78966198 C0.0402428851,4.87537954 0,4.95490064 0,5.04371642 C0,5.04474916 0.0264093933,14.4997569 0.0264093933,14.4997569 C0.0264093933,14.6035474 0.0804857701,14.7006251 0.167762527,14.752004 L7.83126544,19.3236929 C7.87754478,19.3497697 7.92558468,19.3629371 7.97488223,19.3629371 C7.99927947,19.3629371 8.02392824,19.3598389 8.04857701,19.3528679 C8.07699858,19.3438314 8.09762303,19.3347949 8.11824749,19.3236929 L16.1353847,14.572307 C16.2236676,14.5198953 16.2777439,14.4230758 16.2777439,14.3182525 L16.2493224,4.86324482 L16.2493224,4.86324482 Z" id="Shape" fill="url(#linearGradient-8)"></path>
                        <path d="M8.30084962,0.630295119 L15.3964248,4.86221208 L12.4589457,6.60393081 L7.9482213,9.27769885 L1.25658409,5.28486159 L0.853652196,5.04474916 L8.30084962,0.630295119 L8.30084962,0.630295119 Z" id="Shape" fill="#FFE900"></path>
                        <path d="M0.594337108,14.33142 L0.571700486,5.55311622 L7.66425746,9.78400046 L7.68790018,18.5612714 L0.594337108,14.33142 L0.594337108,14.33142 Z" id="Shape" fill="#EEC800"></path>
                        <path d="M8.25784002,18.5651442 L8.23319125,9.78400046 L15.6803887,5.37057914 L15.7050374,14.1517229 L8.25784002,18.5651442 L8.25784002,18.5651442 Z" id="Shape" fill="#FFE900"></path>
                    </g>
                    <g id="Green" transform="translate(29.534305, 47.545864) rotate(30.000000) translate(-29.534305, -47.545864) translate(22.268228, 39.307403)">
                        <path d="M14.4438421,4.13817923 C14.4420536,4.04722662 14.39488,3.96659954 14.318195,3.92266108 L7.50708665,0.0334481538 C7.42838941,-0.0111493846 7.33158293,-0.0111493846 7.25288575,0.0334481538 L0.128330089,4.07556692 C0.0357714534,4.14850477 -6.39488462e-14,4.21617 -6.39488462e-14,4.29174415 C-6.39488462e-14,4.29262292 0.0234750163,12.3379749 0.0234750163,12.3379749 C0.0234750163,12.4262912 0.0715429067,12.5088955 0.149122246,12.5526143 L6.96112481,16.442706 C7.002262,16.4648949 7.04496419,16.4760992 7.0887842,16.4760992 C7.11047065,16.4760992 7.13238066,16.4734629 7.15429067,16.4675312 C7.17955427,16.459842 7.19788713,16.4521528 7.21621998,16.442706 L14.3425642,12.3997085 C14.4210379,12.3551109 14.4691057,12.2727263 14.4691057,12.1835312 L14.4438421,4.13817923 L14.4438421,4.13817923 Z" id="Shape" fill="url(#linearGradient-10)"></path>
                        <path d="M7.37853299,0.536323846 L13.6857109,4.13730046 L11.0746184,5.61934477 L7.06508559,7.89447831 L1.11696363,4.49693677 L0.758801954,4.29262292 L7.37853299,0.536323846 L7.37853299,0.536323846 Z" id="Shape" fill="#34A240"></path>
                        <path d="M0.528299652,12.1947355 L0.508178209,4.72519708 L6.8126733,8.32529492 L6.83368903,15.7939546 L0.528299652,12.1947355 L0.528299652,12.1947355 Z" id="Shape" fill="#2D8034"></path>
                        <path d="M7.34030222,15.79725 L7.31839222,8.32529492 L13.9381232,4.56987462 L13.9600333,12.0418297 L7.34030222,15.79725 L7.34030222,15.79725 Z" id="Shape" fill="#34A240"></path>
                    </g>
                    <g id="blue" transform="translate(55.482405, 21.089080) rotate(45.000000) translate(-55.482405, -21.089080) translate(47.308069, 11.324978)">
                        <path d="M16.2493224,4.86324482 C16.2473103,4.75635607 16.19424,4.66160202 16.1079693,4.60996494 L8.44547245,0.0393087278 C8.3569381,-0.0131029092 8.24803081,-0.0131029092 8.15949646,0.0393087278 L0.14437135,4.78966198 C0.0402428851,4.87537954 6.21724894e-14,4.95490064 6.21724894e-14,5.04371642 C6.21724894e-14,5.04474916 0.0264093933,14.4997569 0.0264093933,14.4997569 C0.0264093933,14.6035474 0.0804857701,14.7006251 0.167762527,14.752004 L7.83126544,19.3236929 C7.87754478,19.3497697 7.92558468,19.3629371 7.97488223,19.3629371 C7.99927947,19.3629371 8.02392824,19.3598389 8.04857701,19.3528679 C8.07699858,19.3438314 8.09762303,19.3347949 8.11824749,19.3236929 L16.1353847,14.572307 C16.2236676,14.5198953 16.2777439,14.4230758 16.2777439,14.3182525 L16.2493224,4.86324482 L16.2493224,4.86324482 Z" id="Shape" fill="url(#linearGradient-11)"></path>
                        <path d="M8.30084962,0.630295119 L15.3964248,4.86221208 L12.4589457,6.60393081 L7.9482213,9.27769885 L1.25658409,5.28486159 L0.853652196,5.04474916 L8.30084962,0.630295119 L8.30084962,0.630295119 Z" id="Shape" fill="#4C64FF"></path>
                        <path d="M0.594337108,14.33142 L0.571700486,5.55311622 L7.66425746,9.78400046 L7.68790018,18.5612714 L0.594337108,14.33142 L0.594337108,14.33142 Z" id="Shape" fill="#0000FD"></path>
                        <path d="M8.25784002,18.5651442 L8.23319125,9.78400046 L15.6803887,5.37057914 L15.7050374,14.1517229 L8.25784002,18.5651442 L8.25784002,18.5651442 Z" id="Shape" fill="#4C63FF"></path>
                    </g>
                    <g id="Rose" transform="translate(24.690254, 29.848428) rotate(42.000000) translate(-24.690254, -29.848428) translate(17.424177, 21.609967)">
                        <path d="M14.4438421,4.13817923 C14.4420536,4.04722662 14.39488,3.96659954 14.318195,3.92266108 L7.50708665,0.0334481538 C7.42838941,-0.0111493846 7.33158293,-0.0111493846 7.25288575,0.0334481538 L0.128330089,4.07556692 C0.0357714534,4.14850477 0,4.21617 0,4.29174415 C0,4.29262292 0.0234750163,12.3379749 0.0234750163,12.3379749 C0.0234750163,12.4262912 0.0715429067,12.5088955 0.149122246,12.5526143 L6.96112481,16.442706 C7.002262,16.4648949 7.04496419,16.4760992 7.0887842,16.4760992 C7.11047065,16.4760992 7.13238066,16.4734629 7.15429067,16.4675312 C7.17955427,16.459842 7.19788713,16.4521528 7.21621998,16.442706 L14.3425642,12.3997085 C14.4210379,12.3551109 14.4691057,12.2727263 14.4691057,12.1835312 L14.4438421,4.13817923 L14.4438421,4.13817923 Z" id="Shape" fill="url(#linearGradient-14)"></path>
                        <path d="M7.37853299,0.536323846 L13.6857109,4.13730046 L11.0746184,5.61934477 L7.06508559,7.89447831 L1.11696363,4.49693677 L0.758801954,4.29262292 L7.37853299,0.536323846 L7.37853299,0.536323846 Z" id="Shape" fill="#FF5A72"></path>
                        <path d="M0.528299652,12.1947355 L0.508178209,4.72519708 L6.8126733,8.32529492 L6.83368903,15.7939546 L0.528299652,12.1947355 L0.528299652,12.1947355 Z" id="Shape" fill="#D4465B"></path>
                        <path d="M7.34030222,15.79725 L7.31839222,8.32529492 L13.9381232,4.56987462 L13.9600333,12.0418297 L7.34030222,15.79725 L7.34030222,15.79725 Z" id="Shape" fill="#EB4A62"></path>
                    </g>
                </g>
                <g id="Colored-Cubes" transform="translate(448.354077, 38.131629) scale(-1, -1) translate(-448.354077, -38.131629) translate(384.708155, 1.354839)" sketch:type="MSShapeGroup">
                    <g id="Yellow" transform="translate(110.371433, 15.571323) rotate(-63.000000) translate(-110.371433, -15.571323) translate(99.793031, 2.846443)">
                        <path d="M21.0282349,6.31197723 C21.025631,6.17324693 20.9569527,6.05026621 20.8453099,5.98324674 L10.929279,0.0510185697 C10.8147068,-0.0170061899 10.67377,-0.0170061899 10.5591977,0.0510185697 L0.186830846,6.21647449 C0.0520782847,6.3277268 0,6.43093678 0,6.54621027 C0,6.54755065 0.0341763744,18.8191503 0.0341763744,18.8191503 C0.0341763744,18.9538594 0.10415657,19.079856 0.217101349,19.1465404 L10.1344342,25.0801089 C10.1943243,25.1139538 10.2564927,25.1310437 10.3202886,25.1310437 C10.351861,25.1310437 10.383759,25.1270226 10.415657,25.1179749 C10.4524372,25.1062465 10.4791274,25.0945181 10.5058175,25.0801089 L20.8807882,18.9133126 C20.995035,18.8452879 21.0650152,18.7196264 21.0650152,18.5835768 L21.0282349,6.31197723 L21.0282349,6.31197723 Z" id="Shape" fill="url(#linearGradient-1)"></path>
                        <path d="M10.7421227,0.818056374 L19.9245007,6.31063684 L16.1231114,8.57120347 L10.2857867,12.0414715 L1.62614444,6.85919118 L1.10471061,6.54755065 L10.7421227,0.818056374 L10.7421227,0.818056374 Z" id="Shape" fill="#FFE900"></path>
                        <path d="M0.769131167,18.6006668 L0.739837129,7.20735731 L9.91830932,12.6985974 L9.94890533,24.0905665 L0.769131167,18.6006668 L0.769131167,18.6006668 Z" id="Shape" fill="#EEC800"></path>
                        <path d="M10.686464,24.0955929 L10.6545661,12.6985974 L20.2919782,6.97044349 L20.3238761,18.367439 L10.686464,24.0955929 L10.686464,24.0955929 Z" id="Shape" fill="#FFE900"></path>
                    </g>
                    <g id="Orange" transform="translate(11.861901, 49.384744) rotate(-25.000000) translate(-11.861901, -49.384744) translate(4.092705, 40.027038)">
                        <path d="M14.9232635,4.4421133 C14.9214155,4.34448055 14.8726761,4.25793171 14.7934457,4.21076613 L7.75626251,0.0359047979 C7.67495323,-0.011968266 7.57493348,-0.011968266 7.4936242,0.0359047979 L0.132589633,4.37490235 C0.0369587827,4.45319721 -4.63629135e-13,4.5258322 -4.63629135e-13,4.606957 C-4.63629135e-13,4.60790031 0.0242542011,13.2441539 0.0242542011,13.2441539 C0.0242542011,13.3389567 0.0739175652,13.427628 0.154071925,13.4745577 L7.19217914,17.6503624 C7.23468172,17.674181 7.27880123,17.6862082 7.32407577,17.6862082 C7.34648205,17.6862082 7.36911928,17.6833783 7.39175652,17.6770109 C7.41785869,17.668757 7.43680003,17.660503 7.45574145,17.6503624 L14.8186239,13.3104215 C14.8997022,13.2625484 14.9493656,13.174113 14.9493656,13.0783669 L14.9232635,4.4421133 L14.9232635,4.4421133 Z" id="Shape" fill="url(#linearGradient-3)"></path>
                        <path d="M7.62344194,0.575714863 L14.1399683,4.44116999 L11.4422081,6.032065 L7.29959059,8.47429876 L1.15403799,4.82722026 L0.783988177,4.60790031 L7.62344194,0.575714863 L7.62344194,0.575714863 Z" id="Shape" fill="#F6BC80"></path>
                        <path d="M0.545835022,13.0903941 L0.525045707,5.07224545 L7.03880016,8.93675723 L7.06051346,16.9539626 L0.545835022,13.0903941 L0.545835022,13.0903941 Z" id="Shape" fill="#F58C20"></path>
                        <path d="M7.58394219,16.9575 L7.56130495,8.93675723 L14.4007587,4.90551512 L14.4233959,12.9262578 L7.58394219,16.9575 L7.58394219,16.9575 Z" id="Shape" fill="url(#linearGradient-4)"></path>
                    </g>
                    <g id="Purple" transform="translate(70.042505, 53.346645) rotate(45.000000) translate(-70.042505, -53.346645) translate(60.829059, 42.341343)">
                        <path d="M18.3149143,5.48145391 C18.3126463,5.3609776 18.2528298,5.25417855 18.1555925,5.19597743 L9.51904946,0.0443056 C9.41926074,-0.0147685333 9.29650931,-0.0147685333 9.19672058,0.0443056 L0.16272364,5.39851732 C0.0453585061,5.49513117 -7.10542736e-14,5.58476089 -7.10542736e-14,5.68486681 C-7.10542736e-14,5.68603084 0.0297665196,16.3429463 0.0297665196,16.3429463 C0.0297665196,16.4599305 0.0907170121,16.5693486 0.189088272,16.6272587 L8.82676528,21.7800946 C8.87892759,21.8094862 8.93307426,21.8243274 8.98863844,21.8243274 C9.01613703,21.8243274 9.04391912,21.8208354 9.07170121,21.8129782 C9.10373568,21.802793 9.12698189,21.7926078 9.1502281,21.7800946 L18.186493,16.4247189 C18.2859982,16.3656447 18.3469487,16.2565176 18.3469487,16.1383694 L18.3149143,5.48145391 L18.3149143,5.48145391 Z" id="Shape" fill="url(#linearGradient-5)"></path>
                        <path d="M9.35604237,0.71041738 L17.3535974,5.48028988 L14.04271,7.44341354 L8.95858841,10.4570673 L1.41631935,5.95666603 L0.962167306,5.68603084 L9.35604237,0.71041738 L9.35604237,0.71041738 Z" id="Shape" fill="#943799"></path>
                        <path d="M0.669888436,16.1532106 L0.644374276,6.25902083 L8.63852747,11.0277293 L8.66517563,20.9207551 L0.669888436,16.1532106 L0.669888436,16.1532106 Z" id="Shape" fill="#7F027F"></path>
                        <path d="M9.30756544,20.9251202 L9.27978335,11.0277293 L17.6736584,6.05327988 L17.7014405,15.9506708 L9.30756544,20.9251202 L9.30756544,20.9251202 Z" id="Shape" fill="#943799"></path>
                    </g>
                    <g id="Rose" transform="translate(84.815719, 25.388744) rotate(90.000000) translate(-84.815719, -25.388744) translate(74.237317, 13.351695)">
                        <path d="M21.0282349,6.04620977 C21.025631,5.91332075 20.9569527,5.79551816 20.8453099,5.73132056 L10.929279,0.0488704194 C10.8147068,-0.0162901398 10.67377,-0.0162901398 10.5591977,0.0488704194 L0.186830846,5.95472819 C0.0520782847,6.0612962 0,6.1601605 0,6.27058036 C0,6.27186432 0.0341763744,18.026765 0.0341763744,18.026765 C0.0341763744,18.1558022 0.10415657,18.2764936 0.217101349,18.3403702 L10.1344342,24.0241044 C10.1943243,24.0565241 10.2564927,24.0728945 10.3202886,24.0728945 C10.351861,24.0728945 10.383759,24.0690427 10.415657,24.060376 C10.4524372,24.0491414 10.4791274,24.0379068 10.5058175,24.0241044 L20.8807882,18.1169626 C20.995035,18.0518021 21.0650152,17.9314316 21.0650152,17.8011104 L21.0282349,6.04620977 L21.0282349,6.04620977 Z" id="Shape" fill="url(#linearGradient-7)"></path>
                        <path d="M10.7421227,0.783611897 L19.9245007,6.04492581 L16.1231114,8.21031073 L10.2857867,11.5344622 L1.62614444,6.57038313 L1.10471061,6.27186432 L10.7421227,0.783611897 L10.7421227,0.783611897 Z" id="Shape" fill="#FF5A72"></path>
                        <path d="M0.769131167,17.8174808 L0.739837129,6.90388962 L9.91830932,12.1639196 L9.94890533,23.0762268 L0.769131167,17.8174808 L0.769131167,17.8174808 Z" id="Shape" fill="#D4465B"></path>
                        <path d="M10.686464,23.0810417 L10.6545661,12.1639196 L20.2919782,6.67695114 L20.3238761,17.5940732 L10.686464,23.0810417 L10.686464,23.0810417 Z" id="Shape" fill="#EB4A62"></path>
                    </g>
                    <g id="Yellow" transform="translate(51.675616, 35.867673) rotate(118.000000) translate(-51.675616, -35.867673) translate(42.462169, 24.862371)">
                        <path d="M18.3149143,5.48145391 C18.3126463,5.3609776 18.2528298,5.25417855 18.1555925,5.19597743 L9.51904946,0.0443056 C9.41926074,-0.0147685333 9.29650931,-0.0147685333 9.19672058,0.0443056 L0.16272364,5.39851732 C0.0453585061,5.49513117 0,5.58476089 0,5.68486681 C0,5.68603084 0.0297665196,16.3429463 0.0297665196,16.3429463 C0.0297665196,16.4599305 0.0907170121,16.5693486 0.189088272,16.6272587 L8.82676528,21.7800946 C8.87892759,21.8094862 8.93307426,21.8243274 8.98863844,21.8243274 C9.01613703,21.8243274 9.04391912,21.8208354 9.07170121,21.8129782 C9.10373568,21.802793 9.12698189,21.7926078 9.1502281,21.7800946 L18.186493,16.4247189 C18.2859982,16.3656447 18.3469487,16.2565176 18.3469487,16.1383694 L18.3149143,5.48145391 L18.3149143,5.48145391 Z" id="Shape" fill="url(#linearGradient-8)"></path>
                        <path d="M9.35604237,0.71041738 L17.3535974,5.48028988 L14.04271,7.44341354 L8.95858841,10.4570673 L1.41631935,5.95666603 L0.962167306,5.68603084 L9.35604237,0.71041738 L9.35604237,0.71041738 Z" id="Shape" fill="#FFE900"></path>
                        <path d="M0.669888436,16.1532106 L0.644374276,6.25902083 L8.63852747,11.0277293 L8.66517563,20.9207551 L0.669888436,16.1532106 L0.669888436,16.1532106 Z" id="Shape" fill="#EEC800"></path>
                        <path d="M9.30756544,20.9251202 L9.27978335,11.0277293 L17.6736584,6.05327988 L17.7014405,15.9506708 L9.30756544,20.9251202 L9.30756544,20.9251202 Z" id="Shape" fill="#FFE900"></path>
                    </g>
                    <g id="Orange" transform="translate(93.291636, 47.899869) rotate(57.000000) translate(-93.291636, -47.899869) translate(84.078189, 36.894567)">
                        <path d="M18.3149143,5.48145391 C18.3126463,5.3609776 18.2528298,5.25417855 18.1555925,5.19597743 L9.51904946,0.0443056 C9.41926074,-0.0147685333 9.29650931,-0.0147685333 9.19672058,0.0443056 L0.16272364,5.39851732 C0.0453585061,5.49513117 0,5.58476089 0,5.68486681 C0,5.68603084 0.0297665196,16.3429463 0.0297665196,16.3429463 C0.0297665196,16.4599305 0.0907170121,16.5693486 0.189088272,16.6272587 L8.82676528,21.7800946 C8.87892759,21.8094862 8.93307426,21.8243274 8.98863844,21.8243274 C9.01613703,21.8243274 9.04391912,21.8208354 9.07170121,21.8129782 C9.10373568,21.802793 9.12698189,21.7926078 9.1502281,21.7800946 L18.186493,16.4247189 C18.2859982,16.3656447 18.3469487,16.2565176 18.3469487,16.1383694 L18.3149143,5.48145391 L18.3149143,5.48145391 Z" id="Shape" fill="url(#linearGradient-9)"></path>
                        <path d="M9.35604237,0.71041738 L17.3535974,5.48028988 L14.04271,7.44341354 L8.95858841,10.4570673 L1.41631935,5.95666603 L0.962167306,5.68603084 L9.35604237,0.71041738 L9.35604237,0.71041738 Z" id="Shape" fill="#F6BC80"></path>
                        <path d="M0.669888436,16.1532106 L0.644374276,6.25902083 L8.63852747,11.0277293 L8.66517563,20.9207551 L0.669888436,16.1532106 L0.669888436,16.1532106 Z" id="Shape" fill="#F58C20"></path>
                        <path d="M9.30756544,20.9251202 L9.27978335,11.0277293 L17.6736584,6.05327988 L17.7014405,15.9506708 L9.30756544,20.9251202 L9.30756544,20.9251202 Z" id="Shape" fill="#F6BC80"></path>
                    </g>
                    <g id="Green" transform="translate(114.772220, 35.985062) rotate(30.000000) translate(-114.772220, -35.985062) translate(106.142264, 26.250029)">
                        <path d="M16.2799238,4.66421896 C16.2779079,4.56170457 16.2247376,4.47082829 16.1383045,4.42130443 L8.46137733,0.0377000378 C8.3726762,-0.0125666793 8.26356381,-0.0125666793 8.17486276,0.0377000378 L0.144643236,4.59364746 C0.040318672,4.67585707 -3.01980663e-14,4.75212381 -3.01980663e-14,4.83730485 C-3.01980663e-14,4.83829533 0.0264591285,13.9063616 0.0264591285,13.9063616 C0.0264591285,14.0059045 0.0806373439,14.0990094 0.168078464,14.1482856 L7.84601356,18.5328805 C7.89238005,18.55789 7.94051049,18.5705186 7.98990084,18.5705186 C8.01434404,18.5705186 8.03903922,18.5675472 8.06373439,18.5608615 C8.09220947,18.5521948 8.11287278,18.5435281 8.13353608,18.5328805 L16.1657715,13.9759426 C16.2542206,13.9256759 16.3083988,13.8328186 16.3083988,13.7322852 L16.2799238,4.66421896 L16.2799238,4.66421896 Z" id="Shape" fill="url(#linearGradient-10)"></path>
                        <path d="M8.3164821,0.604500606 L15.4254199,4.66322849 L12.4824089,6.33366826 L7.96318969,8.89801369 L1.25895053,5.06858127 L0.85525983,4.83829533 L8.3164821,0.604500606 L8.3164821,0.604500606 Z" id="Shape" fill="#34A240"></path>
                        <path d="M0.595456388,13.7449138 L0.572777134,5.32585772 L7.67869109,9.38359513 L7.70237831,17.8016607 L0.595456388,13.7449138 L0.595456388,13.7449138 Z" id="Shape" fill="#2D8034"></path>
                        <path d="M8.27339149,17.805375 L8.24869631,9.38359513 L15.7099185,5.15079088 L15.7346138,13.5725708 L8.27339149,17.805375 L8.27339149,17.805375 Z" id="Shape" fill="#34A240"></path>
                    </g>
                    <g id="blue" transform="translate(62.535253, 23.769896) rotate(45.000000) translate(-62.535253, -23.769896) translate(53.321806, 12.764594)">
                        <path d="M18.3149143,5.48145391 C18.3126463,5.3609776 18.2528298,5.25417855 18.1555925,5.19597743 L9.51904946,0.0443056 C9.41926074,-0.0147685333 9.29650931,-0.0147685333 9.19672058,0.0443056 L0.16272364,5.39851732 C0.0453585061,5.49513117 7.10542736e-14,5.58476089 7.10542736e-14,5.68486681 C7.10542736e-14,5.68603084 0.0297665196,16.3429463 0.0297665196,16.3429463 C0.0297665196,16.4599305 0.0907170121,16.5693486 0.189088272,16.6272587 L8.82676528,21.7800946 C8.87892759,21.8094862 8.93307426,21.8243274 8.98863844,21.8243274 C9.01613703,21.8243274 9.04391912,21.8208354 9.07170121,21.8129782 C9.10373568,21.802793 9.12698189,21.7926078 9.1502281,21.7800946 L18.186493,16.4247189 C18.2859982,16.3656447 18.3469487,16.2565176 18.3469487,16.1383694 L18.3149143,5.48145391 L18.3149143,5.48145391 Z" id="Shape" fill="url(#linearGradient-11)"></path>
                        <path d="M9.35604237,0.71041738 L17.3535974,5.48028988 L14.04271,7.44341354 L8.95858841,10.4570673 L1.41631935,5.95666603 L0.962167306,5.68603084 L9.35604237,0.71041738 L9.35604237,0.71041738 Z" id="Shape" fill="#4C64FF"></path>
                        <path d="M0.669888436,16.1532106 L0.644374276,6.25902083 L8.63852747,11.0277293 L8.66517563,20.9207551 L0.669888436,16.1532106 L0.669888436,16.1532106 Z" id="Shape" fill="#0000FD"></path>
                        <path d="M9.30756544,20.9251202 L9.27978335,11.0277293 L17.6736584,6.05327988 L17.7014405,15.9506708 L9.30756544,20.9251202 L9.30756544,20.9251202 Z" id="Shape" fill="#4C63FF"></path>
                    </g>
                    <g id="blue" transform="translate(112.179931, 59.442716) rotate(11.000000) translate(-112.179931, -59.442716) translate(102.284007, 47.749582)">
                        <path d="M19.6715746,5.81366324 C19.6691387,5.68588533 19.6048912,5.57261361 19.5004512,5.51088515 L10.2241642,0.0469907879 C10.1169838,-0.015663596 9.98513964,-0.015663596 9.87795913,0.0469907879 L0.174777244,5.72570019 C0.0487183954,5.82816943 7.46069873e-14,5.92323125 7.46069873e-14,6.0294042 C7.46069873e-14,6.03063876 0.0319714469,17.3334279 0.0319714469,17.3334279 C0.0319714469,17.4575021 0.0974367909,17.5735515 0.20309481,17.6349714 L9.48059977,23.1001003 C9.53662592,23.1312732 9.59478345,23.147014 9.65446351,23.147014 C9.68399902,23.147014 9.71383906,23.1433102 9.74367909,23.1349769 C9.77808647,23.1241744 9.80305463,23.1133719 9.8280228,23.1001003 L19.5336406,17.4201563 C19.6405166,17.357502 19.7059819,17.2417611 19.7059819,17.1164524 L19.6715746,5.81366324 L19.6715746,5.81366324 Z" id="Path" fill="url(#linearGradient-12)"></path>
                        <path d="M10.0490825,0.753472976 L18.6390491,5.81242867 L15.0829107,7.89452954 L9.62218758,11.090829 L1.5212319,6.31767609 L1.03343896,6.03063876 L10.0490825,0.753472976 L10.0490825,0.753472976 Z" id="Path" fill="#4C64FF"></path>
                        <path d="M0.719509803,17.1321931 L0.692105703,6.63835542 L9.2784184,11.6960765 L9.30704048,22.1886796 L0.719509803,17.1321931 L0.719509803,17.1321931 Z" id="Path" fill="#0000FD"></path>
                        <path d="M9.99701474,22.1933093 L9.96717471,11.6960765 L18.9828182,6.42014533 L19.0126583,16.9173781 L9.99701474,22.1933093 L9.99701474,22.1933093 Z" id="Path" fill="#4C63FF"></path>
                    </g>
                    <g id="Rose" transform="translate(27.828846, 33.642720) rotate(42.000000) translate(-27.828846, -33.642720) translate(19.639115, 24.356997)">
                        <path d="M16.2799238,4.66421896 C16.2779079,4.56170457 16.2247376,4.47082829 16.1383045,4.42130443 L8.46137733,0.0377000378 C8.3726762,-0.0125666793 8.26356381,-0.0125666793 8.17486276,0.0377000378 L0.144643236,4.59364746 C0.040318672,4.67585707 0,4.75212381 0,4.83730485 C0,4.83829533 0.0264591285,13.9063616 0.0264591285,13.9063616 C0.0264591285,14.0059045 0.0806373439,14.0990094 0.168078464,14.1482856 L7.84601356,18.5328805 C7.89238005,18.55789 7.94051049,18.5705186 7.98990084,18.5705186 C8.01434404,18.5705186 8.03903922,18.5675472 8.06373439,18.5608615 C8.09220947,18.5521948 8.11287278,18.5435281 8.13353608,18.5328805 L16.1657715,13.9759426 C16.2542206,13.9256759 16.3083988,13.8328186 16.3083988,13.7322852 L16.2799238,4.66421896 L16.2799238,4.66421896 Z" id="Shape" fill="url(#linearGradient-14)"></path>
                        <path d="M8.3164821,0.604500606 L15.4254199,4.66322849 L12.4824089,6.33366826 L7.96318969,8.89801369 L1.25895053,5.06858127 L0.85525983,4.83829533 L8.3164821,0.604500606 L8.3164821,0.604500606 Z" id="Shape" fill="#FF5A72"></path>
                        <path d="M0.595456388,13.7449138 L0.572777134,5.32585772 L7.67869109,9.38359513 L7.70237831,17.8016607 L0.595456388,13.7449138 L0.595456388,13.7449138 Z" id="Shape" fill="#D4465B"></path>
                        <path d="M8.27339149,17.805375 L8.24869631,9.38359513 L15.7099185,5.15079088 L15.7346138,13.5725708 L8.27339149,17.805375 L8.27339149,17.805375 Z" id="Shape" fill="#EB4A62"></path>
                    </g>
                </g>
                <g id="Colored-Cubes" transform="translate(196.354077, 38.131629) scale(-1, -1) translate(-196.354077, -38.131629) translate(132.708155, 1.354839)" sketch:type="MSShapeGroup">
                    <g id="Orange" transform="translate(11.861901, 49.384744) rotate(-25.000000) translate(-11.861901, -49.384744) translate(4.092705, 40.027038)">
                        <path d="M14.9232635,4.4421133 C14.9214155,4.34448055 14.8726761,4.25793171 14.7934457,4.21076613 L7.75626251,0.0359047979 C7.67495323,-0.011968266 7.57493348,-0.011968266 7.4936242,0.0359047979 L0.132589633,4.37490235 C0.0369587827,4.45319721 -4.63629135e-13,4.5258322 -4.63629135e-13,4.606957 C-4.63629135e-13,4.60790031 0.0242542011,13.2441539 0.0242542011,13.2441539 C0.0242542011,13.3389567 0.0739175652,13.427628 0.154071925,13.4745577 L7.19217914,17.6503624 C7.23468172,17.674181 7.27880123,17.6862082 7.32407577,17.6862082 C7.34648205,17.6862082 7.36911928,17.6833783 7.39175652,17.6770109 C7.41785869,17.668757 7.43680003,17.660503 7.45574145,17.6503624 L14.8186239,13.3104215 C14.8997022,13.2625484 14.9493656,13.174113 14.9493656,13.0783669 L14.9232635,4.4421133 L14.9232635,4.4421133 Z" id="Shape" fill="url(#linearGradient-3)"></path>
                        <path d="M7.62344194,0.575714863 L14.1399683,4.44116999 L11.4422081,6.032065 L7.29959059,8.47429876 L1.15403799,4.82722026 L0.783988177,4.60790031 L7.62344194,0.575714863 L7.62344194,0.575714863 Z" id="Shape" fill="#F6BC80"></path>
                        <path d="M0.545835022,13.0903941 L0.525045707,5.07224545 L7.03880016,8.93675723 L7.06051346,16.9539626 L0.545835022,13.0903941 L0.545835022,13.0903941 Z" id="Shape" fill="#F58C20"></path>
                        <path d="M7.58394219,16.9575 L7.56130495,8.93675723 L14.4007587,4.90551512 L14.4233959,12.9262578 L7.58394219,16.9575 L7.58394219,16.9575 Z" id="Shape" fill="url(#linearGradient-4)"></path>
                    </g>
                    <g id="Purple" transform="translate(70.042505, 53.346645) rotate(45.000000) translate(-70.042505, -53.346645) translate(60.829059, 42.341343)">
                        <path d="M18.3149143,5.48145391 C18.3126463,5.3609776 18.2528298,5.25417855 18.1555925,5.19597743 L9.51904946,0.0443056 C9.41926074,-0.0147685333 9.29650931,-0.0147685333 9.19672058,0.0443056 L0.16272364,5.39851732 C0.0453585061,5.49513117 -7.10542736e-14,5.58476089 -7.10542736e-14,5.68486681 C-7.10542736e-14,5.68603084 0.0297665196,16.3429463 0.0297665196,16.3429463 C0.0297665196,16.4599305 0.0907170121,16.5693486 0.189088272,16.6272587 L8.82676528,21.7800946 C8.87892759,21.8094862 8.93307426,21.8243274 8.98863844,21.8243274 C9.01613703,21.8243274 9.04391912,21.8208354 9.07170121,21.8129782 C9.10373568,21.802793 9.12698189,21.7926078 9.1502281,21.7800946 L18.186493,16.4247189 C18.2859982,16.3656447 18.3469487,16.2565176 18.3469487,16.1383694 L18.3149143,5.48145391 L18.3149143,5.48145391 Z" id="Shape" fill="url(#linearGradient-5)"></path>
                        <path d="M9.35604237,0.71041738 L17.3535974,5.48028988 L14.04271,7.44341354 L8.95858841,10.4570673 L1.41631935,5.95666603 L0.962167306,5.68603084 L9.35604237,0.71041738 L9.35604237,0.71041738 Z" id="Shape" fill="#943799"></path>
                        <path d="M0.669888436,16.1532106 L0.644374276,6.25902083 L8.63852747,11.0277293 L8.66517563,20.9207551 L0.669888436,16.1532106 L0.669888436,16.1532106 Z" id="Shape" fill="#7F027F"></path>
                        <path d="M9.30756544,20.9251202 L9.27978335,11.0277293 L17.6736584,6.05327988 L17.7014405,15.9506708 L9.30756544,20.9251202 L9.30756544,20.9251202 Z" id="Shape" fill="#943799"></path>
                    </g>
                    <g id="Yellow" transform="translate(51.675616, 35.867673) rotate(118.000000) translate(-51.675616, -35.867673) translate(42.462169, 24.862371)">
                        <path d="M18.3149143,5.48145391 C18.3126463,5.3609776 18.2528298,5.25417855 18.1555925,5.19597743 L9.51904946,0.0443056 C9.41926074,-0.0147685333 9.29650931,-0.0147685333 9.19672058,0.0443056 L0.16272364,5.39851732 C0.0453585061,5.49513117 0,5.58476089 0,5.68486681 C0,5.68603084 0.0297665196,16.3429463 0.0297665196,16.3429463 C0.0297665196,16.4599305 0.0907170121,16.5693486 0.189088272,16.6272587 L8.82676528,21.7800946 C8.87892759,21.8094862 8.93307426,21.8243274 8.98863844,21.8243274 C9.01613703,21.8243274 9.04391912,21.8208354 9.07170121,21.8129782 C9.10373568,21.802793 9.12698189,21.7926078 9.1502281,21.7800946 L18.186493,16.4247189 C18.2859982,16.3656447 18.3469487,16.2565176 18.3469487,16.1383694 L18.3149143,5.48145391 L18.3149143,5.48145391 Z" id="Shape" fill="url(#linearGradient-8)"></path>
                        <path d="M9.35604237,0.71041738 L17.3535974,5.48028988 L14.04271,7.44341354 L8.95858841,10.4570673 L1.41631935,5.95666603 L0.962167306,5.68603084 L9.35604237,0.71041738 L9.35604237,0.71041738 Z" id="Shape" fill="#FFE900"></path>
                        <path d="M0.669888436,16.1532106 L0.644374276,6.25902083 L8.63852747,11.0277293 L8.66517563,20.9207551 L0.669888436,16.1532106 L0.669888436,16.1532106 Z" id="Shape" fill="#EEC800"></path>
                        <path d="M9.30756544,20.9251202 L9.27978335,11.0277293 L17.6736584,6.05327988 L17.7014405,15.9506708 L9.30756544,20.9251202 L9.30756544,20.9251202 Z" id="Shape" fill="#FFE900"></path>
                    </g>
                    <g id="blue" transform="translate(62.535253, 23.769896) rotate(45.000000) translate(-62.535253, -23.769896) translate(53.321806, 12.764594)">
                        <path d="M18.3149143,5.48145391 C18.3126463,5.3609776 18.2528298,5.25417855 18.1555925,5.19597743 L9.51904946,0.0443056 C9.41926074,-0.0147685333 9.29650931,-0.0147685333 9.19672058,0.0443056 L0.16272364,5.39851732 C0.0453585061,5.49513117 7.10542736e-14,5.58476089 7.10542736e-14,5.68486681 C7.10542736e-14,5.68603084 0.0297665196,16.3429463 0.0297665196,16.3429463 C0.0297665196,16.4599305 0.0907170121,16.5693486 0.189088272,16.6272587 L8.82676528,21.7800946 C8.87892759,21.8094862 8.93307426,21.8243274 8.98863844,21.8243274 C9.01613703,21.8243274 9.04391912,21.8208354 9.07170121,21.8129782 C9.10373568,21.802793 9.12698189,21.7926078 9.1502281,21.7800946 L18.186493,16.4247189 C18.2859982,16.3656447 18.3469487,16.2565176 18.3469487,16.1383694 L18.3149143,5.48145391 L18.3149143,5.48145391 Z" id="Shape" fill="url(#linearGradient-11)"></path>
                        <path d="M9.35604237,0.71041738 L17.3535974,5.48028988 L14.04271,7.44341354 L8.95858841,10.4570673 L1.41631935,5.95666603 L0.962167306,5.68603084 L9.35604237,0.71041738 L9.35604237,0.71041738 Z" id="Shape" fill="#4C64FF"></path>
                        <path d="M0.669888436,16.1532106 L0.644374276,6.25902083 L8.63852747,11.0277293 L8.66517563,20.9207551 L0.669888436,16.1532106 L0.669888436,16.1532106 Z" id="Shape" fill="#0000FD"></path>
                        <path d="M9.30756544,20.9251202 L9.27978335,11.0277293 L17.6736584,6.05327988 L17.7014405,15.9506708 L9.30756544,20.9251202 L9.30756544,20.9251202 Z" id="Shape" fill="#4C63FF"></path>
                    </g>
                    <g id="Rose" transform="translate(27.828846, 33.642720) rotate(42.000000) translate(-27.828846, -33.642720) translate(19.639115, 24.356997)">
                        <path d="M16.2799238,4.66421896 C16.2779079,4.56170457 16.2247376,4.47082829 16.1383045,4.42130443 L8.46137733,0.0377000378 C8.3726762,-0.0125666793 8.26356381,-0.0125666793 8.17486276,0.0377000378 L0.144643236,4.59364746 C0.040318672,4.67585707 0,4.75212381 0,4.83730485 C0,4.83829533 0.0264591285,13.9063616 0.0264591285,13.9063616 C0.0264591285,14.0059045 0.0806373439,14.0990094 0.168078464,14.1482856 L7.84601356,18.5328805 C7.89238005,18.55789 7.94051049,18.5705186 7.98990084,18.5705186 C8.01434404,18.5705186 8.03903922,18.5675472 8.06373439,18.5608615 C8.09220947,18.5521948 8.11287278,18.5435281 8.13353608,18.5328805 L16.1657715,13.9759426 C16.2542206,13.9256759 16.3083988,13.8328186 16.3083988,13.7322852 L16.2799238,4.66421896 L16.2799238,4.66421896 Z" id="Shape" fill="url(#linearGradient-14)"></path>
                        <path d="M8.3164821,0.604500606 L15.4254199,4.66322849 L12.4824089,6.33366826 L7.96318969,8.89801369 L1.25895053,5.06858127 L0.85525983,4.83829533 L8.3164821,0.604500606 L8.3164821,0.604500606 Z" id="Shape" fill="#FF5A72"></path>
                        <path d="M0.595456388,13.7449138 L0.572777134,5.32585772 L7.67869109,9.38359513 L7.70237831,17.8016607 L0.595456388,13.7449138 L0.595456388,13.7449138 Z" id="Shape" fill="#D4465B"></path>
                        <path d="M8.27339149,17.805375 L8.24869631,9.38359513 L15.7099185,5.15079088 L15.7346138,13.5725708 L8.27339149,17.805375 L8.27339149,17.805375 Z" id="Shape" fill="#EB4A62"></path>
                    </g>
                </g>
            </g>
        </g>
    </g>
</svg>