<?xml version="1.0" encoding="utf-8"?>
<!-- Generator: Avocode 2.5.3 - http://avocode.com -->
<svg height="25" width="25" xmlns:xlink="http://www.w3.org/1999/xlink" xmlns="http://www.w3.org/2000/svg" viewBox="0 0 25 25">
    <path fill="#000000" fill-rule="evenodd" d="M 24.97 3.71 C 24.91 3.54 24.79 3.39 24.65 3.3 L 21.08 1.36 C 20.75 1.19 20.31 1.3 20.14 1.63 L 17.28 6.83 L 18.07 1.45 C 18.13 1.04 17.83 0.66 17.42 0.6 L 13.5 0.01 C 13.09 -0.05 12.7 0.24 12.64 0.65 L 12.08 4.36 L 11.58 1.1 C 11.52 0.69 11.11 0.39 10.7 0.48 L 6.81 1.13 C 6.39 1.19 6.1 1.6 6.19 2.01 L 6.92 6.6 L 4.95 2.89 C 4.74 2.51 4.3 2.39 3.92 2.57 L 0.4 4.39 C 0.02 4.6 -0.1 5.04 0.08 5.42 L 9.64 23.3 L 9.66 23.42 C 9.69 23.63 9.81 23.8 9.99 23.92 L 10.34 24.6 C 10.55 24.98 10.99 25.1 11.37 24.92 L 13.59 23.74 C 13.64 23.77 13.73 23.77 13.79 23.77 C 13.97 23.77 14.15 23.71 14.26 23.57 C 14.44 23.54 14.59 23.45 14.68 23.3 C 14.82 23.21 14.94 23.1 15 22.92 C 15.24 22.68 15.33 22.33 15.15 22.01 L 24.88 4.22 C 25 4.1 25.03 3.89 24.97 3.71 L 24.97 3.71 Z M 13 0.72 C 13.03 0.48 13.26 0.3 13.5 0.33 L 17.42 0.92 C 17.66 0.95 17.83 1.19 17.81 1.42 L 17.69 2.1 L 12.91 1.39 L 13 0.72 Z M 12.41 4.54 L 17.19 5.24 L 17.07 6.04 L 12.29 5.33 L 12.41 4.54 Z M 12.79 8.6 L 16.06 9.07 L 15.68 9.74 L 12.91 9.33 L 12.58 9.27 L 11.7 9.16 L 11.73 8.98 L 11.82 8.45 L 12.79 8.6 Z M 10.43 13.16 L 10.82 13.1 L 10.73 13.69 L 10.7 13.77 L 10.43 13.83 L 8.78 14.1 L 8.49 14.15 L 8.37 13.51 L 10.43 13.16 Z M 7.87 10.36 L 7.84 10.19 L 7.75 9.63 L 8.49 9.51 L 11.41 9.04 L 11.29 9.8 L 8.84 10.19 L 8.51 10.24 L 7.87 10.36 Z M 10.7 16.1 L 12.11 16.3 L 11.85 16.8 L 11.76 16.95 L 11.58 16.95 L 11.29 16.89 L 10.58 16.77 L 10.7 16.1 Z M 11.41 13.01 L 11.17 12.98 L 11.26 12.33 L 13.47 12.66 L 14.09 12.75 L 13.74 13.36 L 13.59 13.33 L 13.26 13.28 L 11.41 13.01 Z M 11.88 4.95 L 11.93 5.39 L 11.88 5.74 L 7.22 6.51 L 7.1 5.71 L 11.88 4.95 Z M 6.6 2.6 L 6.48 1.92 C 6.45 1.68 6.6 1.45 6.83 1.42 L 10.72 0.77 C 10.96 0.75 11.2 0.89 11.23 1.13 L 11.34 1.8 L 6.6 2.6 Z M 0.38 5.27 C 0.26 5.07 0.35 4.8 0.55 4.69 L 4.03 2.83 C 4.24 2.71 4.5 2.8 4.62 3.01 L 4.95 3.63 L 0.67 5.89 L 0.38 5.27 Z M 2.2 8.68 L 6.48 6.42 L 6.86 7.13 L 2.59 9.39 L 2.2 8.68 Z M 4.06 12.18 L 7.51 10.33 L 7.63 11.1 L 4.39 12.83 L 4.06 12.18 Z M 5.92 15.62 L 8.22 14.42 L 8.34 15.13 L 6.25 16.24 L 5.92 15.62 Z M 8.04 19.63 L 7.72 19.01 L 8.84 18.42 L 8.96 19.16 L 8.04 19.63 Z M 9.1 17.95 L 8.99 17.24 L 10.19 17.04 L 10.11 17.71 L 10.11 17.8 L 9.93 17.83 L 9.1 17.95 Z M 9.84 22.54 C 9.78 22.48 9.75 22.39 9.75 22.3 L 9.75 22.21 L 9.75 22.12 L 9.81 21.71 C 9.84 21.74 9.87 21.74 9.9 21.77 L 10.31 22 L 12.2 23.03 L 10.11 22.71 C 10.02 22.71 9.93 22.63 9.84 22.54 L 9.84 22.54 Z M 10.23 23.71 C 10.11 23.65 10.02 23.54 9.99 23.39 L 9.96 23.21 L 9.93 23.01 C 9.99 23.04 10.05 23.04 10.11 23.07 L 12.58 23.45 L 10.49 23.77 C 10.4 23.77 10.31 23.74 10.23 23.71 L 10.23 23.71 Z M 11.23 24.65 C 11.02 24.77 10.76 24.68 10.64 24.48 L 10.43 24.1 L 10.55 24.1 L 13.12 23.68 L 11.23 24.65 Z M 24.65 4.1 L 15.06 21.62 L 15 21.74 L 14.94 21.83 L 14.83 22.07 L 14.71 22.3 L 14.62 22.48 L 14.32 23.04 L 14.24 23.12 L 14.15 23.27 L 14.15 23.27 C 14.03 23.45 13.79 23.54 13.62 23.42 L 13.08 23.15 L 10.64 21.83 L 10.05 21.51 C 9.99 21.48 9.93 21.42 9.9 21.33 C 9.84 21.24 9.84 21.13 9.87 21.04 C 9.87 21.01 9.9 20.98 9.9 20.95 L 9.99 20.8 L 10.46 19.95 L 11.7 17.65 L 11.79 17.51 L 12.08 16.98 L 12.11 16.92 L 12.23 16.71 L 12.32 16.57 L 12.46 16.3 L 13.73 13.98 L 14.09 13.33 L 14.44 12.71 L 16.01 9.8 L 16.39 9.13 L 17.19 7.68 L 20.43 1.77 C 20.49 1.66 20.63 1.57 20.78 1.57 C 20.84 1.57 20.93 1.6 20.99 1.63 L 24.56 3.57 C 24.65 3.63 24.73 3.71 24.76 3.8 C 24.79 3.89 24.71 4.01 24.65 4.1 L 24.65 4.1 Z M 24.65 4.1" />
    <path fill="#000000" fill-rule="evenodd" d="M 15.57 16.56 L 14.71 16.1 L 14.39 15.92 L 13.63 15.5 L 13.58 15.48 L 13.34 15.89 L 13.24 16.1 L 13.03 16.49 L 12.87 16.8 L 11.9 18.56 L 13.37 19.36 L 13.61 19.49 L 13.63 19.51 L 14.6 20.03 L 14.78 20.13 L 14.91 20.21 L 14.97 20.24 L 14.99 20.19 L 15.02 20.16 L 15.07 20.08 L 15.44 19.44 L 16.64 17.24 L 16.67 17.19 L 15.83 16.69 L 15.57 16.56 Z M 15.49 19.05 L 15.1 19.77 L 15.05 19.85 L 14.94 20.03 L 14.78 19.95 L 14.47 19.8 L 13.82 19.43 L 13.74 19.38 L 12.06 18.5 L 13.03 16.77 L 13.19 16.51 L 13.42 16.1 L 13.48 15.92 L 13.61 15.66 L 14.31 16.04 L 14.42 16.1 L 15.54 16.72 L 15.81 16.87 L 16.49 17.23 L 15.49 19.05 Z M 15.49 19.05" />
    <path fill="#000000" fill-rule="evenodd" d="M 15.32 17.89 C 15.3 17.89 15.3 17.91 15.3 17.94 L 14.52 19.55 L 14.3 20.02 C 14.3 20.02 14.3 20.02 14.3 20.04 C 14.27 20.1 14.3 20.18 14.34 20.21 L 14.34 20.21 C 14.37 20.21 14.37 20.24 14.39 20.24 C 14.44 20.24 14.47 20.21 14.49 20.15 L 14.56 19.99 L 15.2 18.63 L 15.47 18.05 C 15.49 18 15.47 17.91 15.42 17.86 C 15.39 17.86 15.35 17.86 15.32 17.89 L 15.32 17.89 Z M 15.32 17.89" />
    <path fill="#000000" fill-rule="evenodd" d="M 14.29 22.02 C 14.29 22.82 13.1 22.82 13.1 22.02 C 13.1 21.23 14.29 21.23 14.29 22.02" />
</svg>