<?xml version="1.0" encoding="UTF-8" standalone="no"?>
<svg width="146px" height="148px" viewBox="0 0 146 148" version="1.1" xmlns="http://www.w3.org/2000/svg" xmlns:xlink="http://www.w3.org/1999/xlink" xmlns:sketch="http://www.bohemiancoding.com/sketch/ns">
    <!-- Generator: Sketch 3.5.2 (25235) - http://www.bohemiancoding.com/sketch -->
    <title>56</title>
    <desc>Created with Sketch.</desc>
    <defs>
        <path id="path-1" d="M69.5,148 C107.88379,148 139,116.88379 139,78.5 C139,40.1162099 107.88379,9 69.5,9 C31.1162099,9 0,40.1162099 0,78.5 C0,116.88379 31.1162099,148 69.5,148 Z"></path>
    </defs>
    <g id="Onboard---(What-is-Opticolor?)" stroke="none" stroke-width="1" fill="none" fill-rule="evenodd" sketch:type="MSPage">
        <g id="Onboard-1.2" sketch:type="MSArtboardGroup" transform="translate(-115.000000, -233.000000)">
            <g id="56" sketch:type="MSLayerGroup" transform="translate(115.000000, 233.000000)">
                <mask id="mask-2" sketch:name="Mask" fill="white">
                    <use xlink:href="#path-1"></use>
                </mask>
                <use id="Mask" fill="#6DB8DE" sketch:type="MSShapeGroup" xlink:href="#path-1"></use>
                <g id="Group" mask="url(#mask-2)">
                    <g transform="translate(-30.000000, 26.000000)" id="Pantone">
                        <g>
                            <g id="Layer_1" sketch:type="MSShapeGroup">
                                <g id="Group">
                                    <path d="M64.358209,115.999999 L66.8031496,111.203893 L70.5952756,103.781464 L57.2787402,96.9775709 L51.1055118,109.12738 L57.1905512,112.220059 L64.358209,115.999999 Z" id="Shape" fill="#CEA73B"></path>
                                    <path d="M29.2895654,36.8216326 L75.7334167,60.5147951 L69.5716706,72.6406938 L23.1278192,48.9475313 L29.2895654,36.8216326 L29.2895654,36.8216326 Z" id="Rectangle-path" fill="#E37D39"></path>
                                    <path d="M35.4647559,24.6738774 L81.9086072,48.3670399 L75.7468611,60.4929387 L29.3030098,36.7997762 L35.4647559,24.6738774 L35.4647559,24.6738774 Z" id="Rectangle-path" fill="#39B39B"></path>
                                    <path d="M23.1144189,48.9694319 L69.5582702,72.6625944 L63.3965241,84.7884931 L16.9526728,61.0953306 L23.1144189,48.9694319 L23.1144189,48.9694319 Z" id="Rectangle-path" fill="#E65336"></path>
                                    <path d="M89.0714173,67.3201287 L75.7512265,60.5248816 L81.9129726,48.3989829 L95.2331635,55.19423 L89.0714173,67.3201287 L89.0714173,67.3201287 Z" id="Rectangle-path" fill="#138D6E"></path>
                                    <path d="M16.959234,61.0778614 L63.4030854,84.7710239 L57.2413392,96.8969227 L10.7974879,73.2037602 L16.959234,61.0778614 L16.959234,61.0778614 Z" id="Rectangle-path" fill="#6DB8E0"></path>
                                    <path d="M69.5982992,72.6739755 L75.7600454,60.5480767 L89.0802362,67.3433238 L82.9184901,79.4692226 L69.5982992,72.6739755 L69.5982992,72.6739755 Z" id="Rectangle-path" fill="#C76128"></path>
                                    <path d="M95.2440945,55.182226 L100.182677,45.4623783 C101.417323,42.9882353 100.447244,39.9839187 98.0220472,38.7468472 L89.1149606,34.1961913 L81.9275591,48.3783326 L95.2440945,55.182226 L95.2440945,55.182226 Z" id="Shape" fill="#39B39B"></path>
                                    <path d="M89.1149606,34.1961913 L47.0929134,12.7683453 C44.623622,11.5312738 41.6251969,12.5032586 40.3905512,14.9332205 L35.4519685,24.6530681 L81.9275591,48.3341515 L89.1149606,34.1961913 L89.1149606,34.1961913 Z" id="Shape" fill="#6DC7B7"></path>
                                    <path d="M70.5715087,103.738564 L57.2513178,96.9433173 L63.4130639,84.8174185 L76.7332548,91.6126656 L70.5715087,103.738564 L70.5715087,103.738564 Z" id="Rectangle-path" fill="#27A4D5"></path>
                                    <path d="M76.7381449,91.5989827 L63.417954,84.8037356 L69.5797002,72.6778369 L82.899891,79.473084 L76.7381449,91.5989827 L76.7381449,91.5989827 Z" id="Rectangle-path" fill="#BF4028"></path>
                                    <path d="M91.7619395,42.0311793 L95.2589808,43.8151823 L93.4784762,47.3190946 L89.981435,45.5350916 L91.7619395,42.0311793 L91.7619395,42.0311793 Z" id="Rectangle-path" fill="#FFFFFF"></path>
                                    <path d="M78.7972031,67.6288885 L82.2942444,69.4128915 L80.5137398,72.9168038 L77.0166986,71.1328008 L78.7972031,67.6288885 L78.7972031,67.6288885 Z" id="Rectangle-path" fill="#FFFFFF"></path>
                                    <path d="M66.3602205,92.1034649 L69.8572617,93.8874678 L68.0767572,97.3913801 L64.5797159,95.6073772 L66.3602205,92.1034649 L66.3602205,92.1034649 Z" id="Rectangle-path" fill="#FFFFFF"></path>
                                    <path d="M72.885389,79.2428915 L76.3824302,81.0268944 L74.6019257,84.5308067 L71.1048844,82.7468038 L72.885389,79.2428915 L72.885389,79.2428915 Z" id="Rectangle-path" fill="#FFFFFF"></path>
                                    <path d="M60.5531175,103.497441 L64.0501587,105.281444 L62.2696542,108.785357 L58.7726129,107.001354 L60.5531175,103.497441 L60.5531175,103.497441 Z" id="Rectangle-path" fill="#FFFFFF"></path>
                                    <path d="M84.932497,55.5170703 L88.4295383,57.3010732 L86.6490337,60.8049855 L83.1519924,59.0209826 L84.932497,55.5170703 L84.932497,55.5170703 Z" id="Rectangle-path" fill="#FFFFFF"></path>
                                    <path d="M10.0094488,88.1413457 L51.0614173,109.083199 L57.2346457,96.9333898 L10.8031496,73.2523064 L6.3496063,82.0443504 C6.79055118,82.9279729 7.27559055,83.8115954 7.80472441,84.6510368 C8.51023622,85.8439272 9.25984252,87.0368176 10.0094488,88.1413457 L10.0094488,88.1413457 Z" id="Shape" fill="#F2CD56"></path>
                                    <path d="M10.0094488,88.1413457 C19.4897638,101.793314 34.0850394,110.055184 49.6503937,111.86661 L51.0614173,109.083199 L10.0094488,88.1413457 L10.0094488,88.1413457 Z" id="Shape" fill="#527F99"></path>
                                    <path d="M49.6503937,111.86661 C52.119685,112.131697 54.6330709,112.26424 57.1905512,112.220059 L51.0614173,109.083199 L49.6503937,111.86661 L49.6503937,111.86661 Z" id="Shape" fill="#2C424F"></path>
                                </g>
                            </g>
                        </g>
                    </g>
                </g>
                <g id="Photos" transform="translate(103.500000, 37.000000) scale(-1, 1) translate(-103.500000, -37.000000) translate(61.000000, 0.000000)" sketch:type="MSShapeGroup">
                    <g id="Group" transform="translate(0.000000, 3.609756)">
                        <path d="M0.139417832,23.6919242 L36.7394906,0.325491707 L65.6921252,46.7839792 L29.0920524,70.1504117 L0.139417832,23.6919242 L0.139417832,23.6919242 Z" id="Rectangle-path" fill="#EDF0F2"></path>
                        <path d="M4.58366364,24.6128031 L35.6032308,4.80910959 L56.2474423,37.9355886 L25.2278752,57.7392821 L4.58366364,24.6128031 L4.58366364,24.6128031 Z" id="Rectangle-path" fill="#E65336"></path>
                    </g>
                    <path d="M29.144901,11.4730141 L71.0415556,0.510281138 L84.6251441,53.6920115 L42.7284895,64.6547446 L29.144901,11.4730141 L29.144901,11.4730141 Z" id="Rectangle-path" fill="#EDF0F2"></path>
                    <path d="M33.1335231,13.6912213 L68.6420888,4.4000039 L78.3276486,42.3203834 L42.8190829,51.6116008 L33.1335231,13.6912213 L33.1335231,13.6912213 Z" id="Rectangle-path" fill="#F0C949"></path>
                </g>
                <g id="Camera" transform="translate(65.000000, 82.000000)" sketch:type="MSShapeGroup">
                    <rect id="Rectangle-path" fill="#527F99" x="9.43150685" y="0" width="12.2054795" height="4.47410817"></rect>
                    <path d="M81,8.48621604 C81,6.29779357 79.2642857,4.47410817 77.0223214,4.47410817 L3.97767857,4.47410817 C1.80803571,4.47410817 0,6.22484615 0,8.48621604 L0,16.2186421 L80.9276786,16.2186421 L80.9276786,8.48621604 L81,8.48621604 Z" id="Shape" fill="#2C424F"></path>
                    <path d="M7.10542736e-15,57.5202532 C7.10542736e-15,59.7013809 1.73571429,61.5189873 3.97767857,61.5189873 L77.0223214,61.5189873 C79.1919643,61.5189873 81,59.7740852 81,57.5202532 L81,54.2485616 L7.10542736e-15,54.2485616 L7.10542736e-15,57.5202532 L7.10542736e-15,57.5202532 Z" id="Shape" fill="#2C424F"></path>
                    <rect id="Rectangle-path" fill="#BBC2C6" x="1.03736915e-14" y="16.2186421" width="81" height="38.0299194"></rect>
                    <rect id="Rectangle-path" fill="#E65336" x="11.0958904" y="10.6260069" width="5.54794521" height="1.67779056"></rect>
                    <ellipse id="Oval" fill="#EDF0F2" cx="40.2226027" cy="34.9539701" rx="21.9143836" ry="22.0909091"></ellipse>
                    <ellipse id="Oval" fill="#2C424F" cx="40.2226027" cy="34.9539701" rx="20.25" ry="20.4131185"></ellipse>
                    <ellipse id="Oval" fill="#527F99" cx="40.2226027" cy="35.5132336" rx="13.0376712" ry="13.1426928"></ellipse>
                    <path d="M40.2226027,48.6559264 C47.4231097,48.6559264 53.260274,42.7717424 53.260274,35.5132336 C53.260274,28.2547248 47.4231097,22.3705409 40.2226027,22.3705409 C33.0220957,22.3705409 27.1849315,28.2547248 27.1849315,35.5132336 C27.1849315,42.7717424 33.0220957,48.6559264 40.2226027,48.6559264 Z" id="Oval" fill="#BBC2C6"></path>
                </g>
            </g>
        </g>
    </g>
</svg>