<?xml version="1.0" encoding="utf-8"?>
<!-- Generator: Avocode 2.5.3 - http://avocode.com -->
<svg height="139" width="375" xmlns:xlink="http://www.w3.org/1999/xlink" xmlns="http://www.w3.org/2000/svg" viewBox="0 0 375 139">
    <defs>
        <linearGradient y2="0%" y1="36%" x2="93%" x1="0%" id="gradient-1">
            <stop stop-color="#f58c20" offset="0%" />
            <stop stop-color="#f6bc80" offset="100%" />
        </linearGradient>
        <linearGradient y2="100%" y1="0%" x2="0%" x1="0%" id="gradient-2">
            <stop stop-color="#fce0b7" offset="0%" />
            <stop stop-color="#f6bc80" offset="100%" />
        </linearGradient>
        <linearGradient y2="36%" y1="0%" x2="0%" x1="93%" id="gradient-3">
            <stop stop-color="#7f027f" offset="0%" />
            <stop stop-color="#943799" offset="100%" />
        </linearGradient>
        <linearGradient y2="0%" y1="34%" x2="94%" x1="0%" id="gradient-4">
            <stop stop-color="#edc700" offset="0%" />
            <stop stop-color="#ffe900" offset="100%" />
        </linearGradient>
        <linearGradient y2="0%" y1="37%" x2="93%" x1="0%" id="gradient-5">
            <stop stop-color="#2d8034" offset="0%" />
            <stop stop-color="#2d8034" offset="0%" />
            <stop stop-color="#34a240" offset="100%" />
        </linearGradient>
        <linearGradient y2="0%" y1="36%" x2="93%" x1="0%" id="gradient-6">
            <stop stop-color="#0000fd" offset="0%" />
            <stop stop-color="#4c64ff" offset="100%" />
        </linearGradient>
        <linearGradient y2="87%" y1="0%" x2="0%" x1="50%" id="gradient-7">
            <stop stop-color="#ee97a9" offset="0%" />
            <stop stop-color="#ee97a8" offset="0%" />
            <stop stop-color="#d85e6f" offset="100%" />
        </linearGradient>
        <linearGradient y2="0%" y1="34%" x2="94%" x1="0%" id="gradient-8">
            <stop stop-color="#edc700" offset="0%" />
            <stop stop-color="#ffe900" offset="100%" />
        </linearGradient>
        <linearGradient y2="0%" y1="36%" x2="93%" x1="0%" id="gradient-9">
            <stop stop-color="#f58c20" offset="0%" />
            <stop stop-color="#f6bc80" offset="100%" />
        </linearGradient>
        <linearGradient y2="100%" y1="0%" x2="0%" x1="0%" id="gradient-10">
            <stop stop-color="#fce0b7" offset="0%" />
            <stop stop-color="#f6bc80" offset="100%" />
        </linearGradient>
        <linearGradient y2="36%" y1="0%" x2="0%" x1="93%" id="gradient-11">
            <stop stop-color="#7f027f" offset="0%" />
            <stop stop-color="#943799" offset="100%" />
        </linearGradient>
        <linearGradient y2="87%" y1="0%" x2="0%" x1="50%" id="gradient-12">
            <stop stop-color="#ee97a9" offset="0%" />
            <stop stop-color="#ee97a8" offset="0%" />
            <stop stop-color="#d85e6f" offset="100%" />
        </linearGradient>
        <linearGradient y2="0%" y1="34%" x2="94%" x1="0%" id="gradient-13">
            <stop stop-color="#edc700" offset="0%" />
            <stop stop-color="#ffe900" offset="100%" />
        </linearGradient>
        <linearGradient y2="0%" y1="34%" x2="94%" x1="0%" id="gradient-14">
            <stop stop-color="#f58c20" offset="0%" />
            <stop stop-color="#f6bc80" offset="100%" />
        </linearGradient>
        <linearGradient y2="0%" y1="37%" x2="93%" x1="0%" id="gradient-15">
            <stop stop-color="#2d8034" offset="0%" />
            <stop stop-color="#2d8034" offset="0%" />
            <stop stop-color="#34a240" offset="100%" />
        </linearGradient>
        <linearGradient y2="0%" y1="36%" x2="93%" x1="0%" id="gradient-16">
            <stop stop-color="#0000fd" offset="0%" />
            <stop stop-color="#4c64ff" offset="100%" />
        </linearGradient>
        <linearGradient y2="0%" y1="37%" x2="93%" x1="0%" id="gradient-17">
            <stop stop-color="#0000fd" offset="0%" />
            <stop stop-color="#4c64ff" offset="100%" />
        </linearGradient>
        <linearGradient y2="87%" y1="0%" x2="0%" x1="50%" id="gradient-18">
            <stop stop-color="#ee97a9" offset="0%" />
            <stop stop-color="#ee97a8" offset="0%" />
            <stop stop-color="#d85e6f" offset="100%" />
        </linearGradient>
        <linearGradient y2="0%" y1="36%" x2="93%" x1="0%" id="gradient-19">
            <stop stop-color="#f58c20" offset="0%" />
            <stop stop-color="#f6bc80" offset="100%" />
        </linearGradient>
        <linearGradient y2="100%" y1="0%" x2="0%" x1="0%" id="gradient-20">
            <stop stop-color="#fce0b7" offset="0%" />
            <stop stop-color="#f6bc80" offset="100%" />
        </linearGradient>
        <linearGradient y2="36%" y1="0%" x2="0%" x1="93%" id="gradient-21">
            <stop stop-color="#7f027f" offset="0%" />
            <stop stop-color="#943799" offset="100%" />
        </linearGradient>
        <linearGradient y2="0%" y1="34%" x2="94%" x1="0%" id="gradient-22">
            <stop stop-color="#edc700" offset="0%" />
            <stop stop-color="#ffe900" offset="100%" />
        </linearGradient>
        <linearGradient y2="0%" y1="36%" x2="93%" x1="0%" id="gradient-23">
            <stop stop-color="#0000fd" offset="0%" />
            <stop stop-color="#4c64ff" offset="100%" />
        </linearGradient>
        <linearGradient y2="87%" y1="0%" x2="0%" x1="50%" id="gradient-24">
            <stop stop-color="#ee97a9" offset="0%" />
            <stop stop-color="#ee97a8" offset="0%" />
            <stop stop-color="#d85e6f" offset="100%" />
        </linearGradient>
        <linearGradient y2="0%" y1="34%" x2="94%" x1="0%" id="gradient-25">
            <stop stop-color="#edc700" offset="0%" />
            <stop stop-color="#ffe900" offset="100%" />
        </linearGradient>
        <linearGradient y2="0%" y1="37%" x2="93%" x1="0%" id="gradient-26">
            <stop stop-color="#2d8034" offset="0%" />
            <stop stop-color="#2d8034" offset="0%" />
            <stop stop-color="#34a240" offset="100%" />
        </linearGradient>
        <linearGradient y2="0%" y1="36%" x2="93%" x1="0%" id="gradient-27">
            <stop stop-color="#f58c20" offset="0%" />
            <stop stop-color="#f6bc80" offset="100%" />
        </linearGradient>
        <linearGradient y2="100%" y1="0%" x2="0%" x1="0%" id="gradient-28">
            <stop stop-color="#fce0b7" offset="0%" />
            <stop stop-color="#f6bc80" offset="100%" />
        </linearGradient>
        <linearGradient y2="36%" y1="0%" x2="0%" x1="93%" id="gradient-29">
            <stop stop-color="#7f027f" offset="0%" />
            <stop stop-color="#943799" offset="100%" />
        </linearGradient>
        <linearGradient y2="37%" y1="0%" x2="0%" x1="93%" id="gradient-30">
            <stop stop-color="#7f027f" offset="0%" />
            <stop stop-color="#943799" offset="100%" />
        </linearGradient>
        <linearGradient y2="87%" y1="0%" x2="0%" x1="50%" id="gradient-31">
            <stop stop-color="#ee97a9" offset="0%" />
            <stop stop-color="#ee97a8" offset="0%" />
            <stop stop-color="#d85e6f" offset="100%" />
        </linearGradient>
        <linearGradient y2="0%" y1="34%" x2="94%" x1="0%" id="gradient-32">
            <stop stop-color="#edc700" offset="0%" />
            <stop stop-color="#ffe900" offset="100%" />
        </linearGradient>
        <linearGradient y2="0%" y1="34%" x2="94%" x1="0%" id="gradient-33">
            <stop stop-color="#f58c20" offset="0%" />
            <stop stop-color="#f6bc80" offset="100%" />
        </linearGradient>
        <linearGradient y2="0%" y1="37%" x2="93%" x1="0%" id="gradient-34">
            <stop stop-color="#2d8034" offset="0%" />
            <stop stop-color="#2d8034" offset="0%" />
            <stop stop-color="#34a240" offset="100%" />
        </linearGradient>
        <linearGradient y2="0%" y1="36%" x2="93%" x1="0%" id="gradient-35">
            <stop stop-color="#0000fd" offset="0%" />
            <stop stop-color="#4c64ff" offset="100%" />
        </linearGradient>
        <linearGradient y2="0%" y1="37%" x2="93%" x1="0%" id="gradient-36">
            <stop stop-color="#0000fd" offset="0%" />
            <stop stop-color="#4c64ff" offset="100%" />
        </linearGradient>
        <linearGradient y2="84%" y1="0%" x2="0%" x1="54%" id="gradient-37">
            <stop stop-color="#ee97a9" offset="0%" />
            <stop stop-color="#ee97a8" offset="0%" />
            <stop stop-color="#d85e6f" offset="100%" />
        </linearGradient>
        <linearGradient y2="87%" y1="0%" x2="0%" x1="50%" id="gradient-38">
            <stop stop-color="#ee97a9" offset="0%" />
            <stop stop-color="#ee97a8" offset="0%" />
            <stop stop-color="#d85e6f" offset="100%" />
        </linearGradient>
    </defs>
    <path fill="url(#gradient-1)" fill-rule="evenodd" d="M 327.5 58.85 C 327.5 58.76 327.46 58.69 327.39 58.64 L 321.14 54.94 C 321.07 54.9 320.98 54.9 320.91 54.94 L 314.38 58.79 C 314.29 58.86 314.26 58.92 314.26 59 C 314.26 59 314.28 66.66 314.28 66.66 C 314.28 66.74 314.33 66.82 314.4 66.86 L 320.64 70.57 C 320.68 70.59 320.72 70.6 320.76 70.6 C 320.78 70.6 320.8 70.6 320.82 70.59 C 320.84 70.58 320.86 70.58 320.88 70.57 L 327.41 66.72 C 327.48 66.67 327.53 66.6 327.53 66.51 L 327.5 58.85 L 327.5 58.85 Z M 327.5 58.85" />
    <path fill="#f6bc80" fill-rule="evenodd" d="M 321.03 55.42 L 326.81 58.85 L 324.41 60.26 L 320.74 62.43 L 315.29 59.19 L 314.96 59 L 321.03 55.42 L 321.03 55.42 Z M 321.03 55.42" />
    <path fill="#f58c20" fill-rule="evenodd" d="M 314.75 66.52 L 314.73 59.41 L 320.51 62.84 L 320.53 69.95 L 314.75 66.52 L 314.75 66.52 Z M 314.75 66.52" />
    <path fill="url(#gradient-2)" fill-rule="evenodd" d="M 320.99 69.95 L 320.97 62.84 L 327.04 59.26 L 327.06 66.38 L 320.99 69.95 L 320.99 69.95 Z M 320.99 69.95" />
    <path fill="url(#gradient-3)" fill-rule="evenodd" d="M 380.85 61.82 C 380.85 61.72 380.79 61.62 380.71 61.57 L 373.05 57 C 372.96 56.95 372.85 56.95 372.76 57 L 364.74 61.75 C 364.64 61.84 364.6 61.92 364.6 62 C 364.6 62.01 364.63 71.46 364.63 71.46 C 364.63 71.56 364.68 71.66 364.77 71.71 L 372.43 76.28 C 372.48 76.31 372.53 76.32 372.57 76.32 C 372.6 76.32 372.62 76.32 372.65 76.31 C 372.68 76.3 372.7 76.3 372.72 76.28 L 380.73 71.53 C 380.82 71.48 380.88 71.38 380.88 71.28 L 380.85 61.82 L 380.85 61.82 Z M 380.85 61.82" />
    <path fill="#943799" fill-rule="evenodd" d="M 372.9 57.59 L 380 61.82 L 377.06 63.57 L 372.55 66.24 L 365.86 62.25 L 365.45 62.01 L 372.9 57.59 L 372.9 57.59 Z M 372.9 57.59" />
    <path fill="#7f027f" fill-rule="evenodd" d="M 365.19 71.29 L 365.17 62.51 L 372.26 66.75 L 372.29 75.52 L 365.19 71.29 L 365.19 71.29 Z M 365.19 71.29" />
    <path fill="#943799" fill-rule="evenodd" d="M 372.86 75.53 L 372.83 66.75 L 380.28 62.33 L 380.3 71.11 L 372.86 75.53 L 372.86 75.53 Z M 372.86 75.53" />
    <path fill="url(#gradient-4)" fill-rule="evenodd" d="M 364.55 46.32 C 364.55 46.21 364.5 46.12 364.41 46.06 L 356.75 41.49 C 356.66 41.44 356.55 41.44 356.46 41.49 L 348.45 46.24 C 348.34 46.33 348.3 46.41 348.3 46.5 C 348.3 46.5 348.33 55.95 348.33 55.95 C 348.33 56.06 348.38 56.15 348.47 56.21 L 356.14 60.78 C 356.18 60.8 356.23 60.82 356.28 60.82 C 356.3 60.82 356.33 60.81 356.35 60.81 C 356.38 60.8 356.4 60.79 356.42 60.78 L 364.44 56.03 C 364.53 55.97 364.58 55.88 364.58 55.77 L 364.55 46.32 L 364.55 46.32 Z M 364.55 46.32" />
    <path fill="#ffe900" fill-rule="evenodd" d="M 356.6 42.08 L 363.7 46.32 L 360.76 48.06 L 356.25 50.73 L 349.56 46.74 L 349.16 46.5 L 356.6 42.08 L 356.6 42.08 Z M 356.6 42.08" />
    <path fill="#eec800" fill-rule="evenodd" d="M 348.9 55.78 L 348.88 47.01 L 355.97 51.24 L 355.99 60.01 L 348.9 55.78 L 348.9 55.78 Z M 348.9 55.78" />
    <path fill="#ffe900" fill-rule="evenodd" d="M 356.56 60.02 L 356.54 51.24 L 363.98 46.82 L 364.01 55.61 L 356.56 60.02 L 356.56 60.02 Z M 356.56 60.02" />
    <path fill="url(#gradient-5)" fill-rule="evenodd" d="M 347.34 62.84 C 347.34 62.75 347.29 62.67 347.22 62.63 L 340.41 58.74 C 340.33 58.69 340.23 58.69 340.15 58.74 L 333.03 62.78 C 332.93 62.85 332.9 62.92 332.9 62.99 C 332.9 63 332.92 71.04 332.92 71.04 C 332.92 71.13 332.97 71.21 333.05 71.26 L 339.86 75.15 C 339.9 75.17 339.94 75.18 339.99 75.18 C 340.01 75.18 340.03 75.18 340.05 75.17 C 340.08 75.16 340.1 75.15 340.12 75.15 L 347.24 71.1 C 347.32 71.06 347.37 70.98 347.37 70.89 L 347.34 62.84 L 347.34 62.84 Z M 347.34 62.84" />
    <path fill="#34a240" fill-rule="evenodd" d="M 340.28 59.24 L 346.58 62.84 L 343.97 64.32 L 339.96 66.6 L 334.02 63.2 L 333.66 63 L 340.28 59.24 L 340.28 59.24 Z M 340.28 59.24" />
    <path fill="#2d8034" fill-rule="evenodd" d="M 333.43 70.9 L 333.41 63.43 L 339.71 67.03 L 339.73 74.5 L 333.43 70.9 L 333.43 70.9 Z M 333.43 70.9" />
    <path fill="#34a240" fill-rule="evenodd" d="M 340.24 74.5 L 340.22 67.03 L 346.84 63.27 L 346.86 70.74 L 340.24 74.5 L 340.24 74.5 Z M 340.24 74.5" />
    <path fill="url(#gradient-6)" fill-rule="evenodd" d="M 374.19 35.58 C 374.19 35.48 374.13 35.38 374.05 35.33 L 366.38 30.76 C 366.3 30.71 366.19 30.71 366.1 30.76 L 358.08 35.51 C 357.98 35.6 357.94 35.68 357.94 35.76 C 357.94 35.76 357.97 45.22 357.97 45.22 C 357.97 45.32 358.02 45.42 358.11 45.47 L 365.77 50.04 C 365.82 50.07 365.86 50.08 365.91 50.08 C 365.94 50.08 365.96 50.08 365.99 50.07 C 366.02 50.06 366.04 50.05 366.06 50.04 L 374.07 45.29 C 374.16 45.24 374.22 45.14 374.22 45.04 L 374.19 35.58 L 374.19 35.58 Z M 374.19 35.58" />
    <path fill="#4c64ff" fill-rule="evenodd" d="M 366.24 31.35 L 373.34 35.58 L 370.4 37.32 L 365.89 40 L 359.2 36.01 L 358.79 35.76 L 366.24 31.35 L 366.24 31.35 Z M 366.24 31.35" />
    <path fill="#0000fd" fill-rule="evenodd" d="M 358.53 45.05 L 358.51 36.27 L 365.6 40.5 L 365.63 49.28 L 358.53 45.05 L 358.53 45.05 Z M 358.53 45.05" />
    <path fill="#4c63ff" fill-rule="evenodd" d="M 366.2 49.29 L 366.17 40.5 L 373.62 36.09 L 373.64 44.87 L 366.2 49.29 L 366.2 49.29 Z M 366.2 49.29" />
    <path fill="url(#gradient-7)" fill-rule="evenodd" d="M 342.5 45.14 C 342.5 45.05 342.45 44.97 342.37 44.93 L 335.56 41.04 C 335.48 40.99 335.39 40.99 335.31 41.04 L 328.18 45.08 C 328.09 45.15 328.06 45.22 328.06 45.3 C 328.06 45.3 328.08 53.34 328.08 53.34 C 328.08 53.43 328.13 53.51 328.2 53.56 L 335.02 57.45 C 335.06 57.47 335.1 57.48 335.14 57.48 C 335.17 57.48 335.19 57.48 335.21 57.47 C 335.23 57.46 335.25 57.46 335.27 57.45 L 342.4 53.4 C 342.48 53.36 342.52 53.28 342.52 53.19 L 342.5 45.14 L 342.5 45.14 Z M 342.5 45.14" />
    <path fill="#ff5a72" fill-rule="evenodd" d="M 335.43 41.54 L 341.74 45.14 L 339.13 46.62 L 335.12 48.9 L 329.17 45.5 L 328.81 45.3 L 335.43 41.54 L 335.43 41.54 Z M 335.43 41.54" />
    <path fill="#d4465b" fill-rule="evenodd" d="M 328.58 53.2 L 328.56 45.73 L 334.87 49.33 L 334.89 56.8 L 328.58 53.2 L 328.58 53.2 Z M 328.58 53.2" />
    <path fill="#eb4a62" fill-rule="evenodd" d="M 335.4 56.8 L 335.37 49.33 L 341.99 45.58 L 342.02 53.05 L 335.4 56.8 L 335.4 56.8 Z M 335.4 56.8" />
    <path fill="url(#gradient-8)" fill-rule="evenodd" d="M 309.82 30.07 C 309.82 29.93 309.75 29.81 309.64 29.74 L 299.72 23.81 C 299.61 23.74 299.47 23.74 299.35 23.81 L 288.98 29.97 C 288.85 30.08 288.79 30.19 288.79 30.3 C 288.79 30.3 288.83 42.57 288.83 42.57 C 288.83 42.71 288.9 42.83 289.01 42.9 L 298.93 48.83 C 298.99 48.87 299.05 48.89 299.11 48.89 C 299.14 48.89 299.18 48.88 299.21 48.87 C 299.25 48.86 299.27 48.85 299.3 48.83 L 309.67 42.67 C 309.79 42.6 309.86 42.47 309.86 42.34 L 309.82 30.07 L 309.82 30.07 Z M 309.82 30.07" />
    <path fill="#ffe900" fill-rule="evenodd" d="M 299.54 24.57 L 308.72 30.07 L 304.92 32.33 L 299.08 35.8 L 290.42 30.61 L 289.9 30.3 L 299.54 24.57 L 299.54 24.57 Z M 299.54 24.57" />
    <path fill="#eec800" fill-rule="evenodd" d="M 289.56 42.36 L 289.53 30.96 L 298.71 36.45 L 298.74 47.85 L 289.56 42.36 L 289.56 42.36 Z M 289.56 42.36" />
    <path fill="#ffe900" fill-rule="evenodd" d="M 299.48 47.85 L 299.45 36.45 L 309.09 30.73 L 309.12 42.12 L 299.48 47.85 L 299.48 47.85 Z M 299.48 47.85" />
    <path fill="url(#gradient-9)" fill-rule="evenodd" d="M 208.02 65.38 C 208.01 65.28 207.97 65.19 207.89 65.15 L 200.85 60.97 C 200.77 60.92 200.67 60.92 200.59 60.97 L 193.23 65.31 C 193.13 65.39 193.09 65.46 193.09 65.54 C 193.09 65.54 193.12 74.18 193.12 74.18 C 193.12 74.27 193.17 74.36 193.25 74.41 L 200.28 78.59 C 200.33 78.61 200.37 78.62 200.42 78.62 C 200.44 78.62 200.46 78.62 200.48 78.61 C 200.51 78.6 200.53 78.6 200.55 78.59 L 207.91 74.25 C 207.99 74.2 208.04 74.11 208.04 74.01 L 208.02 65.38 L 208.02 65.38 Z M 208.02 65.38" />
    <path fill="#f6bc80" fill-rule="evenodd" d="M 200.72 61.51 L 207.23 65.38 L 204.53 66.97 L 200.39 69.41 L 194.25 65.76 L 193.88 65.54 L 200.72 61.51 L 200.72 61.51 Z M 200.72 61.51" />
    <path fill="#f58c20" fill-rule="evenodd" d="M 193.64 74.03 L 193.62 66.01 L 200.13 69.87 L 200.15 77.89 L 193.64 74.03 L 193.64 74.03 Z M 193.64 74.03" />
    <path fill="url(#gradient-10)" fill-rule="evenodd" d="M 200.68 77.89 L 200.65 69.87 L 207.49 65.84 L 207.52 73.86 L 200.68 77.89 L 200.68 77.89 Z M 200.68 77.89" />
    <path fill="url(#gradient-11)" fill-rule="evenodd" d="M 268.14 68.73 C 268.14 68.61 268.08 68.5 267.98 68.45 L 259.35 63.29 C 259.25 63.23 259.13 63.23 259.03 63.29 L 249.99 68.65 C 249.87 68.74 249.83 68.83 249.83 68.93 C 249.83 68.94 249.86 79.59 249.86 79.59 C 249.86 79.71 249.92 79.82 250.02 79.88 L 258.66 85.03 C 258.71 85.06 258.76 85.07 258.82 85.07 C 258.85 85.07 258.87 85.07 258.9 85.06 C 258.93 85.05 258.96 85.04 258.98 85.03 L 268.02 79.67 C 268.12 79.62 268.18 79.51 268.18 79.39 L 268.14 68.73 L 268.14 68.73 Z M 268.14 68.73" />
    <path fill="#943799" fill-rule="evenodd" d="M 259.19 63.96 L 267.18 68.73 L 263.87 70.69 L 258.79 73.71 L 251.25 69.21 L 250.79 68.94 L 259.19 63.96 L 259.19 63.96 Z M 259.19 63.96" />
    <path fill="#7f027f" fill-rule="evenodd" d="M 250.5 79.4 L 250.47 69.51 L 258.47 74.28 L 258.49 84.17 L 250.5 79.4 L 250.5 79.4 Z M 250.5 79.4" />
    <path fill="#943799" fill-rule="evenodd" d="M 259.14 84.17 L 259.11 74.28 L 267.5 69.3 L 267.53 79.2 L 259.14 84.17 L 259.14 84.17 Z M 259.14 84.17" />
    <path fill="url(#gradient-12)" fill-rule="evenodd" d="M 284.27 40.31 C 284.26 40.17 284.19 40.06 284.08 39.99 L 274.17 34.31 C 274.05 34.24 273.91 34.24 273.8 34.31 L 263.42 40.21 C 263.29 40.32 263.24 40.42 263.24 40.53 C 263.24 40.53 263.27 52.29 263.27 52.29 C 263.27 52.42 263.34 52.54 263.45 52.6 L 273.37 58.28 C 273.43 58.32 273.49 58.33 273.56 58.33 C 273.59 58.33 273.62 58.33 273.65 58.32 C 273.69 58.31 273.72 58.3 273.74 58.28 L 284.12 52.38 C 284.23 52.31 284.3 52.19 284.3 52.06 L 284.27 40.31 L 284.27 40.31 Z M 284.27 40.31" />
    <path fill="#ff5a72" fill-rule="evenodd" d="M 273.98 35.04 L 283.16 40.31 L 279.36 42.47 L 273.52 45.79 L 264.86 40.83 L 264.34 40.53 L 273.98 35.04 L 273.98 35.04 Z M 273.98 35.04" />
    <path fill="#d4465b" fill-rule="evenodd" d="M 264.01 52.08 L 263.98 41.16 L 273.16 46.42 L 273.19 57.34 L 264.01 52.08 L 264.01 52.08 Z M 264.01 52.08" />
    <path fill="#eb4a62" fill-rule="evenodd" d="M 273.92 57.34 L 273.89 46.42 L 283.53 40.94 L 283.56 51.85 L 273.92 57.34 L 273.92 57.34 Z M 273.92 57.34" />
    <path fill="url(#gradient-13)" fill-rule="evenodd" d="M 249.78 51.25 C 249.77 51.13 249.71 51.02 249.62 50.97 L 240.98 45.82 C 240.88 45.76 240.76 45.76 240.66 45.82 L 231.62 51.17 C 231.51 51.27 231.46 51.36 231.46 51.46 C 231.46 51.46 231.49 62.11 231.49 62.11 C 231.49 62.23 231.55 62.34 231.65 62.4 L 240.29 67.55 C 240.34 67.58 240.4 67.6 240.45 67.6 C 240.48 67.6 240.51 67.59 240.53 67.58 C 240.57 67.57 240.59 67.56 240.61 67.55 L 249.65 62.2 C 249.75 62.14 249.81 62.03 249.81 61.91 L 249.78 51.25 L 249.78 51.25 Z M 249.78 51.25" />
    <path fill="#ffe900" fill-rule="evenodd" d="M 240.82 46.48 L 248.82 51.25 L 245.5 53.21 L 240.42 56.23 L 232.88 51.73 L 232.42 51.46 L 240.82 46.48 L 240.82 46.48 Z M 240.82 46.48" />
    <path fill="#eec800" fill-rule="evenodd" d="M 232.13 61.92 L 232.11 52.03 L 240.1 56.8 L 240.13 66.69 L 232.13 61.92 L 232.13 61.92 Z M 232.13 61.92" />
    <path fill="#ffe900" fill-rule="evenodd" d="M 240.77 66.7 L 240.74 56.8 L 249.14 51.82 L 249.16 61.72 L 240.77 66.7 L 240.77 66.7 Z M 240.77 66.7" />
    <path fill="url(#gradient-14)" fill-rule="evenodd" d="M 291.39 63.28 C 291.39 63.16 291.33 63.06 291.23 63 L 282.6 57.85 C 282.5 57.79 282.37 57.79 282.27 57.85 L 273.24 63.2 C 273.12 63.3 273.08 63.39 273.08 63.49 C 273.08 63.49 273.11 74.15 273.11 74.15 C 273.11 74.26 273.17 74.37 273.27 74.43 L 281.9 79.58 C 281.96 79.61 282.01 79.63 282.07 79.63 C 282.09 79.63 282.12 79.62 282.15 79.62 C 282.18 79.61 282.21 79.6 282.23 79.58 L 291.26 74.23 C 291.36 74.17 291.43 74.06 291.43 73.94 L 291.39 63.28 L 291.39 63.28 Z M 291.39 63.28" />
    <path fill="#f6bc80" fill-rule="evenodd" d="M 282.43 58.51 L 290.43 63.28 L 287.12 65.25 L 282.04 68.26 L 274.49 63.76 L 274.04 63.49 L 282.43 58.51 L 282.43 58.51 Z M 282.43 58.51" />
    <path fill="#f58c20" fill-rule="evenodd" d="M 273.75 73.96 L 273.72 64.06 L 281.72 68.83 L 281.74 78.72 L 273.75 73.96 L 273.75 73.96 Z M 273.75 73.96" />
    <path fill="#f6bc80" fill-rule="evenodd" d="M 282.39 78.73 L 282.36 68.83 L 290.75 63.86 L 290.78 73.75 L 282.39 78.73 L 282.39 78.73 Z M 282.39 78.73" />
    <path fill="url(#gradient-15)" fill-rule="evenodd" d="M 311.42 51.82 C 311.42 51.72 311.37 51.63 311.28 51.58 L 303.6 47.2 C 303.51 47.15 303.41 47.15 303.32 47.2 L 295.29 51.75 C 295.18 51.83 295.14 51.91 295.14 52 C 295.14 52 295.17 61.06 295.17 61.06 C 295.17 61.16 295.22 61.26 295.31 61.31 L 302.99 65.69 C 303.03 65.72 303.08 65.73 303.13 65.73 C 303.16 65.73 303.18 65.73 303.21 65.72 C 303.23 65.71 303.26 65.7 303.28 65.69 L 311.31 61.13 C 311.4 61.08 311.45 60.99 311.45 60.89 L 311.42 51.82 L 311.42 51.82 Z M 311.42 51.82" />
    <path fill="#34a240" fill-rule="evenodd" d="M 303.46 47.76 L 310.57 51.82 L 307.62 53.49 L 303.11 56.06 L 296.4 52.23 L 296 52 L 303.46 47.76 L 303.46 47.76 Z M 303.46 47.76" />
    <path fill="#2d8034" fill-rule="evenodd" d="M 295.74 60.9 L 295.72 52.48 L 302.82 56.54 L 302.84 64.96 L 295.74 60.9 L 295.74 60.9 Z M 295.74 60.9" />
    <path fill="#34a240" fill-rule="evenodd" d="M 303.42 64.96 L 303.39 56.54 L 310.85 52.31 L 310.88 60.73 L 303.42 64.96 L 303.42 64.96 Z M 303.42 64.96" />
    <path fill="url(#gradient-16)" fill-rule="evenodd" d="M 260.64 39.15 C 260.63 39.03 260.57 38.93 260.48 38.87 L 251.84 33.72 C 251.74 33.66 251.62 33.66 251.52 33.72 L 242.48 39.07 C 242.37 39.17 242.32 39.26 242.32 39.36 C 242.32 39.36 242.35 50.02 242.35 50.02 C 242.35 50.13 242.41 50.24 242.51 50.3 L 251.15 55.45 C 251.2 55.48 251.25 55.5 251.31 55.5 C 251.34 55.5 251.37 55.49 251.39 55.49 C 251.43 55.48 251.45 55.47 251.47 55.45 L 260.51 50.1 C 260.61 50.04 260.67 49.93 260.67 49.81 L 260.64 39.15 L 260.64 39.15 Z M 260.64 39.15" />
    <path fill="#4c64ff" fill-rule="evenodd" d="M 251.68 34.38 L 259.68 39.15 L 256.36 41.12 L 251.28 44.13 L 243.74 39.63 L 243.28 39.36 L 251.68 34.38 L 251.68 34.38 Z M 251.68 34.38" />
    <path fill="#0000fd" fill-rule="evenodd" d="M 242.99 49.83 L 242.97 39.93 L 250.96 44.7 L 250.99 54.59 L 242.99 49.83 L 242.99 49.83 Z M 242.99 49.83" />
    <path fill="#4c63ff" fill-rule="evenodd" d="M 251.63 54.6 L 251.6 44.7 L 260 39.73 L 260.02 49.62 L 251.63 54.6 L 251.63 54.6 Z M 251.63 54.6" />
    <path fill="url(#gradient-17)" fill-rule="evenodd" d="M 310.96 74.47 C 310.95 74.34 310.89 74.23 310.78 74.17 L 301.51 68.7 C 301.4 68.64 301.27 68.64 301.16 68.7 L 291.46 74.38 C 291.33 74.49 291.28 74.58 291.28 74.69 C 291.28 74.69 291.32 85.99 291.32 85.99 C 291.32 86.12 291.38 86.23 291.49 86.29 L 300.76 91.76 C 300.82 91.79 300.88 91.81 300.94 91.81 C 300.97 91.81 301 91.8 301.03 91.79 C 301.06 91.78 301.09 91.77 301.11 91.76 L 310.82 86.08 C 310.92 86.02 310.99 85.9 310.99 85.77 L 310.96 74.47 L 310.96 74.47 Z M 310.96 74.47" />
    <path fill="#4c64ff" fill-rule="evenodd" d="M 301.33 69.41 L 309.92 74.47 L 306.37 76.55 L 300.91 79.75 L 292.81 74.98 L 292.32 74.69 L 301.33 69.41 L 301.33 69.41 Z M 301.33 69.41" />
    <path fill="#0000fd" fill-rule="evenodd" d="M 292 85.79 L 291.98 75.3 L 300.56 80.35 L 300.59 90.85 L 292 85.79 L 292 85.79 Z M 292 85.79" />
    <path fill="#4c63ff" fill-rule="evenodd" d="M 301.28 90.85 L 301.25 80.35 L 310.27 75.08 L 310.3 85.58 L 301.28 90.85 L 301.28 90.85 Z M 301.28 90.85" />
    <path fill="url(#gradient-18)" fill-rule="evenodd" d="M 224.92 49.93 C 224.92 49.83 224.86 49.74 224.78 49.69 L 217.1 45.3 C 217.01 45.25 216.9 45.25 216.81 45.3 L 208.78 49.86 C 208.68 49.94 208.64 50.02 208.64 50.1 C 208.64 50.1 208.67 59.17 208.67 59.17 C 208.67 59.27 208.72 59.36 208.81 59.41 L 216.49 63.8 C 216.53 63.82 216.58 63.84 216.63 63.84 C 216.65 63.84 216.68 63.83 216.7 63.83 C 216.73 63.82 216.75 63.81 216.77 63.8 L 224.8 59.24 C 224.89 59.19 224.95 59.1 224.95 59 L 224.92 49.93 L 224.92 49.93 Z M 224.92 49.93" />
    <path fill="#ff5a72" fill-rule="evenodd" d="M 216.96 45.87 L 224.06 49.93 L 221.12 51.6 L 216.6 54.16 L 209.9 50.33 L 209.49 50.1 L 216.96 45.87 L 216.96 45.87 Z M 216.96 45.87" />
    <path fill="#d4465b" fill-rule="evenodd" d="M 209.23 59.01 L 209.21 50.59 L 216.32 54.65 L 216.34 63.07 L 209.23 59.01 L 209.23 59.01 Z M 209.23 59.01" />
    <path fill="#eb4a62" fill-rule="evenodd" d="M 216.91 63.07 L 216.89 54.65 L 224.35 50.42 L 224.37 58.84 L 216.91 63.07 L 216.91 63.07 Z M 216.91 63.07" />
    <path fill="url(#gradient-19)" fill-rule="evenodd" d="M -43.98 65.38 C -43.99 65.28 -44.03 65.19 -44.11 65.15 L -51.15 60.97 C -51.23 60.92 -51.33 60.92 -51.41 60.97 L -58.77 65.31 C -58.87 65.39 -58.91 65.46 -58.91 65.54 C -58.91 65.54 -58.88 74.18 -58.88 74.18 C -58.88 74.27 -58.83 74.36 -58.75 74.41 L -51.72 78.59 C -51.67 78.61 -51.63 78.62 -51.58 78.62 C -51.56 78.62 -51.54 78.62 -51.52 78.61 C -51.49 78.6 -51.47 78.6 -51.45 78.59 L -44.09 74.25 C -44.01 74.2 -43.96 74.11 -43.96 74.01 L -43.98 65.38 L -43.98 65.38 Z M -43.98 65.38" />
    <path fill="#f6bc80" fill-rule="evenodd" d="M -51.28 61.51 L -44.77 65.38 L -47.47 66.97 L -51.61 69.41 L -57.75 65.76 L -58.12 65.54 L -51.28 61.51 L -51.28 61.51 Z M -51.28 61.51" />
    <path fill="#f58c20" fill-rule="evenodd" d="M -58.36 74.03 L -58.38 66.01 L -51.87 69.87 L -51.85 77.89 L -58.36 74.03 L -58.36 74.03 Z M -58.36 74.03" />
    <path fill="url(#gradient-20)" fill-rule="evenodd" d="M -51.32 77.89 L -51.35 69.87 L -44.51 65.84 L -44.48 73.86 L -51.32 77.89 L -51.32 77.89 Z M -51.32 77.89" />
    <path fill="url(#gradient-21)" fill-rule="evenodd" d="M 16.14 68.73 C 16.14 68.61 16.08 68.5 15.98 68.45 L 7.35 63.29 C 7.25 63.23 7.13 63.23 7.03 63.29 L -2.01 68.65 C -2.13 68.74 -2.17 68.83 -2.17 68.93 C -2.17 68.94 -2.14 79.59 -2.14 79.59 C -2.14 79.71 -2.08 79.82 -1.98 79.88 L 6.66 85.03 C 6.71 85.06 6.76 85.07 6.82 85.07 C 6.85 85.07 6.87 85.07 6.9 85.06 C 6.93 85.05 6.96 85.04 6.98 85.03 L 16.02 79.67 C 16.12 79.62 16.18 79.51 16.18 79.39 L 16.14 68.73 L 16.14 68.73 Z M 16.14 68.73" />
    <path fill="#7f027f" fill-rule="evenodd" d="M -1.5 79.4 L -1.53 69.51 L 6.47 74.28 L 6.49 84.17 L -1.5 79.4 L -1.5 79.4 Z M -1.5 79.4" />
    <path fill="#943799" fill-rule="evenodd" d="M 7.14 84.17 L 7.11 74.28 L 15.5 69.3 L 15.53 79.2 L 7.14 84.17 L 7.14 84.17 Z M 7.14 84.17" />
    <path fill="url(#gradient-22)" fill-rule="evenodd" d="M -2.22 51.25 C -2.23 51.13 -2.29 51.02 -2.38 50.97 L -11.02 45.82 C -11.12 45.76 -11.24 45.76 -11.34 45.82 L -20.38 51.17 C -20.49 51.27 -20.54 51.36 -20.54 51.46 C -20.54 51.46 -20.51 62.11 -20.51 62.11 C -20.51 62.23 -20.45 62.34 -20.35 62.4 L -11.71 67.55 C -11.66 67.58 -11.6 67.6 -11.55 67.6 C -11.52 67.6 -11.49 67.59 -11.47 67.58 C -11.43 67.57 -11.41 67.56 -11.39 67.55 L -2.35 62.2 C -2.25 62.14 -2.19 62.03 -2.19 61.91 L -2.22 51.25 L -2.22 51.25 Z M -2.22 51.25" />
    <path fill="#ffe900" fill-rule="evenodd" d="M -11.18 46.48 L -3.18 51.25 L -6.5 53.21 L -11.58 56.23 L -19.12 51.73 L -19.58 51.46 L -11.18 46.48 L -11.18 46.48 Z M -11.18 46.48" />
    <path fill="#eec800" fill-rule="evenodd" d="M -19.87 61.92 L -19.89 52.03 L -11.9 56.8 L -11.87 66.69 L -19.87 61.92 L -19.87 61.92 Z M -19.87 61.92" />
    <path fill="#ffe900" fill-rule="evenodd" d="M -11.23 66.7 L -11.26 56.8 L -2.86 51.82 L -2.84 61.72 L -11.23 66.7 L -11.23 66.7 Z M -11.23 66.7" />
    <path fill="url(#gradient-23)" fill-rule="evenodd" d="M 8.64 39.15 C 8.63 39.03 8.57 38.93 8.48 38.87 L -0.16 33.72 C -0.26 33.66 -0.38 33.66 -0.48 33.72 L -9.52 39.07 C -9.63 39.17 -9.68 39.26 -9.68 39.36 C -9.68 39.36 -9.65 50.02 -9.65 50.02 C -9.65 50.13 -9.59 50.24 -9.49 50.3 L -0.85 55.45 C -0.8 55.48 -0.75 55.5 -0.69 55.5 C -0.66 55.5 -0.63 55.49 -0.61 55.49 C -0.57 55.48 -0.55 55.47 -0.53 55.45 L 8.51 50.1 C 8.61 50.04 8.67 49.93 8.67 49.81 L 8.64 39.15 L 8.64 39.15 Z M 8.64 39.15" />
    <path fill="#4c64ff" fill-rule="evenodd" d="M -0.32 34.38 L 7.68 39.15 L 4.36 41.12 L -0.72 44.13 L -8.26 39.63 L -8.72 39.36 L -0.32 34.38 L -0.32 34.38 Z M -0.32 34.38" />
    <path fill="#0000fd" fill-rule="evenodd" d="M -9.01 49.83 L -9.03 39.93 L -1.04 44.7 L -1.01 54.59 L -9.01 49.83 L -9.01 49.83 Z M -9.01 49.83" />
    <path fill="#4c63ff" fill-rule="evenodd" d="M -0.37 54.6 L -0.4 44.7 L 8 39.73 L 8.02 49.62 L -0.37 54.6 L -0.37 54.6 Z M -0.37 54.6" />
    <path fill="url(#gradient-24)" fill-rule="evenodd" d="M -27.08 49.93 C -27.08 49.83 -27.14 49.74 -27.22 49.69 L -34.9 45.3 C -34.99 45.25 -35.1 45.25 -35.19 45.3 L -43.22 49.86 C -43.32 49.94 -43.36 50.02 -43.36 50.1 C -43.36 50.1 -43.33 59.17 -43.33 59.17 C -43.33 59.27 -43.28 59.36 -43.19 59.41 L -35.51 63.8 C -35.47 63.82 -35.42 63.84 -35.37 63.84 C -35.35 63.84 -35.32 63.83 -35.3 63.83 C -35.27 63.82 -35.25 63.81 -35.23 63.8 L -27.2 59.24 C -27.11 59.19 -27.05 59.1 -27.05 59 L -27.08 49.93 L -27.08 49.93 Z M -27.08 49.93" />
    <path fill="#ff5a72" fill-rule="evenodd" d="M -35.04 45.87 L -27.94 49.93 L -30.88 51.6 L -35.4 54.16 L -42.1 50.33 L -42.51 50.1 L -35.04 45.87 L -35.04 45.87 Z M -35.04 45.87" />
    <path fill="#d4465b" fill-rule="evenodd" d="M -42.77 59.01 L -42.79 50.59 L -35.68 54.65 L -35.66 63.07 L -42.77 59.01 L -42.77 59.01 Z M -42.77 59.01" />
    <path fill="#eb4a62" fill-rule="evenodd" d="M -35.09 63.07 L -35.11 54.65 L -27.65 50.42 L -27.63 58.84 L -35.09 63.07 L -35.09 63.07 Z M -35.09 63.07" />
    <path fill="url(#gradient-25)" fill-rule="evenodd" d="M 164.83 27.52 C 164.82 27.4 164.76 27.29 164.66 27.23 L 155.87 21.97 C 155.76 21.91 155.64 21.91 155.54 21.97 L 146.33 27.44 C 146.22 27.53 146.17 27.63 146.17 27.73 C 146.17 27.73 146.2 38.62 146.2 38.62 C 146.2 38.74 146.26 38.85 146.36 38.91 L 155.16 44.17 C 155.21 44.2 155.27 44.22 155.33 44.22 C 155.35 44.22 155.38 44.21 155.41 44.21 C 155.44 44.2 155.47 44.18 155.49 44.17 L 164.69 38.7 C 164.8 38.64 164.86 38.53 164.86 38.41 L 164.83 27.52 L 164.83 27.52 Z M 164.83 27.52" />
    <path fill="#ffe900" fill-rule="evenodd" d="M 155.7 22.65 L 163.85 27.52 L 160.47 29.53 L 155.29 32.6 L 147.61 28.01 L 147.15 27.73 L 155.7 22.65 L 155.7 22.65 Z M 155.7 22.65" />
    <path fill="#eec800" fill-rule="evenodd" d="M 146.85 38.42 L 146.83 28.32 L 154.97 33.19 L 155 43.29 L 146.85 38.42 L 146.85 38.42 Z M 146.85 38.42" />
    <path fill="#ffe900" fill-rule="evenodd" d="M 155.65 43.3 L 155.62 33.19 L 164.17 28.1 L 164.2 38.22 L 155.65 43.3 L 155.65 43.3 Z M 155.65 43.3" />
    <path fill="url(#gradient-26)" fill-rule="evenodd" d="M 171.3 45.68 C 171.3 45.54 171.23 45.41 171.11 45.34 L 160.61 39.25 C 160.49 39.18 160.34 39.18 160.22 39.25 L 149.23 45.58 C 149.09 45.7 149.04 45.8 149.04 45.92 C 149.04 45.92 149.07 58.53 149.07 58.53 C 149.07 58.67 149.15 58.8 149.27 58.86 L 159.77 64.96 C 159.83 64.99 159.9 65.01 159.96 65.01 C 160 65.01 160.03 65.01 160.06 65 C 160.1 64.99 160.13 64.97 160.16 64.96 L 171.15 58.62 C 171.27 58.55 171.34 58.43 171.34 58.29 L 171.3 45.68 L 171.3 45.68 Z M 171.3 45.68" />
    <path fill="#34a240" fill-rule="evenodd" d="M 160.41 40.04 L 170.13 45.68 L 166.11 48 L 159.93 51.56 L 150.76 46.24 L 150.21 45.92 L 160.41 40.04 L 160.41 40.04 Z M 160.41 40.04" />
    <path fill="#2d8034" fill-rule="evenodd" d="M 149.85 58.3 L 149.82 46.6 L 159.54 52.24 L 159.57 63.94 L 149.85 58.3 L 149.85 58.3 Z M 149.85 58.3" />
    <path fill="#34a240" fill-rule="evenodd" d="M 160.35 63.95 L 160.32 52.24 L 170.52 46.36 L 170.56 58.06 L 160.35 63.95 L 160.35 63.95 Z M 160.35 63.95" />
    <path fill="url(#gradient-27)" fill-rule="evenodd" d="M 74.5 58.85 C 74.5 58.76 74.46 58.69 74.39 58.64 L 68.14 54.94 C 68.07 54.9 67.98 54.9 67.91 54.94 L 61.38 58.79 C 61.29 58.86 61.26 58.92 61.26 59 C 61.26 59 61.28 66.66 61.28 66.66 C 61.28 66.74 61.33 66.82 61.4 66.86 L 67.64 70.57 C 67.68 70.59 67.72 70.6 67.76 70.6 C 67.78 70.6 67.8 70.6 67.82 70.59 C 67.84 70.58 67.86 70.58 67.88 70.57 L 74.41 66.72 C 74.48 66.67 74.53 66.6 74.53 66.51 L 74.5 58.85 L 74.5 58.85 Z M 74.5 58.85" />
    <path fill="#f6bc80" fill-rule="evenodd" d="M 68.03 55.42 L 73.81 58.85 L 71.41 60.26 L 67.74 62.43 L 62.29 59.19 L 61.96 59 L 68.03 55.42 L 68.03 55.42 Z M 68.03 55.42" />
    <path fill="#f58c20" fill-rule="evenodd" d="M 61.75 66.52 L 61.73 59.41 L 67.51 62.84 L 67.53 69.95 L 61.75 66.52 L 61.75 66.52 Z M 61.75 66.52" />
    <path fill="url(#gradient-28)" fill-rule="evenodd" d="M 67.99 69.95 L 67.97 62.84 L 74.04 59.26 L 74.06 66.38 L 67.99 69.95 L 67.99 69.95 Z M 67.99 69.95" />
    <path fill="url(#gradient-29)" fill-rule="evenodd" d="M 127.85 61.82 C 127.85 61.72 127.79 61.62 127.71 61.57 L 120.05 57 C 119.96 56.95 119.85 56.95 119.76 57 L 111.74 61.75 C 111.64 61.84 111.6 61.92 111.6 62 C 111.6 62.01 111.63 71.46 111.63 71.46 C 111.63 71.56 111.68 71.66 111.77 71.71 L 119.43 76.28 C 119.48 76.31 119.53 76.32 119.57 76.32 C 119.6 76.32 119.62 76.32 119.65 76.31 C 119.68 76.3 119.7 76.3 119.72 76.28 L 127.73 71.53 C 127.82 71.48 127.88 71.38 127.88 71.28 L 127.85 61.82 L 127.85 61.82 Z M 127.85 61.82" />
    <path fill="#943799" fill-rule="evenodd" d="M 119.9 57.59 L 127 61.82 L 124.06 63.57 L 119.55 66.24 L 112.86 62.25 L 112.45 62.01 L 119.9 57.59 L 119.9 57.59 Z M 119.9 57.59" />
    <path fill="#7f027f" fill-rule="evenodd" d="M 112.19 71.29 L 112.17 62.51 L 119.26 66.75 L 119.29 75.52 L 112.19 71.29 L 112.19 71.29 Z M 112.19 71.29" />
    <path fill="#943799" fill-rule="evenodd" d="M 119.86 75.53 L 119.83 66.75 L 127.28 62.33 L 127.3 71.11 L 119.86 75.53 L 119.86 75.53 Z M 119.86 75.53" />
    <path fill="url(#gradient-30)" fill-rule="evenodd" d="M 191.67 30.3 C 191.67 30.18 191.6 30.07 191.5 30 L 182.13 24.6 C 182.02 24.54 181.89 24.54 181.78 24.6 L 171.98 30.22 C 171.86 30.32 171.81 30.41 171.81 30.52 C 171.81 30.52 171.84 41.69 171.84 41.69 C 171.84 41.82 171.91 41.93 172.01 41.99 L 181.38 47.39 C 181.44 47.42 181.49 47.44 181.56 47.44 C 181.59 47.44 181.62 47.44 181.65 47.43 C 181.68 47.42 181.71 47.41 181.73 47.39 L 191.53 41.78 C 191.64 41.72 191.7 41.6 191.7 41.48 L 191.67 30.3 L 191.67 30.3 Z M 191.67 30.3" />
    <path fill="#943799" fill-rule="evenodd" d="M 181.95 25.3 L 190.63 30.3 L 187.04 32.36 L 181.52 35.52 L 173.34 30.8 L 172.85 30.52 L 181.95 25.3 L 181.95 25.3 Z M 181.95 25.3" />
    <path fill="#7f027f" fill-rule="evenodd" d="M 172.53 41.49 L 172.51 31.12 L 181.18 36.12 L 181.2 46.49 L 172.53 41.49 L 172.53 41.49 Z M 172.53 41.49" />
    <path fill="#943799" fill-rule="evenodd" d="M 181.9 46.5 L 181.87 36.12 L 190.97 30.9 L 191 41.28 L 181.9 46.5 L 181.9 46.5 Z M 181.9 46.5" />
    <path fill="url(#gradient-31)" fill-rule="evenodd" d="M 142.15 36.61 C 142.15 36.49 142.09 36.38 141.99 36.33 L 133.19 31.28 C 133.09 31.23 132.97 31.23 132.86 31.28 L 123.66 36.52 C 123.54 36.62 123.5 36.71 123.5 36.8 C 123.5 36.81 123.53 47.23 123.53 47.23 C 123.53 47.35 123.59 47.46 123.69 47.51 L 132.49 52.56 C 132.54 52.58 132.6 52.6 132.65 52.6 C 132.68 52.6 132.71 52.6 132.74 52.59 C 132.77 52.58 132.79 52.57 132.82 52.56 L 142.02 47.31 C 142.12 47.26 142.18 47.15 142.18 47.03 L 142.15 36.61 L 142.15 36.61 Z M 142.15 36.61" />
    <path fill="#ff5a72" fill-rule="evenodd" d="M 133.03 31.94 L 141.17 36.6 L 137.8 38.53 L 132.62 41.47 L 124.94 37.07 L 124.48 36.81 L 133.03 31.94 L 133.03 31.94 Z M 133.03 31.94" />
    <path fill="#d4465b" fill-rule="evenodd" d="M 124.18 47.05 L 124.15 37.37 L 132.3 42.03 L 132.32 51.71 L 124.18 47.05 L 124.18 47.05 Z M 124.18 47.05" />
    <path fill="#eb4a62" fill-rule="evenodd" d="M 132.98 51.72 L 132.95 42.03 L 141.5 37.16 L 141.53 46.85 L 132.98 51.72 L 132.98 51.72 Z M 132.98 51.72" />
    <path fill="url(#gradient-32)" fill-rule="evenodd" d="M 111.55 46.32 C 111.55 46.21 111.5 46.12 111.41 46.06 L 103.75 41.49 C 103.66 41.44 103.55 41.44 103.46 41.49 L 95.45 46.24 C 95.34 46.33 95.3 46.41 95.3 46.5 C 95.3 46.5 95.33 55.95 95.33 55.95 C 95.33 56.06 95.38 56.15 95.47 56.21 L 103.14 60.78 C 103.18 60.8 103.23 60.82 103.28 60.82 C 103.3 60.82 103.33 60.81 103.35 60.81 C 103.38 60.8 103.4 60.79 103.42 60.78 L 111.44 56.03 C 111.53 55.97 111.58 55.88 111.58 55.77 L 111.55 46.32 L 111.55 46.32 Z M 111.55 46.32" />
    <path fill="#ffe900" fill-rule="evenodd" d="M 103.6 42.08 L 110.7 46.32 L 107.76 48.06 L 103.25 50.73 L 96.56 46.74 L 96.16 46.5 L 103.6 42.08 L 103.6 42.08 Z M 103.6 42.08" />
    <path fill="#eec800" fill-rule="evenodd" d="M 95.9 55.78 L 95.88 47.01 L 102.97 51.24 L 102.99 60.01 L 95.9 55.78 L 95.9 55.78 Z M 95.9 55.78" />
    <path fill="#ffe900" fill-rule="evenodd" d="M 103.56 60.02 L 103.54 51.24 L 110.98 46.82 L 111.01 55.61 L 103.56 60.02 L 103.56 60.02 Z M 103.56 60.02" />
    <path fill="url(#gradient-33)" fill-rule="evenodd" d="M 148.48 56.99 C 148.47 56.89 148.42 56.79 148.33 56.74 L 140.67 52.17 C 140.58 52.12 140.47 52.12 140.39 52.17 L 132.37 56.92 C 132.27 57 132.23 57.08 132.23 57.17 C 132.23 57.17 132.25 66.63 132.25 66.63 C 132.25 66.73 132.31 66.83 132.39 66.88 L 140.06 71.45 C 140.1 71.48 140.15 71.49 140.2 71.49 C 140.23 71.49 140.25 71.49 140.28 71.48 C 140.3 71.47 140.32 71.46 140.34 71.45 L 148.36 66.7 C 148.45 66.65 148.5 66.55 148.5 66.45 L 148.48 56.99 L 148.48 56.99 Z M 148.48 56.99" />
    <path fill="#f6bc80" fill-rule="evenodd" d="M 140.53 52.76 L 147.62 56.99 L 144.69 58.73 L 140.17 61.41 L 133.48 57.41 L 133.08 57.17 L 140.53 52.76 L 140.53 52.76 Z M 140.53 52.76" />
    <path fill="#f58c20" fill-rule="evenodd" d="M 132.82 66.46 L 132.8 57.68 L 139.89 61.91 L 139.91 70.69 L 132.82 66.46 L 132.82 66.46 Z M 132.82 66.46" />
    <path fill="#f6bc80" fill-rule="evenodd" d="M 140.48 70.69 L 140.46 61.91 L 147.91 57.5 L 147.93 66.28 L 140.48 70.69 L 140.48 70.69 Z M 140.48 70.69" />
    <path fill="url(#gradient-34)" fill-rule="evenodd" d="M 94.34 62.84 C 94.34 62.75 94.29 62.67 94.22 62.63 L 87.41 58.74 C 87.33 58.69 87.23 58.69 87.15 58.74 L 80.03 62.78 C 79.93 62.85 79.9 62.92 79.9 62.99 C 79.9 63 79.92 71.04 79.92 71.04 C 79.92 71.13 79.97 71.21 80.05 71.26 L 86.86 75.15 C 86.9 75.17 86.94 75.18 86.99 75.18 C 87.01 75.18 87.03 75.18 87.05 75.17 C 87.08 75.16 87.1 75.15 87.12 75.15 L 94.24 71.1 C 94.32 71.06 94.37 70.98 94.37 70.89 L 94.34 62.84 L 94.34 62.84 Z M 94.34 62.84" />
    <path fill="#34a240" fill-rule="evenodd" d="M 87.28 59.24 L 93.58 62.84 L 90.97 64.32 L 86.96 66.6 L 81.02 63.2 L 80.66 63 L 87.28 59.24 L 87.28 59.24 Z M 87.28 59.24" />
    <path fill="#2d8034" fill-rule="evenodd" d="M 80.43 70.9 L 80.41 63.43 L 86.71 67.03 L 86.73 74.5 L 80.43 70.9 L 80.43 70.9 Z M 80.43 70.9" />
    <path fill="#34a240" fill-rule="evenodd" d="M 87.24 74.5 L 87.22 67.03 L 93.84 63.27 L 93.86 70.74 L 87.24 74.5 L 87.24 74.5 Z M 87.24 74.5" />
    <path fill="url(#gradient-35)" fill-rule="evenodd" d="M 121.19 35.58 C 121.19 35.48 121.13 35.38 121.05 35.33 L 113.38 30.76 C 113.3 30.71 113.19 30.71 113.1 30.76 L 105.08 35.51 C 104.98 35.6 104.94 35.68 104.94 35.76 C 104.94 35.76 104.97 45.22 104.97 45.22 C 104.97 45.32 105.02 45.42 105.11 45.47 L 112.77 50.04 C 112.82 50.07 112.86 50.08 112.91 50.08 C 112.94 50.08 112.96 50.08 112.99 50.07 C 113.02 50.06 113.04 50.05 113.06 50.04 L 121.07 45.29 C 121.16 45.24 121.22 45.14 121.22 45.04 L 121.19 35.58 L 121.19 35.58 Z M 121.19 35.58" />
    <path fill="#4c64ff" fill-rule="evenodd" d="M 113.24 31.35 L 120.34 35.58 L 117.4 37.32 L 112.89 40 L 106.2 36.01 L 105.79 35.76 L 113.24 31.35 L 113.24 31.35 Z M 113.24 31.35" />
    <path fill="#0000fd" fill-rule="evenodd" d="M 105.53 45.05 L 105.51 36.27 L 112.6 40.5 L 112.63 49.28 L 105.53 45.05 L 105.53 45.05 Z M 105.53 45.05" />
    <path fill="#4c63ff" fill-rule="evenodd" d="M 113.2 49.29 L 113.17 40.5 L 120.62 36.09 L 120.64 44.87 L 113.2 49.29 L 113.2 49.29 Z M 113.2 49.29" />
    <path fill="url(#gradient-36)" fill-rule="evenodd" d="M 165.83 66.92 C 165.83 66.8 165.77 66.7 165.68 66.65 L 157.45 61.8 C 157.36 61.75 157.24 61.75 157.14 61.8 L 148.53 66.84 C 148.42 66.93 148.38 67.01 148.38 67.11 C 148.38 67.11 148.41 77.14 148.41 77.14 C 148.41 77.25 148.47 77.35 148.56 77.41 L 156.79 82.25 C 156.84 82.28 156.89 82.3 156.94 82.3 C 156.97 82.3 157 82.29 157.02 82.29 C 157.05 82.28 157.08 82.27 157.1 82.25 L 165.71 77.21 C 165.8 77.16 165.86 77.06 165.86 76.95 L 165.83 66.92 L 165.83 66.92 Z M 165.83 66.92" />
    <path fill="#4c64ff" fill-rule="evenodd" d="M 157.29 62.43 L 164.92 66.92 L 161.76 68.76 L 156.92 71.6 L 149.73 67.36 L 149.3 67.11 L 157.29 62.43 L 157.29 62.43 Z M 157.29 62.43" />
    <path fill="#0000fd" fill-rule="evenodd" d="M 149.02 76.96 L 148.99 67.65 L 156.61 72.14 L 156.64 81.45 L 149.02 76.96 L 149.02 76.96 Z M 149.02 76.96" />
    <path fill="#4c63ff" fill-rule="evenodd" d="M 157.25 81.45 L 157.22 72.14 L 165.22 67.46 L 165.25 76.77 L 157.25 81.45 L 157.25 81.45 Z M 157.25 81.45" />
    <path fill="url(#gradient-37)" fill-rule="evenodd" d="M 188.79 54.62 C 188.79 54.51 188.74 54.41 188.65 54.36 L 180.99 49.75 C 180.9 49.7 180.79 49.7 180.7 49.75 L 172.69 54.54 C 172.58 54.63 172.54 54.71 172.54 54.8 C 172.54 54.8 172.57 64.33 172.57 64.33 C 172.57 64.44 172.62 64.54 172.71 64.59 L 180.37 69.2 C 180.42 69.23 180.47 69.24 180.52 69.24 C 180.54 69.24 180.57 69.24 180.59 69.23 C 180.62 69.22 180.64 69.21 180.66 69.2 L 188.68 64.41 C 188.77 64.36 188.82 64.26 188.82 64.15 L 188.79 54.62 L 188.79 54.62 Z M 188.79 54.62" />
    <path fill="#ff5a72" fill-rule="evenodd" d="M 180.84 50.35 L 187.94 54.62 L 185 56.37 L 180.49 59.07 L 173.8 55.04 L 173.4 54.8 L 180.84 50.35 L 180.84 50.35 Z M 180.84 50.35" />
    <path fill="#d4465b" fill-rule="evenodd" d="M 173.14 64.16 L 173.11 55.31 L 180.21 59.58 L 180.23 68.43 L 173.14 64.16 L 173.14 64.16 Z M 173.14 64.16" />
    <path fill="#eb4a62" fill-rule="evenodd" d="M 180.8 68.43 L 180.77 59.58 L 188.22 55.13 L 188.25 63.98 L 180.8 68.43 L 180.8 68.43 Z M 180.8 68.43" />
    <path fill="url(#gradient-38)" fill-rule="evenodd" d="M 89.5 45.14 C 89.5 45.05 89.45 44.97 89.37 44.93 L 82.56 41.04 C 82.48 40.99 82.39 40.99 82.31 41.04 L 75.18 45.08 C 75.09 45.15 75.06 45.22 75.06 45.3 C 75.06 45.3 75.08 53.34 75.08 53.34 C 75.08 53.43 75.13 53.51 75.2 53.56 L 82.02 57.45 C 82.06 57.47 82.1 57.48 82.14 57.48 C 82.17 57.48 82.19 57.48 82.21 57.47 C 82.23 57.46 82.25 57.46 82.27 57.45 L 89.4 53.4 C 89.48 53.36 89.52 53.28 89.52 53.19 L 89.5 45.14 L 89.5 45.14 Z M 89.5 45.14" />
    <path fill="#ff5a72" fill-rule="evenodd" d="M 82.43 41.54 L 88.74 45.14 L 86.13 46.62 L 82.12 48.9 L 76.17 45.5 L 75.81 45.3 L 82.43 41.54 L 82.43 41.54 Z M 82.43 41.54" />
    <path fill="#d4465b" fill-rule="evenodd" d="M 75.58 53.2 L 75.56 45.73 L 81.87 49.33 L 81.89 56.8 L 75.58 53.2 L 75.58 53.2 Z M 75.58 53.2" />
    <path fill="#eb4a62" fill-rule="evenodd" d="M 82.4 56.8 L 82.37 49.33 L 88.99 45.58 L 89.02 53.05 L 82.4 56.8 L 82.4 56.8 Z M 82.4 56.8" />
    <path fill="#e65336" fill-rule="evenodd" d="M 218.87 98.51 L 256.13 135.8 C 259.88 139.55 265.83 139.55 269.58 135.8 C 273.33 132.05 273.33 126.09 269.58 122.34 L 232.32 85.05 L 218.87 98.51 L 218.87 98.51 Z M 218.87 98.51" />
    <path fill="#bf4028" fill-rule="evenodd" d="M 205.76 95.87 L 212.48 102.6 C 214.69 104.8 218.32 104.8 220.64 102.6 L 236.51 86.71 C 238.72 84.5 238.72 80.86 236.51 78.55 L 229.79 71.82 L 205.76 95.87 L 205.76 95.87 Z M 205.76 95.87" />
    <path fill="#239bc1" fill-rule="evenodd" d="M 149.2 15.33 C 129.03 35.52 129.03 68.4 149.2 88.58 C 169.38 108.77 202.23 108.77 222.4 88.58 C 242.57 68.4 242.57 35.52 222.4 15.33 C 202.23 -4.85 169.38 -4.85 149.2 15.33 L 149.2 15.33 Z M 212.92 79.1 C 197.93 94.1 173.68 94.1 158.69 79.1 C 143.69 64.09 143.69 39.82 158.69 24.82 C 173.68 9.82 197.93 9.82 212.92 24.82 C 227.91 39.82 227.91 64.09 212.92 79.1 L 212.92 79.1 Z M 212.92 79.1" />
    <path fill="none" fill-rule="evenodd" d="M 185.5 93 C 208.42 93 227 74.42 227 51.5 C 227 28.58 208.42 10 185.5 10 C 162.58 10 144 28.58 144 51.5 C 144 74.42 162.58 93 185.5 93 Z M 185.5 93" />
</svg>