<?xml version="1.0" encoding="utf-8"?>
<!-- Generator: Avocode 2.5.3 - http://avocode.com -->
<svg height="156" width="237" xmlns:xlink="http://www.w3.org/1999/xlink" xmlns="http://www.w3.org/2000/svg" viewBox="0 0 237 156">
    <path fill="#f89f6a" fill-rule="evenodd" d="M 69.5 155.58 C 107.88 155.58 139 124.47 139 86.08 C 139 47.7 107.88 16.58 69.5 16.58 C 31.12 16.58 0 47.7 0 86.08 C 0 124.47 31.12 155.58 69.5 155.58 Z M 69.5 155.58" />
    <path fill="#f6f6f6" fill-rule="evenodd" d="M 20 0.58 L 119 0.58 L 119 125.25 L 20 125.25 L 20 0.58 Z M 20 0.58" />
    <path fill="#bcbfc2" fill-rule="evenodd" d="M 29.17 100.5 L 109.83 100.5 L 109.83 101.42 L 29.17 101.42 L 29.17 100.5 Z M 29.17 100.5" />
    <path fill="#bcbfc2" fill-rule="evenodd" d="M 29.17 106 L 109.83 106 L 109.83 106.92 L 29.17 106.92 L 29.17 106 Z M 29.17 106" />
    <path fill="#bcbfc2" fill-rule="evenodd" d="M 29.17 111.5 L 109.83 111.5 L 109.83 112.42 L 29.17 112.42 L 29.17 111.5 Z M 29.17 111.5" />
    <path fill="#bcbfc2" fill-rule="evenodd" d="M 29.17 116.08 L 74.08 116.08 L 74.08 117 L 29.17 117 L 29.17 116.08 Z M 29.17 116.08" />
    <path fill="#bcbfc2" fill-rule="evenodd" d="M 94.25 14.33 L 109.83 14.33 L 109.83 15.25 L 94.25 15.25 L 94.25 14.33 Z M 94.25 14.33" />
    <path fill="#bcbfc2" fill-rule="evenodd" d="M 94.25 11.5 L 109.83 11.5 L 109.83 12.42 L 94.25 12.42 L 94.25 11.5 Z M 94.25 11.5" />
    <path fill="#bcbfc2" fill-rule="evenodd" d="M 94.25 17.08 L 109.83 17.08 L 109.83 18 L 94.25 18 L 94.25 17.08 Z M 94.25 17.08" />
    <path fill="#bcbfc2" fill-rule="evenodd" d="M 30.08 86.75 L 65.83 86.75 L 65.83 87.67 L 30.08 87.67 L 30.08 86.75 Z M 30.08 86.75" />
    <path fill="#bcbfc2" fill-rule="evenodd" d="M 72.25 86.75 L 108 86.75 L 108 87.67 L 72.25 87.67 L 72.25 86.75 Z M 72.25 86.75" />
    <path fill="#bcbfc2" fill-rule="evenodd" d="M 30.08 81.25 L 65.83 81.25 L 65.83 82.17 L 30.08 82.17 L 30.08 81.25 Z M 30.08 81.25" />
    <path fill="#bcbfc2" fill-rule="evenodd" d="M 73.17 82.17 L 108.92 82.17 L 108.92 83.08 L 73.17 83.08 L 73.17 82.17 Z M 73.17 82.17" />
    <path fill="#bcbfc2" fill-rule="evenodd" d="M 30.08 76.67 L 65.83 76.67 L 65.83 77.58 L 30.08 77.58 L 30.08 76.67 Z M 30.08 76.67" />
    <path fill="#bcbfc2" fill-rule="evenodd" d="M 73.17 77.58 L 108.92 77.58 L 108.92 78.5 L 73.17 78.5 L 73.17 77.58 Z M 73.17 77.58" />
    <path fill="#bcbfc2" fill-rule="evenodd" d="M 30.08 72.08 L 65.83 72.08 L 65.83 73 L 30.08 73 L 30.08 72.08 Z M 30.08 72.08" />
    <path fill="#bcbfc2" fill-rule="evenodd" d="M 73.17 73 L 108.92 73 L 108.92 73.92 L 73.17 73.92 L 73.17 73 Z M 73.17 73" />
    <path fill="#bcbfc2" fill-rule="evenodd" d="M 30.08 67.5 L 65.83 67.5 L 65.83 68.42 L 30.08 68.42 L 30.08 67.5 Z M 30.08 67.5" />
    <path fill="#bcbfc2" fill-rule="evenodd" d="M 73.17 68.42 L 108.92 68.42 L 108.92 69.33 L 73.17 69.33 L 73.17 68.42 Z M 73.17 68.42" />
    <path fill="#bcbfc2" fill-rule="evenodd" d="M 73.17 41.83 L 108.92 41.83 L 108.92 42.75 L 73.17 42.75 L 73.17 41.83 Z M 73.17 41.83" />
    <path fill="#bcbfc2" fill-rule="evenodd" d="M 30.08 62.92 L 65.83 62.92 L 65.83 63.83 L 30.08 63.83 L 30.08 62.92 Z M 30.08 62.92" />
    <path fill="#bcbfc2" fill-rule="evenodd" d="M 73.17 63.83 L 108.92 63.83 L 108.92 64.75 L 73.17 64.75 L 73.17 63.83 Z M 73.17 63.83" />
    <path fill="#bcbfc2" fill-rule="evenodd" d="M 73.17 37.25 L 108.92 37.25 L 108.92 38.17 L 73.17 38.17 L 73.17 37.25 Z M 73.17 37.25" />
    <path fill="#bcbfc2" fill-rule="evenodd" d="M 30.08 58.33 L 65.83 58.33 L 65.83 59.25 L 30.08 59.25 L 30.08 58.33 Z M 30.08 58.33" />
    <path fill="#bcbfc2" fill-rule="evenodd" d="M 73.17 58.33 L 108.92 58.33 L 108.92 59.25 L 73.17 59.25 L 73.17 58.33 Z M 73.17 58.33" />
    <path fill="#bcbfc2" fill-rule="evenodd" d="M 73.17 32.67 L 108.92 32.67 L 108.92 33.58 L 73.17 33.58 L 73.17 32.67 Z M 73.17 32.67" />
    <path fill="#bcbfc2" fill-rule="evenodd" d="M 30.08 53.75 L 65.83 53.75 L 65.83 54.67 L 30.08 54.67 L 30.08 53.75 Z M 30.08 53.75" />
    <path fill="#bcbfc2" fill-rule="evenodd" d="M 73.17 53.75 L 108.92 53.75 L 108.92 54.67 L 73.17 54.67 L 73.17 53.75 Z M 73.17 53.75" />
    <path fill="#bcbfc2" fill-rule="evenodd" d="M 73.17 28.08 L 108.92 28.08 L 108.92 29 L 73.17 29 L 73.17 28.08 Z M 73.17 28.08" />
    <path fill="#34c1c6" fill-rule="evenodd" d="M 77.67 7.92 L 91.42 7.92 L 91.42 20.75 L 77.67 20.75 L 77.67 7.92 Z M 77.67 7.92" />
    <path fill="#9013fe" fill-rule="evenodd" d="M 78.58 114.17 L 107.08 114.17 L 107.08 118.84 L 78.58 118.84 L 78.58 114.17 Z M 78.58 114.17" />
    <text font-size="14" font-family="DodecaBasic" fill="#979797" y="19" x="31">
        <tspan>FORM</tspan>
    </text>
    <path fill="#edf0f2" fill-rule="evenodd" d="M 31.04 32.32 L 41.58 25.68 L 49.92 38.88 L 39.38 45.52 L 31.04 32.32 L 31.04 32.32 Z M 31.04 32.32" />
    <path fill="#e65336" fill-rule="evenodd" d="M 32.32 32.58 L 41.25 26.95 L 47.2 36.36 L 38.26 41.99 L 32.32 32.58 L 32.32 32.58 Z M 32.32 32.58" />
    <path fill="#edf0f2" fill-rule="evenodd" d="M 44 27.66 L 55.95 24.58 L 59.83 39.5 L 47.87 42.58 L 44 27.66 L 44 27.66 Z M 44 27.66" />
    <path fill="#34c1c6" fill-rule="evenodd" d="M 55.21 25.87 L 58 36.51 L 47.77 39.11 L 44.98 28.48 L 55.21 25.87 Z M 55.21 25.87" />
    <path fill="#edf0f2" fill-rule="evenodd" d="M 38.25 31.85 L 49.97 28.83 L 53.76 43.48 L 42.05 46.51 L 38.25 31.85 L 38.25 31.85 Z M 38.25 31.85" />
    <path fill="#f0c949" fill-rule="evenodd" d="M 39.26 32.37 L 49.28 29.81 L 52.01 40.26 L 41.99 42.82 L 39.26 32.37 L 39.26 32.37 Z M 39.26 32.37" />
    <path fill="#74bcaf" fill-rule="evenodd" d="M 235.63 78.65 L 190.21 113.38 L 163.29 102.69 L 235.63 78.65 Z M 235.63 78.65" />
    <path fill="#74bcaf" fill-rule="evenodd" d="M 235.63 78.65 L 190.21 113.38 L 163.29 102.69 L 235.63 78.65 Z M 235.63 78.65" />
    <path fill="#74bcaf" fill-rule="evenodd" d="M 235.63 78.65 L 190.21 113.38 L 163.29 102.69 L 235.63 78.65 Z M 235.63 78.65" />
    <path fill="#3b8174" fill-rule="evenodd" d="M 190.21 113.38 L 190.65 132.68 L 235.63 78.65 L 190.21 113.38 Z M 190.21 113.38" />
    <path fill="#3b8174" fill-rule="evenodd" d="M 190.21 113.38 L 190.65 132.68 L 235.63 78.65 L 190.21 113.38 Z M 190.21 113.38" />
    <path fill="#3b8174" fill-rule="evenodd" d="M 190.21 113.38 L 190.65 132.68 L 235.63 78.65 L 190.21 113.38 Z M 190.21 113.38" />
    <path fill="#4c9284" fill-rule="evenodd" d="M 198.54 118.69 L 190.65 132.68 L 202.67 118.62 L 198.54 118.69 Z M 198.54 118.69" />
    <path fill="#4c9284" fill-rule="evenodd" d="M 198.54 118.69 L 190.65 132.68 L 202.67 118.62 L 198.54 118.69 Z M 198.54 118.69" />
    <path fill="#4c9284" fill-rule="evenodd" d="M 198.54 118.69 L 190.65 132.68 L 202.67 118.62 L 198.54 118.69 Z M 198.54 118.69" />
    <path fill="#74bcaf" fill-rule="evenodd" d="M 235.63 78.65 L 218.52 138.64 L 198.54 118.69 L 235.63 78.65 Z M 235.63 78.65" />
    <path fill="#74bcaf" fill-rule="evenodd" d="M 235.63 78.65 L 218.52 138.64 L 198.54 118.69 L 235.63 78.65 Z M 235.63 78.65" />
    <path fill="#74bcaf" fill-rule="evenodd" d="M 235.63 78.65 L 218.52 138.64 L 198.54 118.69 L 235.63 78.65 Z M 235.63 78.65" />
    <path stroke-linejoin="miter" stroke-linecap="butt" stroke-dasharray="8,6" stroke-width="2" stroke="#cc3735" fill="none" fill-rule="evenodd" d="M 109.5 119.06 C 121.29 124.7 120.68 149.42 137.08 147.77 C 153.49 146.13 158.72 132.9 158.72 123.16 C 158.72 113.42 147.44 115.98 145.39 123.16 C 143.34 130.34 144.76 143.97 157.23 146.32 C 169.7 148.67 183.85 143.16 190 135.46" />
    <path stroke-linejoin="miter" stroke-linecap="butt" stroke-dasharray="16,12" stroke-width="2" stroke="#cc3735" fill="none" fill-rule="evenodd" d="M 109.5 119.06 C 121.29 124.7 120.68 149.42 137.08 147.77 C 153.49 146.13 158.72 132.9 158.72 123.16 C 158.72 113.42 147.44 115.98 145.39 123.16 C 143.34 130.34 144.76 143.97 157.23 146.32 C 169.7 148.67 183.85 143.16 190 135.46" />
</svg>