<?xml version="1.0" encoding="utf-8"?>
<!-- Generator: Avocode 2.5.3 - http://avocode.com -->
<svg height="115" width="375" xmlns:xlink="http://www.w3.org/1999/xlink" xmlns="http://www.w3.org/2000/svg" viewBox="0 0 375 115">
    <defs>
        <linearGradient y2="85%" y1="0%" x2="0%" x1="53%" id="gradient-1">
            <stop stop-color="#becad6" offset="0%" />
            <stop stop-color="#a7a7a7" offset="24%" />
            <stop stop-color="#becad6" offset="100%" />
        </linearGradient>
        <linearGradient y2="54%" y1="0%" x2="84%" x1="0%" id="gradient-2">
            <stop stop-color="#d3d3d3" offset="0%" />
            <stop stop-color="#9c9c9c" offset="100%" />
        </linearGradient>
        <linearGradient y2="85%" y1="0%" x2="0%" x1="53%" id="gradient-3">
            <stop stop-color="#becad6" offset="0%" />
            <stop stop-color="#a7a7a7" offset="24%" />
            <stop stop-color="#becad6" offset="100%" />
        </linearGradient>
        <linearGradient y2="54%" y1="0%" x2="84%" x1="0%" id="gradient-4">
            <stop stop-color="#d3d3d3" offset="0%" />
            <stop stop-color="#9c9c9c" offset="100%" />
        </linearGradient>
        <linearGradient y2="85%" y1="0%" x2="0%" x1="53%" id="gradient-5">
            <stop stop-color="#becad6" offset="0%" />
            <stop stop-color="#a7a7a7" offset="24%" />
            <stop stop-color="#becad6" offset="100%" />
        </linearGradient>
        <linearGradient y2="54%" y1="0%" x2="84%" x1="0%" id="gradient-6">
            <stop stop-color="#d3d3d3" offset="0%" />
            <stop stop-color="#9c9c9c" offset="100%" />
        </linearGradient>
        <linearGradient y2="85%" y1="0%" x2="0%" x1="53%" id="gradient-7">
            <stop stop-color="#becad6" offset="0%" />
            <stop stop-color="#a7a7a7" offset="24%" />
            <stop stop-color="#becad6" offset="100%" />
        </linearGradient>
        <linearGradient y2="54%" y1="0%" x2="84%" x1="0%" id="gradient-8">
            <stop stop-color="#d3d3d3" offset="0%" />
            <stop stop-color="#9c9c9c" offset="100%" />
        </linearGradient>
        <linearGradient y2="85%" y1="0%" x2="0%" x1="53%" id="gradient-9">
            <stop stop-color="#becad6" offset="0%" />
            <stop stop-color="#a7a7a7" offset="24%" />
            <stop stop-color="#becad6" offset="100%" />
        </linearGradient>
        <linearGradient y2="54%" y1="0%" x2="84%" x1="0%" id="gradient-10">
            <stop stop-color="#d3d3d3" offset="0%" />
            <stop stop-color="#9c9c9c" offset="100%" />
        </linearGradient>
        <linearGradient y2="85%" y1="0%" x2="0%" x1="53%" id="gradient-11">
            <stop stop-color="#becad6" offset="0%" />
            <stop stop-color="#a7a7a7" offset="24%" />
            <stop stop-color="#becad6" offset="100%" />
        </linearGradient>
        <linearGradient y2="54%" y1="0%" x2="84%" x1="0%" id="gradient-12">
            <stop stop-color="#d3d3d3" offset="0%" />
            <stop stop-color="#9c9c9c" offset="100%" />
        </linearGradient>
        <linearGradient y2="85%" y1="0%" x2="0%" x1="53%" id="gradient-13">
            <stop stop-color="#becad6" offset="0%" />
            <stop stop-color="#a7a7a7" offset="24%" />
            <stop stop-color="#becad6" offset="100%" />
        </linearGradient>
        <linearGradient y2="54%" y1="0%" x2="84%" x1="0%" id="gradient-14">
            <stop stop-color="#d3d3d3" offset="0%" />
            <stop stop-color="#9c9c9c" offset="100%" />
        </linearGradient>
        <linearGradient y2="85%" y1="0%" x2="0%" x1="53%" id="gradient-15">
            <stop stop-color="#becad6" offset="0%" />
            <stop stop-color="#a7a7a7" offset="24%" />
            <stop stop-color="#becad6" offset="100%" />
        </linearGradient>
        <linearGradient y2="54%" y1="0%" x2="84%" x1="0%" id="gradient-16">
            <stop stop-color="#d3d3d3" offset="0%" />
            <stop stop-color="#9c9c9c" offset="100%" />
        </linearGradient>
        <linearGradient y2="85%" y1="0%" x2="0%" x1="53%" id="gradient-17">
            <stop stop-color="#becad6" offset="0%" />
            <stop stop-color="#a7a7a7" offset="24%" />
            <stop stop-color="#becad6" offset="100%" />
        </linearGradient>
        <linearGradient y2="54%" y1="0%" x2="84%" x1="0%" id="gradient-18">
            <stop stop-color="#d3d3d3" offset="0%" />
            <stop stop-color="#9c9c9c" offset="100%" />
        </linearGradient>
        <linearGradient y2="85%" y1="0%" x2="0%" x1="53%" id="gradient-19">
            <stop stop-color="#becad6" offset="0%" />
            <stop stop-color="#a7a7a7" offset="24%" />
            <stop stop-color="#becad6" offset="100%" />
        </linearGradient>
        <linearGradient y2="54%" y1="0%" x2="84%" x1="0%" id="gradient-20">
            <stop stop-color="#d3d3d3" offset="0%" />
            <stop stop-color="#9c9c9c" offset="100%" />
        </linearGradient>
        <linearGradient y2="85%" y1="0%" x2="0%" x1="53%" id="gradient-21">
            <stop stop-color="#becad6" offset="0%" />
            <stop stop-color="#a7a7a7" offset="24%" />
            <stop stop-color="#becad6" offset="100%" />
        </linearGradient>
        <linearGradient y2="54%" y1="0%" x2="84%" x1="0%" id="gradient-22">
            <stop stop-color="#d3d3d3" offset="0%" />
            <stop stop-color="#9c9c9c" offset="100%" />
        </linearGradient>
        <linearGradient y2="85%" y1="0%" x2="0%" x1="53%" id="gradient-23">
            <stop stop-color="#becad6" offset="0%" />
            <stop stop-color="#a7a7a7" offset="24%" />
            <stop stop-color="#becad6" offset="100%" />
        </linearGradient>
        <linearGradient y2="54%" y1="0%" x2="84%" x1="0%" id="gradient-24">
            <stop stop-color="#d3d3d3" offset="0%" />
            <stop stop-color="#9c9c9c" offset="100%" />
        </linearGradient>
        <linearGradient y2="85%" y1="0%" x2="0%" x1="53%" id="gradient-25">
            <stop stop-color="#becad6" offset="0%" />
            <stop stop-color="#a7a7a7" offset="24%" />
            <stop stop-color="#becad6" offset="100%" />
        </linearGradient>
        <linearGradient y2="54%" y1="0%" x2="84%" x1="0%" id="gradient-26">
            <stop stop-color="#d3d3d3" offset="0%" />
            <stop stop-color="#9c9c9c" offset="100%" />
        </linearGradient>
        <linearGradient y2="85%" y1="0%" x2="0%" x1="53%" id="gradient-27">
            <stop stop-color="#becad6" offset="0%" />
            <stop stop-color="#a7a7a7" offset="24%" />
            <stop stop-color="#becad6" offset="100%" />
        </linearGradient>
        <linearGradient y2="54%" y1="0%" x2="84%" x1="0%" id="gradient-28">
            <stop stop-color="#d3d3d3" offset="0%" />
            <stop stop-color="#9c9c9c" offset="100%" />
        </linearGradient>
        <linearGradient y2="85%" y1="0%" x2="0%" x1="53%" id="gradient-29">
            <stop stop-color="#becad6" offset="0%" />
            <stop stop-color="#a7a7a7" offset="24%" />
            <stop stop-color="#becad6" offset="100%" />
        </linearGradient>
        <linearGradient y2="54%" y1="0%" x2="84%" x1="0%" id="gradient-30">
            <stop stop-color="#d3d3d3" offset="0%" />
            <stop stop-color="#9c9c9c" offset="100%" />
        </linearGradient>
        <linearGradient y2="85%" y1="0%" x2="0%" x1="53%" id="gradient-31">
            <stop stop-color="#becad6" offset="0%" />
            <stop stop-color="#a7a7a7" offset="24%" />
            <stop stop-color="#becad6" offset="100%" />
        </linearGradient>
        <linearGradient y2="54%" y1="0%" x2="84%" x1="0%" id="gradient-32">
            <stop stop-color="#d3d3d3" offset="0%" />
            <stop stop-color="#9c9c9c" offset="100%" />
        </linearGradient>
        <linearGradient y2="85%" y1="0%" x2="0%" x1="53%" id="gradient-33">
            <stop stop-color="#becad6" offset="0%" />
            <stop stop-color="#a7a7a7" offset="24%" />
            <stop stop-color="#becad6" offset="100%" />
        </linearGradient>
        <linearGradient y2="54%" y1="0%" x2="84%" x1="0%" id="gradient-34">
            <stop stop-color="#d3d3d3" offset="0%" />
            <stop stop-color="#9c9c9c" offset="100%" />
        </linearGradient>
        <linearGradient y2="85%" y1="0%" x2="0%" x1="53%" id="gradient-35">
            <stop stop-color="#becad6" offset="0%" />
            <stop stop-color="#a7a7a7" offset="24%" />
            <stop stop-color="#becad6" offset="100%" />
        </linearGradient>
        <linearGradient y2="54%" y1="0%" x2="84%" x1="0%" id="gradient-36">
            <stop stop-color="#d3d3d3" offset="0%" />
            <stop stop-color="#9c9c9c" offset="100%" />
        </linearGradient>
        <linearGradient y2="85%" y1="0%" x2="0%" x1="53%" id="gradient-37">
            <stop stop-color="#becad6" offset="0%" />
            <stop stop-color="#a7a7a7" offset="24%" />
            <stop stop-color="#becad6" offset="100%" />
        </linearGradient>
        <linearGradient y2="54%" y1="0%" x2="84%" x1="0%" id="gradient-38">
            <stop stop-color="#d3d3d3" offset="0%" />
            <stop stop-color="#9c9c9c" offset="100%" />
        </linearGradient>
        <linearGradient y2="85%" y1="0%" x2="0%" x1="53%" id="gradient-39">
            <stop stop-color="#becad6" offset="0%" />
            <stop stop-color="#a7a7a7" offset="24%" />
            <stop stop-color="#becad6" offset="100%" />
        </linearGradient>
        <linearGradient y2="54%" y1="0%" x2="84%" x1="0%" id="gradient-40">
            <stop stop-color="#d3d3d3" offset="0%" />
            <stop stop-color="#9c9c9c" offset="100%" />
        </linearGradient>
        <linearGradient y2="85%" y1="0%" x2="0%" x1="53%" id="gradient-41">
            <stop stop-color="#becad6" offset="0%" />
            <stop stop-color="#a7a7a7" offset="24%" />
            <stop stop-color="#becad6" offset="100%" />
        </linearGradient>
        <linearGradient y2="54%" y1="0%" x2="84%" x1="0%" id="gradient-42">
            <stop stop-color="#d3d3d3" offset="0%" />
            <stop stop-color="#9c9c9c" offset="100%" />
        </linearGradient>
        <linearGradient y2="12%" y1="0%" x2="99%" x1="0%" id="gradient-43">
            <stop stop-color="#efefef" offset="0%" />
            <stop stop-color="#efefef" offset="0%" />
            <stop stop-color="#eeeeee" offset="10%" />
            <stop stop-color="#ededed" offset="16%" />
            <stop stop-color="#ececec" offset="44%" />
            <stop stop-color="#d8d8d8" offset="100%" />
        </linearGradient>
        <linearGradient y2="0%" y1="7%" x2="100%" x1="0%" id="gradient-44">
            <stop stop-color="#eeeeee" offset="0%" />
            <stop stop-color="#d8d8d8" offset="100%" />
        </linearGradient>
        <linearGradient y2="0%" y1="34%" x2="94%" x1="0%" id="gradient-45">
            <stop stop-color="#edc700" offset="0%" />
            <stop stop-color="#ffe900" offset="100%" />
        </linearGradient>
        <linearGradient y2="0%" y1="37%" x2="93%" x1="0%" id="gradient-46">
            <stop stop-color="#2d8034" offset="0%" />
            <stop stop-color="#2d8034" offset="0%" />
            <stop stop-color="#34a240" offset="100%" />
        </linearGradient>
        <linearGradient y2="0%" y1="36%" x2="93%" x1="0%" id="gradient-47">
            <stop stop-color="#f58c20" offset="0%" />
            <stop stop-color="#f6bc80" offset="100%" />
        </linearGradient>
        <linearGradient y2="100%" y1="0%" x2="0%" x1="0%" id="gradient-48">
            <stop stop-color="#fce0b7" offset="0%" />
            <stop stop-color="#f6bc80" offset="100%" />
        </linearGradient>
        <linearGradient y2="36%" y1="0%" x2="0%" x1="93%" id="gradient-49">
            <stop stop-color="#7f027f" offset="0%" />
            <stop stop-color="#943799" offset="100%" />
        </linearGradient>
        <linearGradient y2="37%" y1="0%" x2="0%" x1="93%" id="gradient-50">
            <stop stop-color="#7f027f" offset="0%" />
            <stop stop-color="#943799" offset="100%" />
        </linearGradient>
        <linearGradient y2="87%" y1="0%" x2="0%" x1="50%" id="gradient-51">
            <stop stop-color="#ee97a9" offset="0%" />
            <stop stop-color="#ee97a8" offset="0%" />
            <stop stop-color="#d85e6f" offset="100%" />
        </linearGradient>
        <linearGradient y2="0%" y1="34%" x2="94%" x1="0%" id="gradient-52">
            <stop stop-color="#edc700" offset="0%" />
            <stop stop-color="#ffe900" offset="100%" />
        </linearGradient>
        <linearGradient y2="0%" y1="34%" x2="94%" x1="0%" id="gradient-53">
            <stop stop-color="#f58c20" offset="0%" />
            <stop stop-color="#f6bc80" offset="100%" />
        </linearGradient>
        <linearGradient y2="0%" y1="37%" x2="93%" x1="0%" id="gradient-54">
            <stop stop-color="#2d8034" offset="0%" />
            <stop stop-color="#2d8034" offset="0%" />
            <stop stop-color="#34a240" offset="100%" />
        </linearGradient>
        <linearGradient y2="0%" y1="36%" x2="93%" x1="0%" id="gradient-55">
            <stop stop-color="#0000fd" offset="0%" />
            <stop stop-color="#4c64ff" offset="100%" />
        </linearGradient>
        <linearGradient y2="0%" y1="37%" x2="93%" x1="0%" id="gradient-56">
            <stop stop-color="#0000fd" offset="0%" />
            <stop stop-color="#4c64ff" offset="100%" />
        </linearGradient>
        <linearGradient y2="84%" y1="0%" x2="0%" x1="54%" id="gradient-57">
            <stop stop-color="#ee97a9" offset="0%" />
            <stop stop-color="#ee97a8" offset="0%" />
            <stop stop-color="#d85e6f" offset="100%" />
        </linearGradient>
        <linearGradient y2="87%" y1="0%" x2="0%" x1="50%" id="gradient-58">
            <stop stop-color="#ee97a9" offset="0%" />
            <stop stop-color="#ee97a8" offset="0%" />
            <stop stop-color="#d85e6f" offset="100%" />
        </linearGradient>
        <linearGradient y2="0%" y1="34%" x2="94%" x1="0%" id="gradient-59">
            <stop stop-color="#edc700" offset="0%" />
            <stop stop-color="#ffe900" offset="100%" />
        </linearGradient>
        <linearGradient y2="36%" y1="0%" x2="0%" x1="93%" id="gradient-60">
            <stop stop-color="#7f027f" offset="0%" />
            <stop stop-color="#943799" offset="100%" />
        </linearGradient>
        <linearGradient y2="87%" y1="0%" x2="0%" x1="50%" id="gradient-61">
            <stop stop-color="#ee97a9" offset="0%" />
            <stop stop-color="#ee97a8" offset="0%" />
            <stop stop-color="#d85e6f" offset="100%" />
        </linearGradient>
        <linearGradient y2="0%" y1="34%" x2="94%" x1="0%" id="gradient-62">
            <stop stop-color="#edc700" offset="0%" />
            <stop stop-color="#ffe900" offset="100%" />
        </linearGradient>
        <linearGradient y2="0%" y1="34%" x2="94%" x1="0%" id="gradient-63">
            <stop stop-color="#f58c20" offset="0%" />
            <stop stop-color="#f6bc80" offset="100%" />
        </linearGradient>
        <linearGradient y2="0%" y1="37%" x2="93%" x1="0%" id="gradient-64">
            <stop stop-color="#2d8034" offset="0%" />
            <stop stop-color="#2d8034" offset="0%" />
            <stop stop-color="#34a240" offset="100%" />
        </linearGradient>
        <linearGradient y2="0%" y1="36%" x2="93%" x1="0%" id="gradient-65">
            <stop stop-color="#0000fd" offset="0%" />
            <stop stop-color="#4c64ff" offset="100%" />
        </linearGradient>
        <linearGradient y2="0%" y1="37%" x2="93%" x1="0%" id="gradient-66">
            <stop stop-color="#0000fd" offset="0%" />
            <stop stop-color="#4c64ff" offset="100%" />
        </linearGradient>
    </defs>
    <path fill="url(#gradient-1)" fill-rule="evenodd" d="M 54.04 59.5 C 54.04 59.4 54 59.32 53.92 59.27 L 47.11 55.24 C 47.04 55.19 46.94 55.19 46.86 55.24 L 39.74 59.43 C 39.65 59.51 39.62 59.58 39.62 59.66 C 39.62 59.66 39.64 68 39.64 68 C 39.64 68.09 39.69 68.18 39.76 68.22 L 46.57 72.26 C 46.61 72.28 46.65 72.29 46.7 72.29 C 46.72 72.29 46.74 72.29 46.76 72.28 C 46.79 72.28 46.81 72.27 46.82 72.26 L 53.94 68.07 C 54.02 68.02 54.07 67.93 54.07 67.84 L 54.04 59.5 L 54.04 59.5 Z M 54.04 59.5" />
    <path fill="#becad6" fill-rule="evenodd" d="M 46.99 55.76 L 53.29 59.5 L 50.68 61.03 L 46.67 63.39 L 42.76 61.07 C 42.08 60.67 40.73 59.87 40.73 59.87 L 40.37 59.66 L 46.99 55.76 L 46.99 55.76 Z M 46.99 55.76" />
    <path fill="url(#gradient-2)" fill-rule="evenodd" d="M 40.14 67.85 L 40.12 60.11 L 46.42 63.84 L 46.44 71.59 L 40.14 67.85 L 40.14 67.85 Z M 40.14 67.85" />
    <path fill="#ced7df" fill-rule="evenodd" d="M 46.95 71.59 L 46.93 63.84 L 53.54 59.95 L 53.56 67.69 L 46.95 71.59 L 46.95 71.59 Z M 46.95 71.59" />
    <path fill="url(#gradient-3)" fill-rule="evenodd" d="M 51.98 41.6 C 51.98 41.5 51.93 41.42 51.86 41.37 L 45.05 37.34 C 44.97 37.29 44.88 37.29 44.8 37.34 L 37.68 41.53 C 37.59 41.61 37.55 41.68 37.55 41.75 C 37.55 41.76 37.58 50.1 37.58 50.1 C 37.58 50.19 37.62 50.28 37.7 50.32 L 44.51 54.36 C 44.55 54.38 44.59 54.39 44.63 54.39 C 44.66 54.39 44.68 54.39 44.7 54.38 C 44.72 54.37 44.74 54.37 44.76 54.36 L 51.88 50.16 C 51.96 50.12 52.01 50.03 52.01 49.94 L 51.98 41.6 L 51.98 41.6 Z M 51.98 41.6" />
    <path fill="#becad6" fill-rule="evenodd" d="M 44.92 37.86 L 51.22 41.59 L 48.62 43.13 L 44.61 45.49 L 40.7 43.17 C 40.02 42.77 38.67 41.97 38.67 41.97 L 38.31 41.76 L 44.92 37.86 L 44.92 37.86 Z M 44.92 37.86" />
    <path fill="url(#gradient-4)" fill-rule="evenodd" d="M 38.08 49.95 L 38.06 42.2 L 44.36 45.94 L 44.38 53.68 L 38.08 49.95 L 38.08 49.95 Z M 38.08 49.95" />
    <path fill="#ced7df" fill-rule="evenodd" d="M 44.88 53.69 L 44.86 45.94 L 51.48 42.04 L 51.5 49.79 L 44.88 53.69 L 44.88 53.69 Z M 44.88 53.69" />
    <path fill="url(#gradient-5)" fill-rule="evenodd" d="M 60.16 29.22 C 60.16 29.15 60.12 29.09 60.07 29.06 L 55.21 26.18 C 55.15 26.14 55.08 26.14 55.03 26.18 L 49.94 29.17 C 49.88 29.23 49.85 29.28 49.85 29.33 C 49.85 29.33 49.87 35.29 49.87 35.29 C 49.87 35.36 49.9 35.42 49.96 35.45 L 54.82 38.33 C 54.85 38.35 54.88 38.36 54.91 38.36 C 54.92 38.36 54.94 38.36 54.96 38.35 C 54.97 38.35 54.99 38.34 55 38.33 L 60.08 35.34 C 60.14 35.31 60.18 35.24 60.18 35.18 L 60.16 29.22 L 60.16 29.22 Z M 60.16 29.22" />
    <path fill="#becad6" fill-rule="evenodd" d="M 55.12 26.55 L 59.62 29.22 L 57.75 30.32 L 54.89 32 L 52.1 30.34 L 50.65 29.48 L 50.39 29.33 L 55.12 26.55 L 55.12 26.55 Z M 55.12 26.55" />
    <path fill="url(#gradient-6)" fill-rule="evenodd" d="M 50.23 35.19 L 50.21 29.65 L 54.71 32.32 L 54.73 37.85 L 50.23 35.19 L 50.23 35.19 Z M 50.23 35.19" />
    <path fill="#ced7df" fill-rule="evenodd" d="M 55.09 37.85 L 55.07 32.32 L 59.8 29.54 L 59.81 35.07 L 55.09 37.85 L 55.09 37.85 Z M 55.09 37.85" />
    <path fill="url(#gradient-7)" fill-rule="evenodd" d="M 75.6 33.72 C 75.6 33.65 75.57 33.59 75.51 33.56 L 70.65 30.68 C 70.6 30.65 70.53 30.65 70.47 30.68 L 65.39 33.67 C 65.32 33.73 65.3 33.78 65.3 33.83 C 65.3 33.83 65.31 39.79 65.31 39.79 C 65.31 39.86 65.35 39.92 65.4 39.95 L 70.26 42.84 C 70.29 42.85 70.32 42.86 70.36 42.86 C 70.37 42.86 70.39 42.86 70.4 42.85 C 70.42 42.85 70.43 42.84 70.45 42.84 L 75.53 39.84 C 75.59 39.81 75.62 39.75 75.62 39.68 L 75.6 33.72 L 75.6 33.72 Z M 75.6 33.72" />
    <path fill="#becad6" fill-rule="evenodd" d="M 70.56 31.05 L 75.06 33.72 L 73.2 34.82 L 70.34 36.5 L 67.54 34.85 L 66.09 33.99 L 65.84 33.83 L 70.56 31.05 L 70.56 31.05 Z M 70.56 31.05" />
    <path fill="url(#gradient-8)" fill-rule="evenodd" d="M 65.67 39.69 L 65.66 34.16 L 70.16 36.82 L 70.17 42.35 L 65.67 39.69 L 65.67 39.69 Z M 65.67 39.69" />
    <path fill="#ced7df" fill-rule="evenodd" d="M 70.54 42.36 L 70.52 36.82 L 75.24 34.04 L 75.26 39.58 L 70.54 42.36 L 70.54 42.36 Z M 70.54 42.36" />
    <path fill="url(#gradient-9)" fill-rule="evenodd" d="M 83.85 47.97 C 83.85 47.89 83.81 47.83 83.75 47.79 L 78.4 44.62 C 78.34 44.58 78.26 44.58 78.2 44.62 L 72.61 47.91 C 72.54 47.97 72.51 48.03 72.51 48.09 C 72.51 48.09 72.53 54.65 72.53 54.65 C 72.53 54.72 72.57 54.79 72.63 54.82 L 77.97 57.99 C 78.01 58.01 78.04 58.02 78.07 58.02 C 78.09 58.02 78.11 58.02 78.13 58.01 C 78.15 58.01 78.16 58 78.17 57.99 L 83.77 54.7 C 83.83 54.66 83.87 54.59 83.87 54.52 L 83.85 47.97 L 83.85 47.97 Z M 83.85 47.97" />
    <path fill="#becad6" fill-rule="evenodd" d="M 78.3 45.03 L 83.25 47.97 L 81.2 49.17 L 78.06 51.03 C 78.06 51.03 76.01 49.81 74.98 49.2 C 74.45 48.89 73.39 48.26 73.39 48.26 L 73.11 48.09 L 78.3 45.03 L 78.3 45.03 Z M 78.3 45.03" />
    <path fill="url(#gradient-10)" fill-rule="evenodd" d="M 72.92 54.53 L 72.91 48.44 L 77.86 51.38 L 77.87 57.46 L 72.92 54.53 L 72.92 54.53 Z M 72.92 54.53" />
    <path fill="#ced7df" fill-rule="evenodd" d="M 78.27 57.47 L 78.25 51.38 L 83.45 48.32 L 83.47 54.41 L 78.27 57.47 L 78.27 57.47 Z M 78.27 57.47" />
    <path fill="url(#gradient-11)" fill-rule="evenodd" d="M 78.84 61.86 C 78.83 61.79 78.8 61.73 78.75 61.7 L 73.89 58.82 C 73.83 58.79 73.76 58.79 73.7 58.82 L 68.62 61.81 C 68.55 61.87 68.53 61.92 68.53 61.97 C 68.53 61.97 68.55 67.93 68.55 67.93 C 68.55 68 68.58 68.06 68.63 68.09 L 73.5 70.98 C 73.52 70.99 73.56 71 73.59 71 C 73.6 71 73.62 71 73.63 70.99 C 73.65 70.99 73.66 70.98 73.68 70.98 L 78.76 67.98 C 78.82 67.95 78.85 67.89 78.85 67.82 L 78.84 61.86 L 78.84 61.86 Z M 78.84 61.86" />
    <path fill="#becad6" fill-rule="evenodd" d="M 73.79 59.19 L 78.29 61.86 L 76.43 62.96 L 73.57 64.64 L 70.77 62.99 L 69.33 62.13 L 69.07 61.97 L 73.79 59.19 L 73.79 59.19 Z M 73.79 59.19" />
    <path fill="url(#gradient-12)" fill-rule="evenodd" d="M 68.91 67.83 L 68.89 62.29 L 73.39 64.96 L 73.4 70.49 L 68.91 67.83 L 68.91 67.83 Z M 68.91 67.83" />
    <path fill="#ced7df" fill-rule="evenodd" d="M 73.77 70.5 L 73.75 64.96 L 78.47 62.18 L 78.49 67.71 L 73.77 70.5 L 73.77 70.5 Z M 73.77 70.5" />
    <path fill="url(#gradient-13)" fill-rule="evenodd" d="M 91.77 58.02 C 91.77 57.95 91.73 57.89 91.68 57.86 L 86.82 54.98 C 86.76 54.95 86.69 54.95 86.64 54.98 L 81.55 57.97 C 81.49 58.03 81.46 58.08 81.46 58.13 C 81.46 58.13 81.48 64.09 81.48 64.09 C 81.48 64.16 81.51 64.22 81.57 64.25 L 86.43 67.14 C 86.46 67.15 86.49 67.16 86.52 67.16 C 86.53 67.16 86.55 67.16 86.56 67.15 C 86.58 67.15 86.6 67.14 86.61 67.14 L 91.69 64.14 C 91.75 64.11 91.78 64.05 91.78 63.98 L 91.77 58.02 L 91.77 58.02 Z M 91.77 58.02" />
    <path fill="#becad6" fill-rule="evenodd" d="M 86.72 55.35 L 91.23 58.02 L 89.36 59.12 L 86.5 60.8 L 83.71 59.15 L 82.26 58.29 L 82 58.13 L 86.72 55.35 L 86.72 55.35 Z M 86.72 55.35" />
    <path fill="url(#gradient-14)" fill-rule="evenodd" d="M 81.84 63.99 L 81.82 58.46 L 86.32 61.12 L 86.34 66.65 L 81.84 63.99 L 81.84 63.99 Z M 81.84 63.99" />
    <path fill="#ced7df" fill-rule="evenodd" d="M 86.7 66.66 L 86.68 61.12 L 91.41 58.34 L 91.42 63.88 L 86.7 66.66 L 86.7 66.66 Z M 86.7 66.66" />
    <path fill="url(#gradient-15)" fill-rule="evenodd" d="M 96.57 42.72 C 96.57 42.66 96.53 42.6 96.48 42.57 L 91.62 39.68 C 91.56 39.65 91.49 39.65 91.44 39.68 L 86.35 42.68 C 86.29 42.73 86.26 42.78 86.26 42.84 C 86.26 42.84 86.28 48.8 86.28 48.8 C 86.28 48.86 86.31 48.93 86.37 48.96 L 91.23 51.84 C 91.26 51.86 91.29 51.86 91.32 51.86 C 91.34 51.86 91.35 51.86 91.37 51.86 C 91.38 51.85 91.4 51.85 91.41 51.84 L 96.5 48.85 C 96.55 48.81 96.59 48.75 96.59 48.68 L 96.57 42.72 L 96.57 42.72 Z M 96.57 42.72" />
    <path fill="#becad6" fill-rule="evenodd" d="M 91.53 40.06 L 96.03 42.72 L 94.16 43.82 L 91.3 45.51 L 88.51 43.85 L 87.06 42.99 L 86.8 42.84 L 91.53 40.06 L 91.53 40.06 Z M 91.53 40.06" />
    <path fill="url(#gradient-16)" fill-rule="evenodd" d="M 86.64 48.69 L 86.62 43.16 L 91.12 45.83 L 91.14 51.36 L 86.64 48.69 L 86.64 48.69 Z M 86.64 48.69" />
    <path fill="#ced7df" fill-rule="evenodd" d="M 91.5 51.36 L 91.48 45.83 L 96.21 43.04 L 96.22 48.58 L 91.5 51.36 L 91.5 51.36 Z M 91.5 51.36" />
    <path fill="url(#gradient-17)" fill-rule="evenodd" d="M 112.02 31.59 C 112.01 31.52 111.98 31.46 111.93 31.43 L 107.07 28.55 C 107.01 28.51 106.94 28.51 106.88 28.55 L 101.8 31.54 C 101.73 31.6 101.71 31.65 101.71 31.7 C 101.71 31.7 101.73 37.66 101.73 37.66 C 101.73 37.73 101.76 37.79 101.81 37.82 L 106.68 40.7 C 106.71 40.72 106.74 40.73 106.77 40.73 C 106.78 40.73 106.8 40.73 106.81 40.72 C 106.83 40.72 106.84 40.71 106.86 40.7 L 111.94 37.71 C 112 37.68 112.03 37.62 112.03 37.55 L 112.02 31.59 L 112.02 31.59 Z M 112.02 31.59" />
    <path fill="#becad6" fill-rule="evenodd" d="M 106.97 28.92 L 111.47 31.59 L 109.61 32.69 L 106.75 34.37 L 103.96 32.71 L 102.51 31.85 L 102.25 31.7 L 106.97 28.92 L 106.97 28.92 Z M 106.97 28.92" />
    <path fill="url(#gradient-18)" fill-rule="evenodd" d="M 102.09 37.56 L 102.07 32.02 L 106.57 34.69 L 106.58 40.22 L 102.09 37.56 L 102.09 37.56 Z M 102.09 37.56" />
    <path fill="#ced7df" fill-rule="evenodd" d="M 106.95 40.23 L 106.93 34.69 L 111.65 31.91 L 111.67 37.44 L 106.95 40.23 L 106.95 40.23 Z M 106.95 40.23" />
    <path fill="url(#gradient-19)" fill-rule="evenodd" d="M 129.93 32.85 C 129.93 32.76 129.88 32.69 129.82 32.65 L 123.7 29.02 C 123.63 28.98 123.54 28.98 123.47 29.02 L 117.07 32.79 C 116.99 32.86 116.95 32.92 116.95 32.99 C 116.95 32.99 116.98 40.5 116.98 40.5 C 116.98 40.58 117.02 40.65 117.09 40.7 L 123.21 44.32 C 123.24 44.34 123.28 44.35 123.32 44.35 C 123.34 44.35 123.36 44.35 123.38 44.35 C 123.4 44.34 123.42 44.33 123.44 44.32 L 129.84 40.55 C 129.91 40.51 129.95 40.43 129.95 40.35 L 129.93 32.85 L 129.93 32.85 Z M 129.93 32.85" />
    <path fill="#becad6" fill-rule="evenodd" d="M 123.58 29.49 L 129.25 32.85 L 126.9 34.23 L 123.3 36.35 L 119.78 34.27 L 117.96 33.18 L 117.64 32.99 L 123.58 29.49 L 123.58 29.49 Z M 123.58 29.49" />
    <path fill="url(#gradient-20)" fill-rule="evenodd" d="M 117.43 40.36 L 117.41 33.4 L 123.07 36.75 L 123.09 43.72 L 117.43 40.36 L 117.43 40.36 Z M 117.43 40.36" />
    <path fill="#ced7df" fill-rule="evenodd" d="M 123.55 43.72 L 123.53 36.75 L 129.47 33.25 L 129.49 40.22 L 123.55 43.72 L 123.55 43.72 Z M 123.55 43.72" />
    <path fill="url(#gradient-21)" fill-rule="evenodd" d="M 110.91 45.1 C 110.91 45.03 110.88 44.97 110.82 44.94 L 105.96 42.06 C 105.91 42.02 105.84 42.02 105.78 42.06 L 100.7 45.05 C 100.63 45.1 100.61 45.15 100.61 45.21 C 100.61 45.21 100.62 51.17 100.62 51.17 C 100.62 51.24 100.66 51.3 100.71 51.33 L 105.57 54.21 C 105.6 54.23 105.63 54.24 105.66 54.24 C 105.68 54.24 105.69 54.23 105.71 54.23 C 105.73 54.22 105.74 54.22 105.75 54.21 L 110.84 51.22 C 110.9 51.18 110.93 51.12 110.93 51.06 L 110.91 45.1 L 110.91 45.1 Z M 110.91 45.1" />
    <path fill="#becad6" fill-rule="evenodd" d="M 105.87 42.43 L 110.37 45.1 L 108.51 46.19 L 105.65 47.88 L 102.85 46.22 L 101.4 45.36 L 101.15 45.21 L 105.87 42.43 L 105.87 42.43 Z M 105.87 42.43" />
    <path fill="url(#gradient-22)" fill-rule="evenodd" d="M 100.98 51.06 L 100.97 45.53 L 105.47 48.2 L 105.48 53.73 L 100.98 51.06 L 100.98 51.06 Z M 100.98 51.06" />
    <path fill="#ced7df" fill-rule="evenodd" d="M 105.84 53.73 L 105.83 48.2 L 110.55 45.42 L 110.57 50.95 L 105.84 53.73 L 105.84 53.73 Z M 105.84 53.73" />
    <path fill="url(#gradient-23)" fill-rule="evenodd" d="M 95.46 30.46 C 95.46 30.4 95.43 30.34 95.38 30.3 L 90.51 27.42 C 90.46 27.39 90.39 27.39 90.33 27.42 L 85.25 30.42 C 85.18 30.47 85.16 30.52 85.16 30.58 C 85.16 30.58 85.17 36.54 85.17 36.54 C 85.17 36.6 85.21 36.66 85.26 36.7 L 90.13 39.58 C 90.15 39.6 90.19 39.6 90.22 39.6 C 90.23 39.6 90.25 39.6 90.26 39.6 C 90.28 39.59 90.29 39.59 90.31 39.58 L 95.39 36.58 C 95.45 36.55 95.48 36.49 95.48 36.42 L 95.46 30.46 L 95.46 30.46 Z M 95.46 30.46" />
    <path fill="#becad6" fill-rule="evenodd" d="M 90.42 27.79 L 94.92 30.46 L 93.06 31.56 L 90.2 33.25 L 87.4 31.59 L 85.95 30.73 L 85.7 30.58 L 90.42 27.79 L 90.42 27.79 Z M 90.42 27.79" />
    <path fill="url(#gradient-24)" fill-rule="evenodd" d="M 85.53 36.43 L 85.52 30.9 L 90.02 33.57 L 90.03 39.1 L 85.53 36.43 L 85.53 36.43 Z M 85.53 36.43" />
    <path fill="#ced7df" fill-rule="evenodd" d="M 90.4 39.1 L 90.38 33.57 L 95.1 30.78 L 95.12 36.32 L 90.4 39.1 L 90.4 39.1 Z M 90.4 39.1" />
    <path fill="url(#gradient-25)" fill-rule="evenodd" d="M 69.32 48.26 C 69.31 48.17 69.27 48.09 69.2 48.05 L 62.88 44.31 C 62.81 44.26 62.72 44.26 62.64 44.31 L 56.04 48.2 C 55.95 48.27 55.92 48.33 55.92 48.41 C 55.92 48.41 55.94 56.16 55.94 56.16 C 55.94 56.24 55.98 56.32 56.05 56.36 L 62.37 60.11 C 62.41 60.13 62.45 60.14 62.49 60.14 C 62.51 60.14 62.53 60.14 62.55 60.13 C 62.58 60.13 62.59 60.12 62.61 60.11 L 69.22 56.22 C 69.29 56.17 69.34 56.09 69.34 56.01 L 69.32 48.26 L 69.32 48.26 Z M 69.32 48.26" />
    <path fill="#becad6" fill-rule="evenodd" d="M 62.76 44.79 L 68.61 48.26 L 66.19 49.69 L 62.47 51.88 L 58.84 49.72 C 58.21 49.35 56.95 48.61 56.95 48.61 L 56.62 48.41 L 62.76 44.79 L 62.76 44.79 Z M 62.76 44.79" />
    <path fill="url(#gradient-26)" fill-rule="evenodd" d="M 56.41 56.02 L 56.39 48.83 L 62.24 52.29 L 62.26 59.48 L 56.41 56.02 L 56.41 56.02 Z M 56.41 56.02" />
    <path fill="#ced7df" fill-rule="evenodd" d="M 62.73 59.49 L 62.71 52.29 L 68.85 48.68 L 68.87 55.87 L 62.73 59.49 L 62.73 59.49 Z M 62.73 59.49" />
    <path fill="url(#gradient-27)" fill-rule="evenodd" d="M -9.97 33.22 C -9.97 33.16 -10.01 33.1 -10.06 33.06 L -14.92 30.18 C -14.98 30.15 -15.05 30.15 -15.1 30.18 L -20.19 33.18 C -20.25 33.23 -20.28 33.28 -20.28 33.34 C -20.28 33.34 -20.26 39.3 -20.26 39.3 C -20.26 39.36 -20.23 39.42 -20.17 39.46 L -15.31 42.34 C -15.28 42.35 -15.25 42.36 -15.22 42.36 C -15.21 42.36 -15.19 42.36 -15.17 42.36 C -15.16 42.35 -15.14 42.35 -15.13 42.34 L -10.05 39.34 C -9.99 39.31 -9.96 39.25 -9.96 39.18 L -9.97 33.22 L -9.97 33.22 Z M -9.97 33.22" />
    <path fill="#becad6" fill-rule="evenodd" d="M -15.01 30.55 L -10.51 33.22 L -12.38 34.32 L -15.24 36.01 L -18.03 34.35 L -19.48 33.49 L -19.74 33.34 L -15.01 30.55 L -15.01 30.55 Z M -15.01 30.55" />
    <path fill="url(#gradient-28)" fill-rule="evenodd" d="M -19.9 39.19 L -19.92 33.66 L -15.42 36.32 L -15.4 41.86 L -19.9 39.19 L -19.9 39.19 Z M -19.9 39.19" />
    <path fill="#ced7df" fill-rule="evenodd" d="M -15.04 41.86 L -15.06 36.32 L -10.33 33.54 L -10.32 39.08 L -15.04 41.86 L -15.04 41.86 Z M -15.04 41.86" />
    <path fill="url(#gradient-29)" fill-rule="evenodd" d="M 5.47 37.73 C 5.47 37.66 5.44 37.6 5.38 37.57 L 0.52 34.68 C 0.47 34.65 0.4 34.65 0.34 34.68 L -4.74 37.68 C -4.81 37.73 -4.83 37.78 -4.83 37.84 C -4.83 37.84 -4.82 43.8 -4.82 43.8 C -4.82 43.87 -4.78 43.93 -4.73 43.96 L 0.13 46.84 C 0.16 46.86 0.19 46.87 0.23 46.87 C 0.24 46.87 0.26 46.86 0.27 46.86 C 0.29 46.85 0.3 46.85 0.32 46.84 L 5.4 43.85 C 5.46 43.81 5.49 43.75 5.49 43.69 L 5.47 37.73 L 5.47 37.73 Z M 5.47 37.73" />
    <path fill="#becad6" fill-rule="evenodd" d="M 0.43 35.06 L 4.93 37.72 L 3.07 38.82 L 0.21 40.51 L -2.59 38.85 L -4.04 37.99 L -4.29 37.84 L 0.43 35.06 L 0.43 35.06 Z M 0.43 35.06" />
    <path fill="url(#gradient-30)" fill-rule="evenodd" d="M -4.46 43.69 L -4.47 38.16 L 0.03 40.83 L 0.04 46.36 L -4.46 43.69 L -4.46 43.69 Z M -4.46 43.69" />
    <path fill="#ced7df" fill-rule="evenodd" d="M 0.41 46.36 L 0.39 40.83 L 5.11 38.05 L 5.13 43.58 L 0.41 46.36 L 0.41 46.36 Z M 0.41 46.36" />
    <path fill="url(#gradient-31)" fill-rule="evenodd" d="M 13.72 51.97 C 13.72 51.9 13.68 51.83 13.62 51.8 L 8.27 48.63 C 8.21 48.59 8.13 48.59 8.07 48.63 L 2.48 51.92 C 2.41 51.98 2.38 52.03 2.38 52.1 C 2.38 52.1 2.4 58.65 2.4 58.65 C 2.4 58.73 2.44 58.79 2.5 58.83 L 7.84 62 C 7.88 62.02 7.91 62.03 7.94 62.03 C 7.96 62.03 7.98 62.02 8 62.02 C 8.02 62.01 8.03 62.01 8.04 62 L 13.64 58.7 C 13.7 58.67 13.74 58.6 13.74 58.53 L 13.72 51.97 L 13.72 51.97 Z M 13.72 51.97" />
    <path fill="#becad6" fill-rule="evenodd" d="M 8.17 49.04 L 13.12 51.97 L 11.07 53.18 L 7.93 55.03 C 7.93 55.03 5.88 53.82 4.85 53.21 C 4.32 52.89 3.26 52.26 3.26 52.26 L 2.98 52.1 L 8.17 49.04 L 8.17 49.04 Z M 8.17 49.04" />
    <path fill="url(#gradient-32)" fill-rule="evenodd" d="M 2.79 58.54 L 2.78 52.45 L 7.73 55.38 L 7.74 61.47 L 2.79 58.54 L 2.79 58.54 Z M 2.79 58.54" />
    <path fill="#ced7df" fill-rule="evenodd" d="M 8.14 61.47 L 8.12 55.38 L 13.32 52.32 L 13.34 58.41 L 8.14 61.47 L 8.14 61.47 Z M 8.14 61.47" />
    <path fill="url(#gradient-33)" fill-rule="evenodd" d="M 8.7 65.87 C 8.7 65.8 8.67 65.74 8.62 65.71 L 3.76 62.82 C 3.7 62.79 3.63 62.79 3.57 62.82 L -1.51 65.82 C -1.58 65.87 -1.6 65.92 -1.6 65.98 C -1.6 65.98 -1.59 71.94 -1.59 71.94 C -1.59 72 -1.55 72.07 -1.5 72.1 L 3.37 74.98 C 3.39 75 3.43 75.01 3.46 75.01 C 3.47 75.01 3.49 75 3.5 75 C 3.52 74.99 3.53 74.99 3.55 74.98 L 8.63 71.99 C 8.69 71.95 8.72 71.89 8.72 71.83 L 8.7 65.87 L 8.7 65.87 Z M 8.7 65.87" />
    <path fill="#becad6" fill-rule="evenodd" d="M 3.66 63.2 L 8.16 65.86 L 6.3 66.96 L 3.44 68.65 L 0.64 66.99 L -0.8 66.13 L -1.06 65.98 L 3.66 63.2 L 3.66 63.2 Z M 3.66 63.2" />
    <path fill="url(#gradient-34)" fill-rule="evenodd" d="M -1.22 71.83 L -1.24 66.3 L 3.26 68.97 L 3.27 74.5 L -1.22 71.83 L -1.22 71.83 Z M -1.22 71.83" />
    <path fill="#ced7df" fill-rule="evenodd" d="M 3.64 74.5 L 3.62 68.97 L 8.34 66.18 L 8.36 71.72 L 3.64 74.5 L 3.64 74.5 Z M 3.64 74.5" />
    <path fill="url(#gradient-35)" fill-rule="evenodd" d="M 21.64 62.03 C 21.63 61.96 21.6 61.9 21.55 61.87 L 16.69 58.98 C 16.63 58.95 16.56 58.95 16.5 58.98 L 11.42 61.98 C 11.35 62.03 11.33 62.08 11.33 62.14 C 11.33 62.14 11.35 68.1 11.35 68.1 C 11.35 68.17 11.38 68.23 11.44 68.26 L 16.3 71.14 C 16.33 71.16 16.36 71.17 16.39 71.17 C 16.4 71.17 16.42 71.16 16.43 71.16 C 16.45 71.15 16.47 71.15 16.48 71.14 L 21.56 68.15 C 21.62 68.11 21.65 68.05 21.65 67.99 L 21.64 62.03 L 21.64 62.03 Z M 21.64 62.03" />
    <path fill="#becad6" fill-rule="evenodd" d="M 16.59 59.36 L 21.1 62.02 L 19.23 63.12 L 16.37 64.81 L 13.58 63.15 L 12.13 62.29 L 11.87 62.14 L 16.59 59.36 L 16.59 59.36 Z M 16.59 59.36" />
    <path fill="url(#gradient-36)" fill-rule="evenodd" d="M 11.71 67.99 L 11.69 62.46 L 16.19 65.13 L 16.21 70.66 L 11.71 67.99 L 11.71 67.99 Z M 11.71 67.99" />
    <path fill="#ced7df" fill-rule="evenodd" d="M 16.57 70.66 L 16.55 65.13 L 21.28 62.35 L 21.29 67.88 L 16.57 70.66 L 16.57 70.66 Z M 16.57 70.66" />
    <path fill="url(#gradient-37)" fill-rule="evenodd" d="M 26.44 46.73 C 26.44 46.66 26.4 46.6 26.35 46.57 L 21.49 43.69 C 21.43 43.66 21.36 43.66 21.31 43.69 L 16.22 46.68 C 16.16 46.74 16.13 46.79 16.13 46.84 C 16.13 46.84 16.15 52.8 16.15 52.8 C 16.15 52.87 16.18 52.93 16.24 52.96 L 21.1 55.85 C 21.13 55.86 21.16 55.87 21.19 55.87 C 21.21 55.87 21.22 55.87 21.24 55.86 C 21.25 55.86 21.27 55.85 21.28 55.85 L 26.37 52.85 C 26.42 52.82 26.46 52.76 26.46 52.69 L 26.44 46.73 L 26.44 46.73 Z M 26.44 46.73" />
    <path fill="url(#gradient-38)" fill-rule="evenodd" d="M 16.51 52.7 L 16.49 47.16 L 20.99 49.83 L 21.01 55.36 L 16.51 52.7 L 16.51 52.7 Z M 16.51 52.7" />
    <path fill="#ced7df" fill-rule="evenodd" d="M 21.37 55.37 L 21.35 49.83 L 26.08 47.05 L 26.09 52.59 L 21.37 55.37 L 21.37 55.37 Z M 21.37 55.37" />
    <path fill="url(#gradient-39)" fill-rule="evenodd" d="M 25.33 34.47 C 25.33 34.4 25.3 34.34 25.25 34.31 L 20.38 31.43 C 20.33 31.39 20.26 31.39 20.2 31.43 L 15.12 34.42 C 15.05 34.48 15.03 34.53 15.03 34.58 C 15.03 34.58 15.04 40.54 15.04 40.54 C 15.04 40.61 15.08 40.67 15.13 40.7 L 20 43.58 C 20.02 43.6 20.05 43.61 20.09 43.61 C 20.1 43.61 20.12 43.61 20.13 43.6 C 20.15 43.6 20.16 43.59 20.18 43.58 L 25.26 40.59 C 25.32 40.56 25.35 40.49 25.35 40.43 L 25.33 34.47 L 25.33 34.47 Z M 25.33 34.47" />
    <path fill="#becad6" fill-rule="evenodd" d="M 20.29 31.8 L 24.79 34.47 L 22.93 35.57 L 20.07 37.25 L 17.27 35.59 L 15.82 34.73 L 15.57 34.58 L 20.29 31.8 L 20.29 31.8 Z M 20.29 31.8" />
    <path fill="url(#gradient-40)" fill-rule="evenodd" d="M 15.4 40.44 L 15.39 34.9 L 19.89 37.57 L 19.9 43.1 L 15.4 40.44 L 15.4 40.44 Z M 15.4 40.44" />
    <path fill="#ced7df" fill-rule="evenodd" d="M 20.27 43.11 L 20.25 37.57 L 24.97 34.79 L 24.99 40.32 L 20.27 43.11 L 20.27 43.11 Z M 20.27 43.11" />
    <path fill="url(#gradient-41)" fill-rule="evenodd" d="M -0.81 52.26 C -0.82 52.18 -0.86 52.1 -0.93 52.06 L -7.25 48.31 C -7.32 48.27 -7.41 48.27 -7.49 48.31 L -14.09 52.2 C -14.18 52.27 -14.21 52.34 -14.21 52.41 C -14.21 52.41 -14.19 60.16 -14.19 60.16 C -14.19 60.25 -14.15 60.33 -14.08 60.37 L -7.76 64.11 C -7.72 64.14 -7.68 64.15 -7.64 64.15 C -7.62 64.15 -7.6 64.14 -7.58 64.14 C -7.55 64.13 -7.54 64.12 -7.52 64.11 L -0.91 60.22 C -0.84 60.18 -0.79 60.1 -0.79 60.01 L -0.81 52.26 L -0.81 52.26 Z M -0.81 52.26" />
    <path fill="#becad6" fill-rule="evenodd" d="M -7.37 48.8 L -1.52 52.26 L -3.94 53.69 L -7.66 55.88 L -11.29 53.73 C -11.92 53.36 -13.18 52.61 -13.18 52.61 L -13.51 52.41 L -7.37 48.8 L -7.37 48.8 Z M -7.37 48.8" />
    <path fill="url(#gradient-42)" fill-rule="evenodd" d="M -13.72 60.02 L -13.74 52.83 L -7.89 56.3 L -7.87 63.49 L -13.72 60.02 L -13.72 60.02 Z M -13.72 60.02" />
    <path fill="#ced7df" fill-rule="evenodd" d="M -7.4 63.49 L -7.42 56.3 L -1.28 52.68 L -1.26 59.88 L -7.4 63.49 L -7.4 63.49 Z M -7.4 63.49" />
    <path fill="url(#gradient-43)" fill-rule="evenodd" d="M 152.28 0.2 L 152.36 114.89 L 78.99 88.01 L 152.28 0.2 L 152.28 0.2 L 152.28 0.2 Z M 152.28 0.2" />
    <path fill="url(#gradient-44)" fill-rule="evenodd" d="M 152.75 114.89 L 226.11 88 L 152.83 0.19 L 152.75 114.89 Z M 152.75 114.89" />
    <path fill="url(#gradient-45)" fill-rule="evenodd" d="M 268.83 20.52 C 268.82 20.4 268.76 20.29 268.66 20.23 L 259.87 14.97 C 259.76 14.91 259.64 14.91 259.54 14.97 L 250.33 20.44 C 250.22 20.53 250.17 20.63 250.17 20.73 C 250.17 20.73 250.2 31.62 250.2 31.62 C 250.2 31.74 250.26 31.85 250.36 31.91 L 259.16 37.17 C 259.21 37.2 259.27 37.22 259.33 37.22 C 259.35 37.22 259.38 37.21 259.41 37.21 C 259.44 37.2 259.47 37.18 259.49 37.17 L 268.69 31.7 C 268.8 31.64 268.86 31.53 268.86 31.41 L 268.83 20.52 L 268.83 20.52 Z M 268.83 20.52" />
    <path fill="#ffe900" fill-rule="evenodd" d="M 259.7 15.65 L 267.85 20.52 L 264.47 22.53 L 259.29 25.6 L 251.61 21.01 L 251.15 20.73 L 259.7 15.65 L 259.7 15.65 Z M 259.7 15.65" />
    <path fill="#eec800" fill-rule="evenodd" d="M 250.85 31.42 L 250.83 21.32 L 258.97 26.19 L 259 36.29 L 250.85 31.42 L 250.85 31.42 Z M 250.85 31.42" />
    <path fill="#ffe900" fill-rule="evenodd" d="M 259.65 36.3 L 259.62 26.19 L 268.17 21.1 L 268.2 31.22 L 259.65 36.3 L 259.65 36.3 Z M 259.65 36.3" />
    <path fill="url(#gradient-46)" fill-rule="evenodd" d="M 275.3 38.68 C 275.3 38.54 275.23 38.41 275.11 38.34 L 264.61 32.25 C 264.49 32.18 264.34 32.18 264.22 32.25 L 253.23 38.58 C 253.09 38.7 253.04 38.8 253.04 38.92 C 253.04 38.92 253.07 51.53 253.07 51.53 C 253.07 51.67 253.15 51.8 253.27 51.86 L 263.77 57.96 C 263.83 57.99 263.9 58.01 263.96 58.01 C 264 58.01 264.03 58.01 264.06 58 C 264.1 57.99 264.13 57.97 264.16 57.96 L 275.15 51.62 C 275.27 51.55 275.34 51.43 275.34 51.29 L 275.3 38.68 L 275.3 38.68 Z M 275.3 38.68" />
    <path fill="#34a240" fill-rule="evenodd" d="M 264.41 33.04 L 274.13 38.68 L 270.11 41 L 263.93 44.56 L 254.76 39.24 L 254.21 38.92 L 264.41 33.04 L 264.41 33.04 Z M 264.41 33.04" />
    <path fill="#2d8034" fill-rule="evenodd" d="M 253.85 51.3 L 253.82 39.6 L 263.54 45.24 L 263.57 56.94 L 253.85 51.3 L 253.85 51.3 Z M 253.85 51.3" />
    <path fill="#34a240" fill-rule="evenodd" d="M 264.35 56.95 L 264.32 45.24 L 274.52 39.36 L 274.56 51.06 L 264.35 56.95 L 264.35 56.95 Z M 264.35 56.95" />
    <path fill="url(#gradient-47)" fill-rule="evenodd" d="M 178.5 51.85 C 178.5 51.76 178.46 51.69 178.39 51.64 L 172.14 47.94 C 172.07 47.9 171.98 47.9 171.91 47.94 L 165.38 51.79 C 165.29 51.86 165.26 51.92 165.26 52 C 165.26 52 165.28 59.66 165.28 59.66 C 165.28 59.74 165.33 59.82 165.4 59.86 L 171.64 63.57 C 171.68 63.59 171.72 63.6 171.76 63.6 C 171.78 63.6 171.8 63.6 171.82 63.59 C 171.84 63.58 171.86 63.58 171.88 63.57 L 178.41 59.72 C 178.48 59.67 178.53 59.6 178.53 59.51 L 178.5 51.85 L 178.5 51.85 Z M 178.5 51.85" />
    <path fill="#f6bc80" fill-rule="evenodd" d="M 172.03 48.42 L 177.81 51.85 L 175.41 53.26 L 171.74 55.43 L 166.29 52.19 L 165.96 52 L 172.03 48.42 L 172.03 48.42 Z M 172.03 48.42" />
    <path fill="#f58c20" fill-rule="evenodd" d="M 165.75 59.52 L 165.73 52.41 L 171.51 55.84 L 171.53 62.95 L 165.75 59.52 L 165.75 59.52 Z M 165.75 59.52" />
    <path fill="url(#gradient-48)" fill-rule="evenodd" d="M 171.99 62.95 L 171.97 55.84 L 178.04 52.26 L 178.06 59.38 L 171.99 62.95 L 171.99 62.95 Z M 171.99 62.95" />
    <path fill="url(#gradient-49)" fill-rule="evenodd" d="M 231.85 54.82 C 231.85 54.72 231.79 54.62 231.71 54.57 L 224.05 50 C 223.96 49.95 223.85 49.95 223.76 50 L 215.74 54.75 C 215.64 54.84 215.6 54.92 215.6 55 C 215.6 55.01 215.63 64.46 215.63 64.46 C 215.63 64.56 215.68 64.66 215.77 64.71 L 223.43 69.28 C 223.48 69.31 223.53 69.32 223.57 69.32 C 223.6 69.32 223.62 69.32 223.65 69.31 C 223.68 69.3 223.7 69.3 223.72 69.28 L 231.73 64.53 C 231.82 64.48 231.88 64.38 231.88 64.28 L 231.85 54.82 L 231.85 54.82 Z M 231.85 54.82" />
    <path fill="#943799" fill-rule="evenodd" d="M 223.9 50.59 L 231 54.82 L 228.06 56.57 L 223.55 59.24 L 216.86 55.25 L 216.45 55.01 L 223.9 50.59 L 223.9 50.59 Z M 223.9 50.59" />
    <path fill="#7f027f" fill-rule="evenodd" d="M 216.19 64.29 L 216.17 55.51 L 223.26 59.75 L 223.29 68.52 L 216.19 64.29 L 216.19 64.29 Z M 216.19 64.29" />
    <path fill="#943799" fill-rule="evenodd" d="M 223.86 68.53 L 223.83 59.75 L 231.28 55.33 L 231.3 64.11 L 223.86 68.53 L 223.86 68.53 Z M 223.86 68.53" />
    <path fill="url(#gradient-50)" fill-rule="evenodd" d="M 295.67 23.3 C 295.67 23.18 295.6 23.07 295.5 23 L 286.13 17.6 C 286.02 17.54 285.89 17.54 285.78 17.6 L 275.98 23.22 C 275.86 23.32 275.81 23.41 275.81 23.52 C 275.81 23.52 275.84 34.69 275.84 34.69 C 275.84 34.82 275.91 34.93 276.01 34.99 L 285.38 40.39 C 285.44 40.42 285.49 40.44 285.56 40.44 C 285.59 40.44 285.62 40.44 285.65 40.43 C 285.68 40.42 285.71 40.41 285.73 40.39 L 295.53 34.78 C 295.64 34.72 295.7 34.6 295.7 34.48 L 295.67 23.3 L 295.67 23.3 Z M 295.67 23.3" />
    <path fill="#943799" fill-rule="evenodd" d="M 285.95 18.3 L 294.63 23.3 L 291.04 25.36 L 285.52 28.52 L 277.34 23.8 L 276.85 23.52 L 285.95 18.3 L 285.95 18.3 Z M 285.95 18.3" />
    <path fill="#7f027f" fill-rule="evenodd" d="M 276.53 34.49 L 276.51 24.12 L 285.18 29.12 L 285.2 39.49 L 276.53 34.49 L 276.53 34.49 Z M 276.53 34.49" />
    <path fill="#943799" fill-rule="evenodd" d="M 285.9 39.5 L 285.87 29.12 L 294.97 23.9 L 295 34.28 L 285.9 39.5 L 285.9 39.5 Z M 285.9 39.5" />
    <path fill="url(#gradient-51)" fill-rule="evenodd" d="M 246.15 29.61 C 246.15 29.49 246.09 29.38 245.99 29.33 L 237.19 24.28 C 237.09 24.23 236.97 24.23 236.86 24.28 L 227.66 29.52 C 227.54 29.62 227.5 29.71 227.5 29.8 C 227.5 29.81 227.53 40.23 227.53 40.23 C 227.53 40.35 227.59 40.46 227.69 40.51 L 236.49 45.56 C 236.54 45.58 236.6 45.6 236.65 45.6 C 236.68 45.6 236.71 45.6 236.74 45.59 C 236.77 45.58 236.79 45.57 236.82 45.56 L 246.02 40.31 C 246.12 40.26 246.18 40.15 246.18 40.03 L 246.15 29.61 L 246.15 29.61 Z M 246.15 29.61" />
    <path fill="#ff5a72" fill-rule="evenodd" d="M 237.03 24.94 L 245.17 29.6 L 241.8 31.53 L 236.62 34.47 L 228.94 30.07 L 228.48 29.81 L 237.03 24.94 L 237.03 24.94 Z M 237.03 24.94" />
    <path fill="#d4465b" fill-rule="evenodd" d="M 228.18 40.05 L 228.15 30.37 L 236.3 35.03 L 236.32 44.71 L 228.18 40.05 L 228.18 40.05 Z M 228.18 40.05" />
    <path fill="#eb4a62" fill-rule="evenodd" d="M 236.98 44.72 L 236.95 35.03 L 245.5 30.16 L 245.53 39.85 L 236.98 44.72 L 236.98 44.72 Z M 236.98 44.72" />
    <path fill="url(#gradient-52)" fill-rule="evenodd" d="M 215.55 39.32 C 215.55 39.21 215.5 39.12 215.41 39.06 L 207.75 34.49 C 207.66 34.44 207.55 34.44 207.46 34.49 L 199.45 39.24 C 199.34 39.33 199.3 39.41 199.3 39.5 C 199.3 39.5 199.33 48.95 199.33 48.95 C 199.33 49.06 199.38 49.15 199.47 49.21 L 207.14 53.78 C 207.18 53.8 207.23 53.82 207.28 53.82 C 207.3 53.82 207.33 53.81 207.35 53.81 C 207.38 53.8 207.4 53.79 207.42 53.78 L 215.44 49.03 C 215.53 48.97 215.58 48.88 215.58 48.77 L 215.55 39.32 L 215.55 39.32 Z M 215.55 39.32" />
    <path fill="#ffe900" fill-rule="evenodd" d="M 207.6 35.08 L 214.7 39.32 L 211.76 41.06 L 207.25 43.73 L 200.56 39.74 L 200.16 39.5 L 207.6 35.08 L 207.6 35.08 Z M 207.6 35.08" />
    <path fill="#eec800" fill-rule="evenodd" d="M 199.9 48.78 L 199.88 40.01 L 206.97 44.24 L 206.99 53.01 L 199.9 48.78 L 199.9 48.78 Z M 199.9 48.78" />
    <path fill="#ffe900" fill-rule="evenodd" d="M 207.56 53.02 L 207.54 44.24 L 214.98 39.82 L 215.01 48.61 L 207.56 53.02 L 207.56 53.02 Z M 207.56 53.02" />
    <path fill="url(#gradient-53)" fill-rule="evenodd" d="M 252.48 49.99 C 252.47 49.89 252.42 49.79 252.33 49.74 L 244.67 45.17 C 244.58 45.12 244.47 45.12 244.39 45.17 L 236.37 49.92 C 236.27 50 236.23 50.08 236.23 50.17 C 236.23 50.17 236.25 59.63 236.25 59.63 C 236.25 59.73 236.31 59.83 236.39 59.88 L 244.06 64.45 C 244.1 64.48 244.15 64.49 244.2 64.49 C 244.23 64.49 244.25 64.49 244.28 64.48 C 244.3 64.47 244.32 64.46 244.34 64.45 L 252.36 59.7 C 252.45 59.65 252.5 59.55 252.5 59.45 L 252.48 49.99 L 252.48 49.99 Z M 252.48 49.99" />
    <path fill="#f6bc80" fill-rule="evenodd" d="M 244.53 45.76 L 251.62 49.99 L 248.69 51.73 L 244.17 54.41 L 237.48 50.41 L 237.08 50.17 L 244.53 45.76 L 244.53 45.76 Z M 244.53 45.76" />
    <path fill="#f58c20" fill-rule="evenodd" d="M 236.82 59.46 L 236.8 50.68 L 243.89 54.91 L 243.91 63.69 L 236.82 59.46 L 236.82 59.46 Z M 236.82 59.46" />
    <path fill="#f6bc80" fill-rule="evenodd" d="M 244.48 63.69 L 244.46 54.91 L 251.91 50.5 L 251.93 59.28 L 244.48 63.69 L 244.48 63.69 Z M 244.48 63.69" />
    <path fill="url(#gradient-54)" fill-rule="evenodd" d="M 198.34 55.84 C 198.34 55.75 198.29 55.67 198.22 55.63 L 191.41 51.74 C 191.33 51.69 191.23 51.69 191.15 51.74 L 184.03 55.78 C 183.93 55.85 183.9 55.92 183.9 55.99 C 183.9 56 183.92 64.04 183.92 64.04 C 183.92 64.13 183.97 64.21 184.05 64.26 L 190.86 68.15 C 190.9 68.17 190.94 68.18 190.99 68.18 C 191.01 68.18 191.03 68.18 191.05 68.17 C 191.08 68.16 191.1 68.15 191.12 68.15 L 198.24 64.1 C 198.32 64.06 198.37 63.98 198.37 63.89 L 198.34 55.84 L 198.34 55.84 Z M 198.34 55.84" />
    <path fill="#34a240" fill-rule="evenodd" d="M 191.28 52.24 L 197.58 55.84 L 194.97 57.32 L 190.96 59.6 L 185.02 56.2 L 184.66 56 L 191.28 52.24 L 191.28 52.24 Z M 191.28 52.24" />
    <path fill="#2d8034" fill-rule="evenodd" d="M 184.43 63.9 L 184.41 56.43 L 190.71 60.03 L 190.73 67.5 L 184.43 63.9 L 184.43 63.9 Z M 184.43 63.9" />
    <path fill="#34a240" fill-rule="evenodd" d="M 191.24 67.5 L 191.22 60.03 L 197.84 56.27 L 197.86 63.74 L 191.24 67.5 L 191.24 67.5 Z M 191.24 67.5" />
    <path fill="url(#gradient-55)" fill-rule="evenodd" d="M 225.19 28.58 C 225.19 28.48 225.13 28.38 225.05 28.33 L 217.38 23.76 C 217.3 23.71 217.19 23.71 217.1 23.76 L 209.08 28.51 C 208.98 28.6 208.94 28.68 208.94 28.76 C 208.94 28.76 208.97 38.22 208.97 38.22 C 208.97 38.32 209.02 38.42 209.11 38.47 L 216.77 43.04 C 216.82 43.07 216.86 43.08 216.91 43.08 C 216.94 43.08 216.96 43.08 216.99 43.07 C 217.02 43.06 217.04 43.05 217.06 43.04 L 225.07 38.29 C 225.16 38.24 225.22 38.14 225.22 38.04 L 225.19 28.58 L 225.19 28.58 Z M 225.19 28.58" />
    <path fill="#4c64ff" fill-rule="evenodd" d="M 217.24 24.35 L 224.34 28.58 L 221.4 30.32 L 216.89 33 L 210.2 29.01 L 209.79 28.76 L 217.24 24.35 L 217.24 24.35 Z M 217.24 24.35" />
    <path fill="#0000fd" fill-rule="evenodd" d="M 209.53 38.05 L 209.51 29.27 L 216.6 33.5 L 216.63 42.28 L 209.53 38.05 L 209.53 38.05 Z M 209.53 38.05" />
    <path fill="#4c63ff" fill-rule="evenodd" d="M 217.2 42.29 L 217.17 33.5 L 224.62 29.09 L 224.64 37.87 L 217.2 42.29 L 217.2 42.29 Z M 217.2 42.29" />
    <path fill="url(#gradient-56)" fill-rule="evenodd" d="M 269.83 59.92 C 269.83 59.8 269.77 59.7 269.68 59.65 L 261.45 54.8 C 261.36 54.75 261.24 54.75 261.14 54.8 L 252.53 59.84 C 252.42 59.93 252.38 60.01 252.38 60.11 C 252.38 60.11 252.41 70.14 252.41 70.14 C 252.41 70.25 252.47 70.35 252.56 70.41 L 260.79 75.25 C 260.84 75.28 260.89 75.3 260.94 75.3 C 260.97 75.3 261 75.29 261.02 75.29 C 261.05 75.28 261.08 75.27 261.1 75.25 L 269.71 70.21 C 269.8 70.16 269.86 70.06 269.86 69.95 L 269.83 59.92 L 269.83 59.92 Z M 269.83 59.92" />
    <path fill="#4c64ff" fill-rule="evenodd" d="M 261.29 55.43 L 268.92 59.92 L 265.76 61.76 L 260.92 64.6 L 253.73 60.36 L 253.3 60.11 L 261.29 55.43 L 261.29 55.43 Z M 261.29 55.43" />
    <path fill="#0000fd" fill-rule="evenodd" d="M 253.02 69.96 L 252.99 60.65 L 260.61 65.14 L 260.64 74.45 L 253.02 69.96 L 253.02 69.96 Z M 253.02 69.96" />
    <path fill="#4c63ff" fill-rule="evenodd" d="M 261.25 74.45 L 261.22 65.14 L 269.22 60.46 L 269.25 69.77 L 261.25 74.45 L 261.25 74.45 Z M 261.25 74.45" />
    <path fill="url(#gradient-57)" fill-rule="evenodd" d="M 292.79 47.62 C 292.79 47.51 292.74 47.41 292.65 47.36 L 284.99 42.75 C 284.9 42.7 284.79 42.7 284.7 42.75 L 276.69 47.54 C 276.58 47.63 276.54 47.71 276.54 47.8 C 276.54 47.8 276.57 57.33 276.57 57.33 C 276.57 57.44 276.62 57.54 276.71 57.59 L 284.37 62.2 C 284.42 62.23 284.47 62.24 284.52 62.24 C 284.54 62.24 284.57 62.24 284.59 62.23 C 284.62 62.22 284.64 62.21 284.66 62.2 L 292.68 57.41 C 292.77 57.36 292.82 57.26 292.82 57.15 L 292.79 47.62 L 292.79 47.62 Z M 292.79 47.62" />
    <path fill="#ff5a72" fill-rule="evenodd" d="M 284.84 43.35 L 291.94 47.62 L 289 49.37 L 284.49 52.07 L 277.8 48.04 L 277.4 47.8 L 284.84 43.35 L 284.84 43.35 Z M 284.84 43.35" />
    <path fill="#d4465b" fill-rule="evenodd" d="M 277.14 57.16 L 277.11 48.31 L 284.21 52.58 L 284.23 61.43 L 277.14 57.16 L 277.14 57.16 Z M 277.14 57.16" />
    <path fill="#eb4a62" fill-rule="evenodd" d="M 284.8 61.43 L 284.77 52.58 L 292.22 48.13 L 292.25 56.98 L 284.8 61.43 L 284.8 61.43 Z M 284.8 61.43" />
    <path fill="url(#gradient-58)" fill-rule="evenodd" d="M 193.5 38.14 C 193.5 38.05 193.45 37.97 193.37 37.93 L 186.56 34.04 C 186.48 33.99 186.39 33.99 186.31 34.04 L 179.18 38.08 C 179.09 38.15 179.06 38.22 179.06 38.3 C 179.06 38.3 179.08 46.34 179.08 46.34 C 179.08 46.43 179.13 46.51 179.2 46.56 L 186.02 50.45 C 186.06 50.47 186.1 50.48 186.14 50.48 C 186.17 50.48 186.19 50.48 186.21 50.47 C 186.23 50.46 186.25 50.46 186.27 50.45 L 193.4 46.4 C 193.48 46.36 193.52 46.28 193.52 46.19 L 193.5 38.14 L 193.5 38.14 Z M 193.5 38.14" />
    <path fill="#ff5a72" fill-rule="evenodd" d="M 186.43 34.54 L 192.74 38.14 L 190.13 39.62 L 186.12 41.9 L 180.17 38.5 L 179.81 38.3 L 186.43 34.54 L 186.43 34.54 Z M 186.43 34.54" />
    <path fill="#d4465b" fill-rule="evenodd" d="M 179.58 46.2 L 179.56 38.73 L 185.87 42.33 L 185.89 49.8 L 179.58 46.2 L 179.58 46.2 Z M 179.58 46.2" />
    <path fill="#eb4a62" fill-rule="evenodd" d="M 186.4 49.8 L 186.37 42.33 L 192.99 38.58 L 193.02 46.05 L 186.4 49.8 L 186.4 49.8 Z M 186.4 49.8" />
    <path fill="url(#gradient-59)" fill-rule="evenodd" d="M 414.53 22.51 C 414.53 22.37 414.46 22.25 414.35 22.18 L 404.43 16.25 C 404.32 16.18 404.17 16.18 404.06 16.25 L 393.69 22.42 C 393.55 22.53 393.5 22.63 393.5 22.75 C 393.5 22.75 393.54 35.02 393.54 35.02 C 393.54 35.16 393.61 35.28 393.72 35.35 L 403.64 41.28 C 403.7 41.32 403.76 41.33 403.82 41.33 C 403.85 41.33 403.88 41.33 403.92 41.32 C 403.95 41.31 403.98 41.3 404.01 41.28 L 414.38 35.11 C 414.5 35.05 414.57 34.92 414.57 34.78 L 414.53 22.51 L 414.53 22.51 Z M 414.53 22.51" />
    <path fill="#ffe900" fill-rule="evenodd" d="M 404.24 17.02 L 413.43 22.51 L 409.62 24.77 L 403.79 28.24 L 395.13 23.06 L 394.61 22.75 L 404.24 17.02 L 404.24 17.02 Z M 404.24 17.02" />
    <path fill="#eec800" fill-rule="evenodd" d="M 394.27 34.8 L 394.24 23.41 L 403.42 28.9 L 403.45 40.29 L 394.27 34.8 L 394.27 34.8 Z M 394.27 34.8" />
    <path fill="#ffe900" fill-rule="evenodd" d="M 404.19 40.3 L 404.16 28.9 L 413.79 23.17 L 413.83 34.57 L 404.19 40.3 L 404.19 40.3 Z M 404.19 40.3" />
    <path fill="url(#gradient-60)" fill-rule="evenodd" d="M 372.85 61.18 C 372.85 61.06 372.79 60.95 372.69 60.89 L 364.06 55.74 C 363.96 55.68 363.83 55.68 363.73 55.74 L 354.7 61.09 C 354.58 61.19 354.54 61.28 354.54 61.38 C 354.54 61.38 354.57 72.04 354.57 72.04 C 354.57 72.16 354.63 72.27 354.73 72.32 L 363.36 77.48 C 363.42 77.51 363.47 77.52 363.53 77.52 C 363.55 77.52 363.58 77.52 363.61 77.51 C 363.64 77.5 363.66 77.49 363.69 77.48 L 372.72 72.12 C 372.82 72.06 372.88 71.95 372.88 71.83 L 372.85 61.18 L 372.85 61.18 Z M 372.85 61.18" />
    <path fill="#943799" fill-rule="evenodd" d="M 363.89 56.41 L 371.89 61.18 L 368.58 63.14 L 363.5 66.15 L 355.95 61.65 L 355.5 61.38 L 363.89 56.41 L 363.89 56.41 Z M 363.89 56.41" />
    <path fill="#7f027f" fill-rule="evenodd" d="M 355.21 71.85 L 355.18 61.96 L 363.18 66.72 L 363.2 76.62 L 355.21 71.85 L 355.21 71.85 Z M 355.21 71.85" />
    <path fill="#943799" fill-rule="evenodd" d="M 363.84 76.62 L 363.82 66.72 L 372.21 61.75 L 372.24 71.65 L 363.84 76.62 L 363.84 76.62 Z M 363.84 76.62" />
    <path fill="url(#gradient-61)" fill-rule="evenodd" d="M 388.97 32.75 C 388.97 32.62 388.9 32.5 388.79 32.44 L 378.87 26.76 C 378.76 26.69 378.62 26.69 378.5 26.76 L 368.13 32.66 C 368 32.77 367.95 32.87 367.95 32.98 C 367.95 32.98 367.98 44.73 367.98 44.73 C 367.98 44.86 368.05 44.98 368.16 45.05 L 378.08 50.73 C 378.14 50.76 378.2 50.78 378.27 50.78 C 378.3 50.78 378.33 50.78 378.36 50.77 C 378.4 50.76 378.42 50.74 378.45 50.73 L 388.83 44.82 C 388.94 44.76 389.01 44.64 389.01 44.51 L 388.97 32.75 L 388.97 32.75 Z M 388.97 32.75" />
    <path fill="#ff5a72" fill-rule="evenodd" d="M 378.69 27.49 L 387.87 32.75 L 384.07 34.92 L 378.23 38.24 L 369.57 33.28 L 369.05 32.98 L 378.69 27.49 L 378.69 27.49 Z M 378.69 27.49" />
    <path fill="#d4465b" fill-rule="evenodd" d="M 368.71 44.52 L 368.69 33.61 L 377.86 38.87 L 377.89 49.78 L 368.71 44.52 L 368.71 44.52 Z M 368.71 44.52" />
    <path fill="#eb4a62" fill-rule="evenodd" d="M 378.63 49.79 L 378.6 38.87 L 388.24 33.38 L 388.27 44.3 L 378.63 49.79 L 378.63 49.79 Z M 378.63 49.79" />
    <path fill="url(#gradient-62)" fill-rule="evenodd" d="M 354.49 43.7 C 354.48 43.58 354.42 43.47 354.33 43.41 L 345.69 38.26 C 345.59 38.2 345.47 38.2 345.37 38.26 L 336.33 43.62 C 336.22 43.71 336.17 43.8 336.17 43.9 C 336.17 43.9 336.2 54.56 336.2 54.56 C 336.2 54.68 336.26 54.79 336.36 54.84 L 345 60 C 345.05 60.03 345.1 60.04 345.16 60.04 C 345.19 60.04 345.21 60.04 345.24 60.03 C 345.27 60.02 345.3 60.01 345.32 60 L 354.36 54.64 C 354.46 54.58 354.52 54.47 354.52 54.36 L 354.49 43.7 L 354.49 43.7 Z M 354.49 43.7" />
    <path fill="#ffe900" fill-rule="evenodd" d="M 345.53 38.93 L 353.52 43.7 L 350.21 45.66 L 345.13 48.67 L 337.59 44.17 L 337.13 43.9 L 345.53 38.93 L 345.53 38.93 Z M 345.53 38.93" />
    <path fill="#eec800" fill-rule="evenodd" d="M 336.84 54.37 L 336.81 44.48 L 344.81 49.24 L 344.84 59.14 L 336.84 54.37 L 336.84 54.37 Z M 336.84 54.37" />
    <path fill="#ffe900" fill-rule="evenodd" d="M 345.48 59.14 L 345.45 49.24 L 353.84 44.27 L 353.87 54.17 L 345.48 59.14 L 345.48 59.14 Z M 345.48 59.14" />
    <path fill="url(#gradient-63)" fill-rule="evenodd" d="M 396.1 55.73 C 396.1 55.61 396.04 55.5 395.94 55.45 L 387.31 50.29 C 387.21 50.23 387.08 50.23 386.98 50.29 L 377.95 55.65 C 377.83 55.74 377.79 55.83 377.79 55.93 C 377.79 55.94 377.82 66.59 377.82 66.59 C 377.82 66.71 377.88 66.82 377.98 66.88 L 386.61 72.03 C 386.67 72.06 386.72 72.07 386.77 72.07 C 386.8 72.07 386.83 72.07 386.86 72.06 C 386.89 72.05 386.91 72.04 386.94 72.03 L 395.97 66.67 C 396.07 66.62 396.13 66.51 396.13 66.39 L 396.1 55.73 L 396.1 55.73 Z M 396.1 55.73" />
    <path fill="#f6bc80" fill-rule="evenodd" d="M 387.14 50.96 L 395.14 55.73 L 391.83 57.69 L 386.74 60.71 L 379.2 56.21 L 378.75 55.94 L 387.14 50.96 L 387.14 50.96 Z M 387.14 50.96" />
    <path fill="#f58c20" fill-rule="evenodd" d="M 378.46 66.4 L 378.43 56.51 L 386.42 61.28 L 386.45 71.17 L 378.46 66.4 L 378.46 66.4 Z M 378.46 66.4" />
    <path fill="#f6bc80" fill-rule="evenodd" d="M 387.09 71.17 L 387.07 61.28 L 395.46 56.3 L 395.49 66.2 L 387.09 71.17 L 387.09 71.17 Z M 387.09 71.17" />
    <path fill="url(#gradient-64)" fill-rule="evenodd" d="M 416.13 44.27 C 416.13 44.17 416.08 44.08 415.99 44.03 L 408.31 39.64 C 408.22 39.59 408.11 39.59 408.03 39.64 L 400 44.2 C 399.89 44.28 399.85 44.36 399.85 44.44 C 399.85 44.44 399.88 53.51 399.88 53.51 C 399.88 53.61 399.93 53.7 400.02 53.75 L 407.7 58.14 C 407.74 58.16 407.79 58.18 407.84 58.18 C 407.86 58.18 407.89 58.17 407.91 58.17 C 407.94 58.16 407.96 58.15 407.98 58.14 L 416.02 53.58 C 416.1 53.53 416.16 53.44 416.16 53.34 L 416.13 44.27 L 416.13 44.27 Z M 416.13 44.27" />
    <path fill="#34a240" fill-rule="evenodd" d="M 408.17 40.21 L 415.28 44.27 L 412.33 45.94 L 407.81 48.5 L 401.11 44.67 L 400.71 44.44 L 408.17 40.21 L 408.17 40.21 Z M 408.17 40.21" />
    <path fill="#2d8034" fill-rule="evenodd" d="M 400.45 53.35 L 400.42 44.93 L 407.53 48.99 L 407.55 57.41 L 400.45 53.35 L 400.45 53.35 Z M 400.45 53.35" />
    <path fill="#34a240" fill-rule="evenodd" d="M 408.12 57.41 L 408.1 48.99 L 415.56 44.76 L 415.59 53.18 L 408.12 57.41 L 408.12 57.41 Z M 408.12 57.41" />
    <path fill="url(#gradient-65)" fill-rule="evenodd" d="M 365.34 31.6 C 365.34 31.48 365.28 31.37 365.19 31.32 L 356.55 26.16 C 356.45 26.1 356.33 26.1 356.23 26.16 L 347.19 31.52 C 347.08 31.61 347.03 31.7 347.03 31.8 C 347.03 31.81 347.06 42.46 347.06 42.46 C 347.06 42.58 347.12 42.69 347.22 42.75 L 355.86 47.9 C 355.91 47.93 355.96 47.94 356.02 47.94 C 356.05 47.94 356.07 47.94 356.1 47.93 C 356.13 47.92 356.16 47.91 356.18 47.9 L 365.22 42.54 C 365.32 42.49 365.38 42.38 365.38 42.26 L 365.34 31.6 L 365.34 31.6 Z M 365.34 31.6" />
    <path fill="#4c64ff" fill-rule="evenodd" d="M 356.39 26.83 L 364.38 31.6 L 361.07 33.56 L 355.99 36.58 L 348.45 32.08 L 347.99 31.81 L 356.39 26.83 L 356.39 26.83 Z M 356.39 26.83" />
    <path fill="#0000fd" fill-rule="evenodd" d="M 347.7 42.27 L 347.67 32.38 L 355.67 37.15 L 355.7 47.04 L 347.7 42.27 L 347.7 42.27 Z M 347.7 42.27" />
    <path fill="#4c63ff" fill-rule="evenodd" d="M 356.34 47.04 L 356.31 37.15 L 364.7 32.17 L 364.73 42.07 L 356.34 47.04 L 356.34 47.04 Z M 356.34 47.04" />
    <path fill="url(#gradient-66)" fill-rule="evenodd" d="M 415.66 66.92 C 415.66 66.79 415.6 66.68 415.49 66.62 L 406.22 61.15 C 406.11 61.09 405.98 61.09 405.87 61.15 L 396.17 66.83 C 396.04 66.93 395.99 67.03 395.99 67.13 C 395.99 67.14 396.02 78.44 396.02 78.44 C 396.02 78.56 396.09 78.68 396.2 78.74 L 405.47 84.2 C 405.53 84.24 405.59 84.25 405.65 84.25 C 405.68 84.25 405.71 84.25 405.74 84.24 C 405.77 84.23 405.8 84.22 405.82 84.2 L 415.53 78.52 C 415.63 78.46 415.7 78.35 415.7 78.22 L 415.66 66.92 L 415.66 66.92 Z M 415.66 66.92" />
    <path fill="#4c64ff" fill-rule="evenodd" d="M 406.04 61.86 L 414.63 66.92 L 411.08 69 L 405.61 72.2 L 397.51 67.42 L 397.03 67.14 L 406.04 61.86 L 406.04 61.86 Z M 406.04 61.86" />
    <path fill="#0000fd" fill-rule="evenodd" d="M 396.71 78.24 L 396.68 67.74 L 405.27 72.8 L 405.3 83.29 L 396.71 78.24 L 396.71 78.24 Z M 396.71 78.24" />
    <path fill="#4c63ff" fill-rule="evenodd" d="M 405.99 83.3 L 405.96 72.8 L 414.97 67.52 L 415 78.02 L 405.99 83.3 L 405.99 83.3 Z M 405.99 83.3" />
</svg>