<?xml version="1.0" encoding="utf-8"?>
<!-- Generator: Avocode 2.5.3 - http://avocode.com -->
<svg height="148" width="146" xmlns:xlink="http://www.w3.org/1999/xlink" xmlns="http://www.w3.org/2000/svg" viewBox="0 0 146 148">
    <path fill="#6db8de" fill-rule="evenodd" d="M 69.5 148 C 107.88 148 139 116.88 139 78.5 C 139 40.12 107.88 9 69.5 9 C 31.12 9 0 40.12 0 78.5 C 0 116.88 31.12 148 69.5 148 Z M 69.5 148" />
    <path fill="#cea73b" fill-rule="evenodd" d="M 34.36 142 L 36.8 137.2 L 40.6 129.78 L 27.28 122.98 L 21.11 135.13 L 27.19 138.22 L 34.36 142 Z M 34.36 142" />
    <path fill="#e37d39" fill-rule="evenodd" d="M -0.71 62.82 L 45.73 86.51 L 39.57 98.64 L -6.87 74.95 L -0.71 62.82 L -0.71 62.82 Z M -0.71 62.82" />
    <path fill="#39b39b" fill-rule="evenodd" d="M 5.46 50.67 L 51.91 74.37 L 45.75 86.49 L -0.7 62.8 L 5.46 50.67 L 5.46 50.67 Z M 5.46 50.67" />
    <path fill="#e65336" fill-rule="evenodd" d="M -6.89 74.97 L 39.56 98.66 L 33.4 110.79 L -13.05 87.1 L -6.89 74.97 L -6.89 74.97 Z M -6.89 74.97" />
    <path fill="#138d6e" fill-rule="evenodd" d="M 59.07 93.32 L 45.75 86.52 L 51.91 74.4 L 65.23 81.19 L 59.07 93.32 L 59.07 93.32 Z M 59.07 93.32" />
    <path fill="#6db8e0" fill-rule="evenodd" d="M -13.04 87.08 L 33.4 110.77 L 27.24 122.9 L -19.2 99.2 L -13.04 87.08 L -13.04 87.08 Z M -13.04 87.08" />
    <path fill="#c76128" fill-rule="evenodd" d="M 39.6 98.67 L 45.76 86.55 L 59.08 93.34 L 52.92 105.47 L 39.6 98.67 L 39.6 98.67 Z M 39.6 98.67" />
    <path fill="#39b39b" fill-rule="evenodd" d="M 65.24 81.18 L 70.18 71.46 C 71.42 68.99 70.45 65.98 68.02 64.75 L 59.11 60.2 L 51.93 74.38 L 65.24 81.18 L 65.24 81.18 Z M 65.24 81.18" />
    <path fill="#6dc7b7" fill-rule="evenodd" d="M 59.11 60.2 L 17.09 38.77 C 14.62 37.53 11.63 38.5 10.39 40.93 L 5.45 50.65 L 51.93 74.33 L 59.11 60.2 L 59.11 60.2 Z M 59.11 60.2" />
    <path fill="#27a4d5" fill-rule="evenodd" d="M 40.57 129.74 L 27.25 122.94 L 33.41 110.82 L 46.73 117.61 L 40.57 129.74 L 40.57 129.74 Z M 40.57 129.74" />
    <path fill="#bf4028" fill-rule="evenodd" d="M 46.74 117.6 L 33.42 110.8 L 39.58 98.68 L 52.9 105.47 L 46.74 117.6 L 46.74 117.6 Z M 46.74 117.6" />
    <path fill="#ffffff" fill-rule="evenodd" d="M 61.76 68.03 L 65.26 69.82 L 63.48 73.32 L 59.98 71.54 L 61.76 68.03 L 61.76 68.03 Z M 61.76 68.03" />
    <path fill="#ffffff" fill-rule="evenodd" d="M 48.8 93.63 L 52.29 95.41 L 50.51 98.92 L 47.02 97.13 L 48.8 93.63 L 48.8 93.63 Z M 48.8 93.63" />
    <path fill="#ffffff" fill-rule="evenodd" d="M 36.36 118.1 L 39.86 119.89 L 38.08 123.39 L 34.58 121.61 L 36.36 118.1 L 36.36 118.1 Z M 36.36 118.1" />
    <path fill="#ffffff" fill-rule="evenodd" d="M 42.89 105.24 L 46.38 107.03 L 44.6 110.53 L 41.1 108.75 L 42.89 105.24 L 42.89 105.24 Z M 42.89 105.24" />
    <path fill="#ffffff" fill-rule="evenodd" d="M 30.55 129.5 L 34.05 131.28 L 32.27 134.79 L 28.77 133 L 30.55 129.5 L 30.55 129.5 Z M 30.55 129.5" />
    <path fill="#ffffff" fill-rule="evenodd" d="M 54.93 81.52 L 58.43 83.3 L 56.65 86.8 L 53.15 85.02 L 54.93 81.52 L 54.93 81.52 Z M 54.93 81.52" />
    <path fill="#f2cd56" fill-rule="evenodd" d="M -19.99 114.14 L 21.06 135.08 L 27.23 122.93 L -19.2 99.25 L -23.65 108.04 C -23.21 108.93 -22.72 109.81 -22.2 110.65 C -21.49 111.84 -20.74 113.04 -19.99 114.14 L -19.99 114.14 Z M -19.99 114.14" />
    <path fill="#edf0f2" fill-rule="evenodd" d="M 61.14 27.3 L 97.74 3.94 L 126.69 50.39 L 90.09 73.76 L 61.14 27.3 L 61.14 27.3 Z M 61.14 27.3" />
    <path fill="#e65336" fill-rule="evenodd" d="M 65.58 28.22 L 96.6 8.42 L 117.25 41.55 L 86.23 61.35 L 65.58 28.22 L 65.58 28.22 Z M 65.58 28.22" />
    <path fill="#edf0f2" fill-rule="evenodd" d="M 90.14 11.47 L 132.04 0.51 L 145.63 53.69 L 103.73 64.65 L 90.14 11.47 L 90.14 11.47 Z M 90.14 11.47" />
    <path fill="#f0c949" fill-rule="evenodd" d="M 94.13 13.69 L 129.64 4.4 L 139.33 42.32 L 103.82 51.61 L 94.13 13.69 L 94.13 13.69 Z M 94.13 13.69" />
    <path fill="#527f99" fill-rule="evenodd" d="M 74.43 82 L 86.64 82 L 86.64 86.47 L 74.43 86.47 L 74.43 82 Z M 74.43 82" />
    <path fill="#2c424f" fill-rule="evenodd" d="M 146 90.49 C 146 88.3 144.26 86.47 142.02 86.47 L 68.98 86.47 C 66.81 86.47 65 88.22 65 90.49 L 65 98.22 L 145.93 98.22 L 145.93 90.49 L 146 90.49 Z M 146 90.49" />
    <path fill="#2c424f" fill-rule="evenodd" d="M 65 139.52 C 65 141.7 66.74 143.52 68.98 143.52 L 142.02 143.52 C 144.19 143.52 146 141.77 146 139.52 L 146 136.25 L 65 136.25 L 65 139.52 L 65 139.52 Z M 65 139.52" />
    <path fill="#bbc2c6" fill-rule="evenodd" d="M 65 98.22 L 146 98.22 L 146 136.25 L 65 136.25 L 65 98.22 Z M 65 98.22" />
    <path fill="#e65336" fill-rule="evenodd" d="M 76.1 92.63 L 81.64 92.63 L 81.64 94.3 L 76.1 94.3 L 76.1 92.63 Z M 76.1 92.63" />
    <path fill="#edf0f2" fill-rule="evenodd" d="M 105.22 139.04 C 117.33 139.04 127.14 129.15 127.14 116.95 C 127.14 104.75 117.33 94.86 105.22 94.86 C 93.12 94.86 83.31 104.75 83.31 116.95 C 83.31 129.15 93.12 139.04 105.22 139.04 Z M 105.22 139.04" />
    <path fill="#2c424f" fill-rule="evenodd" d="M 105.22 137.37 C 116.41 137.37 125.47 128.23 125.47 116.95 C 125.47 105.68 116.41 96.54 105.22 96.54 C 94.04 96.54 84.97 105.68 84.97 116.95 C 84.97 128.23 94.04 137.37 105.22 137.37 Z M 105.22 137.37" />
    <path fill="#527f99" fill-rule="evenodd" d="M 105.22 130.66 C 112.42 130.66 118.26 124.77 118.26 117.51 C 118.26 110.25 112.42 104.37 105.22 104.37 C 98.02 104.37 92.18 110.25 92.18 117.51 C 92.18 124.77 98.02 130.66 105.22 130.66 Z M 105.22 130.66" />
    <path fill="#bbc2c6" fill-rule="evenodd" d="M 105.22 130.66 C 112.42 130.66 118.26 124.77 118.26 117.51 C 118.26 110.25 112.42 104.37 105.22 104.37 C 98.02 104.37 92.18 110.25 92.18 117.51 C 92.18 124.77 98.02 130.66 105.22 130.66 Z M 105.22 130.66" />
</svg>