<?xml version="1.0" encoding="utf-8"?>
<!-- Generator: Avocode 2.5.3 - http://avocode.com -->
<svg height="69" width="93" xmlns:xlink="http://www.w3.org/1999/xlink" xmlns="http://www.w3.org/2000/svg" viewBox="0 0 93 69">
    <path fill="#edf0f2" fill-rule="evenodd" d="M -0.88 23.78 L 31.21 3.39 L 56.6 43.93 L 24.51 64.31 L -0.88 23.78 L -0.88 23.78 Z M -0.88 23.78" />
    <path fill="#e65336" fill-rule="evenodd" d="M 3.02 24.58 L 30.22 7.31 L 48.31 36.21 L 21.12 53.49 L 3.02 24.58 L 3.02 24.58 Z M 3.02 24.58" />
    <path fill="#edf0f2" fill-rule="evenodd" d="M 38 11.57 L 74.6 2 L 86.47 48.41 L 49.87 57.97 L 38 11.57 L 38 11.57 Z M 38 11.57" />
    <path fill="#34c1c6" fill-rule="evenodd" d="M 72.32 6 L 80.87 39.09 L 49.54 47.2 L 41 14.11 L 72.32 6 Z M 72.32 6" />
    <path fill="#edf0f2" fill-rule="evenodd" d="M 22.8 23.34 L 59.4 13.78 L 71.26 60.18 L 34.66 69.75 L 22.8 23.34 L 22.8 23.34 Z M 22.8 23.34" />
    <path fill="#f0c949" fill-rule="evenodd" d="M 25.92 25 L 57.25 16.89 L 65.79 49.98 L 34.47 58.09 L 25.92 25 L 25.92 25 Z M 25.92 25" />
</svg>