<?xml version="1.0" encoding="utf-8"?>
<!-- Generator: Avocode 2.5.3 - http://avocode.com -->
<svg height="115" width="375" xmlns:xlink="http://www.w3.org/1999/xlink" xmlns="http://www.w3.org/2000/svg" viewBox="0 0 375 115">
    <defs>
        <linearGradient y2="85%" y1="0%" x2="0%" x1="53%" id="gradient-1">
            <stop stop-color="#becad6" offset="0%" />
            <stop stop-color="#a7a7a7" offset="24%" />
            <stop stop-color="#becad6" offset="100%" />
        </linearGradient>
        <linearGradient y2="54%" y1="0%" x2="84%" x1="0%" id="gradient-2">
            <stop stop-color="#d3d3d3" offset="0%" />
            <stop stop-color="#9c9c9c" offset="100%" />
        </linearGradient>
        <linearGradient y2="85%" y1="0%" x2="0%" x1="53%" id="gradient-3">
            <stop stop-color="#becad6" offset="0%" />
            <stop stop-color="#a7a7a7" offset="24%" />
            <stop stop-color="#becad6" offset="100%" />
        </linearGradient>
        <linearGradient y2="54%" y1="0%" x2="84%" x1="0%" id="gradient-4">
            <stop stop-color="#d3d3d3" offset="0%" />
            <stop stop-color="#9c9c9c" offset="100%" />
        </linearGradient>
        <linearGradient y2="85%" y1="0%" x2="0%" x1="53%" id="gradient-5">
            <stop stop-color="#becad6" offset="0%" />
            <stop stop-color="#a7a7a7" offset="24%" />
            <stop stop-color="#becad6" offset="100%" />
        </linearGradient>
        <linearGradient y2="54%" y1="0%" x2="84%" x1="0%" id="gradient-6">
            <stop stop-color="#d3d3d3" offset="0%" />
            <stop stop-color="#9c9c9c" offset="100%" />
        </linearGradient>
        <linearGradient y2="85%" y1="0%" x2="0%" x1="53%" id="gradient-7">
            <stop stop-color="#becad6" offset="0%" />
            <stop stop-color="#a7a7a7" offset="24%" />
            <stop stop-color="#becad6" offset="100%" />
        </linearGradient>
        <linearGradient y2="54%" y1="0%" x2="84%" x1="0%" id="gradient-8">
            <stop stop-color="#d3d3d3" offset="0%" />
            <stop stop-color="#9c9c9c" offset="100%" />
        </linearGradient>
        <linearGradient y2="85%" y1="0%" x2="0%" x1="53%" id="gradient-9">
            <stop stop-color="#becad6" offset="0%" />
            <stop stop-color="#a7a7a7" offset="24%" />
            <stop stop-color="#becad6" offset="100%" />
        </linearGradient>
        <linearGradient y2="54%" y1="0%" x2="84%" x1="0%" id="gradient-10">
            <stop stop-color="#d3d3d3" offset="0%" />
            <stop stop-color="#9c9c9c" offset="100%" />
        </linearGradient>
        <linearGradient y2="85%" y1="0%" x2="0%" x1="53%" id="gradient-11">
            <stop stop-color="#becad6" offset="0%" />
            <stop stop-color="#a7a7a7" offset="24%" />
            <stop stop-color="#becad6" offset="100%" />
        </linearGradient>
        <linearGradient y2="54%" y1="0%" x2="84%" x1="0%" id="gradient-12">
            <stop stop-color="#d3d3d3" offset="0%" />
            <stop stop-color="#9c9c9c" offset="100%" />
        </linearGradient>
        <linearGradient y2="85%" y1="0%" x2="0%" x1="53%" id="gradient-13">
            <stop stop-color="#becad6" offset="0%" />
            <stop stop-color="#a7a7a7" offset="24%" />
            <stop stop-color="#becad6" offset="100%" />
        </linearGradient>
        <linearGradient y2="54%" y1="0%" x2="84%" x1="0%" id="gradient-14">
            <stop stop-color="#d3d3d3" offset="0%" />
            <stop stop-color="#9c9c9c" offset="100%" />
        </linearGradient>
        <linearGradient y2="85%" y1="0%" x2="0%" x1="53%" id="gradient-15">
            <stop stop-color="#becad6" offset="0%" />
            <stop stop-color="#a7a7a7" offset="24%" />
            <stop stop-color="#becad6" offset="100%" />
        </linearGradient>
        <linearGradient y2="54%" y1="0%" x2="84%" x1="0%" id="gradient-16">
            <stop stop-color="#d3d3d3" offset="0%" />
            <stop stop-color="#9c9c9c" offset="100%" />
        </linearGradient>
        <linearGradient y2="85%" y1="0%" x2="0%" x1="53%" id="gradient-17">
            <stop stop-color="#becad6" offset="0%" />
            <stop stop-color="#a7a7a7" offset="24%" />
            <stop stop-color="#becad6" offset="100%" />
        </linearGradient>
        <linearGradient y2="54%" y1="0%" x2="84%" x1="0%" id="gradient-18">
            <stop stop-color="#d3d3d3" offset="0%" />
            <stop stop-color="#9c9c9c" offset="100%" />
        </linearGradient>
        <linearGradient y2="85%" y1="0%" x2="0%" x1="53%" id="gradient-19">
            <stop stop-color="#becad6" offset="0%" />
            <stop stop-color="#a7a7a7" offset="24%" />
            <stop stop-color="#becad6" offset="100%" />
        </linearGradient>
        <linearGradient y2="54%" y1="0%" x2="84%" x1="0%" id="gradient-20">
            <stop stop-color="#d3d3d3" offset="0%" />
            <stop stop-color="#9c9c9c" offset="100%" />
        </linearGradient>
        <linearGradient y2="85%" y1="0%" x2="0%" x1="53%" id="gradient-21">
            <stop stop-color="#becad6" offset="0%" />
            <stop stop-color="#a7a7a7" offset="24%" />
            <stop stop-color="#becad6" offset="100%" />
        </linearGradient>
        <linearGradient y2="54%" y1="0%" x2="84%" x1="0%" id="gradient-22">
            <stop stop-color="#d3d3d3" offset="0%" />
            <stop stop-color="#9c9c9c" offset="100%" />
        </linearGradient>
        <linearGradient y2="85%" y1="0%" x2="0%" x1="53%" id="gradient-23">
            <stop stop-color="#becad6" offset="0%" />
            <stop stop-color="#a7a7a7" offset="24%" />
            <stop stop-color="#becad6" offset="100%" />
        </linearGradient>
        <linearGradient y2="54%" y1="0%" x2="84%" x1="0%" id="gradient-24">
            <stop stop-color="#d3d3d3" offset="0%" />
            <stop stop-color="#9c9c9c" offset="100%" />
        </linearGradient>
        <linearGradient y2="85%" y1="0%" x2="0%" x1="53%" id="gradient-25">
            <stop stop-color="#becad6" offset="0%" />
            <stop stop-color="#a7a7a7" offset="24%" />
            <stop stop-color="#becad6" offset="100%" />
        </linearGradient>
        <linearGradient y2="54%" y1="0%" x2="84%" x1="0%" id="gradient-26">
            <stop stop-color="#d3d3d3" offset="0%" />
            <stop stop-color="#9c9c9c" offset="100%" />
        </linearGradient>
        <linearGradient y2="85%" y1="0%" x2="0%" x1="53%" id="gradient-27">
            <stop stop-color="#becad6" offset="0%" />
            <stop stop-color="#a7a7a7" offset="24%" />
            <stop stop-color="#becad6" offset="100%" />
        </linearGradient>
        <linearGradient y2="54%" y1="0%" x2="84%" x1="0%" id="gradient-28">
            <stop stop-color="#d3d3d3" offset="0%" />
            <stop stop-color="#9c9c9c" offset="100%" />
        </linearGradient>
        <linearGradient y2="85%" y1="0%" x2="0%" x1="53%" id="gradient-29">
            <stop stop-color="#becad6" offset="0%" />
            <stop stop-color="#a7a7a7" offset="24%" />
            <stop stop-color="#becad6" offset="100%" />
        </linearGradient>
        <linearGradient y2="54%" y1="0%" x2="84%" x1="0%" id="gradient-30">
            <stop stop-color="#d3d3d3" offset="0%" />
            <stop stop-color="#9c9c9c" offset="100%" />
        </linearGradient>
        <linearGradient y2="85%" y1="0%" x2="0%" x1="53%" id="gradient-31">
            <stop stop-color="#becad6" offset="0%" />
            <stop stop-color="#a7a7a7" offset="24%" />
            <stop stop-color="#becad6" offset="100%" />
        </linearGradient>
        <linearGradient y2="54%" y1="0%" x2="84%" x1="0%" id="gradient-32">
            <stop stop-color="#d3d3d3" offset="0%" />
            <stop stop-color="#9c9c9c" offset="100%" />
        </linearGradient>
        <linearGradient y2="85%" y1="0%" x2="0%" x1="53%" id="gradient-33">
            <stop stop-color="#becad6" offset="0%" />
            <stop stop-color="#a7a7a7" offset="24%" />
            <stop stop-color="#becad6" offset="100%" />
        </linearGradient>
        <linearGradient y2="54%" y1="0%" x2="84%" x1="0%" id="gradient-34">
            <stop stop-color="#d3d3d3" offset="0%" />
            <stop stop-color="#9c9c9c" offset="100%" />
        </linearGradient>
        <linearGradient y2="85%" y1="0%" x2="0%" x1="53%" id="gradient-35">
            <stop stop-color="#becad6" offset="0%" />
            <stop stop-color="#a7a7a7" offset="24%" />
            <stop stop-color="#becad6" offset="100%" />
        </linearGradient>
        <linearGradient y2="54%" y1="0%" x2="84%" x1="0%" id="gradient-36">
            <stop stop-color="#d3d3d3" offset="0%" />
            <stop stop-color="#9c9c9c" offset="100%" />
        </linearGradient>
        <linearGradient y2="85%" y1="0%" x2="0%" x1="53%" id="gradient-37">
            <stop stop-color="#becad6" offset="0%" />
            <stop stop-color="#a7a7a7" offset="24%" />
            <stop stop-color="#becad6" offset="100%" />
        </linearGradient>
        <linearGradient y2="54%" y1="0%" x2="84%" x1="0%" id="gradient-38">
            <stop stop-color="#d3d3d3" offset="0%" />
            <stop stop-color="#9c9c9c" offset="100%" />
        </linearGradient>
        <linearGradient y2="12%" y1="0%" x2="99%" x1="0%" id="gradient-39">
            <stop stop-color="#efefef" offset="0%" />
            <stop stop-color="#efefef" offset="0%" />
            <stop stop-color="#eeeeee" offset="10%" />
            <stop stop-color="#ededed" offset="16%" />
            <stop stop-color="#ececec" offset="44%" />
            <stop stop-color="#d8d8d8" offset="100%" />
        </linearGradient>
        <linearGradient y2="0%" y1="7%" x2="100%" x1="0%" id="gradient-40">
            <stop stop-color="#eeeeee" offset="0%" />
            <stop stop-color="#d8d8d8" offset="100%" />
        </linearGradient>
        <linearGradient y2="0%" y1="34%" x2="94%" x1="0%" id="gradient-41">
            <stop stop-color="#edc700" offset="0%" />
            <stop stop-color="#ffe900" offset="100%" />
        </linearGradient>
        <linearGradient y2="0%" y1="37%" x2="93%" x1="0%" id="gradient-42">
            <stop stop-color="#2d8034" offset="0%" />
            <stop stop-color="#2d8034" offset="0%" />
            <stop stop-color="#34a240" offset="100%" />
        </linearGradient>
        <linearGradient y2="0%" y1="36%" x2="93%" x1="0%" id="gradient-43">
            <stop stop-color="#f58c20" offset="0%" />
            <stop stop-color="#f6bc80" offset="100%" />
        </linearGradient>
        <linearGradient y2="100%" y1="0%" x2="0%" x1="0%" id="gradient-44">
            <stop stop-color="#fce0b7" offset="0%" />
            <stop stop-color="#f6bc80" offset="100%" />
        </linearGradient>
        <linearGradient y2="36%" y1="0%" x2="0%" x1="93%" id="gradient-45">
            <stop stop-color="#7f027f" offset="0%" />
            <stop stop-color="#943799" offset="100%" />
        </linearGradient>
        <linearGradient y2="37%" y1="0%" x2="0%" x1="93%" id="gradient-46">
            <stop stop-color="#7f027f" offset="0%" />
            <stop stop-color="#943799" offset="100%" />
        </linearGradient>
        <linearGradient y2="87%" y1="0%" x2="0%" x1="50%" id="gradient-47">
            <stop stop-color="#ee97a9" offset="0%" />
            <stop stop-color="#ee97a8" offset="0%" />
            <stop stop-color="#d85e6f" offset="100%" />
        </linearGradient>
        <linearGradient y2="0%" y1="34%" x2="94%" x1="0%" id="gradient-48">
            <stop stop-color="#edc700" offset="0%" />
            <stop stop-color="#ffe900" offset="100%" />
        </linearGradient>
        <linearGradient y2="0%" y1="34%" x2="94%" x1="0%" id="gradient-49">
            <stop stop-color="#f58c20" offset="0%" />
            <stop stop-color="#f6bc80" offset="100%" />
        </linearGradient>
        <linearGradient y2="0%" y1="37%" x2="93%" x1="0%" id="gradient-50">
            <stop stop-color="#2d8034" offset="0%" />
            <stop stop-color="#2d8034" offset="0%" />
            <stop stop-color="#34a240" offset="100%" />
        </linearGradient>
        <linearGradient y2="0%" y1="36%" x2="93%" x1="0%" id="gradient-51">
            <stop stop-color="#0000fd" offset="0%" />
            <stop stop-color="#4c64ff" offset="100%" />
        </linearGradient>
        <linearGradient y2="0%" y1="37%" x2="93%" x1="0%" id="gradient-52">
            <stop stop-color="#0000fd" offset="0%" />
            <stop stop-color="#4c64ff" offset="100%" />
        </linearGradient>
        <linearGradient y2="84%" y1="0%" x2="0%" x1="54%" id="gradient-53">
            <stop stop-color="#ee97a9" offset="0%" />
            <stop stop-color="#ee97a8" offset="0%" />
            <stop stop-color="#d85e6f" offset="100%" />
        </linearGradient>
        <linearGradient y2="87%" y1="0%" x2="0%" x1="50%" id="gradient-54">
            <stop stop-color="#ee97a9" offset="0%" />
            <stop stop-color="#ee97a8" offset="0%" />
            <stop stop-color="#d85e6f" offset="100%" />
        </linearGradient>
        <linearGradient y2="0%" y1="34%" x2="94%" x1="0%" id="gradient-55">
            <stop stop-color="#edc700" offset="0%" />
            <stop stop-color="#ffe900" offset="100%" />
        </linearGradient>
        <linearGradient y2="36%" y1="0%" x2="0%" x1="93%" id="gradient-56">
            <stop stop-color="#7f027f" offset="0%" />
            <stop stop-color="#943799" offset="100%" />
        </linearGradient>
        <linearGradient y2="87%" y1="0%" x2="0%" x1="50%" id="gradient-57">
            <stop stop-color="#ee97a9" offset="0%" />
            <stop stop-color="#ee97a8" offset="0%" />
            <stop stop-color="#d85e6f" offset="100%" />
        </linearGradient>
        <linearGradient y2="0%" y1="34%" x2="94%" x1="0%" id="gradient-58">
            <stop stop-color="#edc700" offset="0%" />
            <stop stop-color="#ffe900" offset="100%" />
        </linearGradient>
        <linearGradient y2="0%" y1="34%" x2="94%" x1="0%" id="gradient-59">
            <stop stop-color="#f58c20" offset="0%" />
            <stop stop-color="#f6bc80" offset="100%" />
        </linearGradient>
        <linearGradient y2="0%" y1="37%" x2="93%" x1="0%" id="gradient-60">
            <stop stop-color="#2d8034" offset="0%" />
            <stop stop-color="#2d8034" offset="0%" />
            <stop stop-color="#34a240" offset="100%" />
        </linearGradient>
        <linearGradient y2="0%" y1="36%" x2="93%" x1="0%" id="gradient-61">
            <stop stop-color="#0000fd" offset="0%" />
            <stop stop-color="#4c64ff" offset="100%" />
        </linearGradient>
        <linearGradient y2="0%" y1="37%" x2="93%" x1="0%" id="gradient-62">
            <stop stop-color="#0000fd" offset="0%" />
            <stop stop-color="#4c64ff" offset="100%" />
        </linearGradient>
        <linearGradient y2="87%" y1="0%" x2="0%" x1="50%" id="gradient-63">
            <stop stop-color="#ee97a9" offset="0%" />
            <stop stop-color="#ee97a8" offset="0%" />
            <stop stop-color="#d85e6f" offset="100%" />
        </linearGradient>
    </defs>
    <path fill="url(#gradient-1)" fill-rule="evenodd" d="M 44.04 59.5 C 44.04 59.4 44 59.32 43.92 59.27 L 37.11 55.24 C 37.04 55.19 36.94 55.19 36.86 55.24 L 29.74 59.43 C 29.65 59.51 29.62 59.58 29.62 59.66 C 29.62 59.66 29.64 68 29.64 68 C 29.64 68.09 29.69 68.18 29.76 68.22 L 36.57 72.26 C 36.61 72.28 36.65 72.29 36.7 72.29 C 36.72 72.29 36.74 72.29 36.76 72.28 C 36.79 72.28 36.81 72.27 36.82 72.26 L 43.94 68.07 C 44.02 68.02 44.07 67.93 44.07 67.84 L 44.04 59.5 L 44.04 59.5 Z M 44.04 59.5" />
    <path fill="#becad6" fill-rule="evenodd" d="M 36.99 55.76 L 43.29 59.5 L 40.68 61.03 L 36.67 63.39 L 32.76 61.07 C 32.08 60.67 30.73 59.87 30.73 59.87 L 30.37 59.66 L 36.99 55.76 L 36.99 55.76 Z M 36.99 55.76" />
    <path fill="url(#gradient-2)" fill-rule="evenodd" d="M 30.14 67.85 L 30.12 60.11 L 36.42 63.84 L 36.44 71.59 L 30.14 67.85 L 30.14 67.85 Z M 30.14 67.85" />
    <path fill="#ced7df" fill-rule="evenodd" d="M 36.95 71.59 L 36.93 63.84 L 43.54 59.95 L 43.56 67.69 L 36.95 71.59 L 36.95 71.59 Z M 36.95 71.59" />
    <path fill="url(#gradient-3)" fill-rule="evenodd" d="M 41.98 41.6 C 41.98 41.5 41.93 41.42 41.86 41.37 L 35.05 37.34 C 34.97 37.29 34.88 37.29 34.8 37.34 L 27.68 41.53 C 27.59 41.61 27.55 41.68 27.55 41.75 C 27.55 41.76 27.58 50.1 27.58 50.1 C 27.58 50.19 27.62 50.28 27.7 50.32 L 34.51 54.36 C 34.55 54.38 34.59 54.39 34.63 54.39 C 34.66 54.39 34.68 54.39 34.7 54.38 C 34.72 54.37 34.74 54.37 34.76 54.36 L 41.88 50.16 C 41.96 50.12 42.01 50.03 42.01 49.94 L 41.98 41.6 L 41.98 41.6 Z M 41.98 41.6" />
    <path fill="#becad6" fill-rule="evenodd" d="M 34.92 37.86 L 41.22 41.59 L 38.62 43.13 L 34.61 45.49 L 30.7 43.17 C 30.02 42.77 28.67 41.97 28.67 41.97 L 28.31 41.76 L 34.92 37.86 L 34.92 37.86 Z M 34.92 37.86" />
    <path fill="url(#gradient-4)" fill-rule="evenodd" d="M 28.08 49.95 L 28.06 42.2 L 34.36 45.94 L 34.38 53.68 L 28.08 49.95 L 28.08 49.95 Z M 28.08 49.95" />
    <path fill="#ced7df" fill-rule="evenodd" d="M 34.88 53.69 L 34.86 45.94 L 41.48 42.04 L 41.5 49.79 L 34.88 53.69 L 34.88 53.69 Z M 34.88 53.69" />
    <path fill="url(#gradient-5)" fill-rule="evenodd" d="M 50.16 29.22 C 50.16 29.15 50.12 29.09 50.07 29.06 L 45.21 26.18 C 45.15 26.14 45.08 26.14 45.03 26.18 L 39.94 29.17 C 39.88 29.23 39.85 29.28 39.85 29.33 C 39.85 29.33 39.87 35.29 39.87 35.29 C 39.87 35.36 39.9 35.42 39.96 35.45 L 44.82 38.33 C 44.85 38.35 44.88 38.36 44.91 38.36 C 44.92 38.36 44.94 38.36 44.96 38.35 C 44.97 38.35 44.99 38.34 45 38.33 L 50.08 35.34 C 50.14 35.31 50.18 35.24 50.18 35.18 L 50.16 29.22 L 50.16 29.22 Z M 50.16 29.22" />
    <path fill="#becad6" fill-rule="evenodd" d="M 45.12 26.55 L 49.62 29.22 L 47.75 30.32 L 44.89 32 L 42.1 30.34 L 40.65 29.48 L 40.39 29.33 L 45.12 26.55 L 45.12 26.55 Z M 45.12 26.55" />
    <path fill="url(#gradient-6)" fill-rule="evenodd" d="M 40.23 35.19 L 40.21 29.65 L 44.71 32.32 L 44.73 37.85 L 40.23 35.19 L 40.23 35.19 Z M 40.23 35.19" />
    <path fill="#ced7df" fill-rule="evenodd" d="M 45.09 37.85 L 45.07 32.32 L 49.8 29.54 L 49.81 35.07 L 45.09 37.85 L 45.09 37.85 Z M 45.09 37.85" />
    <path fill="url(#gradient-7)" fill-rule="evenodd" d="M 65.6 33.72 C 65.6 33.65 65.57 33.59 65.51 33.56 L 60.65 30.68 C 60.6 30.65 60.53 30.65 60.47 30.68 L 55.39 33.67 C 55.32 33.73 55.3 33.78 55.3 33.83 C 55.3 33.83 55.31 39.79 55.31 39.79 C 55.31 39.86 55.35 39.92 55.4 39.95 L 60.26 42.84 C 60.29 42.85 60.32 42.86 60.36 42.86 C 60.37 42.86 60.39 42.86 60.4 42.85 C 60.42 42.85 60.43 42.84 60.45 42.84 L 65.53 39.84 C 65.59 39.81 65.62 39.75 65.62 39.68 L 65.6 33.72 L 65.6 33.72 Z M 65.6 33.72" />
    <path fill="#becad6" fill-rule="evenodd" d="M 60.56 31.05 L 65.06 33.72 L 63.2 34.82 L 60.34 36.5 L 57.54 34.85 L 56.09 33.99 L 55.84 33.83 L 60.56 31.05 L 60.56 31.05 Z M 60.56 31.05" />
    <path fill="url(#gradient-8)" fill-rule="evenodd" d="M 55.67 39.69 L 55.66 34.16 L 60.16 36.82 L 60.17 42.35 L 55.67 39.69 L 55.67 39.69 Z M 55.67 39.69" />
    <path fill="#ced7df" fill-rule="evenodd" d="M 60.54 42.36 L 60.52 36.82 L 65.24 34.04 L 65.26 39.58 L 60.54 42.36 L 60.54 42.36 Z M 60.54 42.36" />
    <path fill="url(#gradient-9)" fill-rule="evenodd" d="M 73.85 47.97 C 73.85 47.89 73.81 47.83 73.75 47.79 L 68.4 44.62 C 68.34 44.58 68.26 44.58 68.2 44.62 L 62.61 47.91 C 62.54 47.97 62.51 48.03 62.51 48.09 C 62.51 48.09 62.53 54.65 62.53 54.65 C 62.53 54.72 62.57 54.79 62.63 54.82 L 67.97 57.99 C 68.01 58.01 68.04 58.02 68.07 58.02 C 68.09 58.02 68.11 58.02 68.13 58.01 C 68.15 58.01 68.16 58 68.17 57.99 L 73.77 54.7 C 73.83 54.66 73.87 54.59 73.87 54.52 L 73.85 47.97 L 73.85 47.97 Z M 73.85 47.97" />
    <path fill="#becad6" fill-rule="evenodd" d="M 68.3 45.03 L 73.25 47.97 L 71.2 49.17 L 68.06 51.03 C 68.06 51.03 66.01 49.81 64.98 49.2 C 64.45 48.89 63.39 48.26 63.39 48.26 L 63.11 48.09 L 68.3 45.03 L 68.3 45.03 Z M 68.3 45.03" />
    <path fill="url(#gradient-10)" fill-rule="evenodd" d="M 62.92 54.53 L 62.91 48.44 L 67.86 51.38 L 67.87 57.46 L 62.92 54.53 L 62.92 54.53 Z M 62.92 54.53" />
    <path fill="#ced7df" fill-rule="evenodd" d="M 68.27 57.47 L 68.25 51.38 L 73.45 48.32 L 73.47 54.41 L 68.27 57.47 L 68.27 57.47 Z M 68.27 57.47" />
    <path fill="url(#gradient-11)" fill-rule="evenodd" d="M 68.84 61.86 C 68.83 61.79 68.8 61.73 68.75 61.7 L 63.89 58.82 C 63.83 58.79 63.76 58.79 63.7 58.82 L 58.62 61.81 C 58.55 61.87 58.53 61.92 58.53 61.97 C 58.53 61.97 58.55 67.93 58.55 67.93 C 58.55 68 58.58 68.06 58.63 68.09 L 63.5 70.98 C 63.52 70.99 63.56 71 63.59 71 C 63.6 71 63.62 71 63.63 70.99 C 63.65 70.99 63.66 70.98 63.68 70.98 L 68.76 67.98 C 68.82 67.95 68.85 67.89 68.85 67.82 L 68.84 61.86 L 68.84 61.86 Z M 68.84 61.86" />
    <path fill="#becad6" fill-rule="evenodd" d="M 63.79 59.19 L 68.29 61.86 L 66.43 62.96 L 63.57 64.64 L 60.77 62.99 L 59.33 62.13 L 59.07 61.97 L 63.79 59.19 L 63.79 59.19 Z M 63.79 59.19" />
    <path fill="url(#gradient-12)" fill-rule="evenodd" d="M 58.91 67.83 L 58.89 62.29 L 63.39 64.96 L 63.4 70.49 L 58.91 67.83 L 58.91 67.83 Z M 58.91 67.83" />
    <path fill="#ced7df" fill-rule="evenodd" d="M 63.77 70.5 L 63.75 64.96 L 68.47 62.18 L 68.49 67.71 L 63.77 70.5 L 63.77 70.5 Z M 63.77 70.5" />
    <path fill="url(#gradient-13)" fill-rule="evenodd" d="M 81.77 58.02 C 81.77 57.95 81.73 57.89 81.68 57.86 L 76.82 54.98 C 76.76 54.95 76.69 54.95 76.64 54.98 L 71.55 57.97 C 71.49 58.03 71.46 58.08 71.46 58.13 C 71.46 58.13 71.48 64.09 71.48 64.09 C 71.48 64.16 71.51 64.22 71.57 64.25 L 76.43 67.14 C 76.46 67.15 76.49 67.16 76.52 67.16 C 76.53 67.16 76.55 67.16 76.56 67.15 C 76.58 67.15 76.6 67.14 76.61 67.14 L 81.69 64.14 C 81.75 64.11 81.78 64.05 81.78 63.98 L 81.77 58.02 L 81.77 58.02 Z M 81.77 58.02" />
    <path fill="#becad6" fill-rule="evenodd" d="M 76.72 55.35 L 81.23 58.02 L 79.36 59.12 L 76.5 60.8 L 73.71 59.15 L 72.26 58.29 L 72 58.13 L 76.72 55.35 L 76.72 55.35 Z M 76.72 55.35" />
    <path fill="url(#gradient-14)" fill-rule="evenodd" d="M 71.84 63.99 L 71.82 58.46 L 76.32 61.12 L 76.34 66.65 L 71.84 63.99 L 71.84 63.99 Z M 71.84 63.99" />
    <path fill="#ced7df" fill-rule="evenodd" d="M 76.7 66.66 L 76.68 61.12 L 81.41 58.34 L 81.42 63.88 L 76.7 66.66 L 76.7 66.66 Z M 76.7 66.66" />
    <path fill="url(#gradient-15)" fill-rule="evenodd" d="M 86.57 42.72 C 86.57 42.66 86.53 42.6 86.48 42.57 L 81.62 39.68 C 81.56 39.65 81.49 39.65 81.44 39.68 L 76.35 42.68 C 76.29 42.73 76.26 42.78 76.26 42.84 C 76.26 42.84 76.28 48.8 76.28 48.8 C 76.28 48.86 76.31 48.93 76.37 48.96 L 81.23 51.84 C 81.26 51.86 81.29 51.86 81.32 51.86 C 81.34 51.86 81.35 51.86 81.37 51.86 C 81.38 51.85 81.4 51.85 81.41 51.84 L 86.5 48.85 C 86.55 48.81 86.59 48.75 86.59 48.68 L 86.57 42.72 L 86.57 42.72 Z M 86.57 42.72" />
    <path fill="#becad6" fill-rule="evenodd" d="M 81.53 40.06 L 86.03 42.72 L 84.16 43.82 L 81.3 45.51 L 78.51 43.85 L 77.06 42.99 L 76.8 42.84 L 81.53 40.06 L 81.53 40.06 Z M 81.53 40.06" />
    <path fill="url(#gradient-16)" fill-rule="evenodd" d="M 76.64 48.69 L 76.62 43.16 L 81.12 45.83 L 81.14 51.36 L 76.64 48.69 L 76.64 48.69 Z M 76.64 48.69" />
    <path fill="#ced7df" fill-rule="evenodd" d="M 81.5 51.36 L 81.48 45.83 L 86.21 43.04 L 86.22 48.58 L 81.5 51.36 L 81.5 51.36 Z M 81.5 51.36" />
    <path fill="url(#gradient-17)" fill-rule="evenodd" d="M 102.02 31.59 C 102.01 31.52 101.98 31.46 101.93 31.43 L 97.07 28.55 C 97.01 28.51 96.94 28.51 96.88 28.55 L 91.8 31.54 C 91.73 31.6 91.71 31.65 91.71 31.7 C 91.71 31.7 91.73 37.66 91.73 37.66 C 91.73 37.73 91.76 37.79 91.81 37.82 L 96.68 40.7 C 96.71 40.72 96.74 40.73 96.77 40.73 C 96.78 40.73 96.8 40.73 96.81 40.72 C 96.83 40.72 96.84 40.71 96.86 40.7 L 101.94 37.71 C 102 37.68 102.03 37.62 102.03 37.55 L 102.02 31.59 L 102.02 31.59 Z M 102.02 31.59" />
    <path fill="#becad6" fill-rule="evenodd" d="M 96.97 28.92 L 101.47 31.59 L 99.61 32.69 L 96.75 34.37 L 93.96 32.71 L 92.51 31.85 L 92.25 31.7 L 96.97 28.92 L 96.97 28.92 Z M 96.97 28.92" />
    <path fill="url(#gradient-18)" fill-rule="evenodd" d="M 92.09 37.56 L 92.07 32.02 L 96.57 34.69 L 96.58 40.22 L 92.09 37.56 L 92.09 37.56 Z M 92.09 37.56" />
    <path fill="#ced7df" fill-rule="evenodd" d="M 96.95 40.23 L 96.93 34.69 L 101.65 31.91 L 101.67 37.44 L 96.95 40.23 L 96.95 40.23 Z M 96.95 40.23" />
    <path fill="url(#gradient-19)" fill-rule="evenodd" d="M 119.93 32.85 C 119.93 32.76 119.88 32.69 119.82 32.65 L 113.7 29.02 C 113.63 28.98 113.54 28.98 113.47 29.02 L 107.07 32.79 C 106.99 32.86 106.95 32.92 106.95 32.99 C 106.95 32.99 106.98 40.5 106.98 40.5 C 106.98 40.58 107.02 40.65 107.09 40.7 L 113.21 44.32 C 113.24 44.34 113.28 44.35 113.32 44.35 C 113.34 44.35 113.36 44.35 113.38 44.35 C 113.4 44.34 113.42 44.33 113.44 44.32 L 119.84 40.55 C 119.91 40.51 119.95 40.43 119.95 40.35 L 119.93 32.85 L 119.93 32.85 Z M 119.93 32.85" />
    <path fill="#becad6" fill-rule="evenodd" d="M 113.58 29.49 L 119.25 32.85 L 116.9 34.23 L 113.3 36.35 L 109.78 34.27 L 107.96 33.18 L 107.64 32.99 L 113.58 29.49 L 113.58 29.49 Z M 113.58 29.49" />
    <path fill="url(#gradient-20)" fill-rule="evenodd" d="M 107.43 40.36 L 107.41 33.4 L 113.07 36.75 L 113.09 43.72 L 107.43 40.36 L 107.43 40.36 Z M 107.43 40.36" />
    <path fill="#ced7df" fill-rule="evenodd" d="M 113.55 43.72 L 113.53 36.75 L 119.47 33.25 L 119.49 40.22 L 113.55 43.72 L 113.55 43.72 Z M 113.55 43.72" />
    <path fill="url(#gradient-21)" fill-rule="evenodd" d="M 100.91 45.1 C 100.91 45.03 100.88 44.97 100.82 44.94 L 95.96 42.06 C 95.91 42.02 95.84 42.02 95.78 42.06 L 90.7 45.05 C 90.63 45.1 90.61 45.15 90.61 45.21 C 90.61 45.21 90.62 51.17 90.62 51.17 C 90.62 51.24 90.66 51.3 90.71 51.33 L 95.57 54.21 C 95.6 54.23 95.63 54.24 95.66 54.24 C 95.68 54.24 95.69 54.23 95.71 54.23 C 95.73 54.22 95.74 54.22 95.75 54.21 L 100.84 51.22 C 100.9 51.18 100.93 51.12 100.93 51.06 L 100.91 45.1 L 100.91 45.1 Z M 100.91 45.1" />
    <path fill="#becad6" fill-rule="evenodd" d="M 95.87 42.43 L 100.37 45.1 L 98.51 46.19 L 95.65 47.88 L 92.85 46.22 L 91.4 45.36 L 91.15 45.21 L 95.87 42.43 L 95.87 42.43 Z M 95.87 42.43" />
    <path fill="url(#gradient-22)" fill-rule="evenodd" d="M 90.98 51.06 L 90.97 45.53 L 95.47 48.2 L 95.48 53.73 L 90.98 51.06 L 90.98 51.06 Z M 90.98 51.06" />
    <path fill="#ced7df" fill-rule="evenodd" d="M 95.84 53.73 L 95.83 48.2 L 100.55 45.42 L 100.57 50.95 L 95.84 53.73 L 95.84 53.73 Z M 95.84 53.73" />
    <path fill="url(#gradient-23)" fill-rule="evenodd" d="M 85.46 30.46 C 85.46 30.4 85.43 30.34 85.38 30.3 L 80.51 27.42 C 80.46 27.39 80.39 27.39 80.33 27.42 L 75.25 30.42 C 75.18 30.47 75.16 30.52 75.16 30.58 C 75.16 30.58 75.17 36.54 75.17 36.54 C 75.17 36.6 75.21 36.66 75.26 36.7 L 80.13 39.58 C 80.15 39.6 80.19 39.6 80.22 39.6 C 80.23 39.6 80.25 39.6 80.26 39.6 C 80.28 39.59 80.29 39.59 80.31 39.58 L 85.39 36.58 C 85.45 36.55 85.48 36.49 85.48 36.42 L 85.46 30.46 L 85.46 30.46 Z M 85.46 30.46" />
    <path fill="#becad6" fill-rule="evenodd" d="M 80.42 27.79 L 84.92 30.46 L 83.06 31.56 L 80.2 33.25 L 77.4 31.59 L 75.95 30.73 L 75.7 30.58 L 80.42 27.79 L 80.42 27.79 Z M 80.42 27.79" />
    <path fill="url(#gradient-24)" fill-rule="evenodd" d="M 75.53 36.43 L 75.52 30.9 L 80.02 33.57 L 80.03 39.1 L 75.53 36.43 L 75.53 36.43 Z M 75.53 36.43" />
    <path fill="#ced7df" fill-rule="evenodd" d="M 80.4 39.1 L 80.38 33.57 L 85.1 30.78 L 85.12 36.32 L 80.4 39.1 L 80.4 39.1 Z M 80.4 39.1" />
    <path fill="url(#gradient-25)" fill-rule="evenodd" d="M 59.32 48.26 C 59.31 48.17 59.27 48.09 59.2 48.05 L 52.88 44.31 C 52.81 44.26 52.72 44.26 52.64 44.31 L 46.04 48.2 C 45.95 48.27 45.92 48.33 45.92 48.41 C 45.92 48.41 45.94 56.16 45.94 56.16 C 45.94 56.24 45.98 56.32 46.05 56.36 L 52.37 60.11 C 52.41 60.13 52.45 60.14 52.49 60.14 C 52.51 60.14 52.53 60.14 52.55 60.13 C 52.58 60.13 52.59 60.12 52.61 60.11 L 59.22 56.22 C 59.29 56.17 59.34 56.09 59.34 56.01 L 59.32 48.26 L 59.32 48.26 Z M 59.32 48.26" />
    <path fill="#becad6" fill-rule="evenodd" d="M 52.76 44.79 L 58.61 48.26 L 56.19 49.69 L 52.47 51.88 L 48.84 49.72 C 48.21 49.35 46.95 48.61 46.95 48.61 L 46.62 48.41 L 52.76 44.79 L 52.76 44.79 Z M 52.76 44.79" />
    <path fill="url(#gradient-26)" fill-rule="evenodd" d="M 46.41 56.02 L 46.39 48.83 L 52.24 52.29 L 52.26 59.48 L 46.41 56.02 L 46.41 56.02 Z M 46.41 56.02" />
    <path fill="#ced7df" fill-rule="evenodd" d="M 52.73 59.49 L 52.71 52.29 L 58.85 48.68 L 58.87 55.87 L 52.73 59.49 L 52.73 59.49 Z M 52.73 59.49" />
    <path fill="url(#gradient-27)" fill-rule="evenodd" d="M -19.97 33.22 C -19.97 33.16 -20.01 33.1 -20.06 33.06 L -24.92 30.18 C -24.98 30.15 -25.05 30.15 -25.1 30.18 L -30.19 33.18 C -30.25 33.23 -30.28 33.28 -30.28 33.34 C -30.28 33.34 -30.26 39.3 -30.26 39.3 C -30.26 39.36 -30.23 39.42 -30.17 39.46 L -25.31 42.34 C -25.28 42.35 -25.25 42.36 -25.22 42.36 C -25.21 42.36 -25.19 42.36 -25.17 42.36 C -25.16 42.35 -25.14 42.35 -25.13 42.34 L -20.05 39.34 C -19.99 39.31 -19.96 39.25 -19.96 39.18 L -19.97 33.22 L -19.97 33.22 Z M -19.97 33.22" />
    <path fill="#becad6" fill-rule="evenodd" d="M -25.01 30.55 L -20.51 33.22 L -22.38 34.32 L -25.24 36.01 L -28.03 34.35 L -29.48 33.49 L -29.74 33.34 L -25.01 30.55 L -25.01 30.55 Z M -25.01 30.55" />
    <path fill="url(#gradient-28)" fill-rule="evenodd" d="M -29.9 39.19 L -29.92 33.66 L -25.42 36.32 L -25.4 41.86 L -29.9 39.19 L -29.9 39.19 Z M -29.9 39.19" />
    <path fill="#ced7df" fill-rule="evenodd" d="M -25.04 41.86 L -25.06 36.32 L -20.33 33.54 L -20.32 39.08 L -25.04 41.86 L -25.04 41.86 Z M -25.04 41.86" />
    <path fill="url(#gradient-29)" fill-rule="evenodd" d="M -4.53 37.73 C -4.53 37.66 -4.56 37.6 -4.62 37.57 L -9.48 34.68 C -9.53 34.65 -9.6 34.65 -9.66 34.68 L -14.74 37.68 C -14.81 37.73 -14.83 37.78 -14.83 37.84 C -14.83 37.84 -14.82 43.8 -14.82 43.8 C -14.82 43.87 -14.78 43.93 -14.73 43.96 L -9.87 46.84 C -9.84 46.86 -9.81 46.87 -9.77 46.87 C -9.76 46.87 -9.74 46.86 -9.73 46.86 C -9.71 46.85 -9.7 46.85 -9.68 46.84 L -4.6 43.85 C -4.54 43.81 -4.51 43.75 -4.51 43.69 L -4.53 37.73 L -4.53 37.73 Z M -4.53 37.73" />
    <path fill="#becad6" fill-rule="evenodd" d="M -9.57 35.06 L -5.07 37.72 L -6.93 38.82 L -9.79 40.51 L -12.59 38.85 L -14.04 37.99 L -14.29 37.84 L -9.57 35.06 L -9.57 35.06 Z M -9.57 35.06" />
    <path fill="url(#gradient-30)" fill-rule="evenodd" d="M -14.46 43.69 L -14.47 38.16 L -9.97 40.83 L -9.96 46.36 L -14.46 43.69 L -14.46 43.69 Z M -14.46 43.69" />
    <path fill="#ced7df" fill-rule="evenodd" d="M -9.59 46.36 L -9.61 40.83 L -4.89 38.05 L -4.87 43.58 L -9.59 46.36 L -9.59 46.36 Z M -9.59 46.36" />
    <path fill="url(#gradient-31)" fill-rule="evenodd" d="M 3.72 51.97 C 3.72 51.9 3.68 51.83 3.62 51.8 L -1.73 48.63 C -1.79 48.59 -1.87 48.59 -1.93 48.63 L -7.52 51.92 C -7.59 51.98 -7.62 52.03 -7.62 52.1 C -7.62 52.1 -7.6 58.65 -7.6 58.65 C -7.6 58.73 -7.56 58.79 -7.5 58.83 L -2.16 62 C -2.12 62.02 -2.09 62.03 -2.06 62.03 C -2.04 62.03 -2.02 62.02 -2 62.02 C -1.98 62.01 -1.97 62.01 -1.96 62 L 3.64 58.7 C 3.7 58.67 3.74 58.6 3.74 58.53 L 3.72 51.97 L 3.72 51.97 Z M 3.72 51.97" />
    <path fill="#becad6" fill-rule="evenodd" d="M -1.83 49.04 L 3.12 51.97 L 1.07 53.18 L -2.07 55.03 C -2.07 55.03 -4.12 53.82 -5.15 53.21 C -5.68 52.89 -6.74 52.26 -6.74 52.26 L -7.02 52.1 L -1.83 49.04 L -1.83 49.04 Z M -1.83 49.04" />
    <path fill="url(#gradient-32)" fill-rule="evenodd" d="M -7.21 58.54 L -7.22 52.45 L -2.27 55.38 L -2.26 61.47 L -7.21 58.54 L -7.21 58.54 Z M -7.21 58.54" />
    <path fill="#ced7df" fill-rule="evenodd" d="M -1.86 61.47 L -1.88 55.38 L 3.32 52.32 L 3.34 58.41 L -1.86 61.47 L -1.86 61.47 Z M -1.86 61.47" />
    <path fill="url(#gradient-33)" fill-rule="evenodd" d="M -1.3 65.87 C -1.3 65.8 -1.33 65.74 -1.38 65.71 L -6.24 62.82 C -6.3 62.79 -6.37 62.79 -6.43 62.82 L -11.51 65.82 C -11.58 65.87 -11.6 65.92 -11.6 65.98 C -11.6 65.98 -11.59 71.94 -11.59 71.94 C -11.59 72 -11.55 72.07 -11.5 72.1 L -6.63 74.98 C -6.61 75 -6.57 75.01 -6.54 75.01 C -6.53 75.01 -6.51 75 -6.5 75 C -6.48 74.99 -6.47 74.99 -6.45 74.98 L -1.37 71.99 C -1.31 71.95 -1.28 71.89 -1.28 71.83 L -1.3 65.87 L -1.3 65.87 Z M -1.3 65.87" />
    <path fill="#becad6" fill-rule="evenodd" d="M -6.34 63.2 L -1.84 65.86 L -3.7 66.96 L -6.56 68.65 L -9.36 66.99 L -10.8 66.13 L -11.06 65.98 L -6.34 63.2 L -6.34 63.2 Z M -6.34 63.2" />
    <path fill="url(#gradient-34)" fill-rule="evenodd" d="M -11.22 71.83 L -11.24 66.3 L -6.74 68.97 L -6.73 74.5 L -11.22 71.83 L -11.22 71.83 Z M -11.22 71.83" />
    <path fill="#ced7df" fill-rule="evenodd" d="M -6.36 74.5 L -6.38 68.97 L -1.66 66.18 L -1.64 71.72 L -6.36 74.5 L -6.36 74.5 Z M -6.36 74.5" />
    <path fill="url(#gradient-35)" fill-rule="evenodd" d="M 11.64 62.03 C 11.63 61.96 11.6 61.9 11.55 61.87 L 6.69 58.98 C 6.63 58.95 6.56 58.95 6.5 58.98 L 1.42 61.98 C 1.35 62.03 1.33 62.08 1.33 62.14 C 1.33 62.14 1.35 68.1 1.35 68.1 C 1.35 68.17 1.38 68.23 1.44 68.26 L 6.3 71.14 C 6.33 71.16 6.36 71.17 6.39 71.17 C 6.4 71.17 6.42 71.16 6.43 71.16 C 6.45 71.15 6.47 71.15 6.48 71.14 L 11.56 68.15 C 11.62 68.11 11.65 68.05 11.65 67.99 L 11.64 62.03 L 11.64 62.03 Z M 11.64 62.03" />
    <path fill="url(#gradient-36)" fill-rule="evenodd" d="M 1.71 67.99 L 1.69 62.46 L 6.19 65.13 L 6.21 70.66 L 1.71 67.99 L 1.71 67.99 Z M 1.71 67.99" />
    <path fill="#ced7df" fill-rule="evenodd" d="M 6.57 70.66 L 6.55 65.13 L 11.28 62.35 L 11.29 67.88 L 6.57 70.66 L 6.57 70.66 Z M 6.57 70.66" />
    <path fill="url(#gradient-37)" fill-rule="evenodd" d="M -10.81 52.26 C -10.82 52.18 -10.86 52.1 -10.93 52.06 L -17.25 48.31 C -17.32 48.27 -17.41 48.27 -17.49 48.31 L -24.09 52.2 C -24.18 52.27 -24.21 52.34 -24.21 52.41 C -24.21 52.41 -24.19 60.16 -24.19 60.16 C -24.19 60.25 -24.15 60.33 -24.08 60.37 L -17.76 64.11 C -17.72 64.14 -17.68 64.15 -17.64 64.15 C -17.62 64.15 -17.6 64.14 -17.58 64.14 C -17.55 64.13 -17.54 64.12 -17.52 64.11 L -10.91 60.22 C -10.84 60.18 -10.79 60.1 -10.79 60.01 L -10.81 52.26 L -10.81 52.26 Z M -10.81 52.26" />
    <path fill="#becad6" fill-rule="evenodd" d="M -17.37 48.8 L -11.52 52.26 L -13.94 53.69 L -17.66 55.88 L -21.29 53.73 C -21.92 53.36 -23.18 52.61 -23.18 52.61 L -23.51 52.41 L -17.37 48.8 L -17.37 48.8 Z M -17.37 48.8" />
    <path fill="url(#gradient-38)" fill-rule="evenodd" d="M -23.72 60.02 L -23.74 52.83 L -17.89 56.3 L -17.87 63.49 L -23.72 60.02 L -23.72 60.02 Z M -23.72 60.02" />
    <path fill="#ced7df" fill-rule="evenodd" d="M -17.4 63.49 L -17.42 56.3 L -11.28 52.68 L -11.26 59.88 L -17.4 63.49 L -17.4 63.49 Z M -17.4 63.49" />
    <path fill="url(#gradient-39)" fill-rule="evenodd" d="M 142.28 0.2 L 142.36 114.89 L 68.99 88.01 L 142.28 0.2 L 142.28 0.2 L 142.28 0.2 Z M 142.28 0.2" />
    <path fill="url(#gradient-40)" fill-rule="evenodd" d="M 142.75 114.89 L 216.11 88 L 142.83 0.19 L 142.75 114.89 Z M 142.75 114.89" />
    <path fill="url(#gradient-41)" fill-rule="evenodd" d="M 258.83 20.52 C 258.82 20.4 258.76 20.29 258.66 20.23 L 249.87 14.97 C 249.76 14.91 249.64 14.91 249.54 14.97 L 240.33 20.44 C 240.22 20.53 240.17 20.63 240.17 20.73 C 240.17 20.73 240.2 31.62 240.2 31.62 C 240.2 31.74 240.26 31.85 240.36 31.91 L 249.16 37.17 C 249.21 37.2 249.27 37.22 249.33 37.22 C 249.35 37.22 249.38 37.21 249.41 37.21 C 249.44 37.2 249.47 37.18 249.49 37.17 L 258.69 31.7 C 258.8 31.64 258.86 31.53 258.86 31.41 L 258.83 20.52 L 258.83 20.52 Z M 258.83 20.52" />
    <path fill="#ffe900" fill-rule="evenodd" d="M 249.7 15.65 L 257.85 20.52 L 254.47 22.53 L 249.29 25.6 L 241.61 21.01 L 241.15 20.73 L 249.7 15.65 L 249.7 15.65 Z M 249.7 15.65" />
    <path fill="#eec800" fill-rule="evenodd" d="M 240.85 31.42 L 240.83 21.32 L 248.97 26.19 L 249 36.29 L 240.85 31.42 L 240.85 31.42 Z M 240.85 31.42" />
    <path fill="#ffe900" fill-rule="evenodd" d="M 249.65 36.3 L 249.62 26.19 L 258.17 21.1 L 258.2 31.22 L 249.65 36.3 L 249.65 36.3 Z M 249.65 36.3" />
    <path fill="url(#gradient-42)" fill-rule="evenodd" d="M 265.3 38.68 C 265.3 38.54 265.23 38.41 265.11 38.34 L 254.61 32.25 C 254.49 32.18 254.34 32.18 254.22 32.25 L 243.23 38.58 C 243.09 38.7 243.04 38.8 243.04 38.92 C 243.04 38.92 243.07 51.53 243.07 51.53 C 243.07 51.67 243.15 51.8 243.27 51.86 L 253.77 57.96 C 253.83 57.99 253.9 58.01 253.96 58.01 C 254 58.01 254.03 58.01 254.06 58 C 254.1 57.99 254.13 57.97 254.16 57.96 L 265.15 51.62 C 265.27 51.55 265.34 51.43 265.34 51.29 L 265.3 38.68 L 265.3 38.68 Z M 265.3 38.68" />
    <path fill="#34a240" fill-rule="evenodd" d="M 254.41 33.04 L 264.13 38.68 L 260.11 41 L 253.93 44.56 L 244.76 39.24 L 244.21 38.92 L 254.41 33.04 L 254.41 33.04 Z M 254.41 33.04" />
    <path fill="#2d8034" fill-rule="evenodd" d="M 243.85 51.3 L 243.82 39.6 L 253.54 45.24 L 253.57 56.94 L 243.85 51.3 L 243.85 51.3 Z M 243.85 51.3" />
    <path fill="#34a240" fill-rule="evenodd" d="M 254.35 56.95 L 254.32 45.24 L 264.52 39.36 L 264.56 51.06 L 254.35 56.95 L 254.35 56.95 Z M 254.35 56.95" />
    <path fill="url(#gradient-43)" fill-rule="evenodd" d="M 168.5 51.85 C 168.5 51.76 168.46 51.69 168.39 51.64 L 162.14 47.94 C 162.07 47.9 161.98 47.9 161.91 47.94 L 155.38 51.79 C 155.29 51.86 155.26 51.92 155.26 52 C 155.26 52 155.28 59.66 155.28 59.66 C 155.28 59.74 155.33 59.82 155.4 59.86 L 161.64 63.57 C 161.68 63.59 161.72 63.6 161.76 63.6 C 161.78 63.6 161.8 63.6 161.82 63.59 C 161.84 63.58 161.86 63.58 161.88 63.57 L 168.41 59.72 C 168.48 59.67 168.53 59.6 168.53 59.51 L 168.5 51.85 L 168.5 51.85 Z M 168.5 51.85" />
    <path fill="#f6bc80" fill-rule="evenodd" d="M 162.03 48.42 L 167.81 51.85 L 165.41 53.26 L 161.74 55.43 L 156.29 52.19 L 155.96 52 L 162.03 48.42 L 162.03 48.42 Z M 162.03 48.42" />
    <path fill="#f58c20" fill-rule="evenodd" d="M 155.75 59.52 L 155.73 52.41 L 161.51 55.84 L 161.53 62.95 L 155.75 59.52 L 155.75 59.52 Z M 155.75 59.52" />
    <path fill="url(#gradient-44)" fill-rule="evenodd" d="M 161.99 62.95 L 161.97 55.84 L 168.04 52.26 L 168.06 59.38 L 161.99 62.95 L 161.99 62.95 Z M 161.99 62.95" />
    <path fill="url(#gradient-45)" fill-rule="evenodd" d="M 221.85 54.82 C 221.85 54.72 221.79 54.62 221.71 54.57 L 214.05 50 C 213.96 49.95 213.85 49.95 213.76 50 L 205.74 54.75 C 205.64 54.84 205.6 54.92 205.6 55 C 205.6 55.01 205.63 64.46 205.63 64.46 C 205.63 64.56 205.68 64.66 205.77 64.71 L 213.43 69.28 C 213.48 69.31 213.53 69.32 213.57 69.32 C 213.6 69.32 213.62 69.32 213.65 69.31 C 213.68 69.3 213.7 69.3 213.72 69.28 L 221.73 64.53 C 221.82 64.48 221.88 64.38 221.88 64.28 L 221.85 54.82 L 221.85 54.82 Z M 221.85 54.82" />
    <path fill="#943799" fill-rule="evenodd" d="M 213.9 50.59 L 221 54.82 L 218.06 56.57 L 213.55 59.24 L 206.86 55.25 L 206.45 55.01 L 213.9 50.59 L 213.9 50.59 Z M 213.9 50.59" />
    <path fill="#7f027f" fill-rule="evenodd" d="M 206.19 64.29 L 206.17 55.51 L 213.26 59.75 L 213.29 68.52 L 206.19 64.29 L 206.19 64.29 Z M 206.19 64.29" />
    <path fill="#943799" fill-rule="evenodd" d="M 213.86 68.53 L 213.83 59.75 L 221.28 55.33 L 221.3 64.11 L 213.86 68.53 L 213.86 68.53 Z M 213.86 68.53" />
    <path fill="url(#gradient-46)" fill-rule="evenodd" d="M 285.67 23.3 C 285.67 23.18 285.6 23.07 285.5 23 L 276.13 17.6 C 276.02 17.54 275.89 17.54 275.78 17.6 L 265.98 23.22 C 265.86 23.32 265.81 23.41 265.81 23.52 C 265.81 23.52 265.84 34.69 265.84 34.69 C 265.84 34.82 265.91 34.93 266.01 34.99 L 275.38 40.39 C 275.44 40.42 275.49 40.44 275.56 40.44 C 275.59 40.44 275.62 40.44 275.65 40.43 C 275.68 40.42 275.71 40.41 275.73 40.39 L 285.53 34.78 C 285.64 34.72 285.7 34.6 285.7 34.48 L 285.67 23.3 L 285.67 23.3 Z M 285.67 23.3" />
    <path fill="#943799" fill-rule="evenodd" d="M 275.95 18.3 L 284.63 23.3 L 281.04 25.36 L 275.52 28.52 L 267.34 23.8 L 266.85 23.52 L 275.95 18.3 L 275.95 18.3 Z M 275.95 18.3" />
    <path fill="#7f027f" fill-rule="evenodd" d="M 266.53 34.49 L 266.51 24.12 L 275.18 29.12 L 275.2 39.49 L 266.53 34.49 L 266.53 34.49 Z M 266.53 34.49" />
    <path fill="#943799" fill-rule="evenodd" d="M 275.9 39.5 L 275.87 29.12 L 284.97 23.9 L 285 34.28 L 275.9 39.5 L 275.9 39.5 Z M 275.9 39.5" />
    <path fill="url(#gradient-47)" fill-rule="evenodd" d="M 236.15 29.61 C 236.15 29.49 236.09 29.38 235.99 29.33 L 227.19 24.28 C 227.09 24.23 226.97 24.23 226.86 24.28 L 217.66 29.52 C 217.54 29.62 217.5 29.71 217.5 29.8 C 217.5 29.81 217.53 40.23 217.53 40.23 C 217.53 40.35 217.59 40.46 217.69 40.51 L 226.49 45.56 C 226.54 45.58 226.6 45.6 226.65 45.6 C 226.68 45.6 226.71 45.6 226.74 45.59 C 226.77 45.58 226.79 45.57 226.82 45.56 L 236.02 40.31 C 236.12 40.26 236.18 40.15 236.18 40.03 L 236.15 29.61 L 236.15 29.61 Z M 236.15 29.61" />
    <path fill="#ff5a72" fill-rule="evenodd" d="M 227.03 24.94 L 235.17 29.6 L 231.8 31.53 L 226.62 34.47 L 218.94 30.07 L 218.48 29.81 L 227.03 24.94 L 227.03 24.94 Z M 227.03 24.94" />
    <path fill="#d4465b" fill-rule="evenodd" d="M 218.18 40.05 L 218.15 30.37 L 226.3 35.03 L 226.32 44.71 L 218.18 40.05 L 218.18 40.05 Z M 218.18 40.05" />
    <path fill="#eb4a62" fill-rule="evenodd" d="M 226.98 44.72 L 226.95 35.03 L 235.5 30.16 L 235.53 39.85 L 226.98 44.72 L 226.98 44.72 Z M 226.98 44.72" />
    <path fill="url(#gradient-48)" fill-rule="evenodd" d="M 205.55 39.32 C 205.55 39.21 205.5 39.12 205.41 39.06 L 197.75 34.49 C 197.66 34.44 197.55 34.44 197.46 34.49 L 189.45 39.24 C 189.34 39.33 189.3 39.41 189.3 39.5 C 189.3 39.5 189.33 48.95 189.33 48.95 C 189.33 49.06 189.38 49.15 189.47 49.21 L 197.14 53.78 C 197.18 53.8 197.23 53.82 197.28 53.82 C 197.3 53.82 197.33 53.81 197.35 53.81 C 197.38 53.8 197.4 53.79 197.42 53.78 L 205.44 49.03 C 205.53 48.97 205.58 48.88 205.58 48.77 L 205.55 39.32 L 205.55 39.32 Z M 205.55 39.32" />
    <path fill="#ffe900" fill-rule="evenodd" d="M 197.6 35.08 L 204.7 39.32 L 201.76 41.06 L 197.25 43.73 L 190.56 39.74 L 190.16 39.5 L 197.6 35.08 L 197.6 35.08 Z M 197.6 35.08" />
    <path fill="#eec800" fill-rule="evenodd" d="M 189.9 48.78 L 189.88 40.01 L 196.97 44.24 L 196.99 53.01 L 189.9 48.78 L 189.9 48.78 Z M 189.9 48.78" />
    <path fill="#ffe900" fill-rule="evenodd" d="M 197.56 53.02 L 197.54 44.24 L 204.98 39.82 L 205.01 48.61 L 197.56 53.02 L 197.56 53.02 Z M 197.56 53.02" />
    <path fill="url(#gradient-49)" fill-rule="evenodd" d="M 242.48 49.99 C 242.47 49.89 242.42 49.79 242.33 49.74 L 234.67 45.17 C 234.58 45.12 234.47 45.12 234.39 45.17 L 226.37 49.92 C 226.27 50 226.23 50.08 226.23 50.17 C 226.23 50.17 226.25 59.63 226.25 59.63 C 226.25 59.73 226.31 59.83 226.39 59.88 L 234.06 64.45 C 234.1 64.48 234.15 64.49 234.2 64.49 C 234.23 64.49 234.25 64.49 234.28 64.48 C 234.3 64.47 234.32 64.46 234.34 64.45 L 242.36 59.7 C 242.45 59.65 242.5 59.55 242.5 59.45 L 242.48 49.99 L 242.48 49.99 Z M 242.48 49.99" />
    <path fill="#f6bc80" fill-rule="evenodd" d="M 234.53 45.76 L 241.62 49.99 L 238.69 51.73 L 234.17 54.41 L 227.48 50.41 L 227.08 50.17 L 234.53 45.76 L 234.53 45.76 Z M 234.53 45.76" />
    <path fill="#f58c20" fill-rule="evenodd" d="M 226.82 59.46 L 226.8 50.68 L 233.89 54.91 L 233.91 63.69 L 226.82 59.46 L 226.82 59.46 Z M 226.82 59.46" />
    <path fill="#f6bc80" fill-rule="evenodd" d="M 234.48 63.69 L 234.46 54.91 L 241.91 50.5 L 241.93 59.28 L 234.48 63.69 L 234.48 63.69 Z M 234.48 63.69" />
    <path fill="url(#gradient-50)" fill-rule="evenodd" d="M 188.34 55.84 C 188.34 55.75 188.29 55.67 188.22 55.63 L 181.41 51.74 C 181.33 51.69 181.23 51.69 181.15 51.74 L 174.03 55.78 C 173.93 55.85 173.9 55.92 173.9 55.99 C 173.9 56 173.92 64.04 173.92 64.04 C 173.92 64.13 173.97 64.21 174.05 64.26 L 180.86 68.15 C 180.9 68.17 180.94 68.18 180.99 68.18 C 181.01 68.18 181.03 68.18 181.05 68.17 C 181.08 68.16 181.1 68.15 181.12 68.15 L 188.24 64.1 C 188.32 64.06 188.37 63.98 188.37 63.89 L 188.34 55.84 L 188.34 55.84 Z M 188.34 55.84" />
    <path fill="#34a240" fill-rule="evenodd" d="M 181.28 52.24 L 187.58 55.84 L 184.97 57.32 L 180.96 59.6 L 175.02 56.2 L 174.66 56 L 181.28 52.24 L 181.28 52.24 Z M 181.28 52.24" />
    <path fill="#2d8034" fill-rule="evenodd" d="M 174.43 63.9 L 174.41 56.43 L 180.71 60.03 L 180.73 67.5 L 174.43 63.9 L 174.43 63.9 Z M 174.43 63.9" />
    <path fill="#34a240" fill-rule="evenodd" d="M 181.24 67.5 L 181.22 60.03 L 187.84 56.27 L 187.86 63.74 L 181.24 67.5 L 181.24 67.5 Z M 181.24 67.5" />
    <path fill="url(#gradient-51)" fill-rule="evenodd" d="M 215.19 28.58 C 215.19 28.48 215.13 28.38 215.05 28.33 L 207.38 23.76 C 207.3 23.71 207.19 23.71 207.1 23.76 L 199.08 28.51 C 198.98 28.6 198.94 28.68 198.94 28.76 C 198.94 28.76 198.97 38.22 198.97 38.22 C 198.97 38.32 199.02 38.42 199.11 38.47 L 206.77 43.04 C 206.82 43.07 206.86 43.08 206.91 43.08 C 206.94 43.08 206.96 43.08 206.99 43.07 C 207.02 43.06 207.04 43.05 207.06 43.04 L 215.07 38.29 C 215.16 38.24 215.22 38.14 215.22 38.04 L 215.19 28.58 L 215.19 28.58 Z M 215.19 28.58" />
    <path fill="#4c64ff" fill-rule="evenodd" d="M 207.24 24.35 L 214.34 28.58 L 211.4 30.32 L 206.89 33 L 200.2 29.01 L 199.79 28.76 L 207.24 24.35 L 207.24 24.35 Z M 207.24 24.35" />
    <path fill="#0000fd" fill-rule="evenodd" d="M 199.53 38.05 L 199.51 29.27 L 206.6 33.5 L 206.63 42.28 L 199.53 38.05 L 199.53 38.05 Z M 199.53 38.05" />
    <path fill="#4c63ff" fill-rule="evenodd" d="M 207.2 42.29 L 207.17 33.5 L 214.62 29.09 L 214.64 37.87 L 207.2 42.29 L 207.2 42.29 Z M 207.2 42.29" />
    <path fill="url(#gradient-52)" fill-rule="evenodd" d="M 259.83 59.92 C 259.83 59.8 259.77 59.7 259.68 59.65 L 251.45 54.8 C 251.36 54.75 251.24 54.75 251.14 54.8 L 242.53 59.84 C 242.42 59.93 242.38 60.01 242.38 60.11 C 242.38 60.11 242.41 70.14 242.41 70.14 C 242.41 70.25 242.47 70.35 242.56 70.41 L 250.79 75.25 C 250.84 75.28 250.89 75.3 250.94 75.3 C 250.97 75.3 251 75.29 251.02 75.29 C 251.05 75.28 251.08 75.27 251.1 75.25 L 259.71 70.21 C 259.8 70.16 259.86 70.06 259.86 69.95 L 259.83 59.92 L 259.83 59.92 Z M 259.83 59.92" />
    <path fill="#4c64ff" fill-rule="evenodd" d="M 251.29 55.43 L 258.92 59.92 L 255.76 61.76 L 250.92 64.6 L 243.73 60.36 L 243.3 60.11 L 251.29 55.43 L 251.29 55.43 Z M 251.29 55.43" />
    <path fill="#0000fd" fill-rule="evenodd" d="M 243.02 69.96 L 242.99 60.65 L 250.61 65.14 L 250.64 74.45 L 243.02 69.96 L 243.02 69.96 Z M 243.02 69.96" />
    <path fill="#4c63ff" fill-rule="evenodd" d="M 251.25 74.45 L 251.22 65.14 L 259.22 60.46 L 259.25 69.77 L 251.25 74.45 L 251.25 74.45 Z M 251.25 74.45" />
    <path fill="url(#gradient-53)" fill-rule="evenodd" d="M 282.79 47.62 C 282.79 47.51 282.74 47.41 282.65 47.36 L 274.99 42.75 C 274.9 42.7 274.79 42.7 274.7 42.75 L 266.69 47.54 C 266.58 47.63 266.54 47.71 266.54 47.8 C 266.54 47.8 266.57 57.33 266.57 57.33 C 266.57 57.44 266.62 57.54 266.71 57.59 L 274.37 62.2 C 274.42 62.23 274.47 62.24 274.52 62.24 C 274.54 62.24 274.57 62.24 274.59 62.23 C 274.62 62.22 274.64 62.21 274.66 62.2 L 282.68 57.41 C 282.77 57.36 282.82 57.26 282.82 57.15 L 282.79 47.62 L 282.79 47.62 Z M 282.79 47.62" />
    <path fill="#ff5a72" fill-rule="evenodd" d="M 274.84 43.35 L 281.94 47.62 L 279 49.37 L 274.49 52.07 L 267.8 48.04 L 267.4 47.8 L 274.84 43.35 L 274.84 43.35 Z M 274.84 43.35" />
    <path fill="#d4465b" fill-rule="evenodd" d="M 267.14 57.16 L 267.11 48.31 L 274.21 52.58 L 274.23 61.43 L 267.14 57.16 L 267.14 57.16 Z M 267.14 57.16" />
    <path fill="#eb4a62" fill-rule="evenodd" d="M 274.8 61.43 L 274.77 52.58 L 282.22 48.13 L 282.25 56.98 L 274.8 61.43 L 274.8 61.43 Z M 274.8 61.43" />
    <path fill="url(#gradient-54)" fill-rule="evenodd" d="M 183.5 38.14 C 183.5 38.05 183.45 37.97 183.37 37.93 L 176.56 34.04 C 176.48 33.99 176.39 33.99 176.31 34.04 L 169.18 38.08 C 169.09 38.15 169.06 38.22 169.06 38.3 C 169.06 38.3 169.08 46.34 169.08 46.34 C 169.08 46.43 169.13 46.51 169.2 46.56 L 176.02 50.45 C 176.06 50.47 176.1 50.48 176.14 50.48 C 176.17 50.48 176.19 50.48 176.21 50.47 C 176.23 50.46 176.25 50.46 176.27 50.45 L 183.4 46.4 C 183.48 46.36 183.52 46.28 183.52 46.19 L 183.5 38.14 L 183.5 38.14 Z M 183.5 38.14" />
    <path fill="#ff5a72" fill-rule="evenodd" d="M 176.43 34.54 L 182.74 38.14 L 180.13 39.62 L 176.12 41.9 L 170.17 38.5 L 169.81 38.3 L 176.43 34.54 L 176.43 34.54 Z M 176.43 34.54" />
    <path fill="#d4465b" fill-rule="evenodd" d="M 169.58 46.2 L 169.56 38.73 L 175.87 42.33 L 175.89 49.8 L 169.58 46.2 L 169.58 46.2 Z M 169.58 46.2" />
    <path fill="#eb4a62" fill-rule="evenodd" d="M 176.4 49.8 L 176.37 42.33 L 182.99 38.58 L 183.02 46.05 L 176.4 49.8 L 176.4 49.8 Z M 176.4 49.8" />
    <path fill="url(#gradient-55)" fill-rule="evenodd" d="M 404.53 22.51 C 404.53 22.37 404.46 22.25 404.35 22.18 L 394.43 16.25 C 394.32 16.18 394.17 16.18 394.06 16.25 L 383.69 22.42 C 383.55 22.53 383.5 22.63 383.5 22.75 C 383.5 22.75 383.54 35.02 383.54 35.02 C 383.54 35.16 383.61 35.28 383.72 35.35 L 393.64 41.28 C 393.7 41.32 393.76 41.33 393.82 41.33 C 393.85 41.33 393.88 41.33 393.92 41.32 C 393.95 41.31 393.98 41.3 394.01 41.28 L 404.38 35.11 C 404.5 35.05 404.57 34.92 404.57 34.78 L 404.53 22.51 L 404.53 22.51 Z M 404.53 22.51" />
    <path fill="#ffe900" fill-rule="evenodd" d="M 394.24 17.02 L 403.43 22.51 L 399.62 24.77 L 393.79 28.24 L 385.13 23.06 L 384.61 22.75 L 394.24 17.02 L 394.24 17.02 Z M 394.24 17.02" />
    <path fill="#eec800" fill-rule="evenodd" d="M 384.27 34.8 L 384.24 23.41 L 393.42 28.9 L 393.45 40.29 L 384.27 34.8 L 384.27 34.8 Z M 384.27 34.8" />
    <path fill="#ffe900" fill-rule="evenodd" d="M 394.19 40.3 L 394.16 28.9 L 403.79 23.17 L 403.83 34.57 L 394.19 40.3 L 394.19 40.3 Z M 394.19 40.3" />
    <path fill="url(#gradient-56)" fill-rule="evenodd" d="M 362.85 61.18 C 362.85 61.06 362.79 60.95 362.69 60.89 L 354.06 55.74 C 353.96 55.68 353.83 55.68 353.73 55.74 L 344.7 61.09 C 344.58 61.19 344.54 61.28 344.54 61.38 C 344.54 61.38 344.57 72.04 344.57 72.04 C 344.57 72.16 344.63 72.27 344.73 72.32 L 353.36 77.48 C 353.42 77.51 353.47 77.52 353.53 77.52 C 353.55 77.52 353.58 77.52 353.61 77.51 C 353.64 77.5 353.66 77.49 353.69 77.48 L 362.72 72.12 C 362.82 72.06 362.88 71.95 362.88 71.83 L 362.85 61.18 L 362.85 61.18 Z M 362.85 61.18" />
    <path fill="#943799" fill-rule="evenodd" d="M 353.89 56.41 L 361.89 61.18 L 358.58 63.14 L 353.5 66.15 L 345.95 61.65 L 345.5 61.38 L 353.89 56.41 L 353.89 56.41 Z M 353.89 56.41" />
    <path fill="#7f027f" fill-rule="evenodd" d="M 345.21 71.85 L 345.18 61.96 L 353.18 66.72 L 353.2 76.62 L 345.21 71.85 L 345.21 71.85 Z M 345.21 71.85" />
    <path fill="#943799" fill-rule="evenodd" d="M 353.84 76.62 L 353.82 66.72 L 362.21 61.75 L 362.24 71.65 L 353.84 76.62 L 353.84 76.62 Z M 353.84 76.62" />
    <path fill="url(#gradient-57)" fill-rule="evenodd" d="M 378.97 32.75 C 378.97 32.62 378.9 32.5 378.79 32.44 L 368.87 26.76 C 368.76 26.69 368.62 26.69 368.5 26.76 L 358.13 32.66 C 358 32.77 357.95 32.87 357.95 32.98 C 357.95 32.98 357.98 44.73 357.98 44.73 C 357.98 44.86 358.05 44.98 358.16 45.05 L 368.08 50.73 C 368.14 50.76 368.2 50.78 368.27 50.78 C 368.3 50.78 368.33 50.78 368.36 50.77 C 368.4 50.76 368.42 50.74 368.45 50.73 L 378.83 44.82 C 378.94 44.76 379.01 44.64 379.01 44.51 L 378.97 32.75 L 378.97 32.75 Z M 378.97 32.75" />
    <path fill="#ff5a72" fill-rule="evenodd" d="M 368.69 27.49 L 377.87 32.75 L 374.07 34.92 L 368.23 38.24 L 359.57 33.28 L 359.05 32.98 L 368.69 27.49 L 368.69 27.49 Z M 368.69 27.49" />
    <path fill="#d4465b" fill-rule="evenodd" d="M 358.71 44.52 L 358.69 33.61 L 367.86 38.87 L 367.89 49.78 L 358.71 44.52 L 358.71 44.52 Z M 358.71 44.52" />
    <path fill="#eb4a62" fill-rule="evenodd" d="M 368.63 49.79 L 368.6 38.87 L 378.24 33.38 L 378.27 44.3 L 368.63 49.79 L 368.63 49.79 Z M 368.63 49.79" />
    <path fill="url(#gradient-58)" fill-rule="evenodd" d="M 344.49 43.7 C 344.48 43.58 344.42 43.47 344.33 43.41 L 335.69 38.26 C 335.59 38.2 335.47 38.2 335.37 38.26 L 326.33 43.62 C 326.22 43.71 326.17 43.8 326.17 43.9 C 326.17 43.9 326.2 54.56 326.2 54.56 C 326.2 54.68 326.26 54.79 326.36 54.84 L 335 60 C 335.05 60.03 335.1 60.04 335.16 60.04 C 335.19 60.04 335.21 60.04 335.24 60.03 C 335.27 60.02 335.3 60.01 335.32 60 L 344.36 54.64 C 344.46 54.58 344.52 54.47 344.52 54.36 L 344.49 43.7 L 344.49 43.7 Z M 344.49 43.7" />
    <path fill="#ffe900" fill-rule="evenodd" d="M 335.53 38.93 L 343.52 43.7 L 340.21 45.66 L 335.13 48.67 L 327.59 44.17 L 327.13 43.9 L 335.53 38.93 L 335.53 38.93 Z M 335.53 38.93" />
    <path fill="#eec800" fill-rule="evenodd" d="M 326.84 54.37 L 326.81 44.48 L 334.81 49.24 L 334.84 59.14 L 326.84 54.37 L 326.84 54.37 Z M 326.84 54.37" />
    <path fill="#ffe900" fill-rule="evenodd" d="M 335.48 59.14 L 335.45 49.24 L 343.84 44.27 L 343.87 54.17 L 335.48 59.14 L 335.48 59.14 Z M 335.48 59.14" />
    <path fill="url(#gradient-59)" fill-rule="evenodd" d="M 386.1 55.73 C 386.1 55.61 386.04 55.5 385.94 55.45 L 377.31 50.29 C 377.21 50.23 377.08 50.23 376.98 50.29 L 367.95 55.65 C 367.83 55.74 367.79 55.83 367.79 55.93 C 367.79 55.94 367.82 66.59 367.82 66.59 C 367.82 66.71 367.88 66.82 367.98 66.88 L 376.61 72.03 C 376.67 72.06 376.72 72.07 376.77 72.07 C 376.8 72.07 376.83 72.07 376.86 72.06 C 376.89 72.05 376.91 72.04 376.94 72.03 L 385.97 66.67 C 386.07 66.62 386.13 66.51 386.13 66.39 L 386.1 55.73 L 386.1 55.73 Z M 386.1 55.73" />
    <path fill="#f6bc80" fill-rule="evenodd" d="M 377.14 50.96 L 385.14 55.73 L 381.83 57.69 L 376.74 60.71 L 369.2 56.21 L 368.75 55.94 L 377.14 50.96 L 377.14 50.96 Z M 377.14 50.96" />
    <path fill="#f58c20" fill-rule="evenodd" d="M 368.46 66.4 L 368.43 56.51 L 376.42 61.28 L 376.45 71.17 L 368.46 66.4 L 368.46 66.4 Z M 368.46 66.4" />
    <path fill="#f6bc80" fill-rule="evenodd" d="M 377.09 71.17 L 377.07 61.28 L 385.46 56.3 L 385.49 66.2 L 377.09 71.17 L 377.09 71.17 Z M 377.09 71.17" />
    <path fill="url(#gradient-60)" fill-rule="evenodd" d="M 406.13 44.27 C 406.13 44.17 406.08 44.08 405.99 44.03 L 398.31 39.64 C 398.22 39.59 398.11 39.59 398.03 39.64 L 390 44.2 C 389.89 44.28 389.85 44.36 389.85 44.44 C 389.85 44.44 389.88 53.51 389.88 53.51 C 389.88 53.61 389.93 53.7 390.02 53.75 L 397.7 58.14 C 397.74 58.16 397.79 58.18 397.84 58.18 C 397.86 58.18 397.89 58.17 397.91 58.17 C 397.94 58.16 397.96 58.15 397.98 58.14 L 406.02 53.58 C 406.1 53.53 406.16 53.44 406.16 53.34 L 406.13 44.27 L 406.13 44.27 Z M 406.13 44.27" />
    <path fill="#34a240" fill-rule="evenodd" d="M 398.17 40.21 L 405.28 44.27 L 402.33 45.94 L 397.81 48.5 L 391.11 44.67 L 390.71 44.44 L 398.17 40.21 L 398.17 40.21 Z M 398.17 40.21" />
    <path fill="#2d8034" fill-rule="evenodd" d="M 390.45 53.35 L 390.42 44.93 L 397.53 48.99 L 397.55 57.41 L 390.45 53.35 L 390.45 53.35 Z M 390.45 53.35" />
    <path fill="#34a240" fill-rule="evenodd" d="M 398.12 57.41 L 398.1 48.99 L 405.56 44.76 L 405.59 53.18 L 398.12 57.41 L 398.12 57.41 Z M 398.12 57.41" />
    <path fill="url(#gradient-61)" fill-rule="evenodd" d="M 355.34 31.6 C 355.34 31.48 355.28 31.37 355.19 31.32 L 346.55 26.16 C 346.45 26.1 346.33 26.1 346.23 26.16 L 337.19 31.52 C 337.08 31.61 337.03 31.7 337.03 31.8 C 337.03 31.81 337.06 42.46 337.06 42.46 C 337.06 42.58 337.12 42.69 337.22 42.75 L 345.86 47.9 C 345.91 47.93 345.96 47.94 346.02 47.94 C 346.05 47.94 346.07 47.94 346.1 47.93 C 346.13 47.92 346.16 47.91 346.18 47.9 L 355.22 42.54 C 355.32 42.49 355.38 42.38 355.38 42.26 L 355.34 31.6 L 355.34 31.6 Z M 355.34 31.6" />
    <path fill="#4c64ff" fill-rule="evenodd" d="M 346.39 26.83 L 354.38 31.6 L 351.07 33.56 L 345.99 36.58 L 338.45 32.08 L 337.99 31.81 L 346.39 26.83 L 346.39 26.83 Z M 346.39 26.83" />
    <path fill="#0000fd" fill-rule="evenodd" d="M 337.7 42.27 L 337.67 32.38 L 345.67 37.15 L 345.7 47.04 L 337.7 42.27 L 337.7 42.27 Z M 337.7 42.27" />
    <path fill="#4c63ff" fill-rule="evenodd" d="M 346.34 47.04 L 346.31 37.15 L 354.7 32.17 L 354.73 42.07 L 346.34 47.04 L 346.34 47.04 Z M 346.34 47.04" />
    <path fill="url(#gradient-62)" fill-rule="evenodd" d="M 405.66 66.92 C 405.66 66.79 405.6 66.68 405.49 66.62 L 396.22 61.15 C 396.11 61.09 395.98 61.09 395.87 61.15 L 386.17 66.83 C 386.04 66.93 385.99 67.03 385.99 67.13 C 385.99 67.14 386.02 78.44 386.02 78.44 C 386.02 78.56 386.09 78.68 386.2 78.74 L 395.47 84.2 C 395.53 84.24 395.59 84.25 395.65 84.25 C 395.68 84.25 395.71 84.25 395.74 84.24 C 395.77 84.23 395.8 84.22 395.82 84.2 L 405.53 78.52 C 405.63 78.46 405.7 78.35 405.7 78.22 L 405.66 66.92 L 405.66 66.92 Z M 405.66 66.92" />
    <path fill="#4c64ff" fill-rule="evenodd" d="M 396.04 61.86 L 404.63 66.92 L 401.08 69 L 395.61 72.2 L 387.51 67.42 L 387.03 67.14 L 396.04 61.86 L 396.04 61.86 Z M 396.04 61.86" />
    <path fill="#0000fd" fill-rule="evenodd" d="M 386.71 78.24 L 386.68 67.74 L 395.27 72.8 L 395.3 83.29 L 386.71 78.24 L 386.71 78.24 Z M 386.71 78.24" />
    <path fill="#4c63ff" fill-rule="evenodd" d="M 395.99 83.3 L 395.96 72.8 L 404.97 67.52 L 405 78.02 L 395.99 83.3 L 395.99 83.3 Z M 395.99 83.3" />
    <path fill="url(#gradient-63)" fill-rule="evenodd" d="M 319.63 42.38 C 319.63 42.27 319.57 42.18 319.49 42.13 L 311.81 37.75 C 311.72 37.7 311.61 37.7 311.52 37.75 L 303.49 42.31 C 303.39 42.39 303.35 42.46 303.35 42.55 C 303.35 42.55 303.37 51.62 303.37 51.62 C 303.37 51.72 303.43 51.81 303.52 51.86 L 311.19 56.24 C 311.24 56.27 311.29 56.28 311.34 56.28 C 311.36 56.28 311.39 56.28 311.41 56.27 C 311.44 56.26 311.46 56.26 311.48 56.24 L 319.51 51.69 C 319.6 51.64 319.66 51.54 319.66 51.44 L 319.63 42.38 L 319.63 42.38 Z M 319.63 42.38" />
    <path fill="#ff5a72" fill-rule="evenodd" d="M 311.66 38.32 L 318.77 42.38 L 315.83 44.05 L 311.31 46.61 L 304.61 42.78 L 304.2 42.55 L 311.66 38.32 L 311.66 38.32 Z M 311.66 38.32" />
    <path fill="#eb4a62" fill-rule="evenodd" d="M 311.62 55.52 L 311.6 47.1 L 319.06 42.86 L 319.08 51.28 L 311.62 55.52 L 311.62 55.52 Z M 311.62 55.52" />
</svg>