<?xml version="1.0" encoding="utf-8"?>
<!-- Generator: Avocode 2.5.3 - http://avocode.com -->
<svg height="57" width="75" xmlns:xlink="http://www.w3.org/1999/xlink" xmlns="http://www.w3.org/2000/svg" viewBox="0 0 75 57">
    <path fill="#527f99" fill-rule="evenodd" d="M 9.38 0 L 20.27 0 L 20.27 4.14 L 9.38 4.14 L 9.38 0 Z M 9.38 0" />
    <path fill="#2c424f" fill-rule="evenodd" d="M 73.89 7.82 C 73.89 5.81 72.33 4.14 70.31 4.14 L 4.58 4.14 C 2.63 4.14 1 5.75 1 7.82 L 1 14.91 L 73.83 14.91 L 73.83 7.82 L 73.89 7.82 Z M 73.89 7.82" />
    <path fill="#2c424f" fill-rule="evenodd" d="M 1 51.03 C 1 53.01 2.56 54.67 4.58 54.67 L 70.31 54.67 C 72.27 54.67 73.89 53.08 73.89 51.03 L 73.89 48.04 L 1 48.04 L 1 51.03 L 1 51.03 Z M 1 51.03" />
    <path fill="#bbc2c6" fill-rule="evenodd" d="M 1 14.08 L 73.89 14.08 L 73.89 48.04 L 1 48.04 L 1 14.08 Z M 1 14.08" />
    <path fill="#e65336" fill-rule="evenodd" d="M 11.05 9.11 L 16.08 9.11 L 16.08 10.77 L 11.05 10.77 L 11.05 9.11 Z M 11.05 9.11" />
    <path fill="#edf0f2" fill-rule="evenodd" d="M 37.45 50.53 C 48.32 50.53 57.14 41.81 57.14 31.06 C 57.14 20.31 48.32 11.6 37.45 11.6 C 26.57 11.6 17.76 20.31 17.76 31.06 C 17.76 41.81 26.57 50.53 37.45 50.53 Z M 37.45 50.53" />
    <path fill="#2c424f" fill-rule="evenodd" d="M 37.03 49.7 C 47.21 49.7 55.46 41.54 55.46 31.48 C 55.46 21.41 47.21 13.25 37.03 13.25 C 26.85 13.25 18.6 21.41 18.6 31.48 C 18.6 41.54 26.85 49.7 37.03 49.7 Z M 37.03 49.7" />
    <path fill="#527f99" fill-rule="evenodd" d="M 37.03 43.07 C 43.51 43.07 48.76 37.88 48.76 31.48 C 48.76 25.07 43.51 19.88 37.03 19.88 C 30.55 19.88 25.3 25.07 25.3 31.48 C 25.3 37.88 30.55 43.07 37.03 43.07 Z M 37.03 43.07" />
    <path fill="#bbc2c6" fill-rule="evenodd" d="M 37.03 43.07 C 43.51 43.07 48.76 37.88 48.76 31.48 C 48.76 25.07 43.51 19.88 37.03 19.88 C 30.55 19.88 25.3 25.07 25.3 31.48 C 25.3 37.88 30.55 43.07 37.03 43.07 Z M 37.03 43.07" />
</svg>