<?xml version="1.0" encoding="utf-8"?>
<!-- Generator: Avocode 2.5.3 - http://avocode.com -->
<svg height="51" width="144" xmlns:xlink="http://www.w3.org/1999/xlink" xmlns="http://www.w3.org/2000/svg" viewBox="0 0 144 51">
    <path stroke-linejoin="miter" stroke-linecap="butt" stroke-width="1" stroke="#979797" fill="#ffffff" fill-rule="evenodd" d="M 17.27 2.49 L 18.23 1.76 L 21.14 1 L 138.03 1 L 141.05 1.82 L 141.94 2.53 L 143 5.01 L 143 45.99 L 141.96 48.45 L 141.05 49.17 L 138.03 50 L 21.14 50 L 18.12 49.18 L 17.19 48.43 L 16.17 45.99 L 16.17 42 L 0 38 L 16.17 30 L 16.17 5.01 L 17.27 2.49 Z M 17.27 2.49" />
    <text font-size="15" font-family="DodecaBasic" fill="#4a4a4a" y="39" x="60">
        <tspan>view color 
details</tspan>
    </text>
    <path fill="#000000" fill-rule="evenodd" d="M 55.97 18.71 C 55.91 18.54 55.79 18.39 55.65 18.3 L 52.08 16.36 C 51.75 16.19 51.31 16.3 51.14 16.63 L 48.28 21.83 L 49.07 16.45 C 49.13 16.04 48.83 15.66 48.42 15.6 L 44.5 15.01 C 44.09 14.95 43.7 15.24 43.64 15.65 L 43.08 19.36 L 42.58 16.1 C 42.52 15.69 42.11 15.39 41.7 15.48 L 37.81 16.13 C 37.39 16.19 37.1 16.6 37.19 17.01 L 37.92 21.6 L 35.95 17.89 C 35.74 17.51 35.3 17.39 34.92 17.57 L 31.4 19.39 C 31.02 19.6 30.9 20.04 31.08 20.42 L 40.64 38.3 L 40.66 38.42 C 40.69 38.63 40.81 38.8 40.99 38.92 L 41.34 39.6 C 41.55 39.98 41.99 40.1 42.37 39.92 L 44.59 38.74 C 44.64 38.77 44.73 38.77 44.79 38.77 C 44.97 38.77 45.15 38.71 45.26 38.57 C 45.44 38.54 45.59 38.45 45.68 38.3 C 45.82 38.21 45.94 38.1 46 37.92 C 46.24 37.68 46.33 37.33 46.15 37.01 L 55.88 19.22 C 56 19.1 56.03 18.89 55.97 18.71 L 55.97 18.71 Z M 44 15.72 C 44.03 15.48 44.26 15.3 44.5 15.33 L 48.42 15.92 C 48.66 15.95 48.83 16.19 48.81 16.42 L 48.69 17.1 L 43.91 16.39 L 44 15.72 Z M 43.41 19.54 L 48.19 20.24 L 48.07 21.04 L 43.29 20.33 L 43.41 19.54 Z M 43.79 23.6 L 47.06 24.07 L 46.68 24.74 L 43.91 24.33 L 43.58 24.27 L 42.7 24.16 L 42.73 23.98 L 42.82 23.45 L 43.79 23.6 Z M 41.43 28.16 L 41.82 28.1 L 41.73 28.69 L 41.7 28.77 L 41.43 28.83 L 39.78 29.1 L 39.49 29.15 L 39.37 28.51 L 41.43 28.16 Z M 38.87 25.36 L 38.84 25.19 L 38.75 24.63 L 39.49 24.51 L 42.41 24.04 L 42.29 24.8 L 39.84 25.19 L 39.51 25.24 L 38.87 25.36 Z M 41.7 31.1 L 43.11 31.3 L 42.85 31.8 L 42.76 31.95 L 42.58 31.95 L 42.29 31.89 L 41.58 31.77 L 41.7 31.1 Z M 42.41 28.01 L 42.17 27.98 L 42.26 27.33 L 44.47 27.66 L 45.09 27.75 L 44.74 28.36 L 44.59 28.33 L 44.26 28.28 L 42.41 28.01 Z M 42.88 19.95 L 42.93 20.39 L 42.88 20.74 L 38.22 21.51 L 38.1 20.71 L 42.88 19.95 Z M 37.6 17.6 L 37.48 16.92 C 37.45 16.68 37.6 16.45 37.83 16.42 L 41.72 15.77 C 41.96 15.75 42.2 15.89 42.23 16.13 L 42.34 16.8 L 37.6 17.6 Z M 31.38 20.27 C 31.26 20.07 31.35 19.8 31.55 19.69 L 35.03 17.83 C 35.24 17.71 35.5 17.8 35.62 18.01 L 35.95 18.63 L 31.67 20.89 L 31.38 20.27 Z M 33.2 23.68 L 37.48 21.42 L 37.86 22.13 L 33.59 24.39 L 33.2 23.68 Z M 35.06 27.18 L 38.51 25.33 L 38.63 26.1 L 35.39 27.83 L 35.06 27.18 Z M 36.92 30.62 L 39.22 29.42 L 39.34 30.13 L 37.25 31.24 L 36.92 30.62 Z M 39.04 34.63 L 38.72 34.01 L 39.84 33.42 L 39.96 34.16 L 39.04 34.63 Z M 40.1 32.95 L 39.99 32.24 L 41.19 32.04 L 41.11 32.71 L 41.11 32.8 L 40.93 32.83 L 40.1 32.95 Z M 40.84 37.54 C 40.78 37.48 40.75 37.39 40.75 37.3 L 40.75 37.21 L 40.75 37.12 L 40.81 36.71 C 40.84 36.74 40.87 36.74 40.9 36.77 L 41.31 37 L 43.2 38.03 L 41.11 37.71 C 41.02 37.71 40.93 37.63 40.84 37.54 L 40.84 37.54 Z M 41.23 38.71 C 41.11 38.65 41.02 38.54 40.99 38.39 L 40.96 38.21 L 40.93 38.01 C 40.99 38.04 41.05 38.04 41.11 38.07 L 43.58 38.45 L 41.49 38.77 C 41.4 38.77 41.31 38.74 41.23 38.71 L 41.23 38.71 Z M 42.23 39.65 C 42.02 39.77 41.76 39.68 41.64 39.48 L 41.43 39.1 L 41.55 39.1 L 44.12 38.68 L 42.23 39.65 Z M 55.65 19.1 L 46.06 36.62 L 46 36.74 L 45.94 36.83 L 45.83 37.07 L 45.71 37.3 L 45.62 37.48 L 45.32 38.04 L 45.24 38.12 L 45.15 38.27 L 45.15 38.27 C 45.03 38.45 44.79 38.54 44.62 38.42 L 44.08 38.15 L 41.64 36.83 L 41.05 36.51 C 40.99 36.48 40.93 36.42 40.9 36.33 C 40.84 36.24 40.84 36.13 40.87 36.04 C 40.87 36.01 40.9 35.98 40.9 35.95 L 40.99 35.8 L 41.46 34.95 L 42.7 32.65 L 42.79 32.51 L 43.08 31.98 L 43.11 31.92 L 43.23 31.71 L 43.32 31.57 L 43.46 31.3 L 44.73 28.98 L 45.09 28.33 L 45.44 27.71 L 47.01 24.8 L 47.39 24.13 L 48.19 22.68 L 51.43 16.77 C 51.49 16.66 51.63 16.57 51.78 16.57 C 51.84 16.57 51.93 16.6 51.99 16.63 L 55.56 18.57 C 55.65 18.63 55.73 18.71 55.76 18.8 C 55.79 18.89 55.71 19.01 55.65 19.1 L 55.65 19.1 Z M 55.65 19.1" />
    <path fill="#000000" fill-rule="evenodd" d="M 46.57 31.56 L 45.71 31.1 L 45.39 30.92 L 44.63 30.5 L 44.58 30.48 L 44.34 30.89 L 44.24 31.1 L 44.03 31.49 L 43.87 31.8 L 42.9 33.56 L 44.37 34.36 L 44.61 34.49 L 44.63 34.51 L 45.6 35.03 L 45.78 35.13 L 45.91 35.21 L 45.97 35.24 L 45.99 35.19 L 46.02 35.16 L 46.07 35.08 L 46.44 34.44 L 47.64 32.24 L 47.67 32.19 L 46.83 31.69 L 46.57 31.56 Z M 46.49 34.05 L 46.1 34.77 L 46.05 34.85 L 45.94 35.03 L 45.78 34.95 L 45.47 34.8 L 44.82 34.43 L 44.74 34.38 L 43.06 33.5 L 44.03 31.77 L 44.19 31.51 L 44.42 31.1 L 44.48 30.92 L 44.61 30.66 L 45.31 31.04 L 45.42 31.1 L 46.54 31.72 L 46.81 31.87 L 47.49 32.23 L 46.49 34.05 Z M 46.49 34.05" />
    <path fill="#000000" fill-rule="evenodd" d="M 46.32 32.89 C 46.3 32.89 46.3 32.91 46.3 32.94 L 45.52 34.55 L 45.3 35.02 C 45.3 35.02 45.3 35.02 45.3 35.04 C 45.27 35.1 45.3 35.18 45.34 35.21 L 45.34 35.21 C 45.37 35.21 45.37 35.24 45.39 35.24 C 45.44 35.24 45.47 35.21 45.49 35.15 L 45.56 34.99 L 46.2 33.63 L 46.47 33.05 C 46.49 33 46.47 32.91 46.42 32.86 C 46.39 32.86 46.35 32.86 46.32 32.89 L 46.32 32.89 Z M 46.32 32.89" />
    <path fill="#000000" fill-rule="evenodd" d="M 45.29 37.02 C 45.29 37.82 44.1 37.82 44.1 37.02 C 44.1 36.23 45.29 36.23 45.29 37.02" />
</svg>