<?xml version="1.0" encoding="utf-8"?>
<!-- Generator: Avocode 2.5.3 - http://avocode.com -->
<svg height="25" width="25" xmlns:xlink="http://www.w3.org/1999/xlink" xmlns="http://www.w3.org/2000/svg" viewBox="0 0 25 25">
    <path fill="#000000" fill-rule="evenodd" d="M 24.99 22.2 L 2.8 22.2 L 2.8 0.01 L 3.58 0.01 L 3.58 21.42 L 24.99 21.42 L 24.99 22.2 Z M 24.99 22.2" />
    <path fill="#000000" fill-rule="evenodd" d="M 0.01 3.5 L 3.19 3.5 L 3.19 4.28 L 0.01 4.28 L 0.01 3.5 Z M 0.01 3.5" />
    <path fill="#000000" fill-rule="evenodd" d="M 20.72 21.81 L 21.5 21.81 L 21.5 24.99 L 20.72 24.99 L 20.72 21.81 Z M 20.72 21.81" />
    <path fill="#000000" fill-rule="evenodd" d="M 21.5 18.77 L 20.72 18.77 L 20.72 4.28 L 6.23 4.28 L 6.23 3.5 L 21.5 3.5 L 21.5 18.77 Z M 21.5 18.77" />
    <path fill="#000000" fill-rule="evenodd" d="M 15.25 15.45 L 12.99 12.37 C 14.49 10.8 14.7 8.29 13.37 6.48 C 12.53 5.34 11.25 4.69 9.86 4.69 C 8.9 4.69 7.98 5 7.22 5.6 C 5.28 7.1 4.89 9.93 6.35 11.92 C 7.19 13.06 8.47 13.72 9.86 13.72 C 10.69 13.72 11.47 13.47 12.17 13.03 L 14.41 16.1 L 15.25 15.45 Z M 7.18 11.27 C 6.07 9.76 6.37 7.6 7.84 6.45 C 8.43 6 9.13 5.76 9.86 5.76 C 10.92 5.76 11.9 6.26 12.54 7.13 C 13.65 8.65 13.35 10.81 11.88 11.95 C 11.29 12.41 10.6 12.65 9.86 12.65 C 8.8 12.65 7.82 12.15 7.18 11.27 L 7.18 11.27 Z M 7.18 11.27" />
</svg>